<svg width="113" height="55" viewBox="0 0 113 55" fill="none" xmlns="http://www.w3.org/2000/svg">
<g clip-path="url(#clip0_471_3196)">
<path fill-rule="evenodd" clip-rule="evenodd" d="M90.0224 0.610404C88.5783 1.89076 86.3153 5.86584 84.7074 10.0047C84.0077 11.8061 83.8886 12.0294 83.6801 11.8508C82.2211 10.5704 79.318 11.1659 77.4123 13.1311C77.0848 13.4736 76.7126 13.9351 76.6084 14.1584C76.4893 14.3668 76.1617 14.7539 75.864 15.0219C75.3727 15.4537 75.3429 15.5281 75.462 15.9896C75.6556 16.6894 75.5216 17.3146 75.2089 17.1807C74.916 17.099 74.6174 17.0393 74.3156 17.002C73.7201 16.9424 73.6606 16.9573 73.7648 17.2104C74.0774 18.0144 74.1668 18.9076 74.003 19.5181C73.6606 20.7537 72.3653 21.4981 72.2462 20.5155C72.142 19.6669 73.8839 15.409 75.1047 13.4884C75.6109 12.6994 75.6407 12.5952 75.4322 12.3867C75.1494 12.089 72.9757 11.955 72.1569 12.1783C71.6209 12.3272 71.5614 12.3123 71.2338 11.9252C70.6979 11.285 70.1321 11.1213 68.8667 11.1957C66.961 11.3148 64.8618 12.6547 64.0281 14.2775C63.8643 14.6348 63.5219 15.0219 63.2837 15.1559C62.9562 15.3345 62.8668 15.4834 62.9264 15.6919C62.9711 15.8407 63.0306 16.8531 63.0455 17.925C63.0604 19.7414 63.0902 19.9349 63.4772 20.7389C64.043 21.8852 64.698 22.3319 65.8146 22.3319C66.8866 22.3319 67.9883 21.7215 68.7476 20.6793L69.3133 19.9349L69.3877 20.5155C69.5664 21.781 70.3406 22.4212 71.5316 22.2872C72.4249 22.1979 74.1519 21.3939 74.9409 20.7091L75.4471 20.2624L75.9533 21.0217C76.5786 21.9597 77.2932 22.3616 78.3354 22.3616C79.6306 22.3468 80.5239 21.9448 81.5661 20.9026C82.0871 20.3816 82.5338 20.0391 82.5635 20.1433C82.5933 20.2476 82.6529 20.5007 82.6975 20.7091C82.8166 21.2897 83.4122 22.0788 83.9035 22.3319C84.633 22.7041 86.2706 22.6147 87.2681 22.1532C88.1912 21.7364 89.1738 20.8431 89.5609 20.0838C90.0671 19.131 89.7693 17.7017 88.9653 17.1807C88.5187 16.8829 87.417 16.7489 87.1044 16.9573C86.9257 17.0764 86.9257 17.136 87.1341 17.3742C87.5659 17.8506 87.7594 18.9523 87.551 19.8009C87.3128 20.7835 86.5833 21.5875 85.9431 21.5875C85.1987 21.5875 85.1392 21.2748 85.4667 19.2054C85.7793 17.3444 85.958 16.8382 86.6428 15.9301C86.9853 15.4685 87.0299 15.275 87.0299 14.2775C87.0299 13.1609 87.0448 13.1311 88.2507 10.7044C89.7395 7.7566 91.0199 5.92539 92.9553 3.97507C94.6228 2.30763 94.6376 2.2183 93.7146 1.19103C93.0595 0.476413 92.1216 0 91.3176 0C90.8263 0 90.5881 0.104215 90.0224 0.610404ZM70.2066 12.2081C70.415 12.4314 70.4597 12.6696 70.4001 13.2354C70.2959 14.2477 70.0875 14.4859 69.3729 14.3668C68.9262 14.2924 68.7625 14.3371 68.5094 14.605C67.7352 15.4388 68.4349 16.5405 69.6557 16.3916C69.9386 16.3469 69.879 16.6 69.2984 17.7464C68.5838 19.1607 67.5268 20.7686 67.0503 21.1408C66.1571 21.8406 65.5615 21.2302 65.7253 19.786C65.8444 18.5503 66.6781 17.0913 67.2588 17.0467C67.2737 17.0467 67.2141 16.7191 67.1248 16.332C66.9908 15.6919 67.0206 15.543 67.4225 14.6944C67.9883 13.4884 68.688 12.5654 69.2835 12.2081C69.8642 11.8508 69.879 11.8508 70.2066 12.2081ZM82.8018 12.1932C83.0697 12.4016 83.1591 12.6249 83.1591 13.0716C83.1591 13.9053 82.8762 14.1882 82.1765 14.0691C81.7298 13.9946 81.5512 14.0393 81.313 14.2775C80.6281 14.9624 81.1939 16.0789 82.2062 16.0789C82.4444 16.0789 82.638 16.1534 82.638 16.2427C82.638 16.4511 81.3576 18.997 80.9557 19.5776C80.2261 20.6495 79.2733 21.4386 78.7076 21.4386C77.9185 21.4386 77.7548 19.6669 78.4098 18.327C78.6331 17.9102 78.9607 17.4486 79.1393 17.3295C79.4371 17.136 79.4669 17.0169 79.4073 16.1832C79.3478 15.3197 79.3775 15.2006 79.8837 14.3668C80.6728 13.0716 81.1194 12.5207 81.6554 12.1932C82.236 11.8359 82.37 11.8359 82.8018 12.1932Z" fill="white"/>
<path fill-rule="evenodd" clip-rule="evenodd" d="M52.9366 1.89054C51.6413 2.00964 49.0657 2.56049 47.83 2.99224C44.6142 4.12372 42.6788 5.83583 42.3513 7.86059C42.2024 8.76875 42.7681 10.4362 43.4827 11.1806C44.0336 11.7612 44.4951 11.925 44.5845 11.5677C44.6142 11.4784 44.7184 11.121 44.8078 10.7786C45.3884 8.60498 49.6315 6.25269 54.47 5.44875C57.4327 4.94256 59.3533 5.00211 61.0951 5.65718C62.0629 6.01449 63.1943 6.96731 63.4028 7.59261C63.5517 7.97969 63.5219 8.06902 63.1943 8.32211C62.837 8.60498 62.8221 8.63476 63.0455 9.06651C63.4325 9.79602 63.3432 10.1831 62.6882 10.7786C61.8693 11.523 60.321 12.2674 58.3409 12.8629C56.5543 13.3989 53.6661 13.9646 53.5172 13.8009C53.3385 13.6371 55.6313 10.3915 56.8074 9.12606C57.4178 8.45611 57.924 7.83081 57.924 7.71171C57.924 7.07153 56.5246 5.82094 55.4824 5.56785C55.1102 5.47852 54.9762 5.56785 54.0681 6.50579C53.4007 7.22944 52.7744 7.98992 52.1922 8.78364C50.8969 10.5851 50.5247 10.9871 49.9292 11.1955C49.423 11.389 49.4081 11.389 49.4975 12.059C49.5719 12.6843 49.423 13.7562 49.2295 13.9497C49.1848 14.0093 48.8573 13.9349 48.5149 13.8009C48.1724 13.6669 47.8747 13.5627 47.8598 13.5924C47.7556 13.7115 47.3536 15.0961 47.3536 15.3492C47.3536 15.7363 47.7407 16.4807 48.0236 16.6296C48.2022 16.7338 48.2022 16.8678 47.9938 17.6419C47.6365 18.9819 47.6662 20.6195 48.0384 21.4533C48.4255 22.2721 49.2295 23.1058 50.0334 23.5227C50.7629 23.8949 50.8225 23.8949 50.6289 23.5227C50.3014 22.9123 50.1823 21.7064 50.3312 20.7833C50.5843 19.3392 50.748 18.9819 51.4478 18.297C51.8349 17.9248 52.1177 17.508 52.1177 17.3144C52.1177 17.0315 52.222 16.9869 53.1301 16.8976C54.0532 16.8082 55.4973 16.5402 57.6412 16.0638C58.3855 15.9001 58.5344 15.9001 58.8768 16.1234C59.3681 16.4509 59.6808 16.9273 59.7999 17.5377C59.8892 17.9546 59.8446 18.029 59.3533 18.3268C59.0108 18.5203 58.8322 18.7288 58.8768 18.8479C58.9215 18.967 58.996 19.3689 59.0555 19.7709L59.1448 20.4855L58.1622 21.3937C56.9712 22.5252 55.2889 23.3738 53.2343 23.9247C51.9391 24.2522 51.4329 24.3117 49.3635 24.3266C46.7581 24.3415 45.0609 24.0735 43.9889 23.4631C42.7383 22.7634 42.7235 21.6766 43.9592 21.2895C44.3611 21.1704 44.644 21.0066 44.6291 20.9322C44.5547 20.7089 43.7507 20.5451 43.185 20.6344C40.7136 21.0364 39.5672 22.9718 40.5647 25.0859C41.458 27.0064 43.9294 27.9593 47.5769 27.7955C52.4899 27.5722 57.2392 25.6665 60.187 22.7485C60.7081 22.2274 61.4078 21.6766 61.7651 21.5277C62.3011 21.2895 62.3755 21.2002 62.2862 20.9322C62.2117 20.7535 62.182 19.9496 62.2117 19.1307C62.2564 17.2549 62.048 16.6147 61.0505 15.7512L60.321 15.111L61.4525 14.5155C62.8519 13.7711 64.564 12.2079 65.1298 11.1508C65.368 10.7042 65.6955 10.198 65.8593 10.0193C66.0975 9.73647 66.1273 9.61736 66.0082 9.34938C65.9188 9.15584 65.7848 8.56032 65.6955 8.00947C65.2042 4.7639 62.6137 2.63493 58.3855 2.00964C57.0903 1.80121 54.4551 1.75654 52.9366 1.89054Z" fill="white"/>
<path fill-rule="evenodd" clip-rule="evenodd" d="M34.4608 18.7884C32.7933 20.6197 30.5303 24.4161 29.1011 27.7956C28.6396 28.8973 28.1185 29.8948 27.9398 30.0437C27.6868 30.2521 27.6272 30.4755 27.6123 31.1901C27.6123 31.6814 27.4783 32.8129 27.3443 33.7061C27.121 35.0758 27.1061 35.5373 27.2401 36.6093C27.4337 38.1278 27.9994 39.4082 28.8629 40.2419L29.4584 40.8225L29.5626 40.0186C29.7413 38.6043 30.2177 37.2346 30.6048 36.9815C30.9025 36.7879 30.977 36.6093 30.977 36.1477C30.977 35.5076 31.1854 35.046 32.0638 33.721C33.0315 32.262 34.2523 31.1156 34.833 31.1156C34.9074 31.1156 34.7436 31.4729 34.4608 31.8898C32.9273 34.2123 32.1531 38.113 32.9124 39.6762C33.3591 40.6141 34.029 40.8523 35.488 40.629C36.6791 40.4355 37.9892 39.8251 39.0462 38.9616L39.88 38.2767L40.0586 38.6936C40.2819 39.2444 41.205 40.1377 41.7707 40.3461C43.2595 40.9119 44.9567 40.8077 46.5944 40.0335C48.0088 39.3784 49.6762 37.6663 50.4206 36.0882C50.7332 35.4182 51.1054 34.8078 51.2394 34.7185C51.5372 34.5399 51.5074 34.6738 50.8672 36.8475C50.4801 38.1576 49.974 40.5992 49.8102 42.0136L49.7209 42.7133L48.7234 42.8026C46.6837 42.9962 42.8575 43.5024 39.612 43.9937C30.1284 45.4378 28.4609 45.6165 23.7563 45.6165C20.1386 45.6313 19.7962 45.6016 18.5456 45.274C17.0121 44.8721 15.7466 44.2765 14.9725 43.5917C14.3472 43.0557 13.5581 41.7605 13.5581 41.2841C13.5581 41.1054 13.4837 40.9119 13.3795 40.8523C13.1115 40.6886 13.3646 42.3411 13.7368 43.1451C14.2579 44.2765 15.6722 45.5718 17.1312 46.2715C19.9153 47.6114 22.4164 48.0134 27.9994 47.9985C32.436 47.9836 34.0886 47.8496 40.6541 46.9564C42.7384 46.6735 45.4927 46.3162 46.7582 46.1524C48.0236 45.9887 49.2445 45.8249 49.4529 45.7951C49.8102 45.7356 49.8549 45.7802 50.0037 46.4204C50.0931 46.8075 50.2122 47.2541 50.2717 47.4328C50.3462 47.7305 50.2866 47.7454 48.7085 47.8496C45.314 48.0432 39.7162 48.8471 33.4335 50.0233C23.1013 51.9438 19.2155 52.4351 14.0792 52.45C11.6376 52.45 10.4168 52.3905 9.31507 52.1969C6.00995 51.6461 3.56834 50.589 2.00511 49.0556C1.12672 48.1921 0.307883 46.8968 0.307883 46.346C0.299706 46.1706 0.243951 46.0008 0.146598 45.8547C-0.2256 45.3336 0.176374 47.4477 0.623011 48.3409C2.37978 51.9587 7.12903 54.2366 13.7839 54.6236C19.486 54.9661 24.4734 54.3557 37.679 51.6758C43.2471 50.5444 46.1205 50.0233 49.3809 49.5171C51.3908 49.2044 51.4801 49.2044 51.9119 49.4575C52.4478 49.7851 52.6712 49.8 52.4181 49.5022C52.3138 49.3682 52.2692 49.2342 52.3287 49.1747C52.4627 49.0407 55.9167 48.6089 59.46 48.2963L62.4227 48.0283L62.9438 48.6536C63.3756 49.1747 64.1051 49.7255 64.373 49.7255C64.4028 49.7255 64.2837 49.4129 64.1051 49.0109C63.718 48.2218 63.4351 47.001 63.4351 46.1971V45.6611L64.373 45.7653C65.5194 45.8844 67.2762 46.346 68.1099 46.7628C69.167 47.2988 69.6434 47.7603 69.9262 48.4601C70.4175 49.7702 69.7327 51.3781 68.4375 51.9736C67.961 52.182 67.9015 52.2416 68.1695 52.2416C68.631 52.2565 69.5392 51.8694 69.956 51.4674C70.5813 50.8868 71.0577 49.7553 71.0726 48.8174C71.0875 46.614 68.7799 44.7232 64.8643 43.7406C64.2093 43.5768 63.6435 43.4279 63.6287 43.413C63.4798 43.2791 65.0579 38.9913 65.3557 38.6638C65.4301 38.5894 65.5194 38.8127 65.579 39.1402C65.6832 39.8399 66.3383 40.5695 66.9933 40.6886C67.7228 40.8374 69.1074 40.5248 70.2836 39.9591C72.1892 39.0062 74.1097 36.8177 74.8988 34.6738C75.1966 33.8997 75.1966 33.8997 75.1221 34.4654C74.8988 36.1477 74.869 37.5621 75.0626 38.2321C75.3306 39.1998 76.4918 40.361 77.4744 40.629C80.184 41.3883 83.4594 39.572 87.1813 35.2396C87.9406 34.3612 88.9232 33.1106 89.3699 32.4704C90.0398 31.4878 90.2036 31.3241 90.4716 31.4134C90.9778 31.6069 91.1862 31.9791 91.0224 32.3513C90.7544 32.9171 89.3252 34.391 88.953 34.4803C88.6552 34.5547 88.6106 34.6292 88.6999 34.8972C88.819 35.2545 88.819 35.3587 88.6701 36.9368C88.5361 38.2916 88.7148 38.9616 89.4443 39.7655C90.144 40.5397 91.3202 40.9714 92.7643 40.9863C94.7146 41.0012 96.1439 40.0782 96.7245 38.4256C96.8734 38.0236 97.0967 37.6514 97.2307 37.6068C97.3498 37.577 98.1537 37.2941 99.0172 36.9964C102.084 35.9393 103.454 35.6713 105.94 35.6564C108.62 35.6564 109.751 35.9393 111.3 36.9964L112.282 37.6663L112.491 37.175C114.471 32.4258 110.511 30.8179 103.484 33.5126C102.784 33.7806 101.012 34.5994 99.5383 35.3438C96.9776 36.6242 96.8287 36.6837 96.5905 36.4306C96.2034 36.0435 95.2208 36.0882 94.9379 36.5051C94.6253 36.9517 94.6402 37.4132 94.9826 37.8301C95.2655 38.1725 95.2655 38.1874 94.9082 38.8722C94.4317 39.8251 93.7767 40.3461 93.077 40.3461C91.9306 40.3461 91.2309 39.2444 91.5584 37.9938C91.737 37.3686 92.2581 36.9219 92.8387 36.9219C92.9876 36.9219 93.0621 36.773 93.0621 36.4157C93.0621 36.118 93.2258 35.6862 93.464 35.3438C93.6874 35.0312 94.0744 34.4505 94.3424 34.0634C94.9826 33.1255 95.2208 32.0238 94.9379 31.3538C94.6551 30.6839 94.2978 30.4606 92.5708 29.9097C91.4244 29.5524 91.1266 29.4035 91.2011 29.2249C91.9455 27.2746 91.4839 25.6369 89.9505 24.8032C88.3277 23.9248 86.5412 24.6841 85.9307 26.4855C85.3799 28.1232 86.1094 29.5524 87.9257 30.4606L89.0423 31.0114L88.7148 31.5474C87.226 34.0039 85.5139 35.8351 84.308 36.2668C83.6231 36.5051 83.5189 36.6242 83.0574 37.4728C82.6852 38.2023 82.3874 38.5447 81.7919 38.9467C80.3031 39.9442 79.1568 40.1526 78.5463 39.5273C78.1741 39.17 78.1146 38.8573 78.1741 37.8152C78.2039 37.175 78.3528 37.0708 79.2163 37.0708C81.0177 37.0708 83.2063 36.0584 84.5611 34.5994C85.0375 34.0783 85.499 33.6466 85.5734 33.6466C85.633 33.6466 85.7074 32.9915 85.7372 32.1876C85.7819 30.8774 85.7521 30.6988 85.4394 30.2372C84.9184 29.478 84.442 29.1951 83.3849 29.0164C80.7498 28.5847 78.055 29.9246 76.3132 32.5002C76.0452 32.9022 75.6879 33.319 75.5241 33.4381C75.2263 33.6466 75.2114 33.6168 75.2114 32.8426C75.2114 31.7558 74.7797 30.9221 73.9162 30.3712C72.7847 29.6566 70.9684 29.4184 69.8071 29.8353C69.2712 30.0288 69.2414 30.0139 69.2414 29.7459C69.2414 29.2546 68.8245 28.6294 68.3481 28.4358C68.0355 28.3018 67.5591 28.272 66.8891 28.3465C65.4301 28.4805 65.2217 28.5549 65.2217 28.9867C65.2217 29.8502 64.7304 31.2645 64.2837 31.7111C64.0306 31.9642 63.7924 32.1578 63.7478 32.1578C63.7031 32.1578 63.6584 32.6044 63.6435 33.1702C63.6435 33.8699 63.4947 34.5845 63.1671 35.582C62.5418 37.4728 62.0059 39.7953 61.7826 41.5967L61.6039 43.0557L60.9191 42.9664C58.7454 42.6835 57.1077 42.5793 54.681 42.5793H51.9416L52.0459 42.1029C52.165 41.5669 53.2816 38.8425 53.4453 38.6638C53.5198 38.5894 53.6091 38.8127 53.6686 39.1402C53.7729 39.8399 54.4279 40.5695 55.083 40.6886C55.8274 40.8374 57.1971 40.5248 58.3732 39.9442C59.2069 39.5422 59.7727 39.1104 60.6064 38.2618C63.5989 35.2098 64.2093 31.7707 62.0059 30.3712C60.8744 29.6566 59.0581 29.4184 57.8968 29.8353C57.3608 30.0288 57.3311 30.0139 57.3311 29.7459C57.3311 29.2546 56.9142 28.6294 56.4378 28.4358C56.1251 28.3018 55.6487 28.272 54.9788 28.3465C53.49 28.4805 53.3113 28.5549 53.3113 29.0164C53.3113 29.2249 53.1773 29.865 53.0285 30.4308C52.8051 31.205 52.6116 31.592 52.1352 32.0685C51.7928 32.4109 51.5248 32.8277 51.5248 33.0064C51.5248 33.1851 51.4652 33.3637 51.3908 33.4084C51.3312 33.453 51.227 33.0659 51.1972 32.5598C51.0037 30.2224 49.3065 28.8824 46.7904 29.0909C45.3761 29.21 45.4207 29.21 44.587 29.0909C43.1876 28.9122 42.2794 29.478 41.1479 31.2198C40.8799 31.6516 40.4928 32.1131 40.2844 32.2471C40.0015 32.4407 39.942 32.5746 40.0164 32.9022C40.0611 33.1404 40.0164 33.6912 39.9122 34.123C39.5996 35.4927 39.6591 35.4182 39.0189 35.3289C38.215 35.2247 38.0363 35.4182 37.9172 36.4902C37.7535 38.1576 36.8304 39.6017 35.7585 39.8995C35.1034 40.0782 34.9992 40.0037 34.9992 39.3338C34.9992 38.5 35.6096 37.3388 36.2051 37.0261C36.6964 36.7582 36.7113 36.7135 36.7113 35.8351C36.7113 35.0014 36.7858 34.7781 37.4408 33.6466C37.8428 32.9468 38.3192 32.1727 38.5127 31.9047C38.9892 31.2794 38.9594 31.071 38.3341 30.3861C37.4408 29.3737 36.22 29.2249 34.761 29.9246C33.7784 30.401 32.2003 31.9494 31.2177 33.3935C30.7561 34.0486 30.3839 34.5696 30.3839 34.525C30.3839 34.2868 31.3963 31.726 31.977 30.4606C33.6295 26.9321 35.5054 24.1034 37.5748 21.9745C39.0636 20.4559 39.0934 20.3517 38.1703 19.3393C37.5301 18.6247 36.7262 18.1929 35.8478 18.0738C35.2225 17.9845 35.1927 17.9994 34.4632 18.7884H34.4608ZM90.3798 27.4681C90.3798 28.0189 89.9778 29.1802 89.7842 29.1802C89.7247 29.1802 89.5163 29.0611 89.3376 28.9122C89.0547 28.6889 89.0101 28.54 89.0994 28.1083C89.2036 27.4979 89.68 26.947 90.082 26.947C90.3202 26.947 90.3798 27.0512 90.3798 27.4681ZM83.5313 30.0884C83.5313 31.0263 83.2187 31.8451 82.6529 32.3364C82.2212 32.7235 82.117 32.9171 82.117 33.3786C82.117 34.3761 80.7324 35.7904 79.3627 36.1924C78.9905 36.2966 78.6034 36.4902 78.4992 36.6242C78.3354 36.8177 78.3205 36.7879 78.4099 36.4753C78.6183 35.716 78.7672 35.448 79.0649 35.2842C79.2883 35.1651 79.3627 34.9716 79.3627 34.4952C79.3627 33.0213 82.117 29.6715 83.3527 29.6268C83.4569 29.6268 83.5313 29.8204 83.5313 30.0884ZM48.9467 30.401C49.2296 30.7732 49.2742 31.339 49.1105 32.3662C48.9616 33.2744 48.8574 33.4828 48.3363 34.0039C47.9194 34.4207 47.7408 34.7185 47.7706 34.9418C47.8152 35.2396 47.7557 35.2842 47.2793 35.2842C46.6093 35.2842 46.0733 34.7929 45.9393 34.0337C45.7309 32.932 46.5051 31.0561 47.3984 30.5052C47.9343 30.1777 48.7383 30.133 48.9467 30.401ZM59.8 30.3415C60.1126 30.5499 60.1871 31.1454 59.9935 32.128C59.8446 32.9617 59.7107 33.2148 59.1449 33.8252C58.5196 34.4952 58.475 34.5994 58.4601 35.4034C58.4303 36.1031 58.3261 36.4753 57.8646 37.2941C57.2095 38.5 56.5246 39.3933 56.1227 39.6166C55.7802 39.7953 55.3038 39.6762 55.1996 39.4082C55.0805 39.0807 55.5123 38.0534 55.9142 37.711C56.1227 37.5323 56.2864 37.2792 56.2864 37.1452C56.2864 36.7582 55.4676 36.0286 55.0359 36.0286C54.8274 36.0286 54.6488 35.9691 54.6488 35.8947C54.6488 35.6713 55.2889 34.9567 55.7356 34.6738C56.1673 34.4207 56.1971 34.3612 56.1524 33.6019C56.1227 32.8426 56.1673 32.7384 56.8373 31.86C57.7901 30.5946 59.1449 29.8948 59.8 30.3415ZM71.9783 30.4606C72.276 30.7434 72.2761 31.1156 71.9932 32.2322C71.755 33.1404 71.2786 33.9294 70.6086 34.4952C70.2811 34.7781 70.2066 34.9567 70.1917 35.7309C70.162 36.4604 70.0429 36.8177 69.6111 37.6068C68.5243 39.5571 67.2886 40.361 67.1844 39.1998C67.1248 38.6489 67.4821 37.8896 67.899 37.6216C68.0628 37.5323 68.1968 37.3239 68.1968 37.175C68.1968 36.7582 67.3928 36.0286 66.9462 36.0286C66.7378 36.0286 66.5591 35.984 66.5591 35.9095C66.5591 35.5969 67.1695 34.8674 67.5715 34.7036C67.9883 34.525 68.0181 34.4803 67.8841 34.123C67.6757 33.587 67.8246 33.1404 68.5243 32.1429C69.5962 30.6094 71.3083 29.7757 71.9783 30.4606ZM44.4952 35.18C45.061 35.7904 45.8947 36.1775 46.8624 36.2966L47.6812 36.4008L46.9219 37.5472C45.8202 39.1998 44.5994 39.9888 43.6317 39.6762C43.1553 39.5273 42.8873 38.7234 42.8873 37.4877C42.8873 36.4008 43.2 35.5373 43.721 35.2396C43.8401 35.1651 43.8848 34.9418 43.8401 34.5696C43.7806 34.0783 43.7955 34.0486 43.9295 34.391C44.0188 34.5994 44.2719 34.9567 44.4952 35.18ZM95.5905 37.0112C95.5905 37.1303 95.5161 37.1899 95.4416 37.1452C95.4011 37.1226 95.3707 37.0853 95.3569 37.041C95.343 36.9967 95.3467 36.9487 95.3672 36.907C95.5012 36.6986 95.5905 36.7433 95.5905 37.0112ZM61.6907 45.5122C61.7503 45.542 61.795 45.7207 61.795 45.8993C61.8098 46.078 61.929 46.5842 62.0778 47.0159L62.3458 47.805L60.8421 47.7008C60.0233 47.6263 57.6263 47.5817 55.5123 47.5817H51.701L51.6116 47.1499C51.5564 46.8152 51.5265 46.4768 51.5223 46.1375C51.5223 45.5718 51.5372 45.5569 52.088 45.542C52.3858 45.5271 53.5173 45.4676 54.5743 45.408C56.4204 45.3038 61.4525 45.3783 61.6907 45.5122Z" fill="white"/>
<path fill-rule="evenodd" clip-rule="evenodd" d="M22.9251 18.9671C21.1683 19.4733 19.4562 20.5899 17.9674 22.1978C16.9253 23.3144 16.1809 24.4012 15.1983 26.2622C14.573 27.4086 14.305 27.7659 13.8435 28.0339C13.4415 28.2572 13.2926 28.4359 13.3522 28.5847C13.6648 29.3589 13.7393 29.9544 13.5606 30.6244C13.4713 31.0115 13.3522 32.1429 13.3075 33.1255C13.114 37.5324 14.6772 40.1824 17.8186 40.7928C19.6051 41.1501 21.8234 40.2866 23.5355 38.5745C25.7389 36.3711 25.9325 34.3761 24.0566 33.0958C23.7588 32.9022 23.3122 32.6938 23.0442 32.664L22.5678 32.5896L22.2552 33.8997C21.2428 38.1428 18.2801 41.165 17.1635 39.0956C16.5829 38.0386 17.1039 33.6913 18.0419 31.741C18.3248 31.1752 18.7416 30.6095 19.1287 30.282L19.7689 29.7609L19.5605 28.9867C19.4562 28.5698 19.3669 28.1232 19.3669 27.9892C19.3669 27.6021 20.811 24.9074 21.7639 23.5228C23.2229 21.379 24.801 20.0837 26.2005 19.8604C27.0342 19.7264 27.2575 19.9497 27.2575 20.9026C27.2426 22.4509 25.7092 25.3987 24.1906 26.7833C23.6546 27.2746 23.3866 27.6319 23.4462 27.7659C23.6695 28.3614 25.5752 29.0016 26.5875 28.8229C27.8381 28.5847 29.1632 26.694 29.5056 24.6543C29.9224 22.168 28.9845 20.0242 27.1086 19.1607C26.2749 18.7736 23.9673 18.6694 22.9251 18.9671Z" fill="white"/>
</g>
<defs>
<clipPath id="clip0_471_3196">
<rect width="113" height="54.7104" fill="white"/>
</clipPath>
</defs>
</svg>
