<svg width="113" height="70" viewBox="0 0 113 70" fill="none" xmlns="http://www.w3.org/2000/svg">
<g clip-path="url(#clip0_471_3001)">
<path fill-rule="evenodd" clip-rule="evenodd" d="M45.7538 58.3298C45.5153 57.702 45.8496 57.4083 46.5837 57.585C46.5643 57.8183 46.6265 57.6293 46.4761 57.8477C46.3408 58.0443 46.4318 57.9504 46.2706 58.0548C46.1357 58.1421 45.8676 58.2851 45.7538 58.3298ZM45.1216 57.8517C44.8481 57.7314 44.5738 57.1049 44.7043 56.8369C45.1247 57.0039 45.249 57.4171 45.1216 57.8517ZM45.1071 60.0472C45.6361 59.6244 45.8537 59.2894 46.3711 58.7791L46.9662 58.0644C48.1349 56.9447 46.7112 57.3854 46.0363 57.2212C45.9737 56.934 46.0874 56.9682 45.8232 56.7651C45.3228 56.6329 45.4148 57.0337 45.031 56.7332C44.7805 56.5371 43.9784 55.4754 43.9747 56.4576C43.9745 56.5175 44.0816 57.3325 44.093 57.3929C44.1701 57.8033 44.3216 57.7679 44.1511 58.2058L43.5509 59.6811C43.0121 61.6531 43.4248 61.0315 42.1678 62.5652C41.6697 63.1731 39.8396 64.7615 39.6157 65.2796L39.6978 65.3528C39.7096 65.362 39.7267 65.3768 39.74 65.3865L39.9226 65.4969C40.6954 65.843 41.3065 64.5294 41.7973 64.1222C42.27 63.7299 43.3011 62.4145 43.8741 62.3124C43.7951 63.1899 43.1663 64.6495 42.8761 65.4745C42.8036 65.6806 42.5372 66.3125 42.569 66.4852C42.6051 66.6814 42.6751 66.8389 42.8159 66.9325C42.8705 66.9689 43.1933 67.0774 43.313 67.1264C43.6562 67.2666 43.9646 67.4912 44.3067 67.3194C44.615 67.1645 45.3459 66.1634 45.524 66.127C45.936 66.0427 45.6655 66.3593 45.573 66.7969C45.5176 67.0591 45.5223 67.2851 45.4778 67.5305L45.0907 67.6603C45.2636 67.905 45.7951 68.0336 46.1224 68.024C46.324 67.7576 46.3008 67.7702 46.5257 67.5528C46.3246 66.9082 46.5581 66.8161 46.5962 66.1697C46.6221 65.7296 46.4375 64.9786 46.6038 64.5806C46.7471 64.2375 47.1792 63.9341 47.3663 63.6296C47.7659 62.9791 47.2659 62.6708 47.4887 62.2371C47.6644 62.1843 47.934 62.4221 48.0385 62.6071C48.2409 62.9654 48.0515 63.0732 48.4797 63.2463C48.323 62.5105 47.3165 61.9877 48.258 61.327C48.5702 61.4047 48.39 61.5047 48.6843 61.4306C49.0477 61.3391 49.6452 61.0656 49.9802 61.0191C50.1065 62.5992 49.9971 61.6982 49.5752 62.947C49.2932 63.7815 48.2234 64.4941 48.0567 65.3531C47.9499 65.9037 47.6676 67.5977 47.3976 68.0067C47.1901 68.321 47.2357 67.9453 47.0804 68.3297C47.3558 68.4267 47.5117 68.5363 47.874 68.528C47.982 68.3883 47.9641 68.2993 48.0702 68.1987C48.2459 68.032 48.1595 68.2008 48.3908 68.035C48.4469 67.748 48.8705 65.6876 48.926 65.6022L49.5713 64.8013C49.8049 64.4952 49.9388 64.1597 50.2558 64.041C50.4436 64.2398 51.0905 67.2455 51.1599 67.8945C51.2287 68.5379 51.3693 68.5168 51.33 69.2171C51.7925 69.3015 51.9084 69.2528 52.1577 68.8337C52.3809 68.4585 52.1099 68.2733 52.0454 67.8221C51.9237 66.9702 51.7207 66.531 51.5935 65.7425C51.4494 64.8488 51.2666 64.3829 51.4246 63.5506C51.4917 63.1968 51.5031 62.738 51.5437 62.3742C51.5874 61.9822 51.6947 61.6782 51.7458 61.3178C52.0976 61.4249 52.0146 61.5744 52.4185 61.5568C52.6028 61.2667 52.6565 60.9903 52.8188 60.6793C53.035 60.2647 53.0232 60.0652 52.8165 59.7552C52.7346 59.8436 52.7907 59.7798 52.7296 59.8944C52.3309 60.6434 52.651 60.3152 52.45 60.9298C51.9952 60.9579 52.0055 60.4805 51.8636 60.0943C51.5178 60.034 51.3515 60.0697 51.1968 59.8515C51.0067 59.4777 51.3229 58.9163 51.1139 58.448C50.6905 58.3452 50.3201 58.4519 50.2395 58.917C50.1794 59.2642 50.5214 59.5557 50.527 59.9885C50.2205 60.0909 49.789 60.2506 49.5262 60.4831C49.3514 60.6377 49.5002 60.6033 49.22 60.6846C49.2804 60.2733 49.6368 60.3214 49.554 59.7872C49.0727 59.9019 49.0572 61.1274 48.3484 60.9866C48.2723 60.5686 48.6153 60.4895 48.6897 59.9115C48.7496 59.4466 48.679 59.1439 48.3269 58.9711C48.1192 59.0008 48.0376 59.0887 47.8712 59.1735C47.5222 59.3512 47.5993 59.4062 47.3506 59.6884C47.2166 59.8405 47.357 59.7395 47.1639 59.8492C47.1516 59.8562 46.916 59.9386 46.9138 59.9389C46.5621 59.9788 46.764 59.9429 46.688 59.8865C46.3621 59.5642 47.1104 59.1417 46.4669 59.1366C46.3644 59.3582 46.5031 59.3264 46.4545 59.6796C46.4292 59.8631 46.3587 59.9733 46.3305 60.2115C46.7261 60.4749 46.6029 60.6389 46.5512 61.1668C46.4528 62.1721 46.0698 62.2823 45.7961 62.8881C45.6487 63.2144 45.7382 63.6645 45.727 64.0443C45.7087 64.6696 45.0879 65.131 44.8085 65.6188C44.6236 65.9415 44.4952 66.0635 44.1528 66.2041C43.4635 66.4873 43.864 66.5543 43.5022 66.7862C43.3584 66.2721 44.3426 64.1978 44.5703 63.5905C44.7765 63.041 44.8828 62.4262 45.0694 61.8872C45.3732 61.0096 45.1249 60.8381 45.1071 60.0472Z" fill="white"/>
<path fill-rule="evenodd" clip-rule="evenodd" d="M36.1771 62.2098C36.27 61.8807 36.4834 61.7247 36.6859 61.4926L37.9381 59.8482C37.9727 59.8039 38.0548 59.5831 38.2962 59.6812C38.5693 60.5266 37.8767 60.9218 37.5557 61.3283C36.8611 62.2076 37.1696 62.404 36.1771 62.2098ZM41.8422 60.1026C41.7468 59.8963 41.6174 59.5477 41.6015 59.2666C41.5896 59.0556 41.7829 58.7111 41.9677 58.6443C42.4037 58.4866 41.8841 59.8493 41.8422 60.1026ZM39.575 59.8408C39.6246 59.5097 39.6757 59.5766 39.809 59.3111C40.0678 58.796 39.6821 58.6658 40.2788 58.3334C40.4547 58.2353 40.5654 58.1499 40.7668 58.0928C40.6805 58.373 40.5038 58.941 40.3976 59.2113C40.2374 59.619 40.057 59.7571 39.575 59.8408ZM38.7981 57.4453C38.74 57.1814 38.7708 57.0698 39.0882 57.0234C39.1242 57.3127 39.05 57.3792 38.7981 57.4453ZM41.6607 55.6384C41.6595 55.5416 41.8318 55.2887 41.6633 54.7013L41.5943 55.2547C41.1556 55.2254 41.2827 55.0653 40.9341 55.2682C40.5945 55.4658 40.5547 55.3847 40.492 55.4288C40.6605 55.875 40.3386 56.1886 39.9913 56.3646C39.3018 56.0976 39.176 56.2546 38.8016 56.6506C38.22 57.2655 38.4354 56.7964 38.3181 57.8347C38.1413 58.2034 37.5458 58.0181 37.0731 59.6747C36.9845 59.9849 36.8668 60.0851 36.7068 60.2731L35.7931 61.3588C35.6031 61.6011 35.5062 61.5752 35.2931 61.8889C34.971 62.3633 35.1308 62.0933 34.6836 62.2485C34.702 62.4304 34.7717 62.5609 35.0791 62.6899C35.2757 62.7726 35.5676 62.7281 35.8141 62.7291C35.892 62.5837 35.8835 62.5482 36.0035 62.4094C36.306 62.5221 36.4157 62.7357 36.6846 62.9007L36.8773 62.7169C37.1461 62.3841 37.6978 61.796 38.068 61.6794C38.0519 61.996 37.9551 62.1946 37.952 62.5275C37.9492 62.8247 37.9689 62.9446 37.9149 63.2672C37.886 63.4397 37.5634 64.564 37.5185 64.644C37.7522 64.7525 37.8781 64.9004 38.1178 64.9211C38.3066 64.7253 38.5422 64.1965 38.5858 63.8906C38.6329 63.561 38.7914 62.7883 38.7914 62.593C38.7914 61.8521 38.6885 61.3511 39.1646 60.9014C39.4768 60.9347 39.5039 61.0288 39.6868 61.1758C39.9612 61.3964 39.974 61.2307 40.1503 61.4867C40.1759 61.5473 39.5476 63.7717 39.3201 64.1271L38.8019 64.7974C38.8987 64.9329 38.8052 64.8667 38.9847 64.978C39.182 65.1005 38.9946 65.0336 39.2335 65.0593C39.3928 64.8723 39.4396 64.3739 39.6385 64.0332C39.812 63.7359 40.0518 63.5079 40.1908 63.1375C40.7979 61.5201 40.5551 61.6478 41.5757 61.6361C41.8033 61.1441 41.5769 61.4398 41.9454 61.1103C42.0899 61.2251 42.2175 61.2709 42.4381 61.3175C42.1029 60.3289 41.6829 61.1699 42.6633 58.305C42.8878 57.6491 42.4935 57.8074 42.5481 57.2887C42.6981 57.1713 42.4946 57.2979 42.6837 57.2481C42.9136 57.1877 42.7653 57.271 42.9107 57.1125C43.1787 56.8206 43.4477 57.0732 43.5248 56.4463C43.5882 55.9309 42.7631 55.6747 42.5073 55.8138C42.1489 56.1633 42.2733 57.0118 42.0638 57.2311C41.9101 57.3261 41.672 57.0464 41.0517 56.7917C41.512 56.3322 41.4797 56.4532 41.9258 55.911C41.8285 55.6788 41.8641 55.7494 41.6607 55.6384Z" fill="white"/>
<path fill-rule="evenodd" clip-rule="evenodd" d="M61.4789 68.7321C61.7118 68.8327 61.891 68.8579 62.1812 68.8238C62.5047 68.7857 62.5068 68.7457 62.5363 68.4323C62.2236 68.3265 61.8382 68.3809 61.5512 68.1729C61.4653 68.0131 61.4706 67.782 61.4258 67.6066C61.3364 67.2565 61.3232 67.4076 61.1928 67.1573C60.7937 66.3914 61.5366 66.8208 59.842 64.5804C59.6812 64.3678 59.3814 64.1097 59.2841 63.8305C59.2062 63.6071 59.2438 63.4836 59.1812 63.2466C59.1382 63.0837 59.0504 62.9341 59.0068 62.7943C58.8301 62.228 59.6421 60.4604 59.9106 59.8466C60.251 59.0684 59.4137 58.9145 59.0659 58.1927C58.998 58.0518 58.7714 57.1902 58.5428 57.7254C58.3857 58.0931 58.7965 58.2861 59.0005 58.5317C59.1503 58.7121 59.3867 59.1001 59.5128 59.3371C59.7568 59.7961 59.2359 59.7701 58.8531 60.4423C58.6919 60.7252 58.8418 60.6862 58.5911 60.804C58.2017 60.6026 58.4944 60.1307 58.5464 59.7349C58.5829 59.4571 58.3471 58.9402 58.0496 58.9124C57.6738 58.8772 57.2909 59.1868 57.245 59.5098C57.1899 59.8977 57.4472 60.2838 57.4572 60.6326L55.9248 60.5758C55.8766 59.5379 56.1181 58.8877 56.0563 58.6566C56.0016 58.452 56.0197 58.5401 55.9733 58.4738C55.577 58.644 55.6931 58.6312 55.7203 59.1474C55.7552 59.8117 55.4018 60.3579 55.5767 60.781C55.8287 61.3903 56.9504 60.878 57.1353 62.1177C57.2161 62.6594 57.301 63.2532 57.3255 63.7757C57.3798 64.9377 56.5208 66.6139 56.3039 67.4711C56.1984 67.8878 56.1593 67.8554 56 68.1332C55.7552 68.5598 56.1038 68.5314 55.8765 68.8311C55.6979 69.0667 55.5002 68.9833 55.5543 69.4307L56.2053 69.4383C57.2908 67.9479 56.8675 68.1716 57.3528 67.0734C57.6067 66.4986 58.1959 64.7885 58.4533 64.6566C58.7215 64.7675 58.9852 65.2312 59.2089 65.4894C59.3477 65.6494 59.4548 65.7388 59.5807 65.8741C60.2136 66.5543 59.8458 65.9727 60.1345 66.9108C60.1902 67.0919 60.283 67.2607 60.3507 67.4461C60.6225 68.1903 60.3956 68.3201 60.4244 68.613C60.8335 68.8299 60.8447 68.4583 61.4789 68.7321Z" fill="white"/>
<path fill-rule="evenodd" clip-rule="evenodd" d="M77.1286 49.6607C77.1639 49.7634 77.1276 50.1688 77.1434 50.3604C77.1723 50.7118 77.2832 50.945 77.2618 51.2298C76.418 51.2854 77.0131 50.1312 75.5757 50.1734C74.8696 51.6285 75.7134 51.166 76.3421 51.9023L75.5163 52.5835C75.3309 52.7894 75.4965 52.7201 75.2619 52.8901C74.7075 52.6 74.3348 51.7023 73.8343 51.3162C73.6916 51.6605 73.7215 51.7279 73.9984 51.939C74.675 52.4547 74.765 53.5484 75.4605 53.2882C76.752 52.805 76.2679 52.4547 78.0062 53.8575C78.1292 53.9568 78.1478 53.996 78.251 54.0925C78.3581 54.1924 78.3982 54.2039 78.514 54.3119C78.9353 54.7048 80.4914 57.8586 80.5601 58.1908C80.7456 59.0882 80.9778 57.9513 80.9944 59.4544C81.3887 59.506 81.4376 59.2616 81.6601 59.0802C81.4631 57.493 81.1643 57.6119 80.7555 56.5476C80.6043 56.1539 79.7533 54.3213 79.7806 54.104C80.0702 53.9307 80.7771 54.099 81.1146 54.1238C81.7596 54.1712 81.887 54.0328 82.3461 54.3386C82.7241 54.5903 83.3412 54.7709 83.7257 55.095C83.9941 55.3212 83.7986 55.3553 84.0797 55.5201C84.6974 55.3208 83.9934 55.2195 84.964 54.8624C85.258 54.7542 85.6586 54.4225 85.5334 53.9721C84.8057 53.9662 84.9302 54.7275 84.2666 54.279C84.1861 54.2246 83.9391 54.0559 83.8902 54.0312C83.5485 53.8588 83.4673 53.9666 83.0722 53.6823C82.8287 53.5069 82.5811 53.3382 82.2169 53.3042C81.7464 53.2603 81.676 53.1721 81.244 53.0967C80.8771 53.0326 80.454 53.0316 80.1297 52.9714C79.6265 52.878 79.7181 52.766 79.3794 52.5526C78.5357 52.0207 78.9546 52.7299 78.2223 51.2981C77.3797 49.6506 77.6911 49.1295 76.7791 49.1104C76.3751 49.102 76.0979 49.1217 75.7362 48.9623C75.5382 48.875 74.8462 48.5267 75.1627 49.1045C75.3126 49.3782 75.8264 49.2243 76.6972 49.4458C77.0617 49.5385 77.0146 49.5083 77.1286 49.6607Z" fill="white"/>
<path fill-rule="evenodd" clip-rule="evenodd" d="M25.4132 51.3945C25.201 52.234 26.1677 52.0753 26.2457 52.0826C27.1465 52.1661 27.0349 52.0661 27.8156 51.944C28.2483 51.8763 30.7175 51.5714 30.9071 51.6182L30.8218 52.1864C30.6279 52.6673 30.2844 53.7548 30.1251 53.8987C29.6147 54.3599 29.2374 54.8784 28.9187 55.1035C28.729 55.2374 28.5461 55.239 28.3544 55.3512C28.3797 55.7512 28.4297 55.6304 28.6115 55.8552C28.8086 56.0989 28.728 56.1848 28.7615 56.4556C28.8036 56.7973 29.0554 57.3 29.453 57.1508C29.7283 56.5887 28.8083 56.459 29.6147 55.798C30.0544 55.4376 29.812 55.6419 30.0675 55.2178C30.3253 54.79 30.7463 54.9583 31.0511 54.0659C31.1545 53.763 31.2924 53.6823 31.4556 53.3693C31.6668 52.9642 31.8663 52.1921 32.1576 51.9354C32.3752 51.7437 32.4676 51.7509 32.7123 51.4583C32.9209 51.209 32.9494 51.0921 33.3827 51.0258C34.0462 50.9242 34.5389 50.82 35.2355 50.7546C36.1665 50.6672 36.3126 50.8651 36.5977 49.9696C36.933 48.9169 37.4912 48.858 37.2354 48.615C36.7938 48.1953 36.5893 49.6404 36.0161 50.3306C35.6144 50.3156 35.8719 50.256 35.2213 50.1327C34.9624 50.0836 34.5581 50.0862 34.4104 49.9867C34.4103 49.548 34.5476 49.7491 35.3399 49.4654C36.3027 49.1206 35.6331 47.859 34.8283 48.2674C34.5193 48.4241 34.2953 48.8289 33.9915 48.9437C33.8647 48.6119 33.8679 48.5862 33.7112 48.2741L33.3397 47.6445C33.6681 47.2077 34.8874 47.0429 35.2312 46.671C35.1586 46.6068 35.0918 46.5547 35.0197 46.4923C34.7245 46.5416 34.6408 46.6633 34.4449 46.7863C34.2181 46.9287 33.9864 46.9571 33.7318 47.0311C33.0136 47.2399 32.8739 47.2458 32.955 48.0613C33.066 49.1779 33.1076 48.8812 31.9797 49.758C31.3248 50.2671 30.8832 50.5112 30.0637 50.665C29.6098 50.7502 28.8741 50.9678 28.4806 51.0071L26.848 51.2598C26.1686 51.221 26.4685 51.3731 26.1801 51.4647C25.8777 51.5608 25.9117 51.2559 25.4132 51.3945Z" fill="white"/>
<path fill-rule="evenodd" clip-rule="evenodd" d="M68.2252 66.4715C67.9651 65.9298 68.128 65.8552 68.0374 64.8606C67.9533 63.9366 68.1833 64.2297 67.7338 63.4387C67.492 63.0133 67.2637 62.7876 66.9907 62.3918C66.8122 62.1332 66.9159 62.08 66.6731 61.8118C66.472 61.5896 66.501 61.6248 66.3349 61.3225C66.2152 61.1046 66.0512 61.018 65.9109 60.8539C65.7666 60.6849 65.6908 60.4922 65.5552 60.3131C65.1544 59.784 65.1109 59.9002 65.2513 59.129C65.3246 58.7265 65.4584 57.9326 65.4713 57.5616C65.5083 56.499 65.8769 56.3871 65.2843 56.3271C65.2627 56.8032 65.0069 57.9988 64.844 58.3687C64.6092 58.3621 64.5371 58.2113 64.2643 58.3423C64.0099 58.4644 64.1059 58.5529 63.8088 58.6653C63.8062 58.2961 63.7382 57.8001 63.7911 57.4547C63.8583 57.0157 64.0809 56.8066 63.7588 56.3915C63.6295 56.9233 63.4687 57.4317 63.3703 58.0061C63.183 59.0987 63.3798 59.1421 63.3038 59.7341C63.2648 60.038 63.3344 60.2817 63.4191 60.5919C63.5376 61.0255 63.8478 61.2598 64.3167 61.6196C64.5022 61.7618 64.7034 61.8911 64.8497 62.0299C64.7207 63.0254 64.7851 62.2429 65.2044 63.4184C65.387 63.9304 65.6627 64.2009 65.9548 64.5309C66.3698 64.9995 65.9685 65.2742 65.9848 65.9609C65.9917 66.2511 66.0903 66.4436 65.9799 66.7427C65.8875 66.9929 65.7827 67.0366 65.7166 67.346C66.0455 67.7287 65.8487 67.3375 66.0364 67.8785L66.8569 67.6886C66.806 67.3069 66.6424 67.5955 66.7365 67.1659C66.7794 66.9704 66.8736 66.9629 66.9005 66.717C66.9224 66.5168 66.8641 66.4672 66.9221 66.2394C66.9791 66.0154 67.0546 66.0039 67.091 65.873C67.1897 65.9677 67.2815 66.063 67.3556 66.175C67.2932 66.4489 67.1877 66.4144 67.2495 66.6658L67.3554 66.7107C68.0065 66.9399 68.7103 67.198 68.8603 66.5601L68.2252 66.4715Z" fill="white"/>
<path fill-rule="evenodd" clip-rule="evenodd" d="M38.7813 53.6379C38.8629 53.5232 39.5405 53.1461 39.7116 53.0807C40.2979 52.8569 40.357 53.1174 40.6732 52.5903C40.3042 52.6019 39.403 52.8474 39.0417 52.9625C38.0065 53.2927 38.1489 53.4503 37.7426 53.5899C36.7969 53.9149 36.6663 54.2372 36.463 55.1971C36.4331 55.3384 36.4281 55.4836 36.4048 55.6268C36.297 56.2886 35.9792 55.8823 35.695 56.3651C35.2453 57.129 35.1527 56.9021 34.6708 58.0978C34.462 58.6162 34.0139 58.4836 33.4722 58.7603C33.2222 58.888 33.1116 59.0588 32.8753 59.1382C32.6085 59.2278 32.3682 59.1625 32.1318 59.265C31.9013 59.4075 32.1175 59.2568 32.0188 59.4322L31.7295 59.7687C31.8728 60.0474 32.0487 60.2581 32.3444 60.4097L32.4899 60.1882C32.5828 60.0829 32.5561 60.1088 32.6471 60.0741C32.7786 60.0239 32.9974 60.0333 33.165 59.9671C33.5645 59.8093 33.3965 59.671 34.0508 59.7074C33.8494 60.2473 34.0203 59.9954 33.5947 60.128C33.2366 60.2395 33.3965 60.3032 33.4837 60.6186C33.6573 61.2462 33.468 61.5968 34.2701 61.5842C34.1951 60.9512 33.7301 60.8742 34.6787 60.4483C34.9344 60.3334 35.0594 60.2721 35.2874 60.0943C35.8802 59.6319 36.1051 59.981 36.7385 58.6522C36.8506 58.4171 36.9287 58.2364 37.0535 58.0051C37.2386 57.662 37.2685 57.8328 37.4288 57.4142C37.5639 57.0614 37.6404 57.0306 37.7556 56.7746C37.879 56.5004 37.8694 56.371 38.0305 56.0856C38.1597 55.8567 38.2418 55.6699 38.3434 55.4341C38.4904 55.0927 38.5609 55.1758 38.9501 55.0803C39.8841 54.8512 40.7198 54.442 41.1163 54.3474C41.4424 54.2695 41.5832 54.3054 41.5397 53.9823C41.3716 53.8949 41.2043 53.9594 41.0016 54.0223C40.5438 54.1642 40.0029 54.3605 39.511 54.3832C39.3858 54.1591 39.5165 54.0594 39.2738 53.8725C39.0617 53.7092 38.9769 53.8176 38.7813 53.6379Z" fill="white"/>
<path fill-rule="evenodd" clip-rule="evenodd" d="M80.0256 45.0959C79.7702 45.2883 79.8049 45.0859 79.6542 45.4251C79.5132 45.7425 79.6437 45.7648 79.5331 45.9895C79.357 45.9079 78.8299 45.3902 78.7147 45.2269C78.3552 44.7171 78.6196 44.6891 77.9678 44.4285C78.1404 44.8243 78.4272 45.3207 78.6569 45.6971C78.9671 46.2055 79.096 46.4224 79.5643 46.7873C79.8013 46.972 79.9624 47.4626 80.612 47.7399C81.0687 47.9349 82.0028 47.7017 82.5144 47.7084C82.7273 48.2583 82.7774 48.0233 83.6347 48.4336C84.2854 48.7449 84.6478 48.5764 85.1815 48.7376C85.581 48.8584 85.3644 49.1682 86.0278 49.7617C87.0183 50.6478 86.4491 50.6352 86.837 50.8815C87.0286 50.9614 86.8482 50.8402 87.0949 50.8991C87.3773 50.9666 87.1426 50.9236 87.3865 51.0639C87.5459 50.9361 87.7597 50.566 87.8291 50.3312C87.8122 50.3194 87.7829 50.2887 87.7729 50.3051C87.7722 50.3062 87.4874 50.216 87.4013 50.1052C87.3206 50.0014 87.3043 49.8316 87.2066 49.6845C86.954 49.3043 86.7806 49.4459 86.6871 48.8685C87.4261 48.8848 86.9518 49.0511 87.334 49.3397L88.1258 48.9356C88.4812 48.7557 88.5519 48.5731 88.4233 48.1245C88.0803 48.2412 88.0127 48.6315 87.5932 48.4058C87.3971 48.3004 87.1687 47.9575 86.9472 47.7404C86.7202 47.518 86.5551 47.4644 86.2798 47.1677C85.9608 46.824 85.9698 46.8365 85.4461 46.6918L83.359 46.2311C83.11 46.1969 83.0466 46.1398 82.8355 46.114C82.5868 46.0837 82.5432 46.1314 82.272 46.0762C81.9644 46.0135 81.4317 45.951 81.1865 45.8876L80.9394 45.5474C80.8601 45.4093 80.7816 45.2814 80.6992 45.1705C80.5138 44.9209 80.43 44.7776 80.2294 44.4694C79.9207 43.995 79.8677 44.032 79.7114 43.8161C79.3405 43.3037 79.5552 43.1473 79.0485 43.2504C79.1136 43.7396 79.9231 44.4794 80.0256 45.0959Z" fill="white"/>
<path fill-rule="evenodd" clip-rule="evenodd" d="M29.2037 41.635L30.1208 42.5469C29.9478 42.7302 29.9148 42.6639 29.732 42.8281C29.2617 43.2507 29.5241 43.0234 28.7398 43.0701L28.0043 43.1437C26.2149 43.029 26.0991 42.5199 24.0578 43.3527C23.7031 43.4975 23.5421 43.479 23.1459 43.5533C22.4125 43.6907 22.843 43.6485 22.3511 43.4488C22.3325 43.6632 22.3114 44.0701 22.4975 44.2147C22.9036 44.4421 22.8308 44.0609 23.0989 44.5285L25.5932 43.8064C25.7827 43.8064 27.4452 44.1134 27.5849 44.2001C27.5503 44.5709 26.9135 44.9094 26.6562 45.1272C26.4682 45.2865 26.4252 45.4002 26.2021 45.5661L24.1286 47.2817C23.892 47.5656 23.9144 47.4904 23.54 47.6498C23.6302 48.1381 23.7679 48.2666 24.5655 48.1961C24.891 47.6877 25.4542 47.3957 25.8614 47.0167C26.6106 46.3194 26.181 46.6191 27.2282 45.8339C28.7204 44.7149 27.8688 45.369 28.8653 44.9226C29.3283 44.7152 30.2192 44.3238 30.7287 44.3002C30.7664 44.5353 30.7163 44.4788 30.7218 44.6411C30.7404 45.1959 31.2718 44.8917 31.5865 44.8917C32.1311 44.8917 32.3959 44.9662 32.5757 44.4095C31.6589 44.6255 32.3012 44.3973 31.9552 44.4642C31.7036 44.5128 31.8377 44.7081 31.3279 44.663C31.2361 44.2277 31.4118 44.2552 31.636 44.0416C31.9645 43.7288 31.7081 43.625 31.6958 43.295C31.6768 42.7834 32.57 42.732 32.8718 42.4669C32.9566 42.0149 32.6259 41.7027 32.1671 41.8104C31.792 41.8985 31.6616 42.3364 31.3798 42.5383C31.0852 42.4697 30.9809 42.3085 30.7595 42.1318C30.4696 41.9005 30.3058 41.9411 30.0841 41.7878C30.3458 41.4949 30.551 41.9748 31.0085 41.6285C30.8097 41.2933 30.6357 41.5597 30.1488 41.5075C29.7263 41.4622 29.5966 41.3925 29.2037 41.635Z" fill="white"/>
<path fill-rule="evenodd" clip-rule="evenodd" d="M72.4142 54.5146C72.5146 54.7157 72.5712 55.0334 72.6948 55.1738C72.8376 55.3361 72.9618 55.2802 72.9605 55.6782C72.3814 55.8807 72.5141 55.5284 72.1364 55.4548C71.7454 55.3786 71.7942 55.7115 71.411 55.6889C70.8729 55.6572 70.9381 54.7038 70.1331 54.8077C69.9513 55.067 69.7558 55.3547 70.0718 55.7274C70.2418 55.9279 70.6754 56.005 70.9271 56.1867L70.5089 57.6264C70.3108 57.3865 70.4701 56.9891 70.1645 56.8072C69.8537 57.0653 70.2166 57.1992 70.2752 57.6496C70.343 58.1709 70.2997 58.1741 70.6468 58.5147C70.856 58.2128 71.0604 57.6083 71.2778 57.3863C71.2893 57.392 71.9221 57.8599 71.979 57.9537C72.0691 58.1021 72.1923 58.6739 72.3108 58.9293C72.5504 59.4457 72.6371 60.5029 72.7268 61.131C72.8508 61.9999 73.7205 62.7251 74.1123 63.6762C74.358 64.2728 74.4386 63.8875 74.2742 64.603C75.2282 64.4819 74.9504 64.1585 74.9924 63.837C75.0432 63.4477 75.0684 63.8647 75.0697 63.5621C75.0703 63.438 74.2651 62.2444 74.1544 62.0503C73.773 61.3814 73.8022 61.8712 73.7051 60.8416C73.6541 60.3002 73.5407 59.9105 73.5444 59.3458C74.0097 59.325 74.3902 59.7801 74.7479 60.0066L75.8754 60.7407C76.8732 61.3093 76.8808 61.5371 77.5282 61.8432C77.8824 62.0106 77.7571 62.0506 78.0178 62.2599C78.5811 62.0787 78.4288 61.5306 78.2926 61.283L76.4444 60.0996C76.0325 59.9171 75.8918 59.7278 75.5869 59.514L74.292 58.5316C74.1633 58.3771 74.1212 58.2123 74.0058 58.0641C73.6707 57.6339 72.9538 56.8568 72.8022 56.3245C73.0544 56.1662 73.3055 56.3333 73.3788 56.0282C73.4334 55.8008 73.2557 55.6766 73.1718 55.4523C72.9567 54.8774 73.092 54.571 72.4142 54.5146Z" fill="white"/>
<path fill-rule="evenodd" clip-rule="evenodd" d="M67.361 60.5315C67.0483 60.5062 67.0035 60.4808 67.0281 60.1454C67.3498 60.0945 67.3416 60.2144 67.361 60.5315ZM67.7531 58.1742C67.5831 57.9541 67.6369 57.6997 67.5616 57.4664C67.4981 57.2697 67.4833 57.3672 67.4004 57.1765C67.3242 57.0013 67.4277 57.1269 67.3398 56.9473C66.7943 56.8955 67.3604 57.0927 66.564 56.9298C66.3934 57.2961 66.2789 57.0116 66.2718 57.4118C66.2651 57.7883 66.407 57.7155 66.1504 57.9913C66.3694 58.0127 66.6304 58.1351 66.7156 58.2566C66.7878 58.3595 66.8247 58.6827 66.8868 58.8731C66.6084 59.2172 66.3415 59.3143 66.5105 59.9079C66.6668 60.4568 66.6846 60.7099 66.9727 60.8946C67.5428 61.2604 67.4007 60.9933 67.5766 61.7467C67.8303 62.833 68.5211 63.1075 68.7355 63.4699L69.5286 65.5748C69.598 65.7921 69.7416 65.9349 69.7856 66.0782C69.8884 66.4127 69.7438 66.2223 69.6664 66.6064C69.9226 66.5922 70.2305 66.5135 70.3652 66.3764C70.8662 65.8658 70.5131 65.6294 70.3853 65.4032C70.1535 64.9925 69.9663 64.3533 69.7758 64.0146C69.5799 63.6662 68.9703 62.5666 69.0125 62.1312C69.4358 62.1827 69.9314 62.6609 70.1579 62.8753L71.2137 63.6794C71.573 63.9352 72.0013 64.1227 72.3323 64.4215C72.5098 64.5817 72.6186 64.7918 72.7982 64.918C73.0534 65.0973 73.0217 64.9915 73.2263 65.3012L73.7856 65.004C73.7095 64.7312 73.6613 64.7133 73.5277 64.5336C73.4143 64.3809 73.3817 64.2866 73.2296 64.1419C72.9532 63.8788 72.6967 63.8182 72.4307 63.5627C71.6276 62.7915 71.3683 63.0799 70.7957 62.3753L70.1575 61.5667C69.9814 61.3351 69.7646 61.0655 69.5809 60.7664C69.1663 60.0911 69.0966 60.4386 68.8902 60.0774C68.824 59.9615 68.7117 59.0504 68.7073 58.8747C69.2574 58.855 69.4023 59.2597 69.7048 59.5382C70.1817 59.9774 69.8987 60.1088 70.7602 60.0805L70.5465 59.9466C69.8219 59.5639 70.0935 59.1396 69.4597 58.6817C68.1208 57.7142 68.2842 58.0443 67.7531 58.1742Z" fill="white"/>
<path fill-rule="evenodd" clip-rule="evenodd" d="M82.9389 44.9941C82.7759 44.9566 82.7618 44.8647 82.7142 44.7425C82.8699 44.6171 83.0537 44.7274 83.183 44.7912C83.1332 44.9307 83.1665 45.0465 82.9389 44.9941ZM81.9446 42.9255C81.7181 42.8385 81.1596 42.3885 80.7855 42.3591C80.57 42.7082 80.7967 42.6762 80.3335 42.7929L80.3424 43.399C80.8487 43.7184 80.6075 43.6207 80.8036 43.8816C80.9465 43.6922 81.1375 43.7115 81.415 43.7224C81.5939 43.9867 81.6118 43.8751 81.8065 44.0625C81.7935 44.7242 81.778 44.764 82.2271 45.0194C82.5662 45.2124 82.7618 45.4794 83.1364 45.4053C84.4161 45.1521 83.7275 45.7532 85.148 45.957C85.6447 46.0283 85.7721 45.8616 86.2859 46.0581L88.1503 46.9486C88.3425 47.0486 88.5357 47.0652 88.6654 47.1315C89.0293 47.3177 88.7006 47.3281 88.9712 47.5498C89.3669 47.2179 89.3325 46.7669 89.0401 46.3297C88.8104 46.23 88.4087 46.1606 88.0997 46.0364C87.7797 45.9078 87.4807 45.7382 87.1732 45.6474C86.881 45.5612 85.577 45.1002 85.418 44.8698C85.631 44.5892 86.0642 44.5838 86.4977 44.5635C87.5051 44.5161 88.8075 44.1671 89.1244 44.1455C89.5881 44.1139 89.3809 44.2196 90.0806 44.1276L90.4475 44.0848L90.6255 43.5326C89.2957 42.9755 87.5247 43.8495 86.73 43.752C85.956 43.6571 85.379 43.5418 84.6503 43.4216C84.2393 43.3538 84.0991 43.6456 83.7062 43.3348C83.6243 43.27 83.4625 43.0826 83.3976 43.0249C83.0999 42.7604 83.1765 43.0178 83.1006 42.6549C84.1313 42.144 84.8863 43.0127 85.2443 42.1106C84.8295 42.2371 84.9554 42.4049 84.3338 42.2238C83.5203 41.9869 83.6684 42.0315 82.5137 42.3013C82.3166 42.3474 82.2789 42.3544 82.1771 42.5016C82.0891 42.6289 82.0873 42.7636 81.9446 42.9255Z" fill="white"/>
<path fill-rule="evenodd" clip-rule="evenodd" d="M60.436 60.1821C60.4713 59.9827 60.9025 59.3295 61.1399 59.2463C61.2617 59.5044 60.9632 60.2123 60.8886 60.4692C60.5608 60.4211 60.5575 60.41 60.436 60.1821ZM61.4983 58.8767C61.5122 58.5944 61.5644 58.6644 61.6466 58.3943C61.2879 58.3446 61.2698 58.2473 61.1254 58.6498C60.8149 59.515 60.2474 59.4237 60.0205 60.1821C60.1787 60.4709 60.7241 60.9757 60.909 61.1717C61.2387 61.5212 61.3097 61.8517 61.579 62.2927C61.9332 62.8724 61.7428 63.2612 61.7751 63.974C61.796 64.4341 61.8645 64.3533 61.9399 64.6851C61.9745 64.8375 61.9686 65.3591 61.969 65.5826C62.3307 65.8122 62.2643 65.5889 62.2896 66.1394C62.3041 66.4559 62.3604 66.6869 62.3777 67.0024C62.461 68.5179 62.6229 68.2183 62.9887 68.192C62.9696 68.4981 62.9254 68.2633 62.8661 68.5981L63.3797 68.4838C63.4191 68.2681 63.3652 68.2687 63.4071 68.1311C63.4876 67.867 63.5363 68.1741 63.5038 67.8577C63.499 67.8113 63.3028 67.4027 63.2465 67.1657C63.1501 66.7602 62.9322 65.949 62.9992 65.5415C63.1942 65.4803 63.5193 65.322 63.6711 65.2974C64.0039 67.7834 63.6548 67.1192 64.3891 67.6782C64.6052 67.8426 64.6013 67.9293 64.7911 68.0687C65.6677 67.8062 64.7821 67.4167 64.78 67.4151C64.9076 66.8826 64.6848 66.485 64.5444 65.9405C64.4877 65.7207 64.4376 65.3973 64.4019 65.1748C64.3286 64.7187 64.4655 64.8552 64.5548 64.5219C64.0962 63.877 63.7655 63.0267 63.1971 62.4634C62.641 61.9122 62.4426 61.9329 62.739 61.2966C62.8168 61.1297 62.7851 61.1146 62.8046 60.7867C62.8284 60.3866 62.8306 60.6325 63.1041 60.3888C62.9606 60.1251 62.8836 60.1732 62.6949 60.0036C62.0724 59.4443 62.5503 58.9127 61.4983 58.8767Z" fill="white"/>
<path fill-rule="evenodd" clip-rule="evenodd" d="M78.301 48.6711C78.4121 48.8344 78.4314 48.8214 78.5214 49.076C78.6709 49.4982 78.4428 49.571 78.0671 49.4535L77.9491 48.5397C77.9643 48.2102 77.9114 48.7414 77.9691 48.4132C77.9718 48.3976 77.9889 48.3879 77.9915 48.3563C77.994 48.325 78.0081 48.3192 78.0178 48.3013L78.1993 48.4982C78.2483 48.5747 78.2406 48.5823 78.301 48.6711ZM77.5402 47.4934C77.518 48.0321 77.7326 47.7411 77.7326 48.7466C77.7326 49.0764 77.6536 49.4179 77.812 49.7008L77.9118 49.7548C78.2112 49.8562 78.5762 49.8111 78.8941 49.8187C79.4397 49.8315 79.6754 49.9478 80.1137 50.0935C81.3091 50.491 80.5227 50.2729 81.7997 51.3708C82.2117 51.725 81.9605 51.2861 82.6304 51.9893C83.1072 52.4897 82.9555 51.8952 83.551 52.4461C83.8064 52.6824 84.9288 53.5674 85.2512 53.7104C85.5029 53.5993 85.3682 53.5981 85.5956 53.4623C85.7834 53.7837 85.5617 53.6431 85.8273 53.7729L86.067 53.3721C85.9329 53.1982 85.8998 53.2554 85.8037 53.0951C85.6717 52.8748 85.9065 52.998 85.6589 52.817C85.5859 52.7636 85.0965 52.5692 84.9547 52.4876L83.6651 51.6705C83.6392 51.3026 83.767 51.1733 83.8403 50.8625C84.1772 51.0069 84.2542 51.2594 84.6903 51.5112C85.2089 51.8107 85.3006 52.0363 85.5221 52.1273C85.755 52.223 85.736 52.1344 86.0392 52.0785C86.2948 52.0314 86.6067 52.1049 86.6771 52.0756C86.8385 52.0086 86.8564 51.7313 86.7315 51.6061C86.5754 51.4495 86.3917 51.588 86.1839 51.6429C86.029 51.2055 85.6845 51.0972 85.0434 50.7458C84.7738 50.598 84.6563 50.4779 84.4269 50.3282C83.9212 49.9981 84.2162 50.1885 84.0058 49.7111C83.6595 49.5443 82.0404 49.1717 81.6024 49.1477C80.6922 49.098 80.7124 49.3436 80.4833 48.6249C80.4204 48.4275 80.4338 48.5125 80.2221 48.2578C80.0264 48.0223 80.1488 48.0151 80.1507 47.7163C79.5192 47.6671 79.6734 47.8196 78.9416 47.6113C77.939 47.326 78.4413 47.5997 77.9503 47.7745L77.8156 47.374L77.5402 47.4934Z" fill="white"/>
<path fill-rule="evenodd" clip-rule="evenodd" d="M36.9959 51.5317C36.8266 51.6532 35.8028 52.0603 35.7436 51.6349C35.6884 51.2379 35.9876 51.2849 36.2803 51.3346C36.5864 51.3865 36.7975 51.3681 36.9959 51.5317ZM29.755 57.0308C29.8288 57.1979 29.8621 57.2014 29.9494 57.3575C29.9329 57.3666 29.9047 57.3532 29.8957 57.3752C29.8472 57.4927 29.8829 57.3769 29.7881 57.4112L29.5786 57.4952L29.85 57.8633C30.1553 57.7889 30.0064 57.7488 30.2284 57.6921C30.4637 57.632 30.3471 57.8 30.5736 57.587C30.749 57.4221 30.6098 57.3719 31.0844 56.9931C31.3009 56.8203 31.4978 56.6686 31.6794 56.4858C31.8772 56.2866 31.9996 56.0931 32.3442 56.0458C32.4247 56.0921 32.8574 56.415 32.8811 56.4423C32.7475 56.6726 32.4884 56.706 32.2374 56.9058C31.9757 57.1142 31.9348 57.2056 31.5917 57.433C31.3141 57.617 31.1576 57.6542 31.1421 57.985C31.1199 58.4554 30.963 58.6241 30.936 58.8351C31.5678 59.4418 31.509 58.6449 31.5186 58.4717C31.9912 58.4183 32.4922 57.8159 32.7157 57.5912C32.9379 57.3679 33.0613 57.3274 33.2827 57.1243C33.6073 56.8266 33.465 56.8958 33.9766 56.9172C34.3416 56.3375 34.9518 55.3749 35.1773 54.7486C35.3559 54.2524 35.2994 53.7947 35.8336 53.8115C36.2741 53.8254 36.0113 53.8337 36.4386 53.6582C36.9151 53.4624 36.6453 53.813 36.9661 53.7065C37.1553 53.2551 36.8447 53.5015 37.3375 52.7081C37.6262 52.2434 37.7684 52.3093 37.4988 51.7088C37.6015 51.6272 37.4851 51.6717 37.6568 51.6302C37.76 51.6053 37.8068 51.6129 37.9108 51.6127C37.8771 50.9538 37.5487 51.3697 36.95 51.2365C36.5014 51.1367 36.1537 50.894 35.6509 50.9562C35.4462 51.2718 35.3766 51.6477 35.262 52.01C35.0985 52.5271 34.4664 53.5607 34.0084 53.7865C33.8424 53.8683 33.6752 53.9404 33.4918 54.0263C33.2924 54.1197 33.2082 54.1898 33.0167 54.3085C32.6369 54.5438 32.7383 54.6485 32.1993 54.9379C31.749 55.1797 31.9113 55.1132 31.8348 55.3438C31.7346 55.6456 31.6417 55.5907 31.0271 56.0403C30.6172 56.3402 30.2656 56.4413 29.755 57.0308Z" fill="white"/>
<path fill-rule="evenodd" clip-rule="evenodd" d="M54.5615 65.5899C54.8459 65.5468 54.9221 65.7726 54.985 65.9683C54.8229 66.0843 54.7667 66.0813 54.5302 66.079L54.5615 65.5899ZM53.0818 68.3104C53.1706 69.1425 53.2885 68.7672 53.2885 69.4225C53.6055 69.4461 53.7979 69.5363 54.0473 69.3437C54.0219 68.8994 53.6937 69.2256 53.9673 68.7972C54.0639 68.6459 54.2192 68.6106 54.3105 68.4403C54.501 68.0846 54.313 67.5309 54.3281 67.1394C54.564 66.9138 54.9586 66.7207 55.2897 66.5928C55.8722 66.3678 55.6633 66.2324 55.5686 65.6881C55.4755 65.1529 55.5153 64.9438 55.311 64.4232C55.1575 64.0325 55.2639 63.6178 55.3374 63.1929C55.9711 63.2775 56.0185 64.154 56.4061 63.5573C56.2753 63.231 56.2024 63.3798 55.8593 63.2585C55.0603 62.9762 55.6065 62.4804 55.7213 62.1931C55.9267 61.6787 55.1398 61.2484 54.8109 60.1017C54.6476 59.5323 54.139 59.0948 53.8236 59.8225C53.5092 60.5475 54.0086 60.8759 53.3014 61.3905L53.6162 61.4218C53.4894 61.9834 53.6336 61.7905 53.2878 62.2481C52.9737 62.664 52.5691 63.0914 52.1461 63.3789C51.946 63.5149 51.7061 63.7316 51.7804 64.0979C52.1348 63.9939 52.0308 63.7469 52.255 63.4901C52.4228 63.298 52.7219 63.2682 52.9858 63.1185C53.353 62.91 53.7262 62.2583 54.1151 62.1144L54.2973 62.2702C54.3566 63.3509 53.2505 62.8417 53.7952 65.5333C53.8781 65.9431 53.9109 66.3038 53.631 66.6002C53.3531 66.5921 53.4199 66.5582 53.2177 66.458C52.9582 66.6037 53.1015 66.6135 52.6848 66.6821C52.8323 66.9055 52.799 66.6261 52.9098 66.9074C52.7595 67.0619 52.3748 67.149 52.5248 67.5395C52.5654 67.6454 52.3971 67.6235 52.6636 67.6599C52.8814 67.6896 52.8379 67.4314 53.1005 67.354C53.5799 67.2127 53.5418 67.5367 53.5286 67.8262C53.5036 68.3725 53.5226 68.0781 53.0818 68.3104Z" fill="white"/>
<path fill-rule="evenodd" clip-rule="evenodd" d="M78.0866 57.7842C77.8746 57.6798 77.7877 57.6104 77.7507 57.349C77.9095 57.2473 78.2066 57.3596 78.3315 57.4526C78.2064 57.6509 78.2941 57.6203 78.0866 57.7842ZM73.9347 55.2659C73.9528 55.2536 73.9788 55.2108 73.9877 55.2271L74.1952 55.1166C74.4938 55.9425 74.438 54.9061 74.5456 56.7898C74.5715 57.2429 74.5283 57.1651 74.4741 57.5732C74.4318 57.8916 74.4613 58.1931 74.711 58.2967C74.8684 58.044 74.6816 57.8559 74.6437 57.6205C74.5846 57.2543 74.764 57.1215 74.8544 56.8862C75.1312 56.1658 74.7456 55.3536 75.0555 55.2598C75.4672 55.1352 75.5941 55.9556 75.6912 56.3759C75.9469 57.4819 77.4833 57.7896 77.7583 58.5902C77.8866 58.9637 77.6886 58.9038 77.4076 59.0108C77.3379 59.3284 77.4165 59.3056 77.1967 59.4839C77.207 59.4917 77.2291 59.4815 77.2336 59.4954L77.3101 59.515C77.5119 59.5592 77.2796 59.411 77.5183 59.5603C77.445 59.951 77.42 60.3837 77.9052 60.2809L77.918 59.6841L78.3668 59.4636C78.5267 59.7758 78.6128 59.7948 78.8105 60.0016L78.6047 60.4824L79.6022 61.064C79.7833 60.8963 80.0316 60.7801 80.0532 60.4779C79.7975 60.2622 79.9016 60.513 79.6309 60.2971C79.5744 59.8405 79.695 59.7011 79.4221 59.3961C79.2138 59.1634 78.9786 59.0283 78.8001 58.8437C78.4156 58.4458 79.1055 57.7088 79.0252 57.1714L78.39 56.7108C78.2074 56.562 77.9943 56.3537 77.7709 56.2274C77.5128 56.0815 77.23 56.0475 77.0629 55.8326C76.9945 55.7446 76.6686 55.1978 76.6525 55.1532C77.1133 54.7595 77.7504 55.4483 77.6149 54.6667C77.3147 54.6041 77.345 54.6692 77.1183 54.8044C76.903 54.9327 76.7391 54.9445 76.4434 54.9296C76.2954 54.6763 76.1948 54.2496 76.1165 53.9531C75.7222 53.8536 75.1873 53.704 74.7838 53.6271C74.2234 53.5203 74.0291 53.1824 73.5949 53.1608C73.0239 53.1323 73.1262 53.7647 73.3495 54.1047C73.6596 54.5769 73.9661 54.4637 73.9347 55.2659Z" fill="white"/>
<path fill-rule="evenodd" clip-rule="evenodd" d="M28.142 49.2859C27.9303 49.2061 27.9407 49.2048 27.8536 48.9536L28.0594 48.8013C28.1665 48.7603 28.219 48.7646 28.346 48.7569C28.3734 48.9994 28.3161 49.1381 28.142 49.2859ZM31.3691 45.6505C31.507 45.8777 31.4823 45.6976 31.5106 45.977C31.0651 46.0072 31.2009 46.1461 30.6249 46.0613C29.5495 45.903 28.7437 45.3103 28.4526 45.4812C28.2453 45.603 28.3882 45.4568 28.3025 45.6755C28.5363 45.7158 28.9666 45.6961 29.1393 45.7521C29.364 45.8249 29.5072 46.0649 29.6839 46.1721C30.0507 46.3947 30.797 46.4912 31.11 46.6804C31.0963 47.0044 31.0692 47.0348 30.755 47.0692C30.5161 47.0953 30.2434 47.0945 30.0018 47.0796C29.2854 47.0353 29.2515 47.1203 28.8139 47.4215C28.0426 47.9523 27.5513 48.5486 26.8921 48.4122C26.7345 47.6856 27.0767 48.22 26.4198 47.6534L26.3791 47.914C26.0965 47.8881 25.7428 47.5518 25.5096 47.9892C25.7639 48.5036 26.0917 47.8468 26.1622 48.7743L25.5244 49.0506C25.2952 48.9283 25.3417 48.8696 25.0921 48.7496C25.042 48.8101 25.0135 48.852 24.9379 48.9178L24.5297 49.337C24.4527 49.4057 24.3921 49.4256 24.29 49.5047C24.686 50.6617 24.8858 49.8662 24.9731 49.7794C25.3974 49.7907 25.4509 50.0065 25.8623 49.8486C26.7189 49.5198 26.4684 49.0081 27.3293 49.5582C28.4184 50.2542 27.8816 50.2093 28.6938 49.6426C29.0442 49.3981 29.3934 49.1801 29.6438 48.8723C29.7849 48.6988 29.7308 48.669 29.9607 48.5656C30.6291 48.2649 30.7709 48.2731 30.8097 48.4857C30.8297 48.5953 30.8321 48.5154 30.8139 48.6547C30.7779 48.9317 30.3529 49.4595 31.0088 49.3443C31.1257 48.9312 30.8673 48.7891 30.9787 48.4177C31.1252 47.9289 31.5594 48.2586 31.9914 48.1276C32.131 48.0853 32.6887 47.1258 32.7877 46.919C32.9891 46.4982 33.0191 46.616 33.2709 46.3667C33.6114 46.0295 33.7773 45.2854 32.9315 45.4051C32.1309 45.5185 32.348 45.9925 31.3691 45.6505Z" fill="white"/>
<path fill-rule="evenodd" clip-rule="evenodd" d="M15.1033 34.8935C17.8981 34.1404 20.4654 36.5175 20.4654 39.1348L15.1055 39.1344L15.1033 34.8935ZM10.3103 30.2449L12.4886 30.2473C12.5558 30.3734 12.5184 30.271 12.553 30.4343L12.5642 32.2147L11.6381 32.2395L11.6041 34.7535L12.5669 34.7679L12.5691 41.6666L23.0512 41.6663C23.1563 38.3508 23.111 35.7492 20.284 33.5962C18.8117 32.4749 17.0903 32.0847 15.1478 32.2569C15.0735 31.8681 15.0219 30.5932 15.1631 30.2608C15.8006 30.1881 17.6109 30.197 18.2697 30.2507C19.7012 30.3674 19.7761 31.4511 19.9533 31.7772C20.4533 31.7881 22.2279 31.8755 22.5619 31.7264C22.6699 31.4127 22.6123 28.3331 22.6032 27.7594C22.1883 27.6398 11.5613 27.6907 10.2822 27.7166L10.3103 30.2449Z" fill="white"/>
<path fill-rule="evenodd" clip-rule="evenodd" d="M29.5373 32.2103C30.0788 30.9568 31.9853 30.244 33.5149 30.244C34.2616 30.244 34.1307 30.229 34.1211 30.8334L34.1188 33.7349C33.6666 33.5609 33.4759 33.1645 32.1136 32.6514C31.0807 32.2625 30.6169 32.3539 29.5373 32.2103ZM26.1012 41.6346L28.6976 41.6566C28.766 41.0413 28.7388 35.9293 28.7136 34.9132C30.08 34.3522 32.2919 35.1871 33.3734 36.7663C34.3696 38.221 34.1188 39.7039 34.1188 41.6668L36.7645 41.6626C36.8619 38.5727 36.7713 34.6327 36.771 31.3874C36.7708 30.1193 36.6484 30.2304 37.2989 30.2407C37.7434 30.2477 38.6155 30.3177 39.0004 30.1964L39.001 27.7649C38.3752 27.6979 33.6319 27.7422 32.6107 27.7426C31.3025 27.7426 29.7007 28.5048 28.8855 29.0994C27.962 29.7731 27.1767 30.6924 26.61 31.9245C25.9556 33.3475 26.1012 34.8047 26.1012 36.485C26.1012 38.2015 26.1012 39.918 26.1012 41.6346Z" fill="white"/>
<path fill-rule="evenodd" clip-rule="evenodd" d="M93.9781 32.2333C94.5596 30.8714 96.8844 30.0303 98.5001 30.2647C98.657 30.638 98.5703 33.1538 98.5533 33.7386C98.2213 33.5449 97.9689 33.326 97.6195 33.1406C96.4011 32.494 95.474 32.2333 93.9781 32.2333ZM90.542 41.6667H93.1388L93.1343 34.9797C93.2878 34.5974 96.0628 34.5063 97.5443 36.3847C98.8122 37.9924 98.5592 39.2676 98.5592 41.6514C99.0046 41.6894 100.841 41.7156 101.205 41.6272C101.262 40.1516 101.067 30.7402 101.274 30.2609L103.471 30.2459L103.471 27.724C100.041 27.9739 97.0509 27.1117 94.2513 28.5387C91.8244 29.7757 90.5409 31.9157 90.542 34.9005C90.5428 37.1559 90.542 39.4113 90.542 41.6667Z" fill="white"/>
<path fill-rule="evenodd" clip-rule="evenodd" d="M52.1271 28.888C53.258 28.6736 54.1662 29.4604 54.3518 30.3885C54.5815 31.5364 53.7852 32.4768 52.8339 32.6606C50.368 33.1371 49.5669 29.3733 52.1271 28.888ZM44.0052 27.1852V27.5616C43.3576 27.5616 41.4444 27.483 41.1261 27.5627L41.1128 29.7138L43.9669 29.8131L43.9467 41.5566C44.2584 41.6654 45.4871 41.6165 45.9159 41.588L45.9645 29.9127L47.3244 29.9738C47.4282 30.5689 46.9682 34.4937 46.9634 35.5826C47.5372 35.6744 54.819 36.7168 55.338 36.6783C55.352 35.1305 55.5149 33.6138 55.5175 32.0045C55.5186 31.3187 55.5647 30.4003 55.6045 29.7249C55.628 29.3248 55.6358 28.9617 55.6384 28.5601C55.6406 28.2174 55.8112 27.6219 55.4908 27.6219C54.4616 27.6219 46.7039 27.7236 45.9341 27.5339C45.9341 26.7285 46.0634 26.8483 44.392 26.8617C44.0684 26.8643 44.0052 26.853 44.0052 27.1852Z" fill="white"/>
<path fill-rule="evenodd" clip-rule="evenodd" d="M74.749 30.1473L74.7495 30.2439C77.4232 30.2439 76.9828 29.9647 76.9788 31.1116C76.9774 31.4831 76.9787 31.8548 76.9787 32.2263L76.1105 32.2367L76.0729 34.6976L76.9687 34.7073L76.9789 41.6667L79.5879 41.6627L79.6011 34.8854C81.3662 34.7378 82.7579 34.99 83.9498 36.4777C85.1645 37.9937 84.9353 39.3798 84.9353 41.6312C85.2923 41.7095 87.1613 41.7163 87.4912 41.6212C87.5994 38.9294 87.5749 36.2788 85.6726 34.4104C85.3852 34.1281 85.2146 33.9427 84.8763 33.6895C84.5572 33.4507 84.1059 33.1933 84.0021 33.0097C85.5279 31.936 86.5041 29.8029 86.5292 27.7667L83.9461 27.7424C83.6813 29.1461 83.796 29.5028 82.6817 30.8144C82.0254 31.5868 80.7452 32.1387 79.6029 32.1429L79.6001 27.7435L74.7968 27.7421C74.6758 28.1874 74.749 29.6071 74.749 30.1473Z" fill="white"/>
<path fill-rule="evenodd" clip-rule="evenodd" d="M63.455 27.7097L57.7971 27.7448L57.7783 31.856C58.2618 31.8985 61.1077 31.9234 61.4443 31.8299C61.4976 31.1682 61.4503 30.7974 61.8897 30.4829C62.2746 30.2075 62.8427 30.1922 63.4375 30.2605C63.5612 30.7304 63.4757 40.3172 63.4757 41.6667H65.7552C66.1912 41.6667 66.0681 41.6783 66.0679 40.5491C66.0677 38.8186 65.9964 30.6242 66.1217 30.2439C67.5603 30.2439 68.0872 30.3131 68.0872 31.8716L71.7517 31.8664L71.7582 27.7424L66.0784 27.7419C66.0417 27.0436 66.4454 26.9882 63.8208 27.072C63.3258 27.0878 63.5118 27.2586 63.455 27.7097Z" fill="white"/>
<path fill-rule="evenodd" clip-rule="evenodd" d="M59.9646 16.1516C60.0457 15.5301 59.76 15.8192 61.0599 15.2114C61.0798 15.6821 60.9648 15.9949 60.8537 16.4298C60.5227 16.4197 60.287 16.2307 59.9646 16.1516ZM62.217 14.5976C62.2895 15.1007 62.1201 15.6063 61.7889 15.7208L61.8376 14.7263L62.217 14.5976ZM59.8998 15.4079L59.8555 15.3159C59.814 15.2444 59.8083 15.2376 59.7758 15.1866C59.6515 14.992 59.6995 15.2192 59.6587 14.9486C59.6265 14.7348 59.7267 14.6493 59.7811 14.4214C59.2147 14.3805 59.243 14.1511 58.6834 14.5341C58.6263 14.5732 58.2783 14.8414 58.2583 14.867C58.1453 15.0115 58.1399 15.2221 58.0611 15.4059C58.07 15.4167 58.0894 15.4149 58.0936 15.4325C58.0952 15.4392 58.6861 15.9825 58.7555 16.3302C57.546 16.6676 57.9435 16.5775 57.413 18.4972C57.2782 18.985 57.2543 19.4815 57.2055 20.0199C57.1242 20.9161 57.2872 20.9662 58.0306 20.9999L58.1646 22.9468L58.603 23.1764C58.6462 23.8767 58.1731 24.9456 58.3483 25.3602C58.5475 25.8318 58.5413 25.1066 58.5237 26.6953L59.2609 26.6924C59.2791 26.2996 58.9745 26.3072 59.2999 25.7653C59.5503 25.3484 59.4686 25.8073 59.6456 24.7953C59.7255 24.3381 59.7509 24.2593 59.9293 23.84C60.2283 23.137 60.2923 22.6332 60.8109 23.3112L61.4985 24.2675C61.9756 25.4779 62.7972 25.379 63.07 26.8319C63.834 26.9717 64.4653 27.0421 64.462 26.4052C64.1334 26.4102 63.9721 26.5926 63.7538 26.3648C63.7005 26.309 63.4607 25.814 63.4551 25.7291C63.4372 25.4589 63.6057 25.4971 63.4629 25.0114C63.332 24.5664 63.2584 24.8221 63.1037 24.395C63.0248 24.1774 62.9786 23.9487 62.8922 23.7091C62.6186 22.9498 62.6615 23.7841 62.3034 22.3691C62.1788 21.8764 62.0576 22.0636 62.0246 21.6746C62.7498 21.2221 62.6487 21.6054 61.8784 19.8338C61.7344 19.5028 61.5616 19.1147 61.4084 18.7894C61.2563 18.4666 61.0312 18.1454 60.9135 17.748C61.255 17.3995 62.0698 17.1619 62.3311 16.8034C62.9563 15.9457 62.9263 14.9909 62.9406 14.4682L62.9525 14.0378L77.5897 4.86627L76.8546 4.36597L63.1734 13.3748C62.2989 13.9319 60.8465 15.0853 59.8998 15.4079Z" fill="white"/>
<path fill-rule="evenodd" clip-rule="evenodd" d="M48.3757 14.615C48.5472 14.7321 50.0034 16.0402 50.0542 16.204L50.1915 16.985C49.4114 17.0786 49.7164 16.7058 49.2531 16.7627C48.356 16.8728 48.4656 16.2663 48.2878 15.5767C48.1947 15.2155 48.2562 15.3975 48.3407 15.079C48.4065 14.8308 48.3498 14.8386 48.3757 14.615ZM36.7754 3.8495L47.6314 13.8303C47.9419 14.1086 47.7696 14.1003 47.8053 14.5619C47.8794 15.5215 47.5574 15.0477 47.3399 15.9935C47.182 16.6799 47.1688 16.9183 47.6149 17.4957C47.8617 17.815 47.9777 17.6556 48.3441 18.2138C48.7137 18.7767 49.2368 18.8077 48.4798 19.8308C48.3386 20.0216 48.3044 20.2766 48.2491 20.5742C48.1571 21.0691 48.0786 20.8117 47.8672 21.1925C47.9725 21.5619 48.2179 21.4975 48.2586 21.8203C48.2828 22.0121 48.0992 22.3957 48.0503 22.6391C48.8673 23.4654 48.4188 22.3611 48.841 24.4639C48.8946 24.731 48.8318 24.8014 48.8861 25.032C48.9508 25.3064 49.0388 25.1626 49.0289 25.5977C49.019 26.0326 49.0504 26.3953 49.0599 26.7965L50.3078 26.7473C50.4298 26.5676 50.3234 26.7623 50.3882 26.5528C50.4839 26.2439 50.4869 25.2897 50.3841 25.0611C50.1921 24.6346 50.1915 23.861 50.3701 23.3812C50.3742 23.3702 50.3832 23.3489 50.3931 23.3347C50.6483 24.0147 50.4968 24.3409 51.0962 24.5585C51.0652 25.3242 51.3132 25.1058 51.4485 25.6407C51.5429 26.0139 51.28 26.3715 51.6331 26.8554L52.805 26.3788C52.8096 25.4448 52.5798 25.5024 52.5536 24.3486C52.5474 24.0769 52.3082 23.4506 52.183 23.1885C52.0086 22.8232 51.9911 22.9609 52.079 22.668C52.0973 22.6068 52.0874 22.7476 52.1245 22.4985C52.1949 22.0271 52.0219 22.3686 52.2221 21.9839C52.5811 21.2942 51.7684 21.3081 52.254 20.0242C52.6382 19.0081 52.7583 19.3326 52.8488 18.9628C52.9216 18.665 52.8017 18.5547 52.8116 18.3036C52.8151 18.2159 53.1134 17.3427 52.4871 17.0943C52.1052 16.9428 52.0839 17.1719 52.0508 16.8527C52.0854 16.5566 52.6958 16.856 52.6209 16.0173C52.573 15.4815 52.3534 15.3576 52.0464 15.062C51.6244 15.0857 51.7748 15.216 51.3489 15.0779C51.185 15.0247 51.2317 14.9959 51.0096 14.9918C50.35 14.9797 50.6369 15.5792 50.6662 15.8347C50.3586 15.8504 50.299 15.9566 50.1411 15.8593L48.5231 14.3144C48.3718 14.0661 48.4627 14.124 48.2372 13.9822L48.1058 13.904L37.4419 3.46448L36.7754 3.8495Z" fill="white"/>
<path fill-rule="evenodd" clip-rule="evenodd" d="M56.3708 15.1511C56.3748 15.1616 56.5053 15.8206 56.5054 15.8263L56.4106 16.5432C56.3632 16.7667 55.9391 17.3905 55.3528 17.0592C55.4006 16.6732 55.5028 16.8356 55.6568 16.555C55.4375 16.2952 55.8246 16.827 55.5877 16.4242C55.5245 16.3167 55.5482 16.3576 55.5071 16.2988C55.3425 16.0629 55.4767 16.443 55.3784 16.1203L56.3708 15.1511ZM54.9332 16.1031C54.9908 15.7846 55.1856 15.3502 54.6759 15.3636C54.5157 15.3679 54.3478 15.4714 54.2179 15.4929C54.0453 15.5213 53.9716 15.4513 53.7686 15.4182C53.5419 15.6282 53.2685 15.8207 53.2514 16.1873C53.2119 17.0339 53.6036 16.6323 53.7546 17.0027C53.612 17.2728 52.8752 17.0715 53.0113 17.943C53.0617 18.266 53.223 18.2389 53.2784 18.5841C53.306 18.7554 53.2683 18.789 53.3237 18.9555C53.4184 19.2406 53.4032 19.075 53.5415 19.2148C54.2792 19.9603 53.7861 21.2626 53.7861 21.2656C53.781 21.6417 53.9412 21.3996 53.9453 21.907C53.9492 22.3729 53.8533 22.9079 53.7734 23.3997C53.6853 23.9411 53.6841 24.5184 53.5828 25.0051C53.4751 25.523 53.3917 26.1629 53.6972 26.5012C53.9648 26.7973 54.3128 27.1597 54.8856 26.9928C55.0996 26.3184 54.6285 26.6336 54.5522 26.1317C54.5286 25.9759 54.7536 25.3573 54.765 24.9809C54.778 24.5569 54.76 24.1151 54.885 23.7505C55.0358 23.3107 55.0994 23.1545 55.1571 22.6331C55.3192 22.8484 55.2939 23.3233 55.3096 23.6031C55.3399 24.1414 55.1264 24.0827 55.1138 24.4105L55.3124 26.4038C55.6353 26.6091 56.4207 26.7879 56.8121 26.6616C56.8727 26.0452 56.2182 26.6425 56.1656 25.8106C56.1084 24.9068 56.3087 24.3767 56.339 23.8184C56.3529 23.5642 56.445 23.4324 56.4873 23.146C56.6179 22.2617 56.438 22.5386 57.0511 22.0691C57.0269 21.8281 56.8743 21.5933 56.8747 21.3942C56.8754 21.0464 57.1132 21.1225 57.222 20.7791C57.0123 20.3212 56.9839 20.821 56.862 20.0905C56.7741 19.5636 56.7237 19.6915 56.502 19.3525C55.62 18.0037 56.9027 17.8628 57.1778 17.505C57.5583 17.0102 57.408 16.384 57.1106 15.8527C56.8009 15.2995 56.9055 15.7552 56.9055 14.9237C56.9055 14.6223 56.7781 14.6492 57.1214 14.3635L71.3032 1.37032L70.479 0.988281L56.7006 14.4811C55.9655 15.0857 56.6112 14.556 55.9738 15.2003C55.6772 15.5002 55.3103 16.0048 54.9332 16.1031Z" fill="white"/>
<path fill-rule="evenodd" clip-rule="evenodd" d="M5.06253 32.407C4.93891 32.407 5.00705 32.3507 4.99429 32.2057C4.98798 32.1336 4.94958 32.0152 4.94204 31.9241C4.80725 31.9601 4.72345 32.1249 4.69986 31.8976C4.67888 31.6953 4.71879 31.6949 4.64069 31.5318C4.50068 31.5692 4.61401 31.5793 4.45987 31.5921C4.45987 31.4233 4.42337 31.252 4.36946 31.1394C4.22945 31.1769 4.34283 31.1869 4.18864 31.1998C4.16766 31.121 4.02956 30.8153 3.97775 30.7773C3.94148 30.8529 3.942 30.9069 3.8982 30.9995C3.86232 31.0753 3.83172 31.1339 3.79693 31.1998C3.64273 31.1869 3.75611 31.1769 3.61611 31.1394C3.60601 31.2609 3.60087 31.1989 3.57516 31.3097C3.48531 31.6969 3.64577 31.6123 3.34489 31.5318C3.28941 31.6477 3.30365 31.7493 3.28514 31.8971C3.27469 31.9808 3.28542 32.0114 3.20815 32.0015C3.15544 31.9947 3.13142 31.945 3.07366 31.9241C2.98415 32.0935 3.01344 32.1443 3.01344 32.407C2.83215 32.403 2.86011 32.3281 2.79589 32.377C2.72542 32.4309 2.74221 32.7287 2.74221 32.8295C2.62153 32.8268 2.48362 32.6975 2.59927 33.185C2.69978 33.6089 2.58745 33.3425 2.07927 33.3425C1.9894 33.3425 2.04696 33.4563 2.04915 33.5538H1.56696C1.58197 33.7343 1.62264 33.5874 1.62725 33.7952L1.14511 33.8254C1.16191 34.0281 1.21867 33.8642 1.23547 34.0668C0.524702 34.0668 0.787989 34.2121 0.813616 34.3083C0.669638 34.3419 0.506614 34.365 0.361589 34.3989C0.374439 34.5532 0.384501 34.4397 0.421856 34.5799C0.292721 34.6145 0.256368 34.7012 0 34.761V34.8213C0.10882 34.8238 0.0585117 34.8216 0.126333 34.8457C0.126908 34.8459 0.206782 34.883 0.22937 34.8934C0.326933 34.9385 0.346305 34.9517 0.421856 35.0024C0.392055 35.1143 0.391435 35.0414 0.361589 35.1533C0.498028 35.2189 0.605992 35.2438 0.813616 35.2438C0.802034 35.3829 0.789273 35.3261 0.723208 35.4249C0.819842 35.4714 1.08598 35.5154 1.23547 35.5154C1.18208 35.7158 0.975076 35.7218 1.40817 35.7652C1.7979 35.8043 1.58111 35.8284 1.56696 35.9983C1.78086 36.0483 1.79321 36.0285 2.04915 36.0285C2.04705 36.1204 2.03552 36.1385 2.01901 36.2096C2.17201 36.213 2.14434 36.2323 2.315 36.2062C2.38315 36.1958 2.55409 36.1344 2.60635 36.1617C2.67967 36.2 2.64801 36.1434 2.58826 36.417C2.5663 36.5178 2.5614 36.6153 2.5624 36.7574L2.74221 36.7226C2.74221 36.8076 2.73714 36.9098 2.74373 36.9927C2.75133 37.0876 2.77002 37.1015 2.77235 37.2055C3.01832 37.185 2.98567 36.9314 3.04358 37.628C3.2158 37.6137 3.24788 37.4452 3.2821 37.6267C3.29866 37.7145 3.29335 37.9459 3.33146 38.0063C3.41892 38.1452 3.49528 37.8243 3.55347 38.0802C3.58593 38.2228 3.54962 38.2739 3.61611 38.4127C3.88254 38.3905 3.71059 38.2173 3.97775 38.7748C4.04973 38.722 4.18338 38.4023 4.18864 38.3825C4.27199 38.3844 4.45987 38.5415 4.45987 37.9902C4.61401 38.003 4.50068 38.0131 4.64069 38.0505C4.72572 37.873 4.66844 37.6682 4.73108 37.5375C4.84494 37.568 4.81874 37.5957 4.9119 37.6582C4.9615 37.5547 4.99566 37.4083 4.9949 37.2663C4.99448 37.1925 4.94921 37.1478 5.05162 37.1553C5.14829 37.1625 5.05959 37.1927 5.21322 37.2055C5.21624 37.069 5.24334 37.0856 5.24334 36.9339C5.24334 36.8158 5.17434 36.8153 5.23827 36.7513C5.2853 36.7042 5.29659 36.75 5.42416 36.7528C5.46165 36.5756 5.36389 36.375 5.36389 36.1492C5.59734 36.1545 5.74156 36.2621 5.97117 36.2086L5.93643 36.0285C6.8601 36.0285 6.18074 35.901 6.39724 35.7786C6.4214 35.7649 6.65319 35.7763 6.7509 35.7548C6.93936 35.7134 6.7825 35.6371 6.75009 35.5154C6.89958 35.5154 7.16573 35.4714 7.26235 35.4249C7.22339 35.2787 7.21091 35.3901 7.17194 35.2438C7.33989 35.2082 7.43368 35.2592 7.65412 35.1533C7.59551 35.0656 7.59313 35.1128 7.56372 35.0024C7.674 34.944 7.84338 34.8332 7.98556 34.8213V34.761C7.72919 34.7012 7.69284 34.6145 7.56372 34.5799C7.60106 34.4397 7.61112 34.5532 7.62398 34.3989C7.50069 34.37 7.30013 34.319 7.17194 34.3083C7.20986 34.2365 7.24152 34.2054 7.26235 34.1272C7.17303 34.1197 7.15837 34.1075 7.05961 34.0888C6.56576 33.9951 6.81673 34.111 6.84045 33.8254C6.81431 33.8248 6.4793 33.7998 6.44713 33.7937C6.27594 33.7606 6.40483 33.7193 6.41859 33.5538H5.93643C5.94621 33.4366 5.96362 33.4752 5.96657 33.3425C5.65272 33.3425 5.54176 33.4183 5.36389 33.4331C5.36389 33.2457 5.43208 33.0994 5.44105 32.931C5.44989 32.7661 5.40172 32.8639 5.28132 32.8204C5.12418 32.7636 5.2628 32.79 5.24891 32.6476L5.21322 32.3466C5.08531 32.3808 5.16049 32.407 5.06253 32.407ZM4.09824 34.761C4.09824 34.7055 4.16738 34.6842 4.21879 34.6704V34.8817C4.15054 34.8635 4.09824 34.8527 4.09824 34.761ZM3.76679 34.6704C3.84148 34.6879 3.8982 34.6844 3.89128 34.7899C3.88524 34.8817 3.85307 34.8745 3.76679 34.8817V34.6704ZM4.00787 34.8817C4.09894 34.8817 4.09117 34.9172 4.09824 35.0024H3.88734C3.90393 34.9328 3.91889 34.8817 4.00787 34.8817ZM3.38086 34.0002C3.45836 34.2078 3.56523 34.3443 3.7974 34.4306C3.97047 34.495 4.10825 34.4833 4.26201 34.4123C4.34174 34.3755 4.54107 34.1777 4.59963 34.0257C4.85524 33.3623 4.32836 32.6449 4.00787 32.1656C3.95387 32.2052 3.92487 32.2567 3.88411 32.3132L3.43007 33.2141C3.30436 33.4636 3.27184 33.7237 3.38086 34.0002ZM3.55542 36.7231C3.61354 36.8347 3.68473 36.9499 3.75658 37.0648C3.8104 37.1509 3.82213 37.1423 3.87092 37.2219C3.9384 37.3322 3.8934 37.3098 4.00787 37.3866L4.34596 36.8802C4.52331 36.5565 4.71804 36.1599 4.66991 35.7788C4.64538 35.5837 4.48169 35.2903 4.3052 35.189C4.03131 35.0317 3.57306 35.1037 3.40877 35.4889C3.26208 35.9613 3.31722 36.2654 3.55542 36.7231ZM1.38615 34.761C1.46953 34.8857 1.87407 35.1325 2.20552 35.2827C2.5763 35.4507 2.96204 35.5498 3.34076 35.335C3.66993 35.1485 3.857 34.6803 3.43752 34.3061C3.3166 34.1981 3.21675 34.1514 3.10456 34.1326C2.81012 34.0831 2.56435 34.1207 2.29407 34.239C2.00571 34.3651 1.60864 34.6118 1.38615 34.761ZM4.30918 34.7911C4.30918 35.0536 4.4433 35.2072 4.6095 35.3081C5.07558 35.5914 5.51172 35.4388 5.95726 35.1861L6.46496 34.898C6.56903 34.8418 6.5325 34.8912 6.59941 34.7911C6.51831 34.6699 6.31153 34.5911 6.1564 34.4803C5.95137 34.3728 5.71602 34.223 5.49322 34.17C4.94598 34.0396 4.30967 34.2148 4.30918 34.7911ZM4.00787 34.6702C4.09894 34.6702 4.09117 34.6347 4.09824 34.5495H3.88734C3.90393 34.6191 3.91889 34.6702 4.00787 34.6702Z" fill="white"/>
<path fill-rule="evenodd" clip-rule="evenodd" d="M110.077 32.407C109.953 32.407 110.021 32.3507 110.008 32.2057C110.002 32.1336 109.964 32.0152 109.956 31.9241C109.821 31.9601 109.738 32.1249 109.714 31.8976C109.693 31.6953 109.733 31.6949 109.655 31.5318C109.515 31.5692 109.628 31.5793 109.474 31.5921C109.474 31.4233 109.438 31.252 109.384 31.1394C109.244 31.1769 109.357 31.1869 109.203 31.1998C109.182 31.121 109.044 30.8153 108.992 30.7773C108.956 30.8529 108.956 30.9069 108.912 30.9995C108.876 31.0753 108.846 31.1339 108.811 31.1998C108.657 31.1869 108.77 31.1769 108.63 31.1394C108.62 31.2609 108.615 31.1989 108.589 31.3097C108.499 31.6969 108.66 31.6123 108.359 31.5318C108.304 31.6477 108.318 31.7493 108.299 31.8971C108.289 31.9808 108.3 32.0114 108.222 32.0015C108.17 31.9947 108.146 31.945 108.088 31.9241C107.998 32.0935 108.028 32.1443 108.028 32.407C107.846 32.403 107.874 32.3281 107.81 32.377C107.74 32.4309 107.756 32.7287 107.756 32.8295C107.636 32.8268 107.498 32.6975 107.613 33.185C107.714 33.6089 107.602 33.3425 107.093 33.3425C107.004 33.3425 107.061 33.4563 107.063 33.5538H106.581C106.596 33.7343 106.637 33.5874 106.641 33.7952L106.159 33.8254C106.176 34.0281 106.233 33.8642 106.25 34.0668C105.539 34.0668 105.802 34.2121 105.828 34.3083C105.684 34.3419 105.521 34.365 105.376 34.3989C105.389 34.5532 105.399 34.4397 105.436 34.5799C105.307 34.6145 105.271 34.7012 105.014 34.761V34.8213C105.123 34.8238 105.073 34.8216 105.14 34.8457C105.141 34.8459 105.221 34.883 105.244 34.8934C105.341 34.9385 105.36 34.9517 105.436 35.0024C105.406 35.1143 105.406 35.0414 105.376 35.1533C105.512 35.2189 105.62 35.2438 105.828 35.2438C105.816 35.3829 105.803 35.3261 105.737 35.4249C105.834 35.4714 106.1 35.5154 106.25 35.5154C106.196 35.7158 105.989 35.7218 106.422 35.7652C106.812 35.8043 106.595 35.8284 106.581 35.9983C106.795 36.0483 106.807 36.0285 107.063 36.0285C107.061 36.1204 107.05 36.1385 107.033 36.2096C107.186 36.213 107.159 36.2323 107.329 36.2062C107.397 36.1958 107.568 36.1344 107.62 36.1617C107.694 36.2 107.662 36.1434 107.602 36.417C107.58 36.5178 107.576 36.6153 107.577 36.7574L107.756 36.7226C107.756 36.8076 107.751 36.9098 107.758 36.9927C107.765 37.0876 107.784 37.1015 107.787 37.2055C108.032 37.185 108 36.9314 108.058 37.628C108.23 37.6137 108.262 37.4452 108.296 37.6267C108.313 37.7145 108.308 37.9459 108.346 38.0063C108.433 38.1452 108.509 37.8243 108.568 38.0802C108.6 38.2228 108.564 38.2739 108.63 38.4127C108.897 38.3905 108.725 38.2173 108.992 38.7748C109.064 38.722 109.198 38.4023 109.203 38.3825C109.286 38.3844 109.474 38.5415 109.474 37.9902C109.628 38.003 109.515 38.0131 109.655 38.0505C109.74 37.873 109.683 37.6682 109.745 37.5375C109.859 37.568 109.833 37.5957 109.926 37.6582C109.976 37.5547 110.01 37.4083 110.009 37.2663C110.009 37.1925 109.963 37.1478 110.066 37.1553C110.162 37.1625 110.074 37.1927 110.227 37.2055C110.23 37.069 110.258 37.0856 110.258 36.9339C110.258 36.8158 110.189 36.8153 110.252 36.7513C110.299 36.7042 110.311 36.75 110.438 36.7528C110.476 36.5756 110.378 36.375 110.378 36.1492C110.611 36.1545 110.756 36.2621 110.985 36.2086L110.951 36.0285C111.874 36.0285 111.195 35.901 111.411 35.7786C111.436 35.7649 111.667 35.7763 111.765 35.7548C111.954 35.7134 111.797 35.6371 111.764 35.5154C111.914 35.5154 112.18 35.4714 112.277 35.4249C112.238 35.2787 112.225 35.3901 112.186 35.2438C112.354 35.2082 112.448 35.2592 112.668 35.1533C112.61 35.0656 112.607 35.1128 112.578 35.0024C112.688 34.944 112.858 34.8332 113 34.8213V34.761C112.743 34.7012 112.707 34.6145 112.578 34.5799C112.615 34.4397 112.625 34.5532 112.638 34.3989C112.515 34.37 112.314 34.319 112.186 34.3083C112.224 34.2365 112.256 34.2054 112.277 34.1272C112.187 34.1197 112.173 34.1075 112.074 34.0888C111.58 33.9951 111.831 34.111 111.855 33.8254C111.828 33.8248 111.493 33.7998 111.461 33.7937C111.29 33.7606 111.419 33.7193 111.433 33.5538H110.951C110.96 33.4366 110.978 33.4752 110.981 33.3425C110.667 33.3425 110.556 33.4183 110.378 33.4331C110.378 33.2457 110.446 33.0994 110.455 32.931C110.464 32.7661 110.416 32.8639 110.295 32.8204C110.138 32.7636 110.277 32.79 110.263 32.6476L110.227 32.3466C110.099 32.3808 110.175 32.407 110.077 32.407ZM109.112 34.761C109.112 34.7055 109.182 34.6842 109.233 34.6704V34.8817C109.165 34.8635 109.112 34.8527 109.112 34.761ZM108.781 34.6704C108.856 34.6879 108.912 34.6844 108.905 34.7899C108.899 34.8817 108.867 34.8745 108.781 34.8817V34.6704ZM109.022 34.8817C109.113 34.8817 109.105 34.9172 109.112 35.0024H108.901C108.918 34.9328 108.933 34.8817 109.022 34.8817ZM108.395 34.0002C108.473 34.2078 108.579 34.3443 108.812 34.4306C108.985 34.495 109.122 34.4833 109.276 34.4123C109.356 34.3755 109.555 34.1777 109.614 34.0257C109.869 33.3623 109.343 32.6449 109.022 32.1656C108.968 32.2052 108.939 32.2567 108.898 32.3132L108.444 33.2141C108.319 33.4636 108.286 33.7237 108.395 34.0002ZM108.57 36.7231C108.628 36.8347 108.699 36.9499 108.771 37.0648C108.825 37.1509 108.836 37.1423 108.885 37.2219C108.953 37.3322 108.908 37.3098 109.022 37.3866L109.36 36.8802C109.537 36.5565 109.732 36.1599 109.684 35.7788C109.66 35.5837 109.496 35.2903 109.319 35.189C109.045 35.0317 108.587 35.1037 108.423 35.4889C108.276 35.9613 108.331 36.2654 108.57 36.7231ZM106.4 34.761C106.484 34.8857 106.888 35.1325 107.22 35.2827C107.59 35.4507 107.976 35.5498 108.355 35.335C108.684 35.1485 108.871 34.6803 108.452 34.3061C108.331 34.1981 108.231 34.1514 108.119 34.1326C107.824 34.0831 107.578 34.1207 107.308 34.239C107.02 34.3651 106.623 34.6118 106.4 34.761ZM109.323 34.7911C109.323 35.0536 109.457 35.2072 109.624 35.3081C110.09 35.5914 110.526 35.4388 110.971 35.1861L111.479 34.898C111.583 34.8418 111.547 34.8912 111.614 34.7911C111.532 34.6699 111.326 34.5911 111.171 34.4803C110.966 34.3728 110.73 34.223 110.507 34.17C109.96 34.0396 109.324 34.2148 109.323 34.7911ZM109.022 34.6702C109.113 34.6702 109.105 34.6347 109.112 34.5495H108.901C108.918 34.6191 108.933 34.6702 109.022 34.6702Z" fill="white"/>
<path fill-rule="evenodd" clip-rule="evenodd" d="M40.2246 50.9359C40.4426 51.2175 41.8936 52.9092 42.1266 53.0358C45.4711 49.7194 48.7735 46.3817 52.0764 43.0231L48.3955 42.9927L40.2246 50.9359Z" fill="white"/>
<path fill-rule="evenodd" clip-rule="evenodd" d="M71.4041 52.8603L73.261 50.8135L65.3118 42.9769L61.6006 43.008L71.4041 52.8603Z" fill="white"/>
<path fill-rule="evenodd" clip-rule="evenodd" d="M82.5642 59.8255L80.4614 61.9528L86.3983 67.9696L88.4486 65.6931L82.5642 59.8255Z" fill="white"/>
<path fill-rule="evenodd" clip-rule="evenodd" d="M27.222 68.0044L32.9229 62.2483L30.847 60.0574C28.9157 61.8443 27.0731 63.7168 25.189 65.5549L27.222 68.0044Z" fill="white"/>
<path fill-rule="evenodd" clip-rule="evenodd" d="M78.895 6.99501L81.6339 9.94557L64.7422 26.8052L68.2616 26.8101L83.3253 11.7625L85.3737 14.0635L83.324 15.9798L89.9344 24.2556L95.2874 19.3744L85.4556 9.5241L86.2825 8.72268L84.5186 7.1007L83.8139 7.82307L80.9696 4.88489L78.895 6.99501ZM82.9362 11.691H81.6285V10.3746H82.0082V11.3113H82.9362V11.691ZM81.5568 12.0518H81.9839V12.3588H82.3358V12.0518H82.8183L81.2022 13.6204V13.1379H81.5092V12.8333H81.2022V12.4062H81.5568V12.0518ZM80.9093 12.1385H80.4822V11.8315H80.1302V12.1385H79.6477L81.2638 10.5699V11.0524H80.9568V11.357H81.2638V11.7841H80.9093V12.1385ZM79.5806 12.4171H80.8882V13.7334H79.5806V12.4171ZM79.953 12.792H80.5158V13.3586H79.953V12.792ZM79.5275 14.0778H79.9546V14.3847H80.3065V14.0778H80.789L79.1729 15.6464V15.1639H79.4799V14.8593H79.1729V14.4322H79.5275V14.0778ZM78.88 14.1645H78.4528V13.8575H78.1009V14.1645H77.6184L79.2345 12.5959V13.0784H78.9275V13.383H79.2345V13.8101H78.88V14.1645ZM77.5513 14.4431H78.8589V15.7594H77.5513V14.4431ZM77.9237 14.8179H78.4865V15.3845H77.9237V14.8179ZM77.4981 16.1038H77.9253V16.4107H78.2772V16.1038H78.7597L77.1436 17.6724V17.1898H77.4506V16.8853H77.1436V16.4582H77.4981V16.1038ZM76.8507 16.1905H76.4235V15.8835H76.0716V16.1905H75.5891L77.2052 14.6219V15.1044H76.8982V15.4089H77.2052V15.8361H76.8507V16.1905ZM75.522 16.469H76.8296V17.7854H75.522V16.469ZM75.8944 16.8439H76.4572V17.4105H75.8944V16.8439ZM75.4688 18.1297H75.896V18.4367H76.2479V18.1297H76.7304L75.1143 19.6983V19.2158H75.4213V18.9113H75.1143V18.4842H75.4688V18.1297ZM74.8214 18.2165H74.3943V17.9095H74.0423V18.2165H73.5598L75.1759 16.6479V17.1304H74.8689V17.4349H75.1759V17.862H74.8214V18.2165ZM73.4927 18.495H74.8003V19.8114H73.4927V18.495ZM73.8651 18.8699H74.4279V19.4365H73.8651V18.8699ZM73.4395 20.1557H73.8667V20.4627H74.2186V20.1557H74.7011L73.085 21.7243V21.2418H73.392V20.9373H73.085V20.5101H73.4395V20.1557ZM72.7921 20.2424H72.3649V19.9355H72.013V20.2424H71.5305L73.1466 18.6739V19.1564H72.8396V19.4609H73.1466V19.888H72.7921V20.2424ZM71.4634 20.521H72.771V21.8373H71.4634V20.521ZM71.8358 20.8959H72.3986V21.4625H71.8358V20.8959ZM71.4102 22.1817H71.8374V22.4887H72.1893V22.1817H72.6718L71.0557 23.7503V23.2678H71.3627V22.9632H71.0557V22.5361H71.4102V22.1817ZM70.7628 22.2684H70.3356V21.9615H69.9837V22.2684H69.5012L71.1173 20.6998V21.1823H70.8103V21.4869H71.1173V21.914H70.7628V22.2684ZM69.4686 22.566H70.7763V23.8823H70.3966V22.9456H69.4686V22.566ZM82.903 8.9436H84.2106V10.2599H82.903V8.9436ZM83.2754 9.31846H83.8382V9.88507H83.2754V9.31846Z" fill="white"/>
<path fill-rule="evenodd" clip-rule="evenodd" d="M34.6673 6.99507L31.9284 9.94563L48.8201 26.8053L45.3006 26.8102L30.237 11.7626L28.1886 14.0635L30.2382 15.9798L23.6279 24.2557L18.2749 19.3745L28.1067 9.52416L27.2798 8.72274L29.0436 7.10076L29.7484 7.82313L32.5926 4.88495L34.6673 6.99507ZM30.6261 11.691H31.9338V10.3747H31.5541V11.3114H30.6261V11.691ZM32.0055 12.0519H31.5784V12.3588H31.2265V12.0519H30.744L32.3601 13.6204V13.1379H32.053V12.8334H32.3601V12.4063H32.0055V12.0519ZM32.653 12.1386H33.0801V11.8316H33.4321V12.1386H33.9146L32.2985 10.57V11.0525H32.6055V11.357H32.2985V11.7842H32.653V12.1386ZM33.9817 12.4172H32.674V13.7335H33.9817V12.4172ZM33.6093 12.792H33.0464V13.3586H33.6093V12.792ZM34.0348 14.0778H33.6077V14.3848H33.2558V14.0778H32.7733L34.3894 15.6464V15.1639H34.0823V14.8594H34.3894V14.4323H34.0348V14.0778ZM34.6823 14.1645H35.1094V13.8576H35.4614V14.1645H35.9439L34.3278 12.596V13.0785H34.6348V13.383H34.3278V13.8101H34.6823V14.1645ZM36.011 14.4431H34.7033V15.7595H36.011V14.4431ZM35.6386 14.818H35.0757V15.3846H35.6386V14.818ZM36.0641 16.1038H35.637V16.4108H35.2851V16.1038H34.8026L36.4187 17.6724V17.1899H36.1116V16.8854H36.4187V16.4582H36.0641V16.1038ZM36.7116 16.1905H37.1387V15.8836H37.4907V16.1905H37.9732L36.3571 14.6219V15.1045H36.6641V15.409H36.3571V15.8361H36.7116V16.1905ZM38.0403 16.4691H36.7326V17.7855H38.0403V16.4691ZM37.6679 16.844H37.105V17.4106H37.6679V16.844ZM38.0934 18.1298H37.6663V18.4368H37.3144V18.1298H36.8319L38.448 19.6984V19.2159H38.141V18.9113H38.448V18.4842H38.0934V18.1298ZM38.7409 18.2165H39.168V17.9096H39.52V18.2165H40.0025L38.3864 16.6479V17.1304H38.6934V17.435H38.3864V17.8621H38.7409V18.2165ZM40.0696 18.4951H38.7619V19.8114H40.0696V18.4951ZM39.6972 18.87H39.1344V19.4366H39.6972V18.87ZM40.1228 20.1558H39.6956V20.4628H39.3437V20.1558H38.8612L40.4773 21.7244V21.2419H40.1703V20.9373H40.4773V20.5102H40.1228V20.1558ZM40.7702 20.2425H41.1973V19.9355H41.5493V20.2425H42.0318L40.4157 18.6739V19.1564H40.7227V19.461H40.4157V19.8881H40.7702V20.2425ZM42.0989 20.5211H40.7913V21.8374H42.0989V20.5211ZM41.7265 20.8959H41.1637V21.4625H41.7265V20.8959ZM42.1521 22.1818H41.7249V22.4887H41.373V22.1818H40.8905L42.5066 23.7504V23.2678H42.1996V22.9633H42.5066V22.5362H42.1521V22.1818ZM42.7995 22.2685H43.2266V21.9615H43.5786V22.2685H44.0611L42.445 20.6999V21.1824H42.752V21.4869H42.445V21.9141H42.7995V22.2685ZM44.0937 22.566H42.786V23.8824H43.1657V22.9457H44.0937V22.566ZM30.6593 8.94366H29.3516V10.26H30.6593V8.94366ZM30.2869 9.31852H29.7241V9.88513H30.2869V9.31852Z" fill="white"/>
</g>
<defs>
<clipPath id="clip0_471_3001">
<rect width="113" height="68.4761" fill="white" transform="translate(0 0.988281)"/>
</clipPath>
</defs>
</svg>
