<svg width="113" height="34" viewBox="0 0 113 34" fill="none" xmlns="http://www.w3.org/2000/svg">
<g clip-path="url(#clip0_471_3137)">
<path d="M32.3034 15.0601C32.2298 15.6669 32.1089 16.267 31.9416 16.855C31.814 17.3137 31.6574 17.7662 31.4845 18.2102C31.3281 18.611 31.1504 19.0032 30.9524 19.3852C30.6693 19.9313 30.3489 20.4571 29.9933 20.959C29.6201 21.4896 29.2071 21.991 28.7578 22.4589C28.3817 22.8486 27.9972 23.2317 27.5634 23.5588C27.1468 23.8725 26.7329 24.1914 26.3004 24.482C25.7438 24.8538 25.1546 25.1742 24.5399 25.4393C23.9127 25.709 23.2681 25.9364 22.6104 26.1198C21.4176 26.4578 20.204 26.588 18.9703 26.5785C18.9039 26.5785 18.8375 26.5801 18.7709 26.5825C18.7541 26.5856 18.7377 26.5906 18.722 26.5972C18.6909 26.6684 18.6482 26.7438 18.6243 26.825C18.4647 27.3617 18.228 27.8662 17.9676 28.3576C17.7978 28.6767 17.5926 28.9809 17.384 29.278C17.1754 29.5752 16.9518 29.8634 16.7175 30.1408C16.5406 30.346 16.351 30.5399 16.1499 30.7213C15.8972 30.9543 15.6405 31.1846 15.3683 31.3936C15.0481 31.6394 14.7129 31.8651 14.3647 32.0693C13.7964 32.4032 13.1945 32.6563 12.58 32.8844C12.4312 32.9397 12.2723 32.967 12.1201 33.0139C11.578 33.1812 11.0206 33.2636 10.458 33.319C10.4014 33.3246 10.3465 33.3499 10.2909 33.3661H8.81505C8.76719 33.3493 8.72052 33.3222 8.67166 33.3174C8.14914 33.2671 7.63001 33.1977 7.12663 33.0436C6.75309 32.9289 6.37536 32.8224 6.01258 32.6796C5.52636 32.4881 5.05529 32.2608 4.61195 31.9792C4.33274 31.8021 4.05353 31.6236 3.79167 31.4208C3.40536 31.1216 3.02504 30.8121 2.70016 30.4435C2.40699 30.1117 2.10684 29.7834 1.84259 29.4294C1.49776 28.9679 1.21616 28.4651 0.959285 27.9476C0.704606 27.4342 0.51574 26.897 0.360978 26.3499C0.210883 25.8201 0.112697 25.2769 0.0678081 24.7281C0.0630216 24.6683 0.0235334 24.6132 0 24.5558V23.9176C0.0231345 23.9974 0.0598307 24.0742 0.0670104 24.1543C0.119063 24.7245 0.212798 25.2891 0.376135 25.836C0.531496 26.3545 0.715176 26.8667 0.96467 27.3537C1.22254 27.8573 1.51092 28.3399 1.85276 28.7884C2.19798 29.2415 2.56973 29.6741 3.01168 30.0373C3.37425 30.3352 3.73463 30.64 4.12313 30.9014C4.59559 31.2205 5.11034 31.4684 5.63605 31.6916C6.14521 31.908 6.6777 32.0528 7.21618 32.1611C7.65324 32.2454 8.09592 32.2975 8.54063 32.3168C9.41994 32.3615 10.2909 32.2969 11.1488 32.0717C11.5599 31.9655 11.9645 31.836 12.3608 31.6838C12.5721 31.6048 12.7785 31.5135 12.9791 31.4104C13.5646 31.0999 14.1254 30.7523 14.6414 30.3307C15.1435 29.9189 15.6024 29.4572 16.0111 28.9526C16.3854 28.489 16.7093 27.9869 16.9774 27.4548C17.2875 26.8449 17.5382 26.2079 17.6899 25.5402C17.8533 24.821 17.9691 24.0935 17.9552 23.3508C17.9494 23.0061 17.9258 22.6618 17.8844 22.3195C17.7901 21.5284 17.5906 20.7534 17.2911 20.015C17.1006 19.5482 16.8828 19.0954 16.6002 18.6766C16.3932 18.3697 16.1978 18.0524 15.9636 17.7672C15.7097 17.4539 15.4343 17.1585 15.1396 16.8831C14.8394 16.6046 14.5239 16.3431 14.1946 16.0997C13.6414 15.6957 13.0391 15.3718 12.4091 15.1075C11.858 14.8762 11.2813 14.7152 10.6959 14.5942C10.1543 14.4821 9.60262 14.4444 9.05098 14.4428C8.26441 14.4408 7.48522 14.516 6.72497 14.7334C6.4657 14.8078 6.20644 14.8854 5.92164 14.9687C5.90609 14.9047 5.88315 14.8447 5.87777 14.7831C5.77984 13.6832 5.7581 12.5869 5.92962 11.4884C6.05786 10.6675 6.20883 9.8558 6.49223 9.07281C6.61628 8.72959 6.72317 8.37878 6.87115 8.04652C7.05683 7.6309 7.26663 7.22484 7.48621 6.82597C7.68066 6.47237 7.89107 6.12615 8.11563 5.7909C8.47302 5.25721 8.88087 4.76102 9.31364 4.28656C9.79355 3.7569 10.3195 3.2709 10.8854 2.83427C11.352 2.47436 11.8394 2.1422 12.3451 1.83949C12.8362 1.55177 13.3443 1.29409 13.8666 1.06787C14.4867 0.797537 15.1283 0.579461 15.7847 0.415915C16.4359 0.250982 17.0972 0.14887 17.7617 0.0599222C17.9171 0.0389815 18.0729 0.0200351 18.2284 9.15527e-05H19.9834C20.1462 0.0200351 20.3091 0.0399787 20.4719 0.0599222C21.1832 0.151463 21.8899 0.266338 22.5845 0.452013C23.1995 0.617576 23.8018 0.827056 24.3868 1.07884C25.0326 1.35625 25.6602 1.67535 26.2457 2.06325C26.7411 2.39272 27.2242 2.74452 27.6876 3.11747C28.0474 3.40896 28.3861 3.72545 28.7014 4.06459C29.1074 4.49896 29.5109 4.93891 29.8411 5.4377C30.1329 5.87826 30.4464 6.30644 30.7081 6.76415C30.9574 7.20031 31.1564 7.6658 31.3696 8.12211C31.5772 8.56685 31.721 9.03492 31.8682 9.5028C32.1126 10.2885 32.2722 11.0981 32.3443 11.9178C32.4388 12.9638 32.4251 14.0168 32.3034 15.0601Z" fill="white"/>
<path d="M112.917 10.6401C112.739 10.0191 112.344 9.6204 111.708 9.48538C111.5 9.44208 111.288 9.42036 111.075 9.42056C108.915 9.41591 106.754 9.41511 104.593 9.41817C104.539 9.42065 104.484 9.42597 104.429 9.43412C104.384 9.71333 104.398 16.5554 104.448 16.7205H104.695C106.763 16.7205 108.83 16.721 110.898 16.7219C111.234 16.7219 111.557 16.6736 111.865 16.5316C112.396 16.2871 112.746 15.8869 112.917 15.331C112.944 15.2433 112.972 15.1557 113 15.0682V10.9223C112.972 10.8292 112.944 10.7344 112.917 10.6401ZM110.344 14.6402C110.198 14.6831 107.412 14.6976 107.097 14.6557V11.5047C107.231 11.4578 110.071 11.442 110.344 11.4891V14.6402Z" fill="white"/>
<path d="M43.8714 12.6709C43.4161 12.2768 42.898 12.0686 42.2933 12.0698C40.9903 12.0723 39.6879 12.0723 38.3862 12.0698H38.144V11.4748H41.1212C41.6195 11.4748 42.1181 11.4748 42.617 11.4748C43.1128 11.4748 43.6086 11.4782 44.1104 11.4725V9.43063H35.4844V16.7212H35.7588C37.9983 16.7212 40.2375 16.7134 42.477 16.7248C43.4113 16.7296 44.1489 16.1877 44.4837 15.3846C44.861 14.4789 44.748 13.4299 43.8714 12.6709ZM42.0063 14.664H38.1452V14.0857H38.1488L38.1536 14.0847H38.1572C38.1606 14.0847 38.1646 14.0835 38.1692 14.0831H38.172L38.1823 14.0819L38.1997 14.0805L38.226 14.0785C38.2507 14.0769 38.2807 14.0753 38.315 14.0737L38.3608 14.0719L38.4081 14.0703H38.4382H38.4643C38.4911 14.0703 38.519 14.0687 38.5481 14.0679L38.6857 14.0647H38.7256L38.7986 14.0633H38.8556L38.9143 14.0623L39.0802 14.0599H39.165H39.2545L39.3433 14.0589C39.4884 14.0575 39.64 14.0563 39.7942 14.0555H39.8604C40.1129 14.0545 40.3703 14.0541 40.6155 14.0545H40.7575H40.8618H40.9637L41.1966 14.0563H41.2329H41.2877H41.3522H41.3593L41.4349 14.0573H41.4798L41.5416 14.0583H41.5717L41.6639 14.0603H41.6904H41.6982L41.7395 14.0615L41.7851 14.0629H41.8073L41.8384 14.0641H41.8623H41.8719L41.893 14.0651L41.915 14.0663L41.9331 14.0673C41.9579 14.0691 41.9776 14.0707 41.993 14.0725L42.0051 14.0743L42.0063 14.664Z" fill="white"/>
<path d="M54.9243 15.9373C54.9243 13.8523 54.9243 11.7672 54.9243 9.68202C54.9243 9.59906 54.913 9.51589 54.9066 9.42814C54.8324 9.42375 54.7803 9.41797 54.7271 9.41797C52.4144 9.41797 50.1017 9.41843 47.7889 9.41936C47.3871 9.41936 46.9982 9.48538 46.648 9.70815C46.2739 9.94097 45.9866 10.2902 45.8303 10.7021C45.7282 10.9658 45.6989 11.2436 45.6987 11.5238C45.6975 13.1843 45.6975 14.8447 45.6987 16.5051C45.6987 16.5691 45.7072 16.6331 45.7126 16.7083H48.3533V14.0636H52.2559V16.6974C52.3157 16.7075 52.3536 16.7197 52.3915 16.7197C53.1823 16.7209 53.9734 16.7209 54.7648 16.7197C54.9056 16.7197 54.9215 16.701 54.9243 16.5548C54.9269 16.3492 54.9243 16.1433 54.9243 15.9373ZM52.2463 12.0376C52.0955 12.0774 48.6036 12.087 48.3661 12.0469C48.3484 11.8682 48.3479 11.6882 48.3645 11.5094C48.5189 11.4678 51.9886 11.4572 52.2463 11.4979V12.0376Z" fill="white"/>
<path d="M74.5619 9.41726V16.6809C74.4183 16.7298 72.141 16.7407 71.8937 16.6893C71.8937 15.9877 71.8937 15.2793 71.8937 14.5709C71.8937 13.8677 71.8937 13.1645 71.8937 12.4447C71.7718 12.4766 71.7191 12.5644 71.6569 12.6336C71.2656 13.0651 70.8791 13.5013 70.489 13.9339C70.1797 14.2769 69.8672 14.6173 69.5553 14.9582C69.1665 15.3836 68.7776 15.8086 68.3886 16.2332C68.2769 16.3554 68.159 16.4725 68.0611 16.6061C67.9975 16.6925 67.9287 16.7232 67.8274 16.722C67.535 16.7186 67.2426 16.721 66.9498 16.721H65.2993V9.45576C65.4389 9.40909 67.685 9.39592 67.96 9.44199V13.7408C68.0132 13.7139 68.0453 13.7071 68.0633 13.6874C68.3654 13.3549 68.6682 13.0231 68.9659 12.6866C69.2689 12.3448 69.5642 11.9972 69.8666 11.6541C70.1416 11.3414 70.4202 11.0319 70.696 10.72C71.007 10.3684 71.3171 10.0161 71.6264 9.66297C71.6394 9.64821 71.6463 9.62847 71.6597 9.61351C71.7756 9.47729 71.9044 9.40669 72.1023 9.41108C72.8462 9.42684 73.5906 9.41726 74.3349 9.41726H74.5619Z" fill="white"/>
<path d="M93.9832 9.43445V16.6798C93.838 16.7292 91.7296 16.7486 91.3307 16.7031C91.309 16.2268 91.3249 15.7458 91.3215 15.2648C91.3181 14.7837 91.3215 14.3087 91.3215 13.8306V12.3809L91.283 12.3624C90.6468 13.0173 90.0485 13.7086 89.4045 14.3787L87.5514 12.3743L87.5115 12.3859C87.4975 12.6651 87.5069 12.9469 87.5051 13.2273C87.5035 13.5195 87.5051 13.8119 87.5051 14.1048V16.6827C87.3394 16.7274 85.1119 16.7388 84.8624 16.7027C84.8149 16.5651 84.8016 9.67577 84.8512 9.43346C84.9009 9.42603 84.9509 9.42117 85.001 9.4189C85.7852 9.4179 86.5692 9.41989 87.3543 9.41631C87.4002 9.41408 87.446 9.4225 87.488 9.4409C87.5301 9.45931 87.5674 9.48721 87.5969 9.5224C87.8591 9.81105 88.124 10.0969 88.3918 10.38C88.5865 10.5866 88.7877 10.7868 88.9829 10.993C89.119 11.1366 89.2498 11.2854 89.4002 11.4517C89.4957 11.3562 89.5888 11.2675 89.6772 11.1741C90.1316 10.6935 90.5854 10.2121 91.0385 9.72982C91.1109 9.65284 91.1847 9.57705 91.2549 9.49807C91.3074 9.43824 91.369 9.4171 91.4482 9.4183C92.2658 9.42049 93.0835 9.4197 93.9002 9.42049C93.9282 9.4231 93.9559 9.42776 93.9832 9.43445Z" fill="white"/>
<path d="M103.261 14.676V16.6843C103.097 16.7322 95.4434 16.736 95.2451 16.6871V9.45078C95.3953 9.41089 102.898 9.39454 103.237 9.43183C103.28 9.56725 103.292 11.203 103.248 11.4681H97.9C97.8729 11.6699 97.8892 11.853 97.887 12.0616C98.458 12.0815 99.0196 12.0676 99.581 12.07C100.142 12.0724 100.707 12.07 101.281 12.07V14.0444C101.057 14.0538 100.833 14.0476 100.61 14.0488C100.384 14.0498 100.158 14.0488 99.9323 14.0488H97.8948V14.664C98.3455 14.6876 98.7881 14.6726 99.231 14.6754C99.6828 14.6782 100.135 14.6754 100.587 14.6754H103.263L103.261 14.676Z" fill="white"/>
<path d="M64.0017 15.4788C63.8451 16.0188 63.5294 16.4149 62.9646 16.589C62.6793 16.6769 62.3823 16.7211 62.0837 16.7203C60.1558 16.7221 58.2285 16.7221 56.3017 16.7203H56.0921C56.0426 16.5509 56.037 14.8972 56.0839 14.682H61.3861C61.4523 14.4726 61.4232 14.2802 61.4104 14.0638H58.1626V12.0694C59.2396 12.0672 60.3113 12.0694 61.3985 12.068C61.4439 11.8672 61.4276 11.6795 61.4128 11.4685H56.0971C56.0448 11.311 56.0312 9.7087 56.0751 9.43288C56.1235 9.42446 56.1724 9.41893 56.2215 9.41633C58.1494 9.41526 60.0767 9.41526 62.0035 9.41633C62.3037 9.41633 62.6028 9.44983 62.8811 9.57288C63.2909 9.75437 63.619 10.0266 63.834 10.4319C64.0543 10.8457 64.1289 11.2791 64.0747 11.7403C64.0577 11.8853 64.0512 12.0315 64.0348 12.1767C63.9875 12.6109 63.7683 12.9146 63.3541 13.072C63.3309 13.0849 63.3089 13.0999 63.2883 13.1167C63.408 13.2263 63.5185 13.3197 63.6206 13.4208C63.9064 13.7034 64.0537 14.0508 64.0853 14.4485C64.113 14.7981 64.0984 15.1451 64.0017 15.4788Z" fill="white"/>
<path d="M78.4801 11.4749C78.4248 11.6456 78.4202 14.4649 78.4751 14.6751H83.6325V16.7027C83.5747 16.7115 83.5165 16.7174 83.4582 16.7203C81.5702 16.7212 79.6822 16.7212 77.7942 16.7203C77.2822 16.7203 76.8295 16.5472 76.4464 16.2133C76.2669 16.0574 76.1283 15.8627 76.0146 15.6479C75.8381 15.3145 75.7881 14.9613 75.7891 14.5909C75.7919 13.5411 75.7891 12.4914 75.7919 11.4418C75.7929 11.2625 75.8058 11.0835 75.8304 10.9059C75.8888 10.4769 76.0805 10.1082 76.4009 9.8212C76.6423 9.60581 76.9406 9.48396 77.2665 9.45125C77.4645 9.43131 77.6642 9.41794 77.8632 9.41774C79.7044 9.41522 81.5458 9.41469 83.3876 9.41615H83.6331V11.4743H81.9201L78.4801 11.4749Z" fill="white"/>
<path d="M75.6537 21.0273V19.2074C75.5643 19.2024 75.5055 19.1963 75.4467 19.1963C74.742 19.1963 74.0372 19.2066 73.3326 19.1919C73.2332 19.1885 73.1342 19.2058 73.0418 19.2426C72.9494 19.2794 72.8656 19.3349 72.7957 19.4057C72.7258 19.4765 72.6713 19.561 72.6357 19.6539C72.6001 19.7467 72.5841 19.846 72.5887 19.9453C72.5997 20.2505 72.5915 20.5564 72.5903 20.8627C72.5903 20.9206 72.5832 20.9784 72.5792 21.0379L72.3398 21.06V21.7662C72.5638 21.8077 75.6828 21.8003 75.8403 21.7576V21.0642L75.6537 21.0273ZM74.6924 21.0343H73.5608V19.9434H74.6776C74.7201 20.076 74.7311 20.761 74.6924 21.0343Z" fill="white"/>
<path d="M79.4766 19.2322V21.7768H78.5361V20.3147L78.4802 20.2948C78.3699 20.4144 78.2586 20.5341 78.1491 20.6559C77.8392 20.9994 77.5309 21.3442 77.2202 21.6866C77.1669 21.7453 77.1085 21.7949 77.0166 21.7929C76.7641 21.7877 76.5116 21.7909 76.2587 21.7893C76.2297 21.7859 76.2012 21.7797 76.1733 21.771V19.2037C76.4853 19.1899 76.7866 19.1937 77.1093 19.2017C77.1424 19.6981 77.1071 20.1803 77.1312 20.6918C77.1841 20.6488 77.2202 20.6268 77.2469 20.5965C77.5406 20.2641 77.8336 19.9313 78.1258 19.5979C78.2132 19.4982 78.2961 19.3947 78.3913 19.3034C78.4405 19.2561 78.5109 19.2037 78.5739 19.2021C78.8589 19.1939 79.1443 19.2021 79.4297 19.2062C79.4415 19.2064 79.4529 19.2184 79.4766 19.2322Z" fill="white"/>
<path d="M94.078 21.6027C94.078 21.6545 94.0712 21.7064 94.066 21.7821H93.1269C93.1107 21.2889 93.1287 20.8031 93.0782 20.3063C92.9177 20.4774 92.7553 20.6474 92.5966 20.8203C92.3736 21.063 92.1532 21.3083 91.9315 21.5522C91.9227 21.562 91.9071 21.5676 91.9019 21.5785C91.8022 21.7927 91.6181 21.8033 91.4163 21.7941C91.2145 21.7849 91.0077 21.7919 90.7881 21.7919V19.2338C90.9407 19.1857 91.4991 19.1795 91.7204 19.2278V20.6637L91.7603 20.6781C91.8509 20.5885 91.9466 20.5038 92.031 20.4086C92.3471 20.0526 92.6632 19.6966 92.9705 19.3331C93.0623 19.2244 93.1618 19.1889 93.2984 19.1935C93.5431 19.202 93.7884 19.1959 94.0034 19.1959C94.0197 19.2032 94.0355 19.2115 94.0509 19.2206C94.0556 19.2248 94.062 19.231 94.062 19.2364C94.0677 20.0251 94.0731 20.8138 94.078 21.6027Z" fill="white"/>
<path d="M90.2903 19.2072V21.7855C89.9778 21.7951 89.6705 21.7927 89.3476 21.7873V20.2995C89.2939 20.3376 89.2614 20.3532 89.2389 20.3779C89.0072 20.6318 88.7772 20.8876 88.5465 21.1425C88.3733 21.3334 88.2008 21.5248 88.0249 21.7131C87.995 21.745 87.9491 21.7819 87.9101 21.7825C87.6131 21.7883 87.3161 21.7857 87.0078 21.7857V19.201C87.3145 19.1912 87.6095 19.1954 87.9252 19.1996C87.933 19.2844 87.9452 19.3544 87.9452 19.4244C87.947 19.7696 87.9452 20.1148 87.9466 20.4599C87.9466 20.5303 87.9533 20.5995 87.9591 20.7133C88.0742 20.5961 88.1631 20.5139 88.2427 20.423C88.5528 20.0702 88.86 19.715 89.1681 19.3604C89.2624 19.2517 89.3639 19.1769 89.5255 19.1918C89.71 19.2088 89.8972 19.1948 90.0839 19.1962C90.1475 19.1966 90.2123 19.2028 90.2903 19.2072Z" fill="white"/>
<path d="M68.7414 19.2078V21.7783H67.8009V20.3065L67.7455 20.2853L67.1192 20.9586L66.4519 20.2447C66.412 20.4441 66.4332 20.6068 66.4292 20.7674C66.425 20.9331 66.4282 21.099 66.4282 21.266V21.7845C66.1147 21.7967 65.8203 21.7931 65.5307 21.7873C65.486 21.6277 65.4727 19.5213 65.5122 19.2188C65.5597 19.2082 65.608 19.2012 65.6566 19.1976C65.869 19.195 66.0818 19.2022 66.2948 19.1942C66.4212 19.1894 66.506 19.2425 66.5859 19.332C66.7561 19.5231 66.933 19.708 67.1172 19.9064C67.2884 19.7251 67.4585 19.5592 67.6108 19.3783C67.7173 19.2519 67.8302 19.1813 68.0013 19.1934C68.1808 19.2062 68.3603 19.1952 68.5398 19.1968C68.603 19.197 68.6672 19.2034 68.7414 19.2078Z" fill="white"/>
<path d="M100.726 19.925C100.722 19.9998 100.719 20.0493 100.714 20.1244C101.112 20.1601 101.503 20.1177 101.898 20.1502V20.8271C101.827 20.8338 101.758 20.8458 101.689 20.847C101.416 20.8494 101.144 20.8456 100.871 20.8494C100.718 20.8514 100.716 20.8578 100.73 21.0464H102.606V21.7556C102.465 21.7995 100.046 21.8129 99.7853 21.7718C99.7454 21.6322 99.7314 19.5156 99.7693 19.2354C99.9055 19.1881 102.329 19.1731 102.609 19.222V19.9256L100.726 19.925Z" fill="white"/>
<path d="M70.1632 19.9304C70.1551 19.9885 70.1473 20.0425 70.1383 20.1051C70.1902 20.1185 70.2269 20.1356 70.2638 20.136C70.5494 20.1386 70.8349 20.1372 71.1213 20.139C71.1923 20.139 71.2631 20.1474 71.3447 20.1526V20.8381H70.1652C70.1557 20.9122 70.1487 20.9665 70.1385 21.0447H72.0531V21.7541C71.9109 21.8003 69.4247 21.8099 69.2012 21.7622V19.2011C70.1511 19.1901 71.0906 19.1981 72.0489 19.1955C72.082 19.4428 72.0575 19.6706 72.0661 19.9242C71.4253 19.934 70.8034 19.9234 70.1632 19.9304Z" fill="white"/>
<path d="M99.4731 21.0588V21.752C99.3257 21.8023 96.4883 21.8097 96.2891 21.7588V19.2104H97.2372V21.0363H98.2968C98.3227 20.438 98.294 19.8359 98.3125 19.2413C98.4623 19.1867 99.0397 19.1781 99.2664 19.2294V21.0343L99.4731 21.0588Z" fill="white"/>
<path d="M86.5006 21.7848C86.2037 21.7972 85.9023 21.7908 85.5725 21.7884V20.7912C85.1566 20.7755 84.7693 20.7713 84.3619 20.7946V21.7764H83.4092V19.2099H84.3577V19.9923H85.5683V19.2027C85.8908 19.1911 86.1913 19.1927 86.4875 19.2015C86.5302 19.3633 86.5405 21.5229 86.5006 21.7848Z" fill="white"/>
<path d="M106.147 21.7873C105.82 21.7917 105.519 21.7988 105.195 21.7819V20.7879C104.792 20.7767 104.412 20.7773 104.011 20.7879V21.7869C103.691 21.7958 103.39 21.7905 103.093 21.7897C103.045 21.6271 103.038 19.4242 103.083 19.2098H104.006V19.966C104.165 20.0149 104.946 20.0231 105.188 19.9804V19.2203C105.509 19.1747 105.811 19.2032 106.14 19.1978C106.155 20.0647 106.145 20.9155 106.147 21.7873Z" fill="white"/>
<path d="M112.756 19.4434C112.606 19.2565 112.403 19.1961 112.174 19.1961C111.404 19.1961 110.633 19.1961 109.863 19.1961C109.806 19.1961 109.749 19.2061 109.684 19.2121V21.7632C109.902 21.8087 110.477 21.8003 110.634 21.7459V20.863C110.722 20.8568 110.793 20.848 110.863 20.8476C111.255 20.8462 111.647 20.8486 112.038 20.8458C112.144 20.846 112.25 20.8375 112.355 20.8205C112.531 20.7902 112.677 20.708 112.784 20.5575C112.973 20.2914 112.961 19.6977 112.756 19.4434ZM111.928 20.1257H110.65C110.645 20.0623 110.64 20.008 110.635 19.9404H111.928V20.1257Z" fill="white"/>
<path d="M82.9709 19.8836C82.9709 20.4349 82.9709 20.9862 82.9709 21.5376V21.7783C82.6488 21.802 82.3485 21.7864 82.0214 21.7882V20.8637C81.9258 20.8569 81.8552 20.8477 81.7846 20.8475C81.439 20.8459 81.0932 20.8523 80.7476 20.8439C80.6151 20.8436 80.4835 20.8226 80.3575 20.7819C80.0739 20.6822 79.9474 20.4375 79.9187 20.167C79.8868 19.8597 79.9113 19.5464 79.9113 19.2081H80.8533C80.8569 19.315 80.8621 19.4184 80.8633 19.5219C80.8649 19.6814 80.8649 19.841 80.8633 20.0005C80.8633 20.0665 80.8744 20.1295 80.9518 20.1303C81.2952 20.1339 81.6389 20.1319 82.0116 20.1319V19.2167C82.0904 19.2077 82.1412 19.1968 82.1921 19.1968C82.3848 19.1948 82.5775 19.1948 82.7705 19.1968C82.9559 19.1988 82.9645 19.2066 82.9683 19.3854C82.9727 19.5512 82.9709 19.7173 82.9709 19.8836Z" fill="white"/>
<path d="M109.32 19.2288V19.9237H108.417V21.7585C108.251 21.8159 108.098 21.7848 107.948 21.7902C107.803 21.7956 107.657 21.7914 107.485 21.7914C107.48 21.7044 107.472 21.6284 107.472 21.5521C107.47 21.081 107.472 20.6099 107.47 20.1389C107.47 19.9312 107.467 19.9296 107.257 19.9285C107.084 19.9285 106.911 19.9285 106.738 19.9285C106.673 19.9285 106.609 19.9223 106.533 19.9185V19.235C106.685 19.1858 109.117 19.1782 109.32 19.2288Z" fill="white"/>
<path d="M92.8659 18.748H92.0063V19.0787H92.8659V18.748Z" fill="white"/>
</g>
<defs>
<clipPath id="clip0_471_3137">
<rect width="113" height="33.366" fill="white"/>
</clipPath>
</defs>
</svg>
