<svg width="113" height="39" viewBox="0 0 113 39" fill="none" xmlns="http://www.w3.org/2000/svg">
<g clip-path="url(#clip0_471_3161)">
<path d="M113 22.175C112.864 22.2459 112.716 22.2625 112.567 22.2728C112.484 22.2786 112.4 22.2766 112.316 22.2775C111.515 22.2867 110.713 22.2925 109.913 22.3268C109.131 22.3604 108.348 22.3765 107.566 22.4067C106.97 22.4298 106.375 22.4626 105.779 22.4916C105.742 22.4933 105.705 22.4959 105.667 22.4976C105.109 22.5228 104.55 22.5454 103.992 22.5736C103.499 22.5985 103.006 22.6296 102.513 22.6581C102.467 22.6608 102.42 22.6644 102.374 22.6669C101.89 22.6917 101.406 22.7142 100.922 22.7418C100.476 22.7673 100.03 22.7984 99.5834 22.8271L99.416 22.8378C98.8489 22.873 98.2817 22.9081 97.7146 22.9431C97.2868 22.969 96.8588 22.9915 96.4312 23.0192C96.0222 23.0455 95.6134 23.0767 95.2046 23.1053C94.9073 23.1262 94.6099 23.1465 94.3124 23.1665C93.922 23.1921 93.5314 23.2146 93.1411 23.2414C92.76 23.2676 92.3792 23.2973 91.9985 23.326C91.952 23.3294 91.9056 23.3346 91.8592 23.3376C91.4781 23.3627 91.0968 23.3853 90.7159 23.4129C90.3535 23.4392 89.9917 23.4717 89.6295 23.4991C89.2765 23.5257 88.9232 23.548 88.5702 23.5743C88.208 23.6013 87.8458 23.6308 87.4837 23.6594C87.1773 23.6836 86.8709 23.708 86.5645 23.7325C86.128 23.7671 85.6916 23.8015 85.2552 23.8359C84.9209 23.8617 84.5863 23.8843 84.252 23.9112C83.9177 23.938 83.5838 23.9685 83.2497 23.9971C83.0085 24.0181 82.7675 24.0386 82.5258 24.0581C82.2101 24.0837 81.8943 24.107 81.5787 24.1332C81.2538 24.1604 80.9292 24.1903 80.6045 24.219C80.3354 24.2429 80.0663 24.2667 79.7973 24.2905C79.3984 24.3258 78.9995 24.3609 78.6005 24.3959C78.3035 24.4215 78.0063 24.4438 77.7094 24.4704C77.4124 24.4969 77.116 24.5269 76.8193 24.5553C76.5875 24.5774 76.3558 24.6003 76.1239 24.621C75.8363 24.6467 75.5483 24.6687 75.2609 24.6956C74.9827 24.7216 74.7049 24.752 74.4269 24.7799C74.2045 24.8022 73.9821 24.8248 73.7595 24.8454C73.4813 24.8713 73.2027 24.8934 72.9247 24.9207C72.6559 24.9471 72.3876 24.9784 72.119 25.0068C71.9246 25.0273 71.73 25.0472 71.5353 25.0664C71.0905 25.1104 70.6454 25.1526 70.2007 25.1981C69.9506 25.2236 69.701 25.254 69.4511 25.2819C69.2567 25.3037 69.0623 25.3249 68.8678 25.3458C68.4511 25.3898 68.034 25.431 67.6175 25.4774C67.2103 25.5229 66.8037 25.5735 66.3968 25.6216C66.2119 25.6434 66.0268 25.6643 65.8419 25.6863C65.3887 25.74 64.9356 25.7939 64.4826 25.848C64.1034 25.8927 63.7239 25.9345 63.345 25.9814C62.9846 26.0259 62.6251 26.0758 62.2647 26.1221C61.9137 26.1671 61.5624 26.2097 61.2115 26.2549C60.8698 26.2988 60.5282 26.3438 60.1868 26.3897C59.836 26.4365 59.4854 26.484 59.1349 26.5322C58.8028 26.5775 58.4707 26.623 58.1386 26.6687C57.7975 26.7161 57.4564 26.7642 57.1153 26.8129C56.8019 26.8574 56.4885 26.9025 56.1753 26.948C55.8529 26.9949 55.5305 27.0425 55.2082 27.0906C54.9042 27.1355 54.6001 27.1796 54.2963 27.2252C53.9741 27.2737 53.652 27.3229 53.33 27.3728C52.9252 27.4353 52.5205 27.4984 52.1158 27.5619C51.7111 27.6255 51.3067 27.6907 50.9027 27.7576C50.48 27.8264 50.0575 27.8956 49.635 27.9654C49.1387 28.047 48.6425 28.1279 48.147 28.2114C47.679 28.2903 47.2111 28.3709 46.7435 28.4533C46.2668 28.5372 45.7905 28.6233 45.314 28.7088C44.856 28.791 44.3976 28.8722 43.9399 28.9567C43.3816 29.0598 42.8236 29.1646 42.2659 29.2712C41.6442 29.3901 41.0229 29.5107 40.4019 29.6329C39.7992 29.7518 39.197 29.8727 38.5951 29.9955C37.9294 30.1315 37.2641 30.2696 36.5993 30.4098C35.862 30.5665 35.1253 30.7264 34.3891 30.8894C33.526 31.0805 32.6627 31.272 31.8016 31.4717C30.7322 31.7198 29.6628 31.9703 28.596 32.2311C27.222 32.567 25.8495 32.9094 24.4786 33.2582C22.468 33.7715 20.4645 34.3122 18.4636 34.8622C16.5615 35.385 14.6608 35.9131 12.7615 36.4465C10.5752 37.0589 8.38981 37.6746 6.20531 38.2937C6.00785 38.3486 5.80633 38.3877 5.60267 38.4106C5.33099 38.4426 5.06378 38.4176 4.80349 38.3283C4.69722 38.2932 4.59716 38.2415 4.507 38.1752C4.19638 37.9425 4.07036 37.6266 4.10803 37.2469C4.14054 36.92 4.28829 36.6437 4.51573 36.4093C4.75547 36.1623 5.0484 36.0071 5.37796 35.9161C5.84437 35.7873 6.31008 35.656 6.77719 35.5296C8.41197 35.0874 10.0456 34.6405 11.6827 34.2073C13.464 33.7361 15.248 33.2751 17.0377 32.8367C18.4566 32.4892 19.8746 32.1361 21.2965 31.8004C22.637 31.484 23.9812 31.1831 25.3254 30.8829C26.4065 30.6416 27.4887 30.4067 28.5723 30.1782C29.6197 29.958 30.6695 29.7492 31.7191 29.539C32.6226 29.3582 33.5267 29.1803 34.4314 29.0055C35.1811 28.862 35.9325 28.7279 36.6833 28.5904C37.3517 28.468 38.0198 28.344 38.6888 28.2254C39.2755 28.1214 39.8631 28.0241 40.4502 27.9237C40.9457 27.839 41.4409 27.7525 41.9366 27.6695C42.3315 27.6034 42.727 27.5421 43.1221 27.4778C43.5265 27.4121 43.9303 27.3438 44.3349 27.2796C44.7487 27.2138 45.163 27.1518 45.577 27.0877C46.0002 27.0221 46.4232 26.9554 46.8465 26.8902C47.1317 26.8463 47.4171 26.8033 47.7027 26.7611C48.1815 26.6901 48.6605 26.6196 49.1396 26.5496C49.4621 26.5031 49.7853 26.4613 50.108 26.4155C50.4398 26.3685 50.7712 26.3176 51.1031 26.2714C51.4351 26.2252 51.7677 26.183 52.0998 26.1379C52.4412 26.0917 52.7824 26.0435 53.1238 25.9977C53.4652 25.9518 53.8069 25.9076 54.1485 25.863C54.5271 25.8135 54.9056 25.7642 55.2842 25.715C55.4596 25.6922 55.6351 25.669 55.8106 25.6473C56.402 25.5738 56.9933 25.4995 57.585 25.4283C57.9733 25.3815 58.3623 25.3408 58.7508 25.2949C59.1484 25.2481 59.5455 25.1961 59.9433 25.1505C60.3503 25.1037 60.758 25.0627 61.1653 25.0177C61.4059 24.991 61.6462 24.9605 61.8867 24.933C62.0995 24.9087 62.3125 24.8854 62.5255 24.8631C62.9519 24.8192 63.3783 24.7781 63.8041 24.7333C64.2394 24.6876 64.6743 24.6374 65.1096 24.5921C65.3782 24.5642 65.6478 24.5429 65.9164 24.5163C66.1944 24.4888 66.4721 24.458 66.75 24.4296C66.9539 24.4087 67.1578 24.3888 67.3618 24.3697C67.64 24.344 67.9185 24.3207 68.1968 24.2952C68.4935 24.2677 68.7901 24.2381 69.0867 24.21C69.3093 24.189 69.5318 24.1674 69.7545 24.148C70.0514 24.1221 70.3486 24.0985 70.6455 24.073C70.9703 24.045 71.295 24.0159 71.6198 23.9879C71.9168 23.9623 72.2138 23.937 72.5108 23.9122C72.6872 23.8974 72.8634 23.8821 73.0399 23.8684C73.365 23.8432 73.6899 23.8195 74.0151 23.7942C74.3773 23.7663 74.7395 23.7376 75.1016 23.7083C75.1575 23.7038 75.2128 23.6973 75.2685 23.6931C75.7515 23.6567 76.2345 23.6195 76.7176 23.585C77.0892 23.5585 77.4613 23.5368 77.833 23.5106C78.2139 23.4837 78.5949 23.454 78.9756 23.4255C79.022 23.422 79.0684 23.4172 79.1149 23.4143C79.5147 23.3895 79.9146 23.3667 80.3143 23.34C80.7139 23.3133 81.1133 23.2817 81.5128 23.2542C81.8474 23.2311 82.1822 23.2106 82.5169 23.1891C82.7865 23.1719 83.056 23.1537 83.3257 23.138C83.7721 23.1121 84.2187 23.0891 84.665 23.0625C85.1114 23.0359 85.5576 23.0056 86.0038 22.9769C86.041 22.9745 86.0781 22.9711 86.1157 22.9692C86.5901 22.9442 87.0647 22.9211 87.539 22.8943C88.0133 22.8675 88.4875 22.8373 88.9618 22.8085C88.999 22.8063 89.0361 22.8032 89.0736 22.8015C89.5761 22.7769 90.0786 22.7539 90.581 22.7275C91.0927 22.7007 91.6042 22.6706 92.1158 22.6418C92.153 22.6397 92.1902 22.6366 92.2276 22.6348C92.7674 22.6101 93.3073 22.5869 93.847 22.5607C94.4054 22.5336 94.9635 22.5036 95.5218 22.4748C95.559 22.4729 95.5962 22.4699 95.6336 22.4683C96.2201 22.4436 96.8065 22.4202 97.3929 22.3941C98.0165 22.3662 98.64 22.3364 99.2636 22.3073C99.3008 22.3056 99.3379 22.3028 99.3754 22.3014C100.027 22.2767 100.679 22.252 101.331 22.2273C102.038 22.1994 102.746 22.1706 103.453 22.141C103.5 22.1391 103.546 22.1358 103.593 22.134C104.347 22.1094 105.101 22.085 105.856 22.0606C106.116 22.052 106.377 22.0417 106.638 22.032C106.694 22.0299 106.75 22.0261 106.806 22.0245C107.7 22 108.594 21.9757 109.488 21.9516C109.898 21.9405 110.308 21.9286 110.717 21.9206C111.333 21.9086 111.947 21.8983 112.562 21.8896C112.693 21.8876 112.823 21.8975 112.945 21.9522C112.96 21.9592 112.982 21.9522 113 21.9513L113 22.175Z" fill="white"/>
<path d="M0 19.1586C0.038023 19.1494 0.0690564 19.1306 0.0822666 19.0918C0.0916057 19.0658 0.0983026 19.0388 0.102257 19.0114C0.141747 18.7129 0.243095 18.4344 0.372541 18.1644C0.518063 17.8605 0.701049 17.5807 0.912132 17.3187C1.2644 16.8813 1.66896 16.497 2.11244 16.1537C2.74052 15.6675 3.41718 15.2591 4.13192 14.9135C5.1431 14.4242 6.20264 14.0806 7.30405 13.8644C7.69712 13.7872 8.09432 13.7327 8.49366 13.7012C9.05464 13.6571 9.61087 13.6905 10.1546 13.8488C10.8307 14.0456 11.3438 14.4496 11.6937 15.0608C11.9174 15.4522 12.0587 15.875 12.1353 16.3186C12.258 17.0295 12.1858 17.7282 11.9902 18.4171C11.7374 19.3075 11.2967 20.0999 10.7226 20.8215C10.4843 21.1209 10.2193 21.3953 9.94322 21.6598C9.92477 21.6775 9.91477 21.7044 9.9031 21.7281C9.901 21.7323 9.90904 21.7469 9.91414 21.7479C9.93139 21.7522 9.94929 21.7533 9.96691 21.751C10.168 21.7121 10.3694 21.6757 10.5728 21.6496C10.9824 21.5969 11.3905 21.5937 11.7964 21.6766C12.5897 21.8391 13.1951 22.2621 13.5889 22.9763C13.7324 23.2378 13.837 23.5189 13.8993 23.8106C13.9927 24.2384 14.0274 24.677 14.0024 25.1143C13.9483 26.0584 13.6848 26.9449 13.2651 27.7862C12.6763 28.9666 11.8419 29.9384 10.7621 30.7017C10.0461 31.2058 9.25888 31.5562 8.41475 31.7805C7.91961 31.912 7.41707 32.0072 6.90865 32.0758C6.6125 32.1157 6.31538 32.1359 6.01819 32.1541C5.56079 32.182 5.10605 32.1457 4.65481 32.0655C4.45211 32.0295 4.2578 31.9662 4.06944 31.8843C4.01834 31.8621 3.9697 31.8341 3.92091 31.8069C3.50426 31.5749 3.36175 31.1867 3.43108 30.7427C3.4726 30.4762 3.59771 30.2507 3.79873 30.0698C3.8608 30.0139 3.92909 29.965 3.99542 29.9141C4.01012 29.9024 4.02777 29.8951 4.0464 29.8929C4.06503 29.8907 4.08389 29.8938 4.10089 29.9017C4.22908 29.957 4.35524 30.017 4.48427 30.0703C4.69933 30.1592 4.91762 30.2398 5.14457 30.2939C5.19608 30.3062 5.23543 30.2749 5.23641 30.2217C5.23641 30.2124 5.23788 30.2031 5.23774 30.1938C5.23722 30.1658 5.23643 30.1379 5.23536 30.1099C5.22138 29.7192 5.2074 29.3285 5.19342 28.9378C5.16546 28.1937 5.13709 27.4496 5.10829 26.7055C5.10647 26.659 5.10403 26.6126 5.10249 26.5657C5.07691 25.7843 5.05293 25.0027 5.0256 24.2214C4.99904 23.4777 4.96892 22.7334 4.9404 21.989C4.93865 21.9424 4.93614 21.896 4.9346 21.8492C4.90902 21.0677 4.88339 20.2862 4.85772 19.5048C4.84045 18.9931 4.82067 18.4816 4.80327 17.9699C4.79977 17.8676 4.79893 17.7651 4.80187 17.6628C4.81774 17.1136 5.05587 16.6756 5.49341 16.3536C6.01196 15.9721 6.59741 15.8307 7.23667 15.9224C7.28238 15.9289 7.32753 15.9433 7.37171 15.9563C7.4467 15.979 7.47193 16.0139 7.47767 16.0991C7.48018 16.1362 7.48137 16.1735 7.48256 16.211C7.50639 16.9832 7.52855 17.7556 7.55441 18.5276C7.58125 19.3277 7.61249 20.1275 7.63996 20.9276C7.65213 21.2811 7.65918 21.6348 7.66974 21.9884C7.6717 22.0532 7.6791 22.1179 7.68477 22.1827C7.68651 22.2031 7.73327 22.2267 7.75124 22.2167C7.79157 22.1943 7.83427 22.1753 7.87188 22.149C8.19288 21.9242 8.47704 21.651 8.71418 21.339C9.17297 20.7385 9.48303 20.0662 9.66629 19.3358C9.78931 18.8465 9.8534 18.349 9.84103 17.843C9.8302 17.3584 9.73742 16.879 9.56662 16.4253C9.48757 16.2156 9.38832 16.016 9.26118 15.8312C8.92268 15.3383 8.44816 15.0791 7.85811 15.024C7.39862 14.9812 6.94639 15.0333 6.50102 15.1469C5.40157 15.4276 4.44911 15.9668 3.65049 16.7735C3.44767 16.9793 3.26478 17.2038 3.10425 17.444C2.83656 17.8425 2.64001 18.2716 2.55166 18.7453C2.45025 19.2891 2.49701 19.8206 2.70543 20.3344C2.80468 20.5791 2.95517 20.7909 3.14717 20.9728C3.19428 21.0174 3.24258 21.0609 3.28696 21.108C3.29577 21.1173 3.29458 21.143 3.28878 21.157C3.28228 21.1731 3.26718 21.1874 3.25264 21.1984C2.82698 21.5192 2.35309 21.6766 1.81581 21.6271C1.63653 21.6106 1.46899 21.5593 1.3083 21.4832C1.05476 21.3629 0.831274 21.1876 0.654149 20.97C0.370444 20.6241 0.191233 20.2302 0.111343 19.791C0.104354 19.7544 0.100999 19.7172 0.0954768 19.6804C0.0864603 19.6203 0.0476685 19.5817 0 19.5496V19.1586ZM7.83805 26.8965H7.83259C7.83637 27.0172 7.83958 27.1381 7.84392 27.2589C7.87653 28.2159 7.90948 29.1729 7.94275 30.1298C7.94499 30.1947 7.94974 30.2595 7.95442 30.3243C7.95701 30.3596 7.99755 30.383 8.03739 30.3732C8.06437 30.3666 8.09128 30.3597 8.11798 30.3522C8.52428 30.2339 8.895 30.0447 9.23385 29.7923C9.82719 29.3506 10.2776 28.789 10.6132 28.134C10.9331 27.5127 11.132 26.8363 11.1995 26.1408C11.2374 25.7579 11.2247 25.3793 11.1739 25.0008C11.1419 24.7614 11.0909 24.5248 11.0097 24.2962C10.9123 24.0222 10.7784 23.7683 10.5841 23.5497C10.2852 23.2135 9.91016 23.0305 9.46059 23.0069C9.33052 22.9992 9.20005 23.0013 9.0703 23.0133C8.61032 23.0593 8.18417 23.214 7.78003 23.4332C7.76332 23.4417 7.7493 23.4547 7.73955 23.4708C7.7298 23.4868 7.7247 23.5052 7.72482 23.524C7.72663 23.6727 7.72887 23.8214 7.73411 23.97C7.76831 24.9455 7.80296 25.921 7.83805 26.8965Z" fill="white"/>
<path d="M50.2094 38.9875C50.1991 38.9526 50.1955 38.9139 50.1773 38.8833C50.0833 38.7226 49.9859 38.564 49.8893 38.405C49.8368 38.3188 49.8104 38.3103 49.7038 38.3303C49.5575 38.3578 49.4115 38.3892 49.264 38.4072C48.9169 38.4496 48.5756 38.4111 48.2425 38.3086C48.0821 38.2584 47.9308 38.1829 47.7943 38.0849C47.5239 37.8929 47.3546 37.6365 47.2906 37.3091C47.2507 37.1055 47.2446 36.9047 47.2836 36.6997C47.3343 36.4311 47.4678 36.2154 47.6719 36.0395C47.8067 35.9233 47.9567 35.8298 48.116 35.7514C48.1582 35.7304 48.1986 35.7099 48.2227 35.6605C48.1631 35.6182 48.1016 35.5766 48.0425 35.532C47.6622 35.2441 47.5339 34.8583 47.6086 34.3977C47.6575 34.0971 47.8162 33.8632 48.0622 33.6877C48.278 33.534 48.5183 33.4405 48.7805 33.3979C49.0387 33.3564 49.3019 33.3584 49.5594 33.4038C49.8012 33.4454 50.026 33.5314 50.2238 33.6793C50.492 33.8797 50.6471 34.1436 50.6722 34.4808C50.6847 34.6492 50.6784 34.8167 50.6378 34.9801C50.5845 35.1943 50.47 35.3719 50.2939 35.5082C50.1385 35.6285 49.9732 35.7329 49.7925 35.8098C49.5872 35.8973 49.3801 35.9813 49.1714 36.06C49.0148 36.1196 48.8618 36.1883 48.7133 36.2658C48.5577 36.3464 48.4535 36.4728 48.3782 36.6279C48.2244 36.9452 48.3051 37.4493 48.8494 37.5805C49.0683 37.6332 49.2942 37.6235 49.5134 37.5583C49.8863 37.4473 50.142 37.2074 50.283 36.8459C50.3381 36.7074 50.3702 36.5607 50.3778 36.4117C50.3804 36.3558 50.3829 36.2999 50.3826 36.2439C50.3817 36.0767 50.4176 36.064 50.5574 36.0637C50.6226 36.0637 50.6877 36.0677 50.7523 36.076C51.0088 36.1086 51.1813 36.2722 51.2159 36.5239C51.2649 36.8789 51.1966 37.2089 50.9906 37.5069C50.9161 37.6146 50.8286 37.7106 50.7335 37.8004C50.7008 37.8314 50.6738 37.8684 50.6411 37.9061C50.6687 37.9627 50.69 38.0139 50.7176 38.0617C50.8474 38.2881 50.9886 38.5076 51.1518 38.7111C51.2189 38.795 51.2509 38.887 51.2725 38.987L50.2094 38.9875ZM49.7272 34.6712C49.7229 34.6223 49.7207 34.585 49.7163 34.5481C49.6891 34.3245 49.5584 34.1743 49.3398 34.1172C49.2949 34.1055 49.249 34.0932 49.2032 34.0906C48.964 34.0766 48.7321 34.1713 48.6228 34.3954C48.5808 34.4812 48.563 34.5727 48.5599 34.6649C48.5466 35.0576 48.8282 35.3307 49.2016 35.3009C49.445 35.2817 49.6591 35.0971 49.7063 34.8528C49.7188 34.7895 49.7215 34.7239 49.7274 34.6712H49.7272Z" fill="white"/>
<path d="M86.8883 38.9873C86.7728 38.7963 86.6573 38.6054 86.5417 38.4146C86.4854 38.3217 86.4568 38.3097 86.3608 38.3275C86.2236 38.3533 86.0868 38.3816 85.9488 38.4014C85.5923 38.4524 85.2422 38.4154 84.8993 38.3115C84.7116 38.2545 84.5362 38.1629 84.3821 38.0415C84.111 37.8294 83.961 37.5502 83.9202 37.2109C83.9038 37.0721 83.9024 36.932 83.916 36.7929C83.9407 36.5326 84.0448 36.3095 84.2281 36.1238C84.3667 35.983 84.5287 35.8747 84.7015 35.7813C84.7574 35.7513 84.8273 35.7383 84.8623 35.6637C84.8367 35.6427 84.8101 35.6193 84.7819 35.5978C84.7228 35.5527 84.6596 35.5122 84.6039 35.4634C84.3915 35.2774 84.2695 35.0449 84.244 34.7615C84.2304 34.6223 84.2373 34.4818 84.2645 34.3446C84.3149 34.0985 84.4443 33.898 84.6387 33.7395C84.8273 33.5858 85.049 33.4781 85.2865 33.425C85.6752 33.3365 86.0636 33.346 86.4459 33.4638C86.5973 33.5111 86.7397 33.5836 86.8669 33.6784C87.1561 33.8913 87.3019 34.1798 87.3272 34.5338C87.3393 34.703 87.3155 34.8688 87.2681 35.0304C87.2215 35.1925 87.1301 35.3382 87.0044 35.4508C86.8792 35.5639 86.7388 35.6547 86.5911 35.735C86.4191 35.8288 86.2374 35.9008 86.0548 35.9707C85.8897 36.0336 85.7246 36.0972 85.5619 36.1661C85.4766 36.2034 85.3938 36.2462 85.314 36.2941C85.1355 36.399 85.0278 36.5597 84.9805 36.7568C84.8934 37.1188 85.0564 37.4747 85.492 37.58C85.7111 37.6331 85.9404 37.6257 86.1556 37.5587C86.6402 37.4089 86.911 37.0698 86.9992 36.5794C87.0201 36.4606 87.0214 36.3387 87.032 36.2182C87.0345 36.1902 87.0385 36.1629 87.0422 36.1354C87.0467 36.1025 87.0833 36.0729 87.1202 36.0687C87.2316 36.0564 87.3442 36.0619 87.4538 36.0852C87.6416 36.1242 87.7721 36.2351 87.8335 36.418C87.8777 36.5511 87.8926 36.6921 87.8771 36.8315C87.8432 37.1569 87.719 37.4418 87.4954 37.6818C87.451 37.7294 87.4022 37.7727 87.3569 37.8198C87.3316 37.846 87.3093 37.875 87.2804 37.9088C87.327 37.9934 87.3662 38.078 87.4171 38.1549C87.5506 38.3565 87.6852 38.5578 87.828 38.7529C87.8822 38.827 87.8993 38.9017 87.8945 38.9875L86.8883 38.9873ZM85.201 34.6811C85.1974 34.8377 85.2461 34.9747 85.3415 35.0964C85.5651 35.3834 86.0992 35.3962 86.3021 34.9925C86.3986 34.8004 86.4049 34.5986 86.3241 34.3978C86.2767 34.2803 86.1901 34.1963 86.0752 34.1462C85.9898 34.1091 85.8984 34.085 85.8042 34.0875C85.5254 34.0952 85.3197 34.2152 85.2319 34.489C85.2124 34.5503 85.2108 34.617 85.201 34.6811Z" fill="white"/>
<path d="M113 36.3622C112.831 36.5444 112.789 36.5708 112.584 36.6092C112.52 36.6208 112.455 36.628 112.39 36.6309C112.316 36.6347 112.241 36.6324 112.167 36.6324C111.636 36.6324 111.106 36.6326 110.576 36.633C110.493 36.633 110.408 36.6213 110.321 36.6571C110.321 36.6929 110.312 36.7317 110.322 36.7647C110.439 37.1479 110.687 37.4074 111.067 37.5323C111.342 37.623 111.633 37.654 111.921 37.6232C112.144 37.5999 112.364 37.5673 112.577 37.4956C112.612 37.4837 112.65 37.4799 112.686 37.4728C112.709 37.4685 112.749 37.4929 112.753 37.5121C112.777 37.6211 112.775 37.7342 112.749 37.8426C112.724 37.9446 112.669 38.0296 112.589 38.0988C112.503 38.1731 112.404 38.2227 112.298 38.2611C111.998 38.3709 111.686 38.4149 111.368 38.4225C111.106 38.4286 110.847 38.3966 110.597 38.3182C110.061 38.1501 109.676 37.8091 109.447 37.2951C109.344 37.0638 109.286 36.8198 109.26 36.569C109.236 36.3376 109.226 36.1039 109.254 35.8728C109.35 35.0927 109.76 34.5493 110.499 34.2684C110.771 34.1648 111.06 34.1363 111.35 34.1511C111.536 34.1607 111.721 34.1841 111.899 34.242C112.381 34.3981 112.712 34.7158 112.903 35.181C112.924 35.2318 112.93 35.2885 112.947 35.3412C112.961 35.3847 112.982 35.4262 112.999 35.4687L113 36.3622ZM111.082 35.9732C111.286 35.9732 111.49 35.9735 111.694 35.9732C111.749 35.9732 111.805 35.9723 111.86 35.9673C111.949 35.9593 112.039 35.8772 112.045 35.7868C112.051 35.6951 112.056 35.5999 112.038 35.5108C111.976 35.1929 111.792 34.9812 111.472 34.8946C111.278 34.8422 111.087 34.8531 110.896 34.9064C110.7 34.9611 110.544 35.072 110.439 35.2453C110.316 35.4469 110.251 35.6668 110.257 35.9049C110.258 35.9284 110.284 35.9624 110.305 35.9644C110.341 35.9677 110.378 35.9727 110.415 35.9728C110.637 35.9736 110.86 35.9732 111.082 35.9732Z" fill="white"/>
<path d="M109.756 3.05176e-05C109.788 0.0179237 109.818 0.0398708 109.852 0.0531509C110.147 0.169736 110.174 0.545912 110.007 0.728059C109.963 0.775867 109.919 0.824165 109.875 0.871764C108.989 1.82416 108.103 2.77643 107.217 3.72859C107.16 3.78975 107.105 3.85307 107.042 3.90829C106.852 4.07604 106.583 4.05409 106.423 3.86125C106.312 3.72845 106.296 3.51066 106.393 3.36632C106.44 3.29762 106.497 3.23604 106.554 3.17495C106.99 2.70502 107.426 2.23561 107.864 1.7667C108.301 1.2978 108.738 0.828615 109.174 0.359152C109.382 0.135907 109.381 0.135487 109.589 3.05176e-05L109.756 3.05176e-05Z" fill="white"/>
<path d="M29.3199 15.6679C29.3622 15.645 29.3839 15.6027 29.4103 15.565C29.6843 15.1736 30.0692 14.9421 30.5184 14.808C30.8357 14.7132 31.16 14.7015 31.4868 14.7507C31.5054 14.7528 31.5237 14.7561 31.5418 14.7605C31.8246 14.842 31.8206 14.8042 31.8155 15.1116C31.8045 15.7723 31.7933 16.433 31.782 17.0937C31.7727 17.6706 31.7654 18.2476 31.7562 18.8246C31.7376 20.0064 31.7186 21.1883 31.6992 22.3701C31.6968 22.5283 31.7001 22.6865 31.7001 22.8447C31.7001 23.0132 31.7258 23.1786 31.7601 23.3428C31.7881 23.4798 31.8378 23.6114 31.9075 23.7327C32.0472 23.9741 32.2599 24.0818 32.5353 24.0695C32.5907 24.067 32.646 24.0555 32.7005 24.0444C33.0235 23.9764 33.3187 23.8421 33.5946 23.6638C34.0052 23.3982 34.3553 23.0667 34.6608 22.6866C34.7016 22.6359 34.7393 22.5824 34.7824 22.5337C34.8084 22.5045 34.8472 22.4968 34.885 22.5077C35.1244 22.5776 35.2849 22.7733 35.2974 23.0129C35.3044 23.1446 35.286 23.273 35.2268 23.393C35.2063 23.435 35.186 23.4769 35.1617 23.5163C34.641 24.3655 34.0034 25.1118 33.207 25.717C33.0141 25.8638 32.8125 25.9975 32.5984 26.1118C32.2925 26.2751 31.9722 26.3988 31.6275 26.4491C31.3121 26.4951 30.9969 26.501 30.6839 26.4237C30.309 26.3311 30.0013 26.1341 29.7608 25.8328C29.572 25.5966 29.4451 25.3291 29.3569 25.0421C29.3242 24.9357 29.2983 24.8272 29.2665 24.7206C29.2631 24.7121 29.2578 24.7046 29.251 24.6985C29.2442 24.6924 29.2362 24.688 29.2274 24.6856C29.2154 24.6837 29.1945 24.7 29.1872 24.7136C29.1474 24.7872 29.1108 24.8625 29.0726 24.9372C28.8688 25.3356 28.6362 25.7164 28.3618 26.071C28.1388 26.3593 27.889 26.6219 27.6062 26.8525C27.2626 27.1326 26.8814 27.3418 26.4498 27.4504C26.0293 27.5566 25.6049 27.5839 25.1772 27.4924C24.7477 27.4005 24.374 27.202 24.055 26.9017C23.7965 26.6591 23.578 26.3771 23.4077 26.0661C23.3497 25.9601 23.2965 25.8513 23.2375 25.7458C23.2258 25.7248 23.198 25.7128 23.169 25.6899C23.1381 25.7436 23.1091 25.7905 23.0835 25.8392C22.4235 27.094 21.4581 28.0517 20.2322 28.7525C19.7854 29.0081 19.3096 29.1949 18.8031 29.2967C18.4344 29.3708 18.0639 29.3919 17.6928 29.3192C17.2708 29.2365 16.9024 29.0489 16.5965 28.7441C16.3829 28.5312 16.2227 28.2819 16.0944 28.0102C15.9259 27.6538 15.8274 27.2763 15.7682 26.889C15.7132 26.5301 15.6819 26.1686 15.6505 25.8071C15.6239 25.5012 15.5928 25.1957 15.566 24.8898C15.5432 24.6303 15.521 24.3707 15.5035 24.1107C15.4766 23.7115 15.457 23.3118 15.4288 22.9126C15.3816 22.2439 15.3734 21.5737 15.3511 20.9041C15.3338 20.3829 15.3324 19.8619 15.3536 19.3408C15.36 19.1827 15.3654 19.0246 15.3696 18.8664C15.3895 18.1587 15.4545 17.4545 15.5558 16.7542C15.6452 16.1368 15.7778 15.5281 15.988 14.9385C16.1228 14.5604 16.2885 14.1972 16.5028 13.8572C16.6412 13.636 16.8067 13.4328 16.9954 13.2525C17.3707 12.896 17.816 12.674 18.323 12.5836C18.599 12.5347 18.8784 12.5359 19.1547 12.6061C19.5747 12.7126 19.8881 12.9595 20.1131 13.3228C20.2668 13.5711 20.3555 13.8453 20.407 14.1312C20.4849 14.5634 20.5071 14.9999 20.4922 15.4382C20.4782 15.8567 20.4518 16.2749 20.3991 16.6906C20.3337 17.2074 20.253 17.7219 20.1535 18.2335C19.805 20.0266 19.2942 21.7751 18.7025 23.5012C18.594 23.8179 18.4802 24.1329 18.3656 24.4475C18.3264 24.5519 18.3102 24.6635 18.3181 24.7747C18.3367 25.0441 18.3639 25.3125 18.3995 25.5798C18.4202 25.7462 18.4594 25.9097 18.5164 26.0673C18.575 26.2258 18.6578 26.3706 18.7737 26.4953C18.9535 26.6884 19.1766 26.791 19.4377 26.8115C19.6729 26.83 19.9015 26.7987 20.1256 26.7235C20.3472 26.6492 20.5598 26.5563 20.7606 26.437C21.4807 26.0101 22.0517 25.4353 22.4736 24.7126C22.5389 24.6004 22.5893 24.4795 22.6462 24.3624C22.7171 24.2163 22.7408 24.0681 22.7072 23.9036C22.6475 23.6115 22.6345 23.3128 22.611 23.0159C22.5825 22.6446 22.5814 22.2716 22.6079 21.9C22.6367 21.4822 22.6795 21.0659 22.7561 20.6535C22.9519 19.6009 23.3013 18.606 23.8638 17.6908C24.2083 17.1308 24.6305 16.6386 25.1446 16.2265C25.7639 15.7301 26.4681 15.4393 27.2571 15.354C27.3497 15.3438 27.4419 15.3279 27.5346 15.3212C28.1026 15.2801 28.6489 15.361 29.1637 15.6154C29.205 15.6359 29.2487 15.6519 29.2918 15.6686C29.2999 15.6721 29.3101 15.6686 29.3199 15.6679ZM29.0466 20.0316H29.0557C29.0662 19.0642 29.0764 18.0967 29.0866 17.1292C29.0881 17.0737 29.0843 17.0182 29.0752 16.9634C29.071 16.9407 29.0459 16.9128 29.0239 16.9045C28.9803 16.8887 28.9348 16.8793 28.8885 16.8766C28.5995 16.8571 28.312 16.8661 28.0268 16.9248C27.4761 17.038 26.9868 17.2673 26.5852 17.6688C26.3545 17.8994 26.1574 18.1612 25.9996 18.4467C25.8593 18.6998 25.753 18.9671 25.6609 19.2408C25.4664 19.8182 25.3753 20.4151 25.3386 21.0197C25.3007 21.6423 25.3203 22.267 25.397 22.8859C25.4255 23.1166 25.4615 23.3466 25.5054 23.5747C25.5473 23.7938 25.6075 24.0087 25.7017 24.213C25.7883 24.4012 25.901 24.5703 26.0535 24.7113C26.2002 24.8471 26.371 24.9397 26.5707 24.9676C26.7853 24.9975 26.997 24.985 27.2047 24.9139C27.3811 24.8542 27.5488 24.7713 27.7035 24.6674C28.2565 24.294 28.668 23.798 28.9654 23.2044C28.9957 23.1466 29.0116 23.0823 29.0116 23.017C29.0109 22.9426 29.013 22.8682 29.0139 22.7937L29.0466 20.0316ZM17.9838 19.3553C18.0048 19.8666 18.0238 20.378 18.0475 20.8892C18.0693 21.3633 18.096 21.8371 18.121 22.3111C18.1225 22.3295 18.1264 22.3477 18.1325 22.3652C18.1341 22.37 18.1452 22.3742 18.152 22.3744C18.1603 22.3744 18.173 22.3726 18.1764 22.3674C18.1912 22.3443 18.2088 22.321 18.2155 22.2952C18.4103 21.5481 18.5923 20.798 18.7312 20.0384C18.8232 19.5352 18.9089 19.0309 18.9882 18.5257C19.0411 18.1858 19.081 17.8436 19.1175 17.5014C19.1499 17.1962 19.167 16.8894 19.1957 16.5837C19.2482 16.0266 19.2471 15.4684 19.2294 14.9101C19.2247 14.762 19.1986 14.6144 19.1792 14.4669C19.1651 14.3652 19.1304 14.2673 19.0773 14.1794C19.0094 14.0645 18.9081 14.0122 18.7737 14.0211C18.6644 14.0281 18.578 14.0771 18.5081 14.1578C18.4278 14.2505 18.3775 14.3605 18.3344 14.4741C18.2585 14.6752 18.2116 14.884 18.1741 15.0945C18.0742 15.6542 18.0241 16.2194 18.0038 16.7871C17.9734 17.6427 17.9622 18.4987 17.9838 19.3553Z" fill="white"/>
<path d="M80.9944 18.0347C80.9777 18.0409 80.9538 18.0421 80.9455 18.054C80.8974 18.1223 80.8522 18.1926 80.8075 18.2632C80.6174 18.5626 80.4057 18.8453 80.164 19.1052C79.9603 19.3242 79.7376 19.5214 79.4896 19.6893C79.217 19.8739 78.9235 20.0119 78.5997 20.0777C78.2489 20.1491 77.8964 20.1549 77.5467 20.0707C77.1452 19.9738 76.8105 19.7637 76.5398 19.4528C76.3565 19.2416 76.2047 19.0049 76.0893 18.7502C75.9425 18.4281 75.8348 18.0897 75.7685 17.742C75.6319 17.0331 75.6162 16.3194 75.6865 15.6017C75.7535 14.9063 75.9101 14.2226 76.1524 13.5674C76.403 12.8907 76.742 12.2624 77.1955 11.6985C77.4697 11.3562 77.7909 11.0546 78.1497 10.8024C78.5355 10.5313 78.9569 10.3411 79.4206 10.2495C79.8819 10.1587 80.3456 10.1385 80.809 10.2316C81.0562 10.28 81.2941 10.3675 81.5138 10.4906C81.5774 10.5265 81.6335 10.5808 81.7226 10.5858C81.7498 10.5569 81.7827 10.5244 81.8129 10.4896C82.0823 10.1791 82.4343 10.0177 82.8301 9.95527C83.1365 9.90697 83.4437 9.92172 83.7355 10.0497C83.7964 10.0764 83.8217 10.1106 83.8193 10.1778C83.817 10.2429 83.814 10.3081 83.8073 10.3728C83.7811 10.6227 83.7533 10.8724 83.7262 11.1221C83.7032 11.3349 83.6793 11.5476 83.6577 11.7605C83.6127 12.2048 83.5705 12.6494 83.5242 13.0936C83.4788 13.5286 83.4288 13.963 83.3827 14.3979C83.3552 14.657 83.3325 14.9165 83.3058 15.1757C83.2792 15.4348 83.2494 15.6937 83.2223 15.9528C83.1991 16.1749 83.1741 16.3969 83.1566 16.6195C83.1412 16.8148 83.1431 17.0104 83.1915 17.2024C83.2051 17.2564 83.2199 17.3102 83.238 17.3628C83.3399 17.6605 83.5948 17.7812 83.874 17.7459C84.0498 17.7243 84.2222 17.6807 84.3871 17.6162C84.5688 17.5438 84.7429 17.4537 84.907 17.3472C85.143 17.1957 85.3554 17.0154 85.557 16.8208C85.6427 16.738 85.6898 16.6454 85.7002 16.5284C85.7215 16.2968 85.7461 16.0655 85.7701 15.8342C85.7981 15.5658 85.8269 15.2975 85.8565 15.0293C85.8786 14.8258 85.9025 14.6225 85.9236 14.4189C85.9686 13.9839 86.013 13.5488 86.0568 13.1138C86.0766 12.9194 86.0983 12.7251 86.1166 12.5306C86.1226 12.4658 86.1241 12.4006 86.1211 12.3356C86.1182 12.2891 86.1103 12.2432 86.0976 12.1984C86.0641 12.0736 85.9233 12.0138 85.8071 12.0739C85.7822 12.0863 85.7588 12.1013 85.7372 12.1188C85.6872 12.1607 85.6393 12.2051 85.5904 12.2476C85.5415 12.29 85.4945 12.2845 85.4453 12.234C85.3393 12.1274 85.2736 11.9873 85.2594 11.8377C85.2546 11.7915 85.2524 11.7449 85.2524 11.6984C85.2518 11.5629 85.2976 11.4432 85.3814 11.3376C85.3984 11.3155 85.4167 11.2945 85.4363 11.2747C85.7961 10.92 86.1803 10.5987 86.644 10.3841C86.9346 10.2495 87.2369 10.1636 87.5585 10.1561C87.6516 10.1543 87.7447 10.158 87.8374 10.1671C87.9504 10.1777 88.0541 10.22 88.1494 10.2811C88.2717 10.3593 88.3536 10.4683 88.3997 10.606C88.4542 10.7686 88.4576 10.9353 88.4417 11.1031C88.4175 11.3531 88.39 11.6028 88.3648 11.8528C88.3623 11.8776 88.3676 11.9032 88.3701 11.9406C88.398 11.9137 88.4249 11.8986 88.4356 11.8758C88.4989 11.7412 88.5561 11.6037 88.6197 11.4693C88.7395 11.2163 88.8799 10.9755 89.0481 10.7512C89.1537 10.609 89.2721 10.4768 89.4017 10.3563C89.6896 10.0907 90.0271 9.92074 90.4121 9.85099C90.6054 9.81604 90.8024 9.81219 90.9957 9.85392C91.3401 9.92829 91.6082 10.1169 91.799 10.4131C91.9969 10.7199 92.0796 11.0604 92.0753 11.4215C92.0725 11.6829 92.0184 11.9413 91.9161 12.1819C91.8317 12.3809 91.7162 12.5599 91.5596 12.7107C91.3367 12.9248 91.072 13.0487 90.7639 13.0773C90.6064 13.092 90.4484 13.1089 90.2916 13.0694C90.2717 13.0643 90.2461 13.0254 90.2526 13.0065C90.2764 12.936 90.3026 12.8667 90.324 12.7953C90.3568 12.6864 90.3582 12.5742 90.3438 12.463C90.3139 12.2323 90.147 12.0841 89.9127 12.0604C89.6425 12.0331 89.4191 12.1224 89.2286 12.3085C89.128 12.4064 89.0451 12.5188 88.9708 12.6375C88.8519 12.8275 88.7568 13.0289 88.6741 13.2371C88.5085 13.653 88.3867 14.0821 88.2854 14.5175C88.1398 15.1431 88.0253 15.7743 87.9418 16.4112C87.8947 16.771 87.8428 17.1301 87.802 17.4906C87.7697 17.7772 87.7525 18.0654 87.7252 18.3525C87.7112 18.5007 87.6972 18.6493 87.6715 18.7957C87.6075 19.1613 87.4268 19.4625 87.1177 19.6673C86.6163 19.9998 86.073 20.0918 85.4935 19.8946C85.467 19.8859 85.4413 19.8751 85.4166 19.8622C85.4002 19.8535 85.3862 19.8407 85.3762 19.825C85.3661 19.8094 85.3602 19.7915 85.359 19.7729C85.358 19.7542 85.3588 19.7355 85.3615 19.717C85.3941 19.3929 85.427 19.0689 85.4601 18.7449C85.481 18.5414 85.5029 18.338 85.523 18.1344C85.5252 18.1116 85.5099 18.0995 85.4889 18.1003C85.4801 18.1003 85.4685 18.1003 85.4631 18.1055C85.3958 18.1692 85.3287 18.2332 85.263 18.2987C84.9316 18.6281 84.5725 18.9227 84.174 19.1684C83.9433 19.3106 83.7041 19.434 83.4471 19.5213C83.1713 19.6152 82.8888 19.668 82.5966 19.6541C82.41 19.645 82.2262 19.6167 82.049 19.5544C81.7583 19.4521 81.5256 19.2757 81.3525 19.0202C81.2147 18.817 81.1257 18.5938 81.0729 18.3554C81.0509 18.2556 81.031 18.1554 81.0094 18.0555C81.0077 18.0475 80.9997 18.0414 80.9944 18.0347ZM77.947 16.0707C77.9368 16.2888 77.9744 16.6035 78.0045 16.9182C78.0194 17.0755 78.0589 17.2295 78.1113 17.3795C78.1637 17.5294 78.2399 17.6683 78.3444 17.7895C78.4535 17.9181 78.5983 18.0113 78.7605 18.0574C78.9263 18.1057 79.0904 18.1056 79.2567 18.0708C79.4784 18.0245 79.6804 17.9316 79.8704 17.8113C80.2705 17.5579 80.5903 17.2246 80.8449 16.8273C80.8858 16.7636 80.9139 16.6971 80.9209 16.6204C80.9367 16.4445 80.9564 16.2688 80.9743 16.093C81.0283 15.5657 81.0822 15.0383 81.1361 14.511C81.1587 14.2889 81.1809 14.0668 81.2044 13.8448C81.2327 13.5766 81.2627 13.3086 81.2908 13.0403C81.3247 12.7166 81.3585 12.3929 81.3902 12.0688C81.4029 11.9392 81.4106 11.8091 81.4187 11.6792C81.4218 11.629 81.3879 11.5828 81.3462 11.5743C81.1174 11.5262 80.8868 11.4974 80.6528 11.5216C80.5602 11.5309 80.468 11.5449 80.3762 11.5603C80.0024 11.6232 79.6633 11.7649 79.3637 12.0007C79.0517 12.2466 78.8074 12.5482 78.6178 12.8953C78.4114 13.2728 78.2641 13.6736 78.1635 14.0916C78.0163 14.7092 77.9513 15.3369 77.9473 16.071L77.947 16.0707Z" fill="white"/>
<path d="M71.5092 13.236C71.5628 13.2613 71.6187 13.2484 71.6742 13.2475C71.8979 13.2438 72.1216 13.2358 72.3448 13.2394C72.6074 13.2436 72.862 13.2988 73.1102 13.3841C73.8694 13.6451 74.3267 14.1809 74.5265 14.9468C74.6045 15.2461 74.6203 15.5532 74.6108 15.8614C74.5968 16.3111 74.509 16.7471 74.3671 17.1738C73.7761 18.9502 72.3177 20.4526 70.5614 21.0869C70.1312 21.2422 69.6883 21.3463 69.234 21.4073C68.6971 21.4793 68.1591 21.5187 67.6177 21.4999C67.2073 21.486 66.8008 21.4363 66.4016 21.3359C66.1931 21.2834 65.9925 21.2092 65.806 21.1008C65.6928 21.0349 65.5882 20.9575 65.5042 20.8553C65.4201 20.7531 65.3635 20.6376 65.3485 20.5033C65.3056 20.1208 65.4269 19.8072 65.7375 19.5731C65.7827 19.5403 65.8298 19.5102 65.8786 19.4831C65.902 19.4696 65.9293 19.4628 65.9597 19.4512L66.1768 19.5744C66.3788 19.6901 66.5891 19.7909 66.8058 19.8759C66.8413 19.8899 66.8886 19.8657 66.8934 19.8306C66.9035 19.757 66.914 19.6834 66.9193 19.6094C66.9554 19.1082 66.9905 18.6069 67.0248 18.1055C67.0512 17.7155 67.0737 17.3252 67.1009 16.9352C67.1281 16.5452 67.1582 16.1556 67.1865 15.7657C67.2086 15.4595 67.2308 15.1531 67.2512 14.8466C67.2772 14.4566 67.3001 14.0664 67.3268 13.6764C67.3532 13.2958 67.3837 12.9154 67.4115 12.5348C67.4317 12.2564 67.4512 11.9779 67.47 11.6993C67.4955 11.3185 67.5198 10.9375 67.5451 10.557C67.5661 10.2412 67.5843 9.92523 67.6109 9.61C67.6209 9.48939 67.6419 9.36995 67.6738 9.25319C67.7697 8.90539 67.978 8.63433 68.2857 8.45135C68.7446 8.17841 69.238 8.08726 69.7632 8.22069C69.7991 8.22985 69.8336 8.24474 69.8685 8.25767C69.9444 8.28563 69.9663 8.31932 69.9636 8.40592C69.9622 8.4524 69.9592 8.49888 69.9559 8.54529C69.9215 9.02798 69.887 9.51068 69.8524 9.99338C69.8331 10.2626 69.8131 10.5316 69.7946 10.801C69.7691 11.1724 69.7457 11.544 69.7193 11.9154C69.6914 12.3052 69.6608 12.6948 69.6323 13.0847C69.6248 13.1867 69.6203 13.289 69.6163 13.3913C69.6144 13.441 69.6645 13.4643 69.7156 13.4387C69.7489 13.4219 69.7822 13.405 69.8144 13.3864C70.1131 13.2132 70.382 12.9929 70.6106 12.7341C71.1549 12.1218 71.4983 11.4085 71.6787 10.613C71.7241 10.4128 71.7515 10.2098 71.7696 10.006C71.8104 9.53605 71.7486 9.07747 71.5982 8.63084C71.5772 8.56933 71.5505 8.50971 71.5238 8.45037C71.2972 7.94531 70.9066 7.64811 70.3668 7.53817C70.0061 7.46464 69.6462 7.47736 69.2829 7.52342C68.6935 7.598 68.1401 7.78105 67.6153 8.05295C67.0974 8.32134 66.6393 8.66802 66.2614 9.11535C66.0435 9.37341 65.8692 9.65739 65.7465 9.97304C65.5691 10.4294 65.5367 10.8953 65.6493 11.3709C65.7022 11.5986 65.806 11.8113 65.953 11.993C65.9938 12.0436 66.0359 12.0931 66.0767 12.1436C66.0907 12.1605 66.0795 12.2041 66.0591 12.217C65.6713 12.461 65.2536 12.5477 64.8028 12.4507C64.684 12.4251 64.5722 12.3779 64.4668 12.3167C64.237 12.1831 64.0474 12.0058 63.9103 11.7785C63.5279 11.1448 63.4706 10.4854 63.77 9.8034C63.883 9.54591 64.0392 9.31476 64.2173 9.09809C64.4314 8.83801 64.6786 8.61197 64.9412 8.40242C65.2404 8.16373 65.5606 7.95621 65.8955 7.77141C66.8993 7.21735 67.9714 6.85634 69.0983 6.65784C69.6033 6.56948 70.1142 6.51989 70.6267 6.50952C70.9999 6.50148 71.3716 6.51651 71.7397 6.58773C71.9506 6.62876 72.1571 6.68475 72.3556 6.76541C72.8981 6.98572 73.2987 7.35882 73.5299 7.89883C73.7611 8.43884 73.8449 9.00317 73.7723 9.59134C73.6884 10.2693 73.4501 10.8885 73.0968 11.4673C72.7344 12.0614 72.2767 12.5724 71.7384 13.0125C71.6663 13.0714 71.5941 13.1301 71.5244 13.1916C71.5144 13.2004 71.518 13.2247 71.5154 13.2418C71.4964 13.2357 71.494 13.239 71.5084 13.2515C71.5082 13.2466 71.5087 13.2413 71.5092 13.236ZM69.3248 17.358L69.33 17.3584C69.323 17.4512 69.316 17.544 69.3091 17.6368C69.2806 18.0171 69.2511 18.3975 69.224 18.778C69.196 19.1678 69.1795 19.5587 69.1419 19.9475C69.1129 20.2464 69.157 20.2028 69.3889 20.159C69.4889 20.1401 69.5865 20.106 69.6833 20.0731C70.1412 19.9176 70.5331 19.6551 70.8834 19.3268C71.6954 18.5655 72.3346 17.2759 72.2346 15.9056C72.2228 15.748 72.1995 15.5915 72.1647 15.4373C72.1158 15.2183 72.0299 15.0121 71.9018 14.8254C71.6603 14.473 71.3236 14.2802 70.9011 14.2388C70.5662 14.2059 70.2282 14.2425 69.9082 14.3463C69.4868 14.4812 69.535 14.4185 69.5045 14.8525C69.4771 15.2424 69.4535 15.6325 69.4254 16.0223C69.3936 16.4674 69.3585 16.9127 69.3248 17.358Z" fill="white"/>
<path d="M57.2489 15.4489C57.321 15.433 57.3462 15.3782 57.3866 15.3418C57.7876 14.9812 58.2463 14.8817 58.7601 15.043C58.859 15.074 58.8753 15.1066 58.868 15.21C58.8673 15.2193 58.8669 15.2286 58.8659 15.2379C58.8198 15.6353 58.7737 16.0326 58.7276 16.4299C58.7042 16.6333 58.682 16.8367 58.6592 17.0401C58.6064 17.5116 58.5536 17.9831 58.5009 18.4546C58.4551 18.8707 58.4115 19.2871 58.3663 19.7033C58.3573 19.7865 58.3429 19.8692 58.3355 19.9526C58.3188 20.1384 58.3167 20.3226 58.3614 20.5073C58.4323 20.8 58.6417 20.9246 58.922 20.8767C59.1059 20.846 59.2841 20.7871 59.45 20.7019C59.7002 20.5726 59.9227 20.4054 60.1248 20.2103C60.1716 20.1651 60.2152 20.1161 60.2655 20.0751C60.2837 20.0602 60.3217 20.0521 60.3424 20.0607C60.462 20.1103 60.54 20.1975 60.5565 20.3297C60.5684 20.4243 60.5552 20.5159 60.5061 20.5992C60.4785 20.6476 60.4479 20.6943 60.4146 20.739C60.0613 21.2018 59.6477 21.6006 59.1565 21.9161C58.9839 22.0269 58.8036 22.123 58.6108 22.1953C58.3172 22.3055 58.0174 22.3442 57.7055 22.2962C57.3618 22.2434 57.0979 22.0753 56.918 21.7773C56.8354 21.6405 56.7809 21.4932 56.7472 21.3373C56.7315 21.2651 56.7101 21.1941 56.6901 21.1228C56.6883 21.1165 56.678 21.1126 56.671 21.107C56.6214 21.1218 56.6035 21.1671 56.5789 21.2054C56.4595 21.3943 56.3273 21.5749 56.1834 21.7458C56.0017 21.9598 55.7993 22.1512 55.5672 22.3101C55.2933 22.4979 54.9945 22.6176 54.6618 22.6475C54.0919 22.699 53.6168 22.5207 53.2558 22.0674C53.1282 21.9068 53.0243 21.7288 52.9472 21.5387C52.9123 21.4527 52.8774 21.3665 52.8417 21.2807C52.83 21.2527 52.7934 21.2444 52.7773 21.2662C52.7329 21.3257 52.6895 21.386 52.6458 21.446C52.1398 22.1402 51.4895 22.6512 50.6949 22.9788C50.383 23.1076 50.0597 23.1918 49.7196 23.1959C49.5329 23.1981 49.3481 23.1879 49.1674 23.1312C48.8619 23.0354 48.6214 22.8558 48.445 22.59C48.3305 22.4175 48.2547 22.2274 48.2062 22.0275C48.1668 21.8649 48.1359 21.7 48.1338 21.5312C48.1322 21.4102 48.1245 21.2893 48.1256 21.1684C48.1317 20.4891 48.1315 19.8095 48.1499 19.1305C48.1632 18.6377 48.1877 18.1449 48.2352 17.6537C48.2611 17.3851 48.2792 17.1155 48.3107 16.8478C48.3989 16.0986 48.5204 15.3556 48.7554 14.6359C48.8422 14.3703 48.9475 14.1122 49.0802 13.8655C49.182 13.6763 49.2987 13.4973 49.4389 13.3343C49.7033 13.0272 50.033 12.8302 50.4338 12.7592C50.6286 12.7248 50.8215 12.7283 51.0145 12.7829C51.3121 12.8668 51.5202 13.0529 51.6506 13.3273C51.7232 13.4789 51.7657 13.6431 51.7759 13.8109C51.7942 14.1184 51.7864 14.4241 51.7438 14.7298C51.6277 15.5627 51.397 16.3663 51.1263 17.1597C50.7985 18.1203 50.4064 19.0548 49.9752 19.9734C49.8359 20.2705 49.8327 20.2705 49.8403 20.589C49.844 20.747 49.8577 20.905 49.8733 21.0622C49.8865 21.1942 49.9382 21.3139 50.0146 21.4223C50.1166 21.5666 50.2566 21.651 50.4312 21.6767C50.5975 21.7024 50.7675 21.6916 50.9293 21.6451C51.0362 21.6139 51.143 21.5786 51.2443 21.5328C51.7211 21.3171 52.112 20.9942 52.4222 20.5737C52.4608 20.5214 52.494 20.4651 52.529 20.4102C52.621 20.2654 52.6631 20.1117 52.6581 19.9357C52.6361 19.1444 52.781 18.3804 53.0635 17.6423C53.2307 17.2058 53.4513 16.7972 53.7311 16.4215C53.9665 16.1055 54.2426 15.8309 54.5666 15.6053C55.0074 15.2986 55.4963 15.1429 56.0335 15.1381C56.2106 15.1369 56.3862 15.1421 56.5615 15.1787C56.7456 15.2172 56.9201 15.2766 57.0857 15.3634C57.1433 15.393 57.2002 15.4232 57.2489 15.4489ZM56.6202 16.1503C55.9683 16.1719 55.5689 16.3794 55.2244 16.7559C55.0727 16.9216 54.9528 17.1091 54.8525 17.3096C54.6465 17.721 54.5332 18.1602 54.4633 18.6121C54.3935 19.0641 54.3858 19.5191 54.4095 19.9745C54.4172 20.1224 54.4388 20.2705 54.4666 20.4161C54.4983 20.5818 54.5637 20.7355 54.6718 20.8686C54.7755 20.9963 54.9068 21.081 55.069 21.107C55.198 21.1285 55.3301 21.1203 55.4555 21.0833C55.6179 21.0352 55.7663 20.96 55.9058 20.8666C56.172 20.688 56.3884 20.4602 56.5659 20.1945C56.6123 20.1249 56.6402 20.0448 56.6471 19.9615C56.6806 19.6195 56.7201 19.278 56.7577 18.9364C56.7821 18.7148 56.8068 18.4933 56.8317 18.2717C56.8604 18.0133 56.8891 17.7548 56.9179 17.4963C56.9476 17.2286 56.978 16.961 57.0062 16.6931C57.0198 16.5638 57.0306 16.4345 57.0402 16.3045C57.0449 16.2406 57.0142 16.2082 56.9432 16.1937C56.8245 16.1694 56.7057 16.1459 56.6202 16.1503ZM49.8828 18.7523C49.901 18.7485 49.9248 18.7505 49.9312 18.7409C49.952 18.7102 49.9689 18.6771 49.9815 18.6423C50.4463 17.3423 50.8063 16.0161 50.9704 14.6419C50.9951 14.4291 51.0033 14.2148 50.995 14.0007C50.9921 13.9161 50.977 13.8346 50.931 13.7609C50.9166 13.7368 50.8968 13.7165 50.8731 13.7016C50.8494 13.6866 50.8225 13.6775 50.7945 13.675C50.7059 13.6649 50.6248 13.6872 50.5712 13.7614C50.5223 13.8288 50.4746 13.8997 50.4433 13.9759C50.3946 14.0966 50.3529 14.22 50.3184 14.3455C50.2094 14.7315 50.1487 15.1269 50.0989 15.524C50.0699 15.7547 50.0454 15.986 50.0253 16.2179C49.9914 16.6072 49.9603 16.9967 49.932 17.3865C49.9163 17.6 49.9056 17.8139 49.896 18.0277C49.8865 18.2415 49.8805 18.4555 49.8742 18.6694C49.8733 18.697 49.8798 18.7245 49.8828 18.7523Z" fill="white"/>
<path d="M40.7252 22.9196C40.7828 22.9492 40.847 22.9853 40.914 23.0161C41.0491 23.0782 41.1846 23.1397 41.3219 23.197C41.4069 23.2324 41.432 23.2114 41.4375 23.1089C41.4515 22.8487 41.4669 22.5886 41.4774 22.3281C41.5043 21.6585 41.5271 20.9888 41.5549 20.3192C41.5801 19.7147 41.6098 19.1105 41.6375 18.5062C41.6393 18.469 41.6411 18.4318 41.6425 18.3943C41.6682 17.7247 41.694 17.055 41.7198 16.3854C41.7328 16.0599 41.7482 15.7345 41.766 15.4092C41.7901 14.9701 42.0036 14.653 42.399 14.4633C42.7288 14.305 43.0719 14.251 43.4295 14.3646C43.4732 14.3786 43.5092 14.4221 43.5111 14.4669C43.5122 14.4949 43.5129 14.5229 43.5118 14.5508C43.4978 14.9042 43.4833 15.2576 43.4683 15.6109C43.466 15.6668 43.4613 15.7224 43.4588 15.7782C43.4331 16.4106 43.4075 17.043 43.382 17.6753C43.3743 17.8613 43.3646 18.0471 43.3566 18.233C43.3549 18.272 43.3994 18.2999 43.433 18.2825C43.4666 18.2652 43.4999 18.2499 43.5314 18.2303C43.745 18.0967 43.9359 17.9298 44.0968 17.7359C44.475 17.2841 44.7156 16.7661 44.8417 16.1926C44.9103 15.8807 44.9243 15.566 44.9009 15.2486C44.8851 15.0336 44.8321 14.8268 44.7597 14.6247C44.744 14.581 44.7244 14.5386 44.7045 14.4966C44.5038 14.0709 44.1593 13.847 43.699 13.7995C43.3723 13.7658 43.0472 13.7943 42.7279 13.8717C42.2055 13.9983 41.7271 14.22 41.2971 14.5435C41.0955 14.6944 40.913 14.8692 40.7536 15.0641C40.5329 15.3347 40.3716 15.6347 40.2948 15.9786C40.2283 16.2768 40.2449 16.5709 40.3298 16.8613C40.3726 17.0045 40.4439 17.1377 40.5395 17.2527C40.5797 17.3016 40.6315 17.3435 40.6553 17.408C40.6349 17.431 40.6203 17.4569 40.598 17.4709C40.3347 17.6361 40.0473 17.6897 39.741 17.6509C39.6093 17.6342 39.49 17.5824 39.3781 17.5137C39.2181 17.4165 39.0838 17.2823 38.9867 17.1223C38.7136 16.6727 38.6596 16.1996 38.8461 15.7045C38.9324 15.4757 39.0624 15.2722 39.2158 15.0833C39.4225 14.8287 39.6643 14.6108 39.9268 14.4156C40.4004 14.0631 40.9193 13.7921 41.4676 13.5768C42.0238 13.3585 42.5964 13.1994 43.1893 13.1138C43.5679 13.059 43.9466 13.0144 44.3297 13.0205C44.6483 13.0257 44.9603 13.0748 45.2618 13.18C45.7079 13.3355 46.0277 13.6315 46.2202 14.0606C46.3271 14.2989 46.393 14.5535 46.4151 14.8137C46.4561 15.2863 46.3802 15.7408 46.2088 16.1813C45.9642 16.8086 45.5807 17.3402 45.0922 17.7993C45.038 17.8504 44.979 17.8964 44.9256 17.9482C44.8878 17.9848 44.831 18.0053 44.8228 18.0688C44.8187 18.1006 44.8421 18.1022 45.0013 18.0974C45.1688 18.0924 45.3363 18.0902 45.504 18.0908C45.6348 18.0914 45.7627 18.1132 45.8901 18.1463C46.5845 18.3266 46.9853 18.7814 47.1343 19.4707C47.2245 19.8878 47.1959 20.3036 47.1055 20.717C47.0198 21.1086 46.8786 21.4858 46.6861 21.8374C46.1316 22.8538 45.3297 23.6011 44.2538 24.044C43.8554 24.2079 43.4384 24.2991 43.0121 24.3581C42.5578 24.421 42.1027 24.4327 41.6459 24.4095C41.4125 24.3976 41.1836 24.3556 40.9587 24.2936C40.8331 24.2582 40.7126 24.2071 40.5998 24.1415C40.1992 23.9122 40.2022 23.5161 40.3644 23.2277C40.4003 23.164 40.4516 23.107 40.5037 23.0549C40.5625 22.9965 40.6269 22.9413 40.7252 22.9196ZM43.2197 21.2765H43.2229C43.2047 21.6571 43.1864 22.0377 43.1681 22.4184C43.1556 22.6877 43.1441 22.9569 43.1336 23.2263C43.1323 23.272 43.1358 23.3177 43.144 23.3627C43.1461 23.3754 43.1685 23.3911 43.1837 23.3937C43.2108 23.399 43.2387 23.3986 43.2656 23.3927C43.5111 23.3324 43.7429 23.2384 43.9566 23.1026C44.2087 22.9431 44.4339 22.7447 44.6236 22.5146C45.0552 21.9912 45.3086 21.3902 45.3881 20.7186C45.423 20.4224 45.4123 20.1245 45.3466 19.831C45.3035 19.6383 45.2333 19.4574 45.1175 19.2968C44.9328 19.0407 44.6824 18.8977 44.3666 18.8719C44.0251 18.844 43.7008 18.9119 43.3889 19.0488C43.3511 19.0654 43.3293 19.094 43.325 19.1323C43.3147 19.2246 43.3049 19.3171 43.3007 19.4098C43.2728 20.0321 43.2458 20.6544 43.2197 21.2765Z" fill="white"/>
<path d="M103.58 4.30833C104.371 4.29148 105.162 4.33789 105.953 4.36913C106.325 4.38381 106.696 4.4226 107.067 4.45378C107.318 4.47475 107.569 4.49704 107.818 4.52682C108.382 4.5942 108.943 4.67625 109.488 4.84987C109.639 4.89817 109.787 4.95276 109.928 5.02391C110.011 5.0658 110.092 5.1127 110.169 5.16433C110.223 5.20082 110.273 5.243 110.318 5.29014C110.531 5.51066 110.533 5.76173 110.326 5.98476C110.25 6.06773 110.159 6.13154 110.061 6.18816C109.933 6.26322 109.796 6.32236 109.656 6.37401C109.305 6.50324 108.943 6.58509 108.575 6.6466C108.088 6.72831 107.598 6.78234 107.106 6.82581C105.62 6.95707 104.131 6.99726 102.639 6.96665C102.174 6.95705 101.708 6.93983 101.243 6.915C100.862 6.89473 100.481 6.86006 100.101 6.82854C99.8504 6.80757 99.5999 6.78527 99.3503 6.75626C98.8321 6.69602 98.3164 6.62039 97.8135 6.47668C97.6166 6.42077 97.4231 6.35423 97.2382 6.26441C97.1204 6.20724 97.0075 6.14224 96.9069 6.05878C96.8272 5.99294 96.7609 5.91626 96.717 5.82114C96.6631 5.70413 96.6611 5.58867 96.7128 5.4704C96.7548 5.37409 96.8202 5.29664 96.8989 5.22954C96.9987 5.14455 97.1112 5.07948 97.2285 5.02133C97.4718 4.90076 97.7298 4.82094 97.9919 4.7567C98.3173 4.67695 98.6471 4.61908 98.9795 4.5726C99.4225 4.5106 99.8671 4.46776 100.312 4.42903C100.711 4.39409 101.112 4.37424 101.512 4.35718C102.201 4.3279 102.889 4.29379 103.58 4.30833ZM103.585 5.17167C103.025 5.18118 102.448 5.1904 101.871 5.20124C101.75 5.20354 101.629 5.21018 101.508 5.21815C101.1 5.24506 100.691 5.27134 100.283 5.30203C100.013 5.32237 99.744 5.34236 99.4764 5.37618C98.9318 5.44496 98.3884 5.52296 97.8447 5.59796C97.8275 5.60034 97.8108 5.61194 97.7962 5.62235C97.7922 5.62529 97.7931 5.645 97.7978 5.64836C97.8188 5.66324 97.8405 5.6833 97.864 5.68659C98.2601 5.74316 98.6563 5.79828 99.0527 5.85196C99.2279 5.87566 99.4033 5.89886 99.5792 5.91605C99.8663 5.94401 100.154 5.96414 100.441 5.99238C100.933 6.04068 101.426 6.06381 101.919 6.07989C103.026 6.11602 104.134 6.11106 105.242 6.08171C105.382 6.078 105.521 6.07003 105.66 6.06109C106.078 6.03432 106.497 6.00867 106.914 5.97721C107.174 5.95778 107.434 5.93479 107.692 5.90319C108.099 5.85357 108.504 5.79556 108.91 5.74069C109.039 5.72321 109.168 5.70455 109.297 5.68631C109.306 5.68498 109.317 5.68533 109.324 5.68009C109.336 5.66967 109.351 5.65772 109.357 5.64318C109.366 5.62438 109.355 5.60677 109.332 5.60355C108.889 5.54149 108.447 5.47991 108.005 5.41882C107.867 5.39981 107.728 5.37996 107.59 5.36654C107.302 5.33858 107.015 5.31761 106.728 5.28965C106.245 5.24254 105.762 5.22032 105.278 5.20284C104.72 5.18292 104.161 5.18153 103.585 5.17167Z" fill="white"/>
<path d="M103.598 12.069C103.648 12.0312 103.708 11.9885 103.765 11.9415C104.962 10.9492 106.16 9.95674 107.356 8.96395C108.095 8.35171 108.833 7.73966 109.572 7.1278C109.629 7.08034 109.686 7.03078 109.749 6.99122C109.93 6.87639 110.163 6.917 110.303 7.08356C110.436 7.24173 110.429 7.49272 110.285 7.64635C110.24 7.69353 110.188 7.734 110.138 7.77559C109.049 8.67957 107.96 9.58326 106.87 10.4867C105.974 11.2297 105.078 11.9727 104.182 12.7156C104.125 12.7628 104.071 12.814 104.011 12.8675C104.01 12.971 104.007 13.0727 104.007 13.1744C104.006 14.552 104.006 15.9295 104.007 17.307C104.007 17.3909 104.009 17.4747 104.004 17.5582C103.99 17.7867 103.811 17.9593 103.586 17.9655C103.365 17.9715 103.17 17.7971 103.154 17.5736C103.147 17.4809 103.15 17.3875 103.15 17.2945C103.15 15.9263 103.15 14.5581 103.15 13.1899V12.9009C103.106 12.8141 103.043 12.7725 102.986 12.7254C101.99 11.8989 100.993 11.0726 99.997 10.2465C99.0005 9.42041 98.004 8.5942 97.0076 7.7679C96.9647 7.73225 96.9208 7.69717 96.8818 7.65747C96.7514 7.52466 96.7194 7.33378 96.7993 7.16736C96.8386 7.08738 96.9018 7.02152 96.98 6.97884C97.0582 6.93615 97.1478 6.91872 97.2363 6.92895C97.3012 6.93719 97.3632 6.96072 97.4172 6.99758C97.4714 7.03323 97.5213 7.07573 97.5715 7.11725C99.3064 8.55555 101.041 9.99401 102.776 11.4326C102.998 11.6169 103.22 11.8012 103.443 11.9853C103.484 12.0201 103.522 12.0641 103.598 12.069Z" fill="white"/>
<path d="M103.692 18.9886C104.08 19.0025 104.554 18.9656 105.027 18.9257C105.527 18.8832 106.026 18.824 106.519 18.716C106.664 18.6853 106.807 18.6428 106.946 18.589C106.997 18.5688 107.049 18.5443 107.081 18.4944C107.093 18.4751 107.096 18.4576 107.081 18.4464C107.051 18.4251 107.021 18.4017 106.988 18.3878C106.582 18.2195 106.161 18.1061 105.726 18.04C105.57 18.0162 105.413 17.997 105.257 17.974C105.192 17.9645 105.128 17.953 105.065 17.9378C104.846 17.8866 104.734 17.6738 104.748 17.5004C104.767 17.2735 104.952 17.1002 105.172 17.0971C105.21 17.0962 105.247 17.098 105.284 17.1025C105.764 17.1665 106.242 17.2399 106.708 17.3762C106.896 17.431 107.082 17.4902 107.256 17.5802C107.372 17.6401 107.484 17.7057 107.593 17.7769C107.687 17.838 107.765 17.9192 107.833 18.0087C108.033 18.2703 108.03 18.6301 107.818 18.8864C107.734 18.9865 107.636 19.0736 107.526 19.1451C107.339 19.2697 107.134 19.3587 106.924 19.4334C106.642 19.5331 106.353 19.6053 106.06 19.6566C105.473 19.7589 104.879 19.8185 104.283 19.8351C103.743 19.8507 103.203 19.8524 102.663 19.8266C101.974 19.7936 101.29 19.724 100.619 19.5504C100.403 19.4945 100.191 19.4256 99.9861 19.3356C99.8493 19.2756 99.718 19.2065 99.5951 19.1214C99.5032 19.0578 99.4198 18.9826 99.347 18.8978C99.1238 18.6386 99.1185 18.2682 99.3292 17.9977C99.41 17.894 99.5076 17.8082 99.6167 17.7351C99.7799 17.6257 99.957 17.5446 100.141 17.4765C100.473 17.3526 100.818 17.2734 101.166 17.2097C101.385 17.1695 101.607 17.1405 101.828 17.1085C101.883 17.1004 101.939 17.0963 101.995 17.0962C102.179 17.0962 102.336 17.2069 102.403 17.3815C102.466 17.5476 102.414 17.7418 102.267 17.8579C102.223 17.8927 102.173 17.918 102.119 17.9322C102.02 17.9561 101.918 17.9703 101.817 17.9827C101.428 18.0302 101.044 18.1003 100.668 18.2111C100.472 18.2689 100.279 18.3369 100.095 18.4268C100.087 18.4306 100.08 18.4365 100.075 18.444C100.07 18.4515 100.067 18.4603 100.066 18.4693C100.066 18.4784 100.067 18.4875 100.072 18.4955C100.076 18.5035 100.082 18.5103 100.09 18.515C100.145 18.5483 100.2 18.5834 100.26 18.6076C100.459 18.6889 100.67 18.7292 100.881 18.765C101.781 18.918 102.69 18.9923 103.692 18.9886Z" fill="white"/>
<path d="M56.8996 37.2282C56.9235 37.3657 56.9263 37.5035 56.897 37.6398C56.8668 37.7803 56.7914 37.8967 56.6848 37.9931C56.5602 38.1058 56.415 38.1936 56.2573 38.2517C56.1443 38.2936 56.0273 38.3299 55.9091 38.3518C55.3905 38.4476 54.8727 38.4533 54.357 38.3263C53.5598 38.1299 53.0046 37.6483 52.6759 36.902C52.5475 36.6106 52.4744 36.3032 52.4423 35.9864C52.433 35.8938 52.4236 35.8012 52.4163 35.7084C52.3858 35.324 52.4138 34.9432 52.527 34.5756C52.7907 33.7195 53.3617 33.1606 54.2184 32.9043C54.7357 32.7496 55.2654 32.7414 55.7942 32.8506C56.0412 32.901 56.2766 32.9973 56.4882 33.1345C56.6217 33.2211 56.7436 33.3216 56.8429 33.447C57.0177 33.6678 57.098 33.9199 57.0823 34.2009C57.0627 34.5496 56.8236 34.7859 56.4716 34.8035C56.3883 34.8076 56.3045 34.8013 56.2209 34.7981C56.1868 34.7969 56.1535 34.7598 56.1515 34.7237C56.1476 34.6494 56.1476 34.5749 56.1403 34.5009C56.1339 34.4365 56.1263 34.3708 56.1077 34.3091C56.005 33.9629 55.7635 33.7635 55.4188 33.6898C55.1889 33.6409 54.954 33.6468 54.7245 33.6968C54.4865 33.7483 54.2659 33.8604 54.084 34.0223C53.7562 34.3107 53.5651 34.6712 53.4985 35.1026C53.4435 35.4588 53.4757 35.8074 53.5621 36.1537C53.601 36.3072 53.6602 36.4548 53.7381 36.5927C53.9723 37.0121 54.3223 37.2866 54.7847 37.4146C54.9193 37.452 55.0572 37.4764 55.1965 37.4875C55.6901 37.5279 56.1867 37.4616 56.6525 37.2932C56.7301 37.2653 56.8039 37.2224 56.8996 37.2282Z" fill="white"/>
<path d="M92.184 37.4977C92.5705 37.5012 92.9418 37.4205 93.3051 37.2958C93.3666 37.2749 93.4272 37.2508 93.4885 37.2288C93.5221 37.2168 93.569 37.2443 93.5698 37.2782C93.5719 37.3617 93.5768 37.4456 93.5718 37.5289C93.5609 37.7253 93.4727 37.8846 93.3245 38.0116C93.1516 38.1595 92.9515 38.2574 92.7325 38.313C92.3439 38.4131 91.9411 38.4461 91.5413 38.4109C91.3005 38.3894 91.0623 38.3507 90.8301 38.2752C90.1852 38.0655 89.7159 37.6546 89.4071 37.056C89.2653 36.781 89.1806 36.4866 89.1282 36.1823C89.0793 35.8973 89.0632 35.6098 89.0705 35.3207C89.0775 35.0398 89.1194 34.7641 89.2109 34.4989C89.4914 33.684 90.051 33.1515 90.8744 32.9052C91.3916 32.7506 91.9206 32.7407 92.4493 32.8497C92.7054 32.902 92.9491 33.0028 93.1672 33.1467C93.2924 33.2292 93.407 33.3245 93.4993 33.4428C93.7048 33.706 93.7894 34.0013 93.719 34.3324C93.6644 34.5891 93.4562 34.7747 93.193 34.7984C93.0916 34.8075 92.9887 34.8005 92.8865 34.7994C92.8509 34.799 92.8189 34.7645 92.8166 34.7272C92.8136 34.6713 92.8146 34.6154 92.8091 34.5602C92.8036 34.4954 92.7943 34.4311 92.7811 34.3675C92.6967 33.9901 92.45 33.7719 92.0834 33.6908C91.8451 33.6381 91.6011 33.6456 91.3623 33.7017C91.0837 33.7672 90.8466 33.9101 90.6457 34.1135C90.3458 34.4173 90.185 34.7869 90.1424 35.2069C90.1069 35.5504 90.1412 35.8974 90.2431 36.2274C90.3111 36.4503 90.4203 36.6586 90.5649 36.8414C90.799 37.1372 91.1045 37.3207 91.4644 37.4201C91.7002 37.4858 91.9416 37.4978 92.184 37.4977Z" fill="white"/>
<path d="M31.1824 32.8952C31.4496 32.8863 31.7163 32.9246 31.9702 33.0083C32.1396 33.0639 32.2998 33.1384 32.442 33.2448C32.5308 33.3112 32.6167 33.3854 32.6887 33.4694C32.8818 33.6956 32.9443 33.9587 32.8863 34.2511C32.8467 34.4509 32.7288 34.5859 32.5427 34.6582C32.3926 34.7165 32.2345 34.7221 32.076 34.6963C32.0609 34.694 32.0428 34.676 32.0365 34.6609C32.026 34.6358 32.0221 34.6074 32.0187 34.58C32.0094 34.5063 32.0065 34.4315 31.9928 34.3587C31.9417 34.089 31.779 33.9055 31.5281 33.8097C31.2574 33.7065 30.9798 33.7158 30.7076 33.8132C30.602 33.8511 30.5061 33.9122 30.4271 33.9919C30.3186 34.1008 30.2516 34.229 30.2343 34.3841C30.2029 34.6674 30.2946 34.8943 30.5275 35.0641C30.7022 35.1915 30.8953 35.2812 31.0988 35.3507C31.2748 35.4107 31.4515 35.4686 31.6269 35.5302C31.7234 35.564 31.819 35.6008 31.913 35.641C32.1193 35.729 32.3032 35.8622 32.4511 36.0308C32.5967 36.1955 32.6818 36.3868 32.7178 36.604C32.755 36.8282 32.7439 37.0504 32.696 37.2692C32.6283 37.5789 32.4676 37.836 32.2194 38.0363C31.9869 38.2244 31.7143 38.3566 31.4226 38.4225C31.0084 38.5174 30.5917 38.5158 30.1765 38.4252C30.0401 38.395 29.9082 38.3473 29.7841 38.2831C29.7007 38.2414 29.6254 38.1851 29.5618 38.1169C29.4912 38.04 29.4381 37.9521 29.4164 37.8506C29.3841 37.6958 29.3805 37.5364 29.4057 37.3802C29.4092 37.3577 29.4243 37.3453 29.4453 37.3503C29.49 37.3606 29.5346 37.3716 29.5781 37.386C29.7105 37.4297 29.8403 37.4823 29.9746 37.5184C30.2833 37.6014 30.5991 37.6173 30.9165 37.5906C31.0945 37.5755 31.2638 37.525 31.4155 37.4273C31.5673 37.3297 31.6436 37.1889 31.6485 37.0074C31.6523 36.8676 31.5996 36.7521 31.4988 36.6608C31.4441 36.6115 31.3806 36.5703 31.3165 36.5332C31.1468 36.4348 30.9643 36.3654 30.7775 36.3069C30.5198 36.2275 30.2663 36.1352 30.0178 36.0304C29.8533 35.9605 29.7084 35.8618 29.5775 35.7401C29.3129 35.4938 29.1726 35.1879 29.1399 34.8314C29.1177 34.5993 29.1387 34.365 29.2018 34.1405C29.2933 33.8173 29.4744 33.5522 29.7377 33.3437C29.9824 33.1496 30.2594 33.0243 30.5635 32.9547C30.7647 32.9088 30.9678 32.8905 31.1824 32.8952Z" fill="white"/>
<path d="M68.9061 36.2906C68.9496 36.3529 68.9849 36.4074 69.0238 36.4591C69.2477 36.7562 69.4723 37.0529 69.6975 37.349C69.7475 37.416 69.8012 37.4802 69.8583 37.5413C69.9763 37.6655 70.1151 37.7549 70.2891 37.7809C70.3347 37.7879 70.3794 37.8002 70.431 37.8115C70.4698 37.9167 70.4692 38.0325 70.4294 38.1373C70.403 38.2088 70.3429 38.2578 70.2767 38.2947C70.178 38.3497 70.07 38.3771 69.9598 38.3983C69.7858 38.4321 69.6066 38.4295 69.4337 38.3908C69.2913 38.3594 69.1702 38.2953 69.0782 38.1854C68.9884 38.0787 68.9044 37.9673 68.8265 37.8517C68.6245 37.5504 68.4277 37.2458 68.2282 36.943C68.1933 36.8882 68.1557 36.8352 68.1154 36.7841C68.0993 36.7643 68.0703 36.7464 68.0455 36.7437C67.9066 36.7289 67.7672 36.7245 67.6288 36.7487C67.6137 36.7513 67.5927 36.7708 67.5901 36.7854C67.5795 36.8398 67.5736 36.8951 67.5724 36.9505C67.5707 37.2574 67.5719 37.5643 67.571 37.8712C67.571 37.992 67.5684 38.1128 67.565 38.2335C67.5635 38.2845 67.5266 38.3251 67.4795 38.3251C67.219 38.3258 66.9585 38.3253 66.698 38.3236C66.6695 38.3236 66.6281 38.2794 66.6266 38.249C66.623 38.1841 66.6188 38.1191 66.6188 38.0542C66.6184 36.5198 66.6187 34.9853 66.6198 33.4509C66.6209 33.3302 66.6311 33.2097 66.6501 33.0905C66.6669 32.9801 66.7359 32.9077 66.849 32.8836C66.8944 32.8739 66.9399 32.8573 66.9853 32.8556C67.1526 32.8487 67.32 32.8459 67.4874 32.8428C67.5172 32.8422 67.5608 32.8839 67.5621 32.9133C67.566 33.0061 67.5708 33.0989 67.5709 33.1918C67.5716 34.0008 67.5718 34.8099 67.5716 35.6189C67.5716 35.7118 67.5749 35.8047 67.5786 35.8975C67.5807 35.9464 67.6177 35.9822 67.6695 35.9827C68.1425 35.9878 68.0349 36.0466 68.3239 35.6921C68.6244 35.3236 68.8792 34.9232 69.1151 34.5113C69.1521 34.4467 69.189 34.3821 69.2258 34.3175C69.2558 34.2647 69.3 34.2381 69.362 34.2382C69.6136 34.2382 69.8647 34.2373 70.116 34.2373C70.1532 34.2373 70.1903 34.2398 70.2274 34.2423C70.2718 34.2453 70.3069 34.303 70.2876 34.346C70.2619 34.4056 70.233 34.4636 70.2009 34.52C69.875 35.0734 69.4975 35.5948 69.0733 36.077C69.0243 36.1329 68.9763 36.1896 68.9284 36.2463C68.9235 36.2528 68.9204 36.2623 68.9061 36.2906Z" fill="white"/>
<path d="M41.6106 34.9394C41.6342 34.9411 41.6595 34.9504 41.6677 34.9424C41.7142 34.8977 41.756 34.8482 41.8005 34.8014C42.2982 34.2762 42.9094 34.1403 43.5898 34.3169C44.0359 34.4327 44.288 34.7587 44.3898 35.2002C44.4252 35.3546 44.4428 35.5124 44.4422 35.6708C44.4403 36.4057 44.4401 37.1406 44.4418 37.8755C44.4418 37.997 44.436 38.1172 44.3948 38.2332C44.3682 38.3081 44.3209 38.3614 44.2424 38.3826C44.1976 38.3948 44.1525 38.4133 44.107 38.4153C43.9307 38.4228 43.7541 38.4254 43.5775 38.4284C43.543 38.4289 43.5084 38.3916 43.5071 38.3562C43.5043 38.2723 43.5012 38.189 43.5011 38.1054C43.5006 37.4356 43.5006 36.7658 43.5011 36.096C43.5015 35.9274 43.4896 35.7612 43.4379 35.5997C43.3721 35.3948 43.2503 35.2356 43.0479 35.1517C42.9532 35.1121 42.8524 35.0889 42.75 35.083C42.5014 35.0693 42.2559 35.1429 42.0559 35.2911C41.8559 35.4393 41.714 35.6527 41.6547 35.8944C41.6203 36.0394 41.6038 36.1879 41.6053 36.3368C41.6072 36.9136 41.6061 37.4901 41.6057 38.0671C41.6057 38.151 41.6042 38.2347 41.6012 38.3182C41.5998 38.3639 41.5586 38.4042 41.5092 38.4044C41.258 38.4053 41.0068 38.405 40.7556 38.4035C40.7089 38.4032 40.6669 38.3594 40.6647 38.3146C40.662 38.2587 40.6602 38.2028 40.6602 38.1474C40.6602 36.6124 40.66 35.0774 40.6597 33.5425C40.6597 33.4118 40.6623 33.2819 40.7052 33.1565C40.7306 33.082 40.7757 33.0254 40.854 33.0027C40.9075 32.9874 40.9618 32.9678 41.0164 32.9648C41.1835 32.9563 41.3511 32.954 41.5184 32.9516C41.5673 32.9509 41.6 32.9887 41.6018 33.0429C41.6044 33.1265 41.6057 33.2102 41.6058 33.2939C41.6061 33.7591 41.6062 34.2243 41.6062 34.6894C41.606 34.7733 41.609 34.8566 41.6106 34.9394Z" fill="white"/>
<path d="M61.6184 36.2036C61.6262 36.485 61.5867 36.7658 61.5014 37.0342C61.3965 37.3686 61.2189 37.6595 60.9644 37.9019C60.6943 38.1593 60.3742 38.3138 60.0069 38.3823C59.7042 38.4388 59.3934 38.4348 59.0923 38.3702C58.6366 38.2743 58.2706 38.034 57.9886 37.6656C57.852 37.4885 57.7471 37.2891 57.6784 37.0763C57.503 36.5305 57.4855 35.9786 57.6498 35.4297C57.8346 34.8117 58.2499 34.4145 58.8711 34.2415C59.1866 34.1535 59.5105 34.1232 59.8384 34.1621C59.986 34.1796 60.1335 34.1943 60.2779 34.2351C60.9684 34.4303 61.3879 34.8825 61.5564 35.5737C61.6057 35.7798 61.6266 35.9917 61.6184 36.2036ZM60.6263 36.2155C60.6208 36.1134 60.6193 36.0109 60.6089 35.9093C60.5892 35.7226 60.5362 35.5454 60.4422 35.3815C60.3031 35.1388 60.0928 35.003 59.8181 34.9609C59.6614 34.937 59.502 34.937 59.3453 34.9609C59.0803 35.0005 58.877 35.1326 58.7389 35.3621C58.6767 35.466 58.6307 35.5787 58.6024 35.6965C58.5164 36.0469 58.524 36.3978 58.6143 36.7456C58.6605 36.9265 58.7416 37.0965 58.8531 37.2462C58.968 37.4 59.1153 37.5073 59.2993 37.5654C59.4081 37.5997 59.5194 37.6003 59.631 37.5987C59.921 37.5947 60.1502 37.4715 60.323 37.2412C60.4016 37.1364 60.4599 37.0209 60.5077 36.8987C60.5941 36.6788 60.6238 36.45 60.6263 36.2155Z" fill="white"/>
<path d="M98.0224 36.2049C98.0306 36.4892 97.9904 36.7728 97.9036 37.0436C97.7804 37.4246 97.5685 37.7463 97.2576 38.0006C97.0151 38.199 96.7371 38.318 96.4299 38.3791C96.1003 38.4456 95.7599 38.4375 95.4337 38.3554C94.8886 38.2192 94.4918 37.8876 94.2232 37.3993C94.1332 37.2358 94.07 37.0616 94.027 36.8795C93.9159 36.4092 93.9113 35.9393 94.0425 35.4734C94.2236 34.8304 94.6421 34.4173 95.2861 34.2389C95.5918 34.1543 95.9105 34.1274 96.226 34.1597C96.4021 34.1772 96.578 34.1972 96.7469 34.2517C97.3942 34.4601 97.7943 34.8985 97.9578 35.5561C98.0095 35.7653 98.0257 35.9776 98.0224 36.2049ZM97.0311 36.1614C97.0255 36.0887 97.0218 35.9675 97.0055 35.8479C96.9802 35.6618 96.9194 35.4867 96.8151 35.3287C96.6792 35.1229 96.4866 35.0052 96.245 34.964C96.0794 34.9359 95.9104 34.9351 95.7446 34.9618C95.4802 35.0037 95.2783 35.1365 95.1413 35.3672C95.0797 35.4714 95.034 35.5843 95.0059 35.7021C94.9235 36.0431 94.9284 36.3849 95.0142 36.7241C95.0625 36.9147 95.1427 37.0923 95.2621 37.2507C95.3737 37.4015 95.5309 37.5122 95.7105 37.5666C95.8191 37.6006 95.9307 37.6004 96.0423 37.5981C96.3322 37.5922 96.5604 37.4675 96.7318 37.2361C96.8325 37.1001 96.901 36.9485 96.952 36.7877C97.0118 36.5994 97.0245 36.4051 97.0311 36.1614Z" fill="white"/>
<path d="M107.361 36.633C107.045 36.633 106.728 36.6325 106.412 36.6335C106.375 36.6335 106.339 36.6414 106.302 36.6449C106.28 36.6471 106.258 36.6847 106.264 36.7098C106.339 37.0243 106.512 37.2665 106.792 37.431C106.913 37.5022 107.044 37.5524 107.182 37.5793C107.429 37.6268 107.678 37.6532 107.931 37.6176C108.134 37.5891 108.336 37.5605 108.531 37.4959C108.566 37.4844 108.604 37.4834 108.641 37.4769C108.661 37.4733 108.702 37.5011 108.705 37.5188C108.723 37.6293 108.72 37.742 108.698 37.8516C108.677 37.9564 108.615 38.0371 108.536 38.1054C108.458 38.1717 108.367 38.2224 108.27 38.2547C108.156 38.294 108.041 38.3349 107.922 38.3567C107.564 38.423 107.205 38.4496 106.84 38.3847C106.035 38.2413 105.519 37.7766 105.298 36.9958C105.178 36.5712 105.146 36.133 105.234 35.6974C105.374 35.007 105.773 34.5219 106.438 34.2758C106.877 34.113 107.33 34.1063 107.783 34.2244C108.297 34.3582 108.647 34.683 108.853 35.1647C108.975 35.4507 109.017 35.7542 109.018 36.0637C109.018 36.1009 109.015 36.1381 109.008 36.1747C108.968 36.399 108.838 36.539 108.614 36.5932C108.506 36.6198 108.394 36.633 108.282 36.6326C107.975 36.6315 107.668 36.6323 107.361 36.6323L107.361 36.633ZM107.022 35.9736C107.236 35.9736 107.45 35.9742 107.663 35.9733C107.719 35.9737 107.774 35.9709 107.83 35.9651C107.888 35.9581 107.932 35.9219 107.964 35.8748C107.996 35.8288 108.013 35.7743 108.014 35.7182C108.016 35.5476 107.978 35.3862 107.894 35.2381C107.809 35.0872 107.68 34.981 107.518 34.922C107.264 34.829 107.007 34.8392 106.756 34.9386C106.567 35.0136 106.434 35.1518 106.343 35.3332C106.255 35.5107 106.22 35.7011 106.203 35.8962C106.2 35.9307 106.233 35.9661 106.271 35.968C106.327 35.9708 106.382 35.9733 106.438 35.9735C106.633 35.9741 106.828 35.9737 107.022 35.9736Z" fill="white"/>
<path d="M77.3544 35.8181C77.3483 35.7702 77.3439 35.7145 77.3342 35.6599C77.2705 35.304 77.0587 35.0775 76.7164 34.9755C76.4723 34.9026 76.2211 34.8916 75.9695 34.932C75.7948 34.9599 75.6224 34.9984 75.4552 35.0578C75.3938 35.0795 75.3313 35.0981 75.2692 35.1176C75.2455 35.125 75.2076 35.1022 75.2072 35.0792C75.2053 34.9866 75.2014 34.8938 75.2046 34.8014C75.207 34.7345 75.2423 34.6774 75.2805 34.6242C75.3412 34.5394 75.4234 34.4783 75.5111 34.4241C75.7289 34.2892 75.9703 34.2218 76.221 34.1886C76.4612 34.1562 76.7044 34.1523 76.9455 34.1769C77.0752 34.1902 77.203 34.2175 77.3269 34.2582C77.7096 34.384 77.9873 34.6317 78.1531 34.9996C78.2572 35.2307 78.3151 35.4749 78.3325 35.7272C78.3751 36.3395 78.414 36.9521 78.4551 37.5645C78.4621 37.6666 78.4754 37.7683 78.4804 37.8704C78.4839 37.9443 78.4848 38.0193 78.4757 38.0924C78.4617 38.2043 78.3958 38.2812 78.287 38.3109C78.1795 38.3405 78.0713 38.3702 77.9585 38.3707C77.9025 38.3707 77.8466 38.374 77.7907 38.3743C77.4862 38.3754 77.5053 38.3984 77.4908 38.0917C77.486 37.9898 77.4753 37.8882 77.4638 37.7869C77.4624 37.7746 77.4396 37.7629 77.4247 37.7547C77.4189 37.7516 77.4043 37.7562 77.3988 37.7617C77.3413 37.8223 77.2873 37.8864 77.2276 37.9447C76.7765 38.3845 76.24 38.5136 75.6331 38.3746C75.4471 38.332 75.2883 38.2359 75.1584 38.0962C74.9481 37.8701 74.8273 37.6027 74.8118 37.2937C74.8057 37.1738 74.8067 37.05 74.8293 36.9328C74.8792 36.6752 75.021 36.4721 75.238 36.3227C75.4008 36.2109 75.5814 36.1375 75.7712 36.0867C75.9966 36.0263 76.2272 35.9958 76.4591 35.9738C76.7092 35.9498 76.9592 35.9251 77.2092 35.8995C77.2652 35.8938 77.3204 35.8831 77.3544 35.8181ZM75.8756 37.164C75.873 37.2725 75.9036 37.3792 75.9576 37.4785C76.0126 37.5793 76.0926 37.6584 76.2016 37.6971C76.3162 37.7379 76.4342 37.753 76.558 37.7296C76.7607 37.6912 76.9191 37.5878 77.0439 37.4283C77.2385 37.1797 77.3374 36.8935 77.3708 36.5826C77.376 36.5336 77.3346 36.4907 77.2869 36.4963C77.0101 36.5297 76.7331 36.5608 76.4569 36.5986C76.3371 36.6151 76.2201 36.6494 76.1166 36.7159C75.9564 36.819 75.8699 36.9638 75.8756 37.164Z" fill="white"/>
<path d="M36.8283 35.6649C36.8283 35.9719 36.826 36.2789 36.8292 36.5858C36.8307 36.7627 36.8184 36.9394 36.7925 37.1144C36.7156 37.6386 36.4476 38.0275 35.9725 38.2713C35.79 38.365 35.5935 38.4283 35.3906 38.4586C35.0089 38.5159 34.6296 38.5086 34.26 38.3817C34.1721 38.3518 34.0863 38.3159 34.0033 38.2742C33.5769 38.0575 33.3197 37.7093 33.222 37.2451C33.1844 37.0722 33.1652 36.8959 33.1646 36.719C33.1662 36.0958 33.1652 35.4726 33.165 34.8494C33.165 34.7469 33.1701 34.6455 33.1981 34.5455C33.2284 34.4372 33.2876 34.3621 33.4037 34.3462C33.5234 34.3297 33.6433 34.3071 33.7636 34.3042C34.1436 34.2955 34.1105 34.2542 34.1111 34.6369C34.1122 35.26 34.1122 35.8832 34.1111 36.5064C34.1111 36.6649 34.1151 36.8227 34.1548 36.9774C34.1618 37.0044 34.1648 37.0324 34.1725 37.0591C34.2667 37.3872 34.48 37.5815 34.8201 37.6323C35.0053 37.66 35.1946 37.6399 35.3699 37.5738C35.5623 37.5023 35.6984 37.3659 35.7798 37.1778C35.8473 37.0224 35.8771 36.858 35.8867 36.69C35.8914 36.6065 35.8899 36.5226 35.89 36.4389C35.8903 35.8622 35.8903 35.2855 35.89 34.7088C35.89 34.625 35.89 34.5411 35.8921 34.4578C35.8943 34.3745 35.9262 34.3411 36.0117 34.3406C36.2444 34.339 36.4772 34.3385 36.7098 34.3418C36.7811 34.3428 36.823 34.3634 36.8255 34.4657C36.8273 34.54 36.8276 34.6145 36.8277 34.6889C36.8283 35.0141 36.8285 35.3394 36.8283 35.6649Z" fill="white"/>
<path d="M38.5463 38.4824C38.3225 38.4963 38.0983 38.4601 37.8902 38.3766C37.8133 38.3456 37.7364 38.3087 37.6681 38.2617C37.5391 38.1727 37.4627 38.0466 37.452 37.8883C37.4458 37.7959 37.4496 37.7027 37.45 37.6098C37.45 37.5707 37.4915 37.5391 37.5247 37.5512C37.5859 37.5733 37.6463 37.5981 37.7081 37.6187C38.0131 37.7205 38.3244 37.756 38.6443 37.7095C38.7459 37.6955 38.8438 37.6617 38.9326 37.6102C39.1549 37.4801 39.1653 37.202 38.9528 37.0601C38.9068 37.0285 38.8576 37.0018 38.806 36.9805C38.6935 36.9366 38.5792 36.8973 38.4647 36.859C38.262 36.7913 38.0576 36.7279 37.8553 36.6585C37.6839 36.5997 37.5447 36.4922 37.4246 36.3583C37.305 36.2263 37.2253 36.0632 37.1946 35.8877C37.1616 35.7033 37.1596 35.516 37.1974 35.3322C37.2492 35.0788 37.3749 34.8645 37.5653 34.6884C37.7755 34.494 38.0234 34.3697 38.2998 34.305C38.6367 34.225 38.9875 34.2236 39.325 34.301C39.4798 34.3354 39.6281 34.3946 39.7639 34.4765C39.8761 34.5435 39.9758 34.6295 40.0586 34.7307C40.2107 34.9189 40.2437 35.1345 40.191 35.3628C40.157 35.5102 40.056 35.604 39.9066 35.6391C39.7878 35.6671 39.667 35.6722 39.5456 35.6618C39.4952 35.6574 39.4635 35.6272 39.4557 35.5733C39.4477 35.5181 39.444 35.4621 39.4329 35.4075C39.3919 35.206 39.2669 35.0809 39.0733 35.0199C38.899 34.965 38.7251 34.969 38.5504 35.0199C38.4775 35.0413 38.4136 35.0773 38.3526 35.1207C38.1096 35.2936 38.1184 35.656 38.3266 35.8243C38.3913 35.8765 38.4616 35.9258 38.5368 35.9599C38.6465 36.0095 38.762 36.0468 38.8767 36.0843C39.0535 36.1422 39.2323 36.1939 39.409 36.2521C39.5896 36.3114 39.7428 36.4143 39.8707 36.555C40.0003 36.6975 40.0773 36.8639 40.093 37.0557C40.1006 37.1484 40.1026 37.2415 40.0988 37.3344C40.0836 37.6938 39.9225 37.975 39.6294 38.1801C39.3717 38.3608 39.0814 38.4536 38.7696 38.4812C38.6958 38.488 38.6208 38.4824 38.5463 38.4824Z" fill="white"/>
<path d="M65.6169 37.4666C65.6274 37.4826 65.6449 37.4973 65.6457 37.5127C65.6494 37.5961 65.6531 37.6799 65.6488 37.7632C65.641 37.9115 65.5681 38.0279 65.4558 38.1207C65.3761 38.1866 65.284 38.23 65.1881 38.2682C64.987 38.3483 64.7758 38.384 64.5632 38.4077C64.236 38.4439 63.9132 38.4198 63.5951 38.3287C63.1137 38.1907 62.7563 37.8984 62.5096 37.4665C62.355 37.1957 62.2729 36.9004 62.2365 36.5935C62.2095 36.3715 62.2043 36.1475 62.2209 35.9246C62.2778 35.1897 62.6518 34.6718 63.3096 34.3563C63.6787 34.1793 64.0753 34.1299 64.4807 34.1547C64.6475 34.1649 64.814 34.1863 64.9754 34.2377C65.1272 34.2859 65.2722 34.3476 65.4043 34.4366C65.7114 34.6437 65.8389 34.9361 65.805 35.3004C65.7816 35.552 65.6042 35.7337 65.356 35.7573C65.255 35.7669 65.1521 35.7586 65.0502 35.7563C65.0172 35.7556 64.9845 35.7163 64.9819 35.6802C64.9763 35.5968 64.9779 35.5125 64.9647 35.4299C64.9239 35.1762 64.7853 35.0064 64.5287 34.944C64.5016 34.9374 64.475 34.9274 64.4475 34.924C64.0816 34.8784 63.7652 34.9716 63.5162 35.2552C63.3777 35.4129 63.2847 35.5953 63.2471 35.7994C63.1873 36.1244 63.1992 36.45 63.303 36.7652C63.4605 37.2445 63.7988 37.5164 64.2955 37.5924C64.6792 37.6512 65.0567 37.6172 65.4278 37.5075C65.4811 37.4918 65.5355 37.4796 65.5896 37.4669C65.5987 37.4657 65.6079 37.4656 65.6169 37.4666Z" fill="white"/>
<path d="M71.5668 34.9903C71.5146 34.9623 71.4682 34.9327 71.4184 34.9114C71.2817 34.8528 71.1436 34.798 71.006 34.741C70.9745 34.7278 70.9495 34.6833 70.953 34.6517C70.9673 34.5218 71.0148 34.3978 71.091 34.2916C71.1015 34.2762 71.1155 34.2635 71.1319 34.2546C71.1483 34.2456 71.1666 34.2407 71.1852 34.2402C71.2874 34.2361 71.3896 34.2343 71.4918 34.2306C71.528 34.2293 71.5634 34.1957 71.5644 34.1607C71.568 34.0308 71.5714 33.9008 71.5726 33.7709C71.5735 33.6675 71.5863 33.5669 71.6293 33.4719C71.6572 33.4095 71.7029 33.3652 71.7709 33.3483C71.999 33.2918 72.2306 33.282 72.4634 33.3038C72.4821 33.3055 72.5103 33.3397 72.5124 33.361C72.5208 33.4439 72.522 33.5276 72.5231 33.6111C72.5255 33.7875 72.5255 33.9641 72.5282 34.1406C72.5289 34.1922 72.5651 34.2293 72.614 34.2315C72.6882 34.2347 72.7627 34.2367 72.837 34.2368C73.1347 34.2375 73.4325 34.2364 73.7302 34.2378C73.795 34.2378 73.8611 34.2395 73.9242 34.2523C73.9611 34.259 73.9955 34.2753 74.0242 34.2994C74.0529 34.3235 74.0749 34.3546 74.0879 34.3898C74.1023 34.4241 74.113 34.4598 74.12 34.4963C74.1442 34.6431 74.1502 34.7923 74.1379 34.9405C74.1349 34.9755 74.1012 35.0104 74.0655 35.0116C73.9912 35.0148 73.9169 35.0179 73.8426 35.018C73.4797 35.0187 73.1168 35.018 72.754 35.019C72.6985 35.019 72.6422 35.0212 72.5881 35.032C72.5671 35.0363 72.5401 35.0644 72.5349 35.0862C72.5243 35.1306 72.524 35.1782 72.524 35.2244C72.5234 35.6799 72.5248 36.1353 72.5234 36.5908C72.5233 36.7396 72.5401 36.888 72.5734 37.0331C72.5876 37.0964 72.6069 37.1586 72.6313 37.2188C72.7186 37.4329 72.8768 37.5573 73.1049 37.6069C73.3506 37.6602 73.5848 37.6168 73.8205 37.5559C73.9003 37.5353 73.9738 37.4881 74.0663 37.4947C74.1036 37.6246 74.0966 37.7547 74.0698 37.881C74.0394 38.0239 73.9479 38.1292 73.8251 38.2067C73.714 38.277 73.5916 38.324 73.4655 38.3551C73.1548 38.4319 72.8414 38.4519 72.5262 38.3757C72.3994 38.3458 72.2777 38.2974 72.1651 38.232C71.9292 38.0938 71.778 37.888 71.6923 37.6324C71.6209 37.4195 71.5912 37.1984 71.5772 36.9754C71.5714 36.8828 71.5726 36.7896 71.5725 36.6967C71.5721 36.2226 71.5719 35.7486 71.572 35.2746C71.5723 35.1817 71.5688 35.0893 71.5668 34.9903Z" fill="white"/>
<path d="M99.0347 36.8623C99.0347 36.4899 99.0347 36.1176 99.0347 35.7453C99.0347 35.6801 99.0313 35.6148 99.0347 35.5496C99.0405 35.4448 99.0067 35.3753 98.8978 35.3399C98.7741 35.2998 98.6556 35.244 98.535 35.1946C98.5093 35.1841 98.4838 35.1729 98.4587 35.1607C98.4319 35.1477 98.4093 35.0959 98.4149 35.0648C98.4343 34.9547 98.4729 34.8488 98.529 34.7521C98.5649 34.6899 98.6174 34.6594 98.6891 34.6599C98.7263 34.6599 98.7636 34.6588 98.8009 34.6581C99.0231 34.6538 99.0327 34.668 99.0361 34.4275C99.0392 34.2125 99.0677 33.9994 99.142 33.7969C99.3006 33.3646 99.5815 33.0465 100.021 32.8819C100.271 32.7884 100.529 32.7684 100.792 32.795C100.904 32.8063 101.009 32.8459 101.106 32.904C101.224 32.9746 101.303 33.0757 101.322 33.2139C101.333 33.3061 101.338 33.3989 101.339 33.4918C101.34 33.5794 101.305 33.6086 101.219 33.5949C101.015 33.5625 100.813 33.5636 100.61 33.6111C100.294 33.6848 100.112 33.8858 100.034 34.1907C100.02 34.2445 100.014 34.3006 100.006 34.3558C99.9642 34.6453 99.9735 34.6564 100.265 34.6583C100.442 34.6594 100.619 34.656 100.796 34.6604C100.87 34.6622 100.944 34.6753 101.016 34.6907C101.074 34.7028 101.117 34.7444 101.137 34.7979C101.16 34.8583 101.181 34.9222 101.186 34.9861C101.196 35.1062 101.196 35.2274 101.198 35.3481C101.198 35.3917 101.154 35.4316 101.106 35.4337C101.031 35.4367 100.957 35.4386 100.882 35.4388C100.677 35.4395 100.472 35.4388 100.267 35.4393C100.211 35.4393 100.155 35.4404 100.099 35.4431C100.035 35.4462 99.9917 35.4858 99.9897 35.5449C99.9869 35.6287 99.9859 35.7126 99.9858 35.7961C99.9855 36.5221 99.9854 37.2482 99.9853 37.9742C99.9853 38.0671 99.981 38.16 99.9776 38.2529C99.9763 38.2867 99.9398 38.3228 99.905 38.3228C99.6443 38.3241 99.3836 38.3247 99.123 38.3244C99.0777 38.3244 99.0408 38.2808 99.0391 38.23C99.0364 38.1557 99.0346 38.0813 99.0345 38.0069C99.0343 37.6254 99.0344 37.2439 99.0347 36.8623Z" fill="white"/>
<path d="M102.658 36.8339C102.658 36.4528 102.658 36.0717 102.658 35.6906C102.658 35.6347 102.656 35.5788 102.658 35.5233C102.661 35.4405 102.633 35.3836 102.548 35.3527C102.409 35.3021 102.272 35.2433 102.134 35.1864C102.109 35.1756 102.086 35.1606 102.065 35.1421C102.052 35.1293 102.043 35.1123 102.041 35.0939C102.038 35.0662 102.04 35.0381 102.047 35.0112C102.07 34.9406 102.095 34.8705 102.123 34.802C102.162 34.708 102.226 34.6569 102.337 34.6574C102.69 34.659 102.652 34.6773 102.661 34.3474C102.668 34.1133 102.714 33.8855 102.814 33.6722C103.074 33.1156 103.513 32.8206 104.127 32.7876C104.285 32.7791 104.444 32.7773 104.594 32.8422C104.653 32.8679 104.712 32.8956 104.767 32.9307C104.856 32.9885 104.913 33.0751 104.937 33.1772C104.967 33.3041 104.97 33.4361 104.944 33.564C104.941 33.578 104.919 33.5982 104.906 33.5979C104.86 33.5967 104.814 33.587 104.768 33.5824C104.573 33.5624 104.379 33.5673 104.187 33.6217C103.946 33.6903 103.779 33.8376 103.694 34.0727C103.636 34.2308 103.602 34.3942 103.615 34.5644C103.617 34.5874 103.627 34.609 103.644 34.6251C103.661 34.6411 103.683 34.6507 103.706 34.652C103.799 34.6556 103.892 34.6573 103.985 34.658C104.124 34.6591 104.264 34.6573 104.403 34.6592C104.459 34.6599 104.515 34.6642 104.57 34.6722C104.689 34.6894 104.757 34.7515 104.782 34.8627C104.816 35.0177 104.834 35.1743 104.826 35.3333C104.823 35.3826 104.788 35.4261 104.743 35.4294C104.678 35.4342 104.614 35.438 104.549 35.4383C104.297 35.4395 104.046 35.4383 103.795 35.4403C103.75 35.4407 103.704 35.451 103.659 35.4621C103.645 35.4657 103.626 35.4853 103.624 35.4994C103.616 35.5636 103.611 35.6282 103.61 35.6928C103.609 36.2506 103.609 36.8083 103.61 37.366C103.61 37.6076 103.61 37.8493 103.609 38.091C103.609 38.1466 103.609 38.2028 103.6 38.2574C103.596 38.2796 103.571 38.3012 103.55 38.3164C103.537 38.3263 103.515 38.3273 103.496 38.3273C103.254 38.3278 103.013 38.3277 102.771 38.3269C102.753 38.3269 102.731 38.325 102.717 38.3148C102.697 38.2993 102.671 38.2774 102.668 38.2553C102.66 38.1912 102.659 38.1258 102.659 38.0609C102.658 37.6519 102.658 37.2429 102.658 36.8339Z" fill="white"/>
<path d="M82.211 35.4586C82.211 36.3146 82.2108 37.1705 82.2104 38.0265C82.2104 38.1098 82.2034 38.1934 82.1958 38.2764C82.1944 38.2904 82.173 38.3044 82.1589 38.3155C82.1512 38.3206 82.142 38.323 82.1328 38.3225C81.8722 38.3239 81.6117 38.3254 81.3511 38.3252C81.3059 38.3252 81.2672 38.2816 81.2652 38.2326C81.2622 38.1583 81.2599 38.084 81.2599 38.0096C81.2596 36.4093 81.2599 34.8091 81.2606 33.2089C81.2606 33.0977 81.2725 32.9864 81.2822 32.8755C81.2861 32.8384 81.295 32.8021 81.3089 32.7675C81.3368 32.6948 81.3858 32.6398 81.4642 32.6202C81.5271 32.6044 81.5912 32.5852 81.6556 32.5818C81.8134 32.5733 81.9716 32.5724 82.1297 32.5698C82.1646 32.5692 82.2004 32.6052 82.2019 32.6403C82.2059 32.7331 82.2106 32.826 82.2107 32.9188C82.2113 33.7654 82.2114 34.612 82.211 35.4586Z" fill="white"/>
<path d="M45.9419 36.3339C45.9419 36.9016 45.9419 37.4693 45.9419 38.0369C45.9419 38.1114 45.9426 38.1859 45.9405 38.2602C45.9374 38.3744 45.9045 38.4088 45.7881 38.4091C45.5553 38.4096 45.3225 38.4068 45.0898 38.404C45.0436 38.4035 45.0042 38.3614 45.0018 38.3136C44.999 38.2577 44.9973 38.2017 44.9973 38.1462C44.997 37.0574 44.997 35.9686 44.9973 34.8798C44.9973 34.796 44.9999 34.7121 45.0071 34.629C45.0115 34.5828 45.0225 34.5375 45.0396 34.4944C45.0682 34.4221 45.117 34.3661 45.1986 34.3522C45.2994 34.3351 45.4004 34.3142 45.5021 34.3075C45.6225 34.2997 45.7438 34.3047 45.8646 34.3057C45.8987 34.3057 45.9322 34.3426 45.9339 34.3802C45.9376 34.4637 45.9414 34.5473 45.9414 34.6309C45.9424 35.1986 45.9425 35.7663 45.9419 36.3339Z" fill="white"/>
<path d="M80.211 36.2688C80.211 36.8642 80.2108 37.4595 80.2102 38.0548C80.2102 38.1283 80.2008 38.2021 80.1915 38.2751C80.1897 38.2891 80.1706 38.304 80.1555 38.3124C80.1393 38.3215 80.1211 38.3264 80.1026 38.3268C79.8514 38.3268 79.6001 38.3259 79.3488 38.3242C79.3029 38.3238 79.2657 38.2826 79.2638 38.233C79.2607 38.1587 79.2585 38.0842 79.2585 38.0099C79.2582 36.9588 79.2582 35.9076 79.2585 34.8565C79.2585 34.7636 79.2621 34.6705 79.2676 34.5778C79.2706 34.5314 79.2779 34.4853 79.2893 34.4402C79.3164 34.3304 79.3857 34.2591 79.4989 34.2439C79.6373 34.2254 79.7764 34.209 79.9157 34.2025C80.2052 34.1891 80.2117 34.18 80.2111 34.4829C80.2101 35.078 80.211 35.6734 80.211 36.2688Z" fill="white"/>
<path d="M79.7785 33.4658C79.6429 33.462 79.5334 33.4588 79.427 33.4147C79.2959 33.3607 79.2158 33.2652 79.1812 33.1336C79.1401 32.9807 79.1389 32.8198 79.1776 32.6663C79.2164 32.5126 79.3147 32.4044 79.463 32.3495C79.671 32.2726 79.8815 32.2756 80.088 32.3557C80.1448 32.3769 80.1963 32.41 80.2391 32.4528C80.282 32.4956 80.3152 32.547 80.3366 32.6036C80.4106 32.7928 80.4116 32.9849 80.3337 33.1724C80.2634 33.3416 80.1217 33.424 79.9478 33.4537C79.8841 33.4646 79.8185 33.4632 79.7785 33.4658Z" fill="white"/>
<path d="M45.5058 33.5712C45.3862 33.5712 45.2864 33.5619 45.1876 33.5281C45.031 33.4745 44.9433 33.3634 44.9084 33.2097C44.8766 33.0736 44.8762 32.932 44.9074 32.7957C44.9484 32.621 45.0569 32.5028 45.2324 32.4484C45.4158 32.3916 45.5975 32.3922 45.7792 32.4523C45.9303 32.5024 46.0308 32.6018 46.0798 32.7544C46.1296 32.905 46.1308 33.0674 46.0833 33.2187C46.0363 33.3717 45.9388 33.4712 45.789 33.5278C45.6907 33.5649 45.5907 33.5706 45.5058 33.5712Z" fill="white"/>
</g>
<defs>
<clipPath id="clip0_471_3161">
<rect width="113" height="38.9876" fill="white"/>
</clipPath>
</defs>
</svg>
