<svg width="113" height="107" viewBox="0 0 113 107" fill="none" xmlns="http://www.w3.org/2000/svg">
<g clip-path="url(#clip0_471_3224)">
<path d="M84.2373 101.089C86.6496 101.089 85.0303 101.03 86.8036 100.062C91.0714 97.7524 93.4247 92.9252 93.4247 87.0253C93.4247 84.536 92.8549 82.4701 91.772 80.8662H90.0192C91.0996 82.4599 91.6719 84.5257 91.6719 87.0253C91.6719 92.2734 89.8087 96.6643 86.393 99.2024C83.8267 101.117 82.0021 101.089 84.2424 101.089H84.2373Z" fill="white"/>
<path fill-rule="evenodd" clip-rule="evenodd" d="M31.4125 47.7535C31.2509 47.0118 29.1978 44.4455 29.9908 40.804C31.2149 35.2069 35.4622 36.4053 36.7684 36.2C37.1506 35.7332 37.4651 35.2149 37.7025 34.6602C26.1901 31.904 25.9284 45.8904 30.7376 49.9425C30.948 49.206 31.1764 48.4746 31.4228 47.7535H31.4125Z" fill="white"/>
<path d="M38.0108 88.9761C40.2229 87.5595 41.5728 85.3833 41.5728 82.4757C41.5765 81.9345 41.5004 81.3958 41.347 80.8769H23.5805L20.6216 101.974C23.2135 102.182 27.7431 102.321 29.2649 102.321C35.8679 102.321 41.0185 99.3824 41.0185 93.9881C41.0185 91.7426 39.992 90.0129 38.0108 88.9761ZM33.8175 83.8589C33.8175 85.5193 32.85 86.5561 30.8431 86.5561H30.0245L30.6455 82.2344C31.1306 82.1985 31.5463 82.1985 31.8928 82.1985C33.3094 82.1985 33.8277 82.8221 33.8277 83.8589H33.8175ZM30.2247 96.8598C29.7756 96.8598 29.1981 96.8598 28.5643 96.8238L29.2572 92.0172H31.4C32.6447 92.0172 33.3709 92.8486 33.3709 94.1959C33.3709 95.5432 32.2777 96.8598 30.2247 96.8598ZM60.199 90.0488C62.6883 88.527 64.2435 86.0711 64.2435 82.8632C64.2501 82.1902 64.1417 81.521 63.9227 80.8846H45.7405L42.7815 101.982H50.0082L51.2914 93.0642H53.0211C54.3684 93.0642 55.4744 94.1703 55.4744 96.0026C55.4758 96.2464 55.4526 96.4897 55.4052 96.7289L55.1177 98.8025C55.0914 99.0084 55.0794 99.2159 55.0818 99.4235C55.0818 101.256 56.1545 102.329 58.0895 102.329C59.6447 102.329 61.0279 101.879 62.6883 101.153C62.423 100.58 62.293 99.9527 62.3085 99.3208C62.3291 98.9035 62.3754 98.4878 62.4471 98.0762L62.7242 96.036C62.7754 95.6232 62.7977 95.2073 62.791 94.7913C62.791 92.6485 61.8928 91.0574 60.199 90.0565V90.0488ZM56.5703 84.1463C56.5703 86.048 55.4616 87.6031 52.8697 87.6031H52.0382L52.8081 82.2447C53.465 82.2088 54.0194 82.2088 54.4325 82.2088C56.0236 82.2088 56.578 82.935 56.578 84.1463H56.5703ZM76.3102 102.331C76.8897 102.331 77.4688 102.3 78.045 102.239C78.7328 100.288 80.2931 98.0249 82.6182 96.1155C84.7893 94.332 87.122 93.1412 89.0878 92.6408C89.5919 90.8436 89.8416 88.9846 89.8295 87.1181C89.8295 84.6185 89.2777 82.5244 88.2307 80.8871H69.489C67.069 83.6228 65.7807 87.5287 65.7807 92.0634C65.7807 98.5638 69.6173 102.329 76.3256 102.329L76.3102 102.331ZM77.0005 96.7314C74.6165 96.7314 73.2666 94.935 73.2666 91.7169C73.2666 87.3953 75.0322 82.3474 78.7636 82.3474C81.1502 82.3474 82.3564 84.1438 82.3564 87.2926C82.3564 91.6143 80.7294 96.7314 76.9954 96.7314H77.0005Z" fill="white"/>
<path d="M20.2855 69.8029C21.0768 69.3237 21.7278 68.6443 22.1729 67.8334C22.618 67.0224 22.8416 66.1084 22.821 65.1836C22.821 62.548 20.5806 61.0955 16.6619 61.0955C15.5532 61.0955 12.8458 61.1699 10.3821 61.3521L7.89795 79.0416C9.74568 79.1904 12.9715 79.2982 14.0571 79.2982C18.7611 79.2982 22.4283 77.2067 22.4283 73.3649C22.4534 72.6277 22.2643 71.8989 21.884 71.2668C21.5038 70.6347 20.9485 70.1262 20.2855 69.8029ZM17.306 66.1588C17.306 67.3418 16.6157 68.0784 15.1862 68.0784H14.596L15.04 64.9988C15.3838 64.9731 15.679 64.9731 15.9253 64.9731C16.9364 64.9731 17.306 65.4171 17.306 66.1562V66.1588ZM14.7397 75.418C14.4189 75.418 14.0006 75.418 13.5566 75.3923L14.0571 71.9586H15.5968C16.4822 71.9586 17.0006 72.5488 17.0006 73.4984C17.0006 74.4479 16.2127 75.3949 14.7602 75.3949L14.7397 75.418ZM36.0887 70.5677C36.9841 70.048 37.7238 69.2977 38.2307 68.395C38.7375 67.4922 38.9931 66.4701 38.9707 65.4351C38.9707 62.6506 36.679 61.0724 32.5934 61.0724C31.4591 61.0724 27.643 61.1725 26.1777 61.329L23.6832 79.0416H28.8287L29.7397 72.6874H30.9715C31.9339 72.6874 32.7217 73.4778 32.7217 74.7815C32.7225 74.9539 32.7053 75.1259 32.6704 75.2948L32.4754 76.7704C32.4566 76.9176 32.448 77.066 32.4497 77.2144C32.4497 78.5206 33.2196 79.2828 34.5926 79.2828C35.7012 79.2828 36.6841 78.962 37.8672 78.4462C37.6829 78.0361 37.5951 77.5893 37.6105 77.1399C37.6249 76.8431 37.6575 76.5474 37.708 76.2546L37.9057 74.8021C37.9431 74.5076 37.9594 74.2109 37.9544 73.9141C37.9544 72.3872 37.3128 71.2554 36.1067 70.542L36.0887 70.5677ZM33.5096 66.3435C33.5096 67.6985 32.7217 68.8046 30.874 68.8046H30.2838L30.8252 64.9885C31.2923 64.9629 31.6875 64.9629 31.9826 64.9629C33.1144 64.9629 33.5224 65.4761 33.5224 66.3435H33.5096ZM47.5703 79.2982C53.6781 79.2982 57.1991 74.6943 57.1991 68.4633C57.1991 68.394 57.1991 68.3247 57.1991 68.2554C56.8052 68.2561 56.4118 68.2313 56.0211 68.181C54.5311 67.9927 53.0753 67.5944 51.6969 66.9979C51.8275 67.5171 51.8896 68.0512 51.8817 68.5865C51.8817 71.666 50.7243 75.3102 48.0656 75.3102C46.3667 75.3102 45.4044 74.027 45.4044 71.7379C45.4044 69.0638 46.3539 65.9971 48.3479 65.24C47.9501 65.0347 47.5524 64.8243 47.17 64.5959C46.3894 64.131 45.6394 63.6167 44.9245 63.0561C44.7294 62.9021 44.537 62.7456 44.3445 62.589C41.5678 64.4419 40.0613 67.8474 40.0613 71.9843C40.0613 76.6036 42.7944 79.2982 47.5729 79.2982H47.5703ZM59.5267 67.9834L57.9125 79.0416H62.9861L64.8826 65.6968C63.9382 66.2101 62.9707 66.6695 61.9955 67.1134C61.2028 67.4779 60.3758 67.7625 59.5267 67.9629V67.9834ZM73.9185 61.8628L71.0032 61.3495C70.8004 61.5266 70.608 61.6985 70.4181 61.8756C69.5966 62.6297 68.7218 63.3236 67.8004 63.9518L64.3154 70.0852L66.8509 77.6943C67.1974 78.7208 68.034 79.2956 70.2256 79.2956C71.2914 79.2944 72.3345 78.9871 73.2307 78.4103L69.5122 68.9535L73.9185 61.8602V61.8628ZM87.661 65.199L88.2512 61.3085H76.6747L74.1905 79.0416H85.9955L86.5883 75.1511H79.8774L80.3214 71.9509H85.9134L86.5062 68.0578H80.8885L81.294 65.2092L87.661 65.199ZM100.834 61.3085L99.7508 70.2469L95.5395 62.6378C94.9005 61.4804 94.1614 61.0621 93.0297 61.0621C92.181 61.0721 91.3556 61.3407 90.6636 61.832L88.2025 79.0416H93.0528L94.2102 70.1288L99.2093 79.0416H103.223L105.71 61.311L100.834 61.3085Z" fill="white"/>
<path d="M56.2545 -0.00012207C56.4315 0.40022 56.6368 0.787731 56.7677 1.2009C56.9111 1.73313 57.0965 2.25315 57.322 2.75608C57.4221 2.45326 57.5145 2.1453 57.6274 1.84504C57.7737 1.45753 58.0124 1.28559 58.4538 1.44214C59.2442 1.72186 60.0423 1.98362 60.8481 2.21203C61.3614 2.36344 61.618 2.6329 61.3948 3.26421C61.6283 3.28217 61.8233 3.30783 62.0158 3.30783C63.3246 3.30783 64.6334 3.30783 65.9422 3.30783C66.6839 3.30783 66.9405 3.59269 66.9688 4.33435C67.0175 5.49688 66.4555 6.43615 65.837 7.32152C65.003 8.53795 64.074 9.68765 63.1578 10.8425C62.796 11.2993 62.7831 11.674 63.1373 12.1436C64.3588 13.7629 64.1638 15.4798 62.624 16.8194C62.2468 17.1479 61.8028 17.4019 61.3973 17.6996C61.2204 17.8009 61.0707 17.9435 60.9611 18.1154C60.8652 18.329 60.8453 18.5689 60.9046 18.7954C60.9405 18.9032 61.2382 18.9802 61.4179 18.9802C64.1664 18.993 66.9149 18.9802 69.6634 18.9802C69.7941 18.9712 69.9253 18.9712 70.056 18.9802C70.713 19.0649 70.9414 19.591 70.5513 20.1119C70.0252 20.8125 69.5633 21.5824 68.6317 21.8262C68.4447 21.8941 68.2498 21.9381 68.0517 21.9571C60.5924 21.9571 53.1321 21.9571 45.6711 21.9571C45.3359 21.9443 45.0074 21.8598 44.7077 21.7093C44.408 21.5588 44.1441 21.3458 43.9337 21.0846C43.6699 20.7923 43.4305 20.4791 43.2177 20.1479C43.0945 19.9528 42.92 19.591 42.997 19.4986C43.2001 19.2464 43.4837 19.0715 43.8002 19.0033C44.381 18.96 44.964 18.9557 45.5453 18.9905C47.7882 18.9905 50.0338 18.9905 52.2767 18.9905C52.636 18.9905 52.8849 18.934 52.9824 18.5388C53.08 18.1436 52.8977 17.9306 52.577 17.7227C51.9838 17.3728 51.4252 16.9672 50.9089 16.5114C49.6796 15.3335 49.5744 13.6885 50.565 12.2924C51.1527 11.4661 51.1475 11.3994 50.47 10.6218C49.151 9.11023 47.9166 7.54222 47.0954 5.68936C46.9521 5.41427 46.8687 5.11201 46.8506 4.80241C46.8325 4.49281 46.88 4.18287 46.9901 3.89295C47.0456 3.70474 47.1654 3.542 47.3286 3.43316C47.4919 3.32433 47.6882 3.27634 47.8832 3.29757C49.3973 3.32836 50.9114 3.29757 52.4255 3.29757H53.1954C53.044 2.68679 52.9157 2.17096 52.79 1.65514C52.6411 1.05976 52.7309 0.908347 53.3289 0.728706L55.8079 -0.00012207H56.2545Z" fill="white"/>
<path d="M42.0294 58.8757V60.3615C41.1033 59.4923 40.3721 58.4366 39.884 57.264C39.6761 56.7302 39.3913 56.4941 38.8061 56.5429C38.221 56.5917 37.5743 56.5429 37.0457 56.5429C37.0149 56.0938 37.1175 55.5831 36.9122 55.2828C36.7069 54.9826 36.2116 54.9877 35.7471 54.8209C35.7393 54.7682 35.7393 54.7145 35.7471 54.6618C35.8061 53.8201 35.7086 53.7533 34.8771 53.6994C34.233 53.6584 34.156 54.0921 34.1406 54.513C34.1226 55.0724 33.9173 55.3162 33.3451 55.3906C32.4032 55.5112 32.4084 55.5497 32.4571 56.5018H30.8198C30.8253 56.0429 30.8639 55.5849 30.9353 55.1314C32.0799 50.1041 33.8429 45.323 36.6556 40.968C37.0405 40.3701 37.4255 39.7696 37.8617 39.2101C38.18 38.8021 38.0799 38.6096 37.6539 38.4197C37.2247 38.2347 36.8089 38.0203 36.4092 37.7781C35.8754 37.4496 35.7882 37.0082 36.1526 36.495C36.6812 35.7097 37.2202 34.9295 37.7822 34.1648C38.1774 33.6284 38.5521 33.6105 39.0474 34.0698C39.4708 34.465 39.8942 34.8628 40.2895 35.2863C40.6128 35.6327 40.8592 35.6507 41.2159 35.2991C43.1098 33.4206 45.1757 31.7525 47.5623 30.5412C48.807 29.9099 50.1286 29.412 51.4246 28.8962C51.805 28.7529 52.1174 28.4716 52.2997 28.1083C52.9978 26.8534 53.0337 25.5035 52.9798 24.1306C52.9798 23.9432 52.9798 23.7559 52.9798 23.5711C52.9906 23.5018 53.0087 23.4339 53.0337 23.3684H61.2458C61.2458 24.2666 61.2689 25.1417 61.2458 26.0168C61.215 26.9458 61.6102 27.726 62.0901 28.4625C62.2847 28.717 62.5539 28.9045 62.86 28.9988C66.5018 30.2451 69.8072 32.3141 72.5196 35.045C72.8121 35.3402 73.0585 35.3017 73.3305 35.0271C73.7257 34.6267 74.1209 34.2289 74.5341 33.8517C75.1654 33.2743 75.6915 33.3384 76.1765 34.0159C76.6898 34.7473 77.221 35.4736 77.7163 36.2178C78.1218 36.8132 78.0397 37.0673 77.3981 37.3829C76.9131 37.6216 76.4409 37.8962 75.9456 38.1092C75.5478 38.2837 75.5529 38.4787 75.789 38.7893C77.6135 41.2096 79.1363 43.8432 80.3237 46.6319C81.6299 49.6447 82.5127 52.791 83.2364 55.9809C83.2602 56.1552 83.2722 56.331 83.2724 56.507H81.1629C81.4477 55.6113 80.76 55.542 80.1748 55.3906C80.2313 55.2469 80.2672 55.134 80.3134 55.0442C80.6291 54.3872 80.1774 53.6892 79.4563 53.8098C79.307 53.8612 79.17 53.9432 79.0543 54.0506C78.9385 54.158 78.8464 54.2884 78.7839 54.4334C78.5478 54.9595 78.2527 55.0596 77.7292 54.8748C77.1132 54.6592 76.8053 54.7901 76.6847 55.2161C76.4537 56.0168 76.5974 56.2965 77.3442 56.548C76.4614 56.548 75.5786 56.5198 74.7009 56.5634C74.5714 56.5769 74.4462 56.6172 74.3331 56.6817C74.22 56.7462 74.1215 56.8335 74.044 56.9381C73.3305 58.1083 72.5991 59.3017 71.9165 60.4899C71.7964 59.9318 71.7421 59.3616 71.7548 58.791C71.2133 59.2709 70.7668 59.6532 70.3382 60.051C67.8617 62.3376 64.949 63.9313 61.9131 65.3094C60.0397 66.1614 58.0072 66.6233 55.9362 66.3538C53.8102 66.0912 51.7614 65.3922 49.9182 64.3008C48.9969 63.7542 48.0063 63.3179 47.0953 62.761C46.3161 62.2952 45.567 61.781 44.8523 61.2212C43.9079 60.4796 43.0149 59.6815 42.0474 58.8577L42.0294 58.8757ZM47.5854 60.5848L49.6385 58.8603C50.3105 59.95 51.34 60.7728 52.5512 61.1879C53.0978 61.3701 53.6393 61.5805 54.1988 61.7011C56.996 62.3479 59.7035 62.0604 62.2159 60.6541C62.9653 60.2332 63.535 59.4864 64.2689 58.8218L66.0243 60.3615C66.059 59.7174 65.9296 59.0751 65.6482 58.4947C65.3667 57.9143 64.9425 57.4149 64.4152 57.0433C62.3405 55.506 59.8245 54.6806 57.2424 54.69C54.3451 54.69 51.7172 55.6934 49.3228 57.2794C48.7663 57.6265 48.3119 58.1152 48.0062 58.6955C47.7005 59.2759 47.5544 59.927 47.5829 60.5822L47.5854 60.5848ZM48.0037 41.7585L48.0499 41.9432C45.6633 43.3675 44.067 45.8132 44.6958 47.0476C45.3395 46.4375 46.0136 45.8602 46.7155 45.3179C47.4392 44.8047 48.2552 44.4197 49.0251 43.9783C49.0251 43.9398 49.0251 43.9013 49.0123 43.8628H47.5469L47.5238 43.678L49.6949 43.0211C49.7514 43.8295 50.085 44.2709 50.7215 44.4402C51.4605 44.6378 52.0046 44.3889 52.5666 43.6113C53.8754 44.2555 55.0405 45.2384 56.6393 45.2717C58.2381 45.3051 59.5213 44.5275 60.7865 43.6421C61.2304 44.4274 61.9002 44.6045 62.6419 44.412C63.2912 44.2555 63.5991 43.7473 63.5991 42.9313L66.0499 43.6575L66.0114 43.8757H64.5718C64.5461 43.9372 64.523 43.9963 64.4999 44.0579C66.2475 44.6635 67.6641 45.7388 68.9139 47.0707C68.8241 44.6224 67.4742 43.0339 65.4263 41.9099C65.4623 41.8508 65.4956 41.7918 65.5316 41.7354L67.9824 42.4026C67.9581 42.2876 67.9211 42.1757 67.872 42.069C67.3986 41.3019 66.7354 40.6698 65.9465 40.2337C65.1576 39.7977 64.2695 39.5724 63.3682 39.5797C61.8592 39.5566 60.6017 40.2033 59.4443 41.1194C57.825 42.4026 56.2185 42.4745 54.4888 41.3632C54.1449 41.14 53.819 40.8885 53.4828 40.6498C51.4015 39.1665 48.517 39.2666 46.7052 40.9193C46.3034 41.3247 45.9255 41.7532 45.5735 42.2024C45.6171 42.2409 45.6582 42.282 45.6992 42.323L48.0089 41.7354L48.0037 41.7585ZM64.8181 54.9954C65.2262 53.9689 64.1868 51.4026 63.5016 50.5429C63.2224 50.1775 63.0159 49.762 62.8934 49.3188C62.6368 48.4437 62.2775 47.6635 61.4357 47.2272C60.1774 46.582 58.7165 46.4549 57.3656 46.8731C57.0126 46.9782 56.6398 46.9984 56.2775 46.9321C55.5026 46.7402 54.7007 46.682 53.9062 46.7602C52.2664 46.9475 51.1449 47.8945 50.7882 49.5061C50.7419 49.7984 50.6267 50.0756 50.452 50.3145C49.8181 51.0433 48.4836 54.4206 48.9122 55.0006C48.943 55.0442 48.961 55.0211 49.038 55.0006C49.8338 54.7556 50.6138 54.4616 51.3733 54.1203C54.7659 52.6755 58.2227 52.4599 61.7206 53.7097C62.7471 54.0767 63.7454 54.5463 64.813 54.9928L64.8181 54.9954Z" fill="white"/>
<path d="M82.1434 23.9277C83.2033 22.4059 84.6225 21.7772 86.3907 22.2032C87.951 22.5804 88.8954 23.6506 89.2136 25.2134C89.5395 26.8328 88.8466 28.1621 87.1605 29.34C87.2402 29.7193 87.2951 30.1033 87.3248 30.4897C87.3486 30.9723 87.2559 31.4535 87.0547 31.8927C86.8535 32.3319 86.5496 32.7163 86.1687 33.0135C85.7877 33.3106 85.3409 33.5118 84.8659 33.6001C84.3909 33.6883 83.9017 33.661 83.4394 33.5205C83.2797 33.46 83.1055 33.4484 82.9391 33.4872C82.7727 33.5261 82.6217 33.6136 82.5053 33.7387C82.1606 34.0425 81.7574 34.2728 81.3205 34.4153C80.8836 34.5579 80.4223 34.6097 79.9646 34.5676C79.5361 34.5394 79.2846 34.311 79.2974 33.9055C79.2962 33.82 79.3135 33.7353 79.3481 33.6571C79.3828 33.5789 79.4339 33.5092 79.498 33.4526C79.5621 33.3961 79.6377 33.3541 79.7196 33.3294C79.8015 33.3048 79.8877 33.2982 79.9723 33.3101C80.4132 33.3356 80.8527 33.2418 81.2447 33.0386C81.6367 32.8354 81.9667 32.5302 82.1999 32.1553C82.4565 31.7524 82.8492 31.7472 83.2264 32.0115C83.5633 32.2614 83.9779 32.3835 84.3963 32.3562C84.8148 32.3289 85.21 32.154 85.5116 31.8626C85.8132 31.5712 86.0016 31.1822 86.0432 30.7649C86.0848 30.3476 85.9769 29.9291 85.7388 29.5838C85.2512 28.8524 85.3539 28.5573 86.1751 28.3007C86.7173 28.1404 87.1896 27.8019 87.5156 27.3399C87.8416 26.8779 88.0022 26.3195 87.9715 25.7549C87.9368 25.1515 87.6902 24.5797 87.2752 24.1402C86.8602 23.7008 86.3034 23.422 85.7029 23.3529C84.6481 23.2092 83.5061 23.9277 83.093 24.9927C82.7568 25.8576 82.3616 25.9371 81.6661 25.2776C81.2527 24.8625 80.7019 24.6128 80.1172 24.5754C79.5326 24.5381 78.9544 24.7157 78.4916 25.0748C78.0441 25.42 77.7296 25.9093 77.6015 26.4597C77.4733 27.0102 77.5394 27.588 77.7884 28.0954C77.9138 28.3621 78.0943 28.5993 78.318 28.7913C78.5417 28.9832 78.8035 29.1256 79.0863 29.209C79.369 29.2924 79.6662 29.315 79.9582 29.2752C80.2503 29.2354 80.5306 29.1342 80.7807 28.9782C80.8629 28.9294 80.9373 28.8704 81.0194 28.8293C81.3581 28.66 81.6789 28.6702 81.9099 29.0013C81.9625 29.0687 82 29.1465 82.0199 29.2297C82.0399 29.3128 82.0418 29.3992 82.0255 29.4831C82.0092 29.567 81.9751 29.6464 81.9255 29.7161C81.8759 29.7857 81.8119 29.8438 81.738 29.8867C81.3347 30.2091 80.8597 30.4297 80.3531 30.5297C79.8466 30.6298 79.3234 30.6064 78.8278 30.4615C76.3231 29.8199 75.3864 26.6121 77.0904 24.654C78.2196 23.3708 80.0853 22.7472 82.1383 23.9277H82.1434Z" fill="white"/>
<path d="M51.9277 49.7064C52.672 48.49 54.0834 48.4233 54.7635 48.8826C55.595 49.4318 56.0851 51.141 55.5847 52.0931C55.4877 51.8758 55.3754 51.6657 55.2485 51.4643C54.9919 51.0973 54.7096 50.7766 54.1424 51.0383C54.0565 51.0801 53.963 51.1036 53.8675 51.1076C53.7721 51.1116 53.6769 51.0959 53.5878 51.0615C53.4987 51.027 53.4177 50.9746 53.3498 50.9075C53.2818 50.8404 53.2284 50.76 53.1929 50.6713C52.9671 50.1581 52.6797 49.7603 52.0406 49.8091C52.0047 49.8091 51.9637 49.7398 51.9277 49.7064Z" fill="white"/>
<path d="M57.8151 52.0493C57.4712 50.3094 58.0974 49.1854 58.9058 48.7978C59.7142 48.4103 60.7022 48.5258 61.7955 50.0605C61.644 50.004 61.5388 49.9783 61.4593 49.9347C60.946 49.6781 60.7869 49.7628 60.6483 50.3402C60.4943 50.9741 60.0144 51.3102 59.5089 51.0074C58.8519 50.6148 58.5568 51.0074 58.2257 51.418C58.0923 51.5848 57.9896 51.7773 57.8151 52.0493Z" fill="white"/>
<path fill-rule="evenodd" clip-rule="evenodd" d="M91.2176 95.8407C90.5452 95.6328 90.2552 95.2325 90.0165 94.6705C87.132 94.46 87.6299 95.5456 86.3519 96.6439C85.8027 97.1187 85.1791 97.2291 84.5991 97.7731C84.0858 98.2633 83.7573 98.7996 83.1748 99.2693C82.5383 99.7825 82.0225 99.8493 81.4836 100.47C80.9447 101.091 80.9344 101.753 80.4879 102.449C80.3131 102.738 80.094 102.998 79.8386 103.219C78.404 104.502 80.2364 104.176 77.4058 105.179C77.4981 105.821 78.4323 106.883 79.0225 107.117C80.6906 104.392 79.99 106.116 81.3527 105.041C82.5461 104.104 83.4597 104.466 84.4323 103.796C84.9455 103.447 85.3305 102.662 85.8463 102.164C86.4032 101.623 87.0063 101.558 87.5991 101.032C88.2817 100.429 88.1765 100.06 89.0798 99.4771C91.4023 97.9836 91.1688 97.9605 91.2099 95.8535L91.2176 95.8407Z" fill="white"/>
</g>
<defs>
<clipPath id="clip0_471_3224">
<rect width="113" height="106.925" fill="white"/>
</clipPath>
</defs>
</svg>
