<svg width="113" height="79" viewBox="0 0 113 79" fill="none" xmlns="http://www.w3.org/2000/svg">
<g clip-path="url(#clip0_471_3028)">
<path d="M58.5334 0.988342H56.5435V43.5155H58.5334V0.988342Z" fill="white"/>
<path d="M78.9274 23.1218H58.5337V25.1117H78.9274V23.1218Z" fill="white"/>
<path d="M76.4797 8.57359L68.9796 1.07349L61.3535 8.69773L67.4418 14.7916L62.0946 20.1369H64.909L68.8499 16.1978L72.7889 20.1369H75.6033L70.2617 14.7916L76.4797 8.57359ZM64.1698 8.69773L68.987 3.88047L73.6727 8.56618L68.8555 13.3834L64.1698 8.69773Z" fill="white"/>
<path d="M68.9781 10.4566L70.7363 8.69843L68.9781 6.94024L67.22 8.69843L68.9781 10.4566Z" fill="white"/>
<path d="M75.6033 14.4097L75.0753 14.9378L75.6033 15.4399V18.0838L75.5515 18.1375L72.2275 14.9711L75.6033 11.5972V14.4097Z" fill="white"/>
<path d="M62.1226 14.4097L62.6506 14.9378L62.1226 15.4399V18.0838L62.1744 18.1375L65.4984 14.9711L62.1226 11.5972V14.4097Z" fill="white"/>
<path d="M68.9796 37.027L68.1217 35.5615C67.6233 34.711 65.2017 30.357 66.4857 28.1151C66.8155 27.5389 67.5159 26.8515 68.9796 26.8515C70.4433 26.8515 71.1436 27.5389 71.4734 28.1151C72.7574 30.357 70.3358 34.711 69.8374 35.5615L68.9796 37.027ZM68.9796 28.8414C68.3626 28.8414 68.2496 29.0397 68.2125 29.1045C67.8531 29.7307 68.3181 31.3556 68.9796 32.8601C69.641 31.3556 70.1061 29.7307 69.7466 29.1045C69.7096 29.0397 69.5965 28.8414 68.9796 28.8414Z" fill="white"/>
<path d="M69.5151 41.1144L69.9431 39.4728C70.1914 38.5186 71.5588 33.7291 74.0526 33.0492C74.6937 32.875 75.6738 32.8861 76.7095 33.92C77.7452 34.9538 77.7527 35.9358 77.5785 36.5769C76.9022 39.0689 72.1109 40.4362 71.1567 40.6864L69.5151 41.1144ZM74.6678 34.9557C74.6353 34.9565 74.603 34.9608 74.5714 34.9687C73.8748 35.1539 73.0558 36.6362 72.4592 38.1684C73.9915 37.5718 75.4682 36.751 75.6571 36.0544C75.6775 35.9821 75.7368 35.7635 75.2996 35.3262C74.9883 35.0131 74.7863 34.9557 74.6678 34.9557Z" fill="white"/>
<path d="M68.4443 41.1144L66.8009 40.6864C65.8486 40.4362 61.0573 39.0689 60.3791 36.5769C60.205 35.9358 60.2142 34.9538 61.2499 33.92C62.2857 32.8861 63.2658 32.875 63.9069 33.0492C66.3989 33.7273 67.7662 38.5186 68.0145 39.4728L68.4443 41.1144ZM63.288 34.9557C63.1731 34.9557 62.9712 35.0131 62.6562 35.3262C62.2208 35.7635 62.2857 35.9821 62.2986 36.0544C62.4839 36.751 63.9661 37.5718 65.4965 38.1684C64.9018 36.6362 64.081 35.1576 63.3844 34.9687C63.3528 34.9608 63.3205 34.9565 63.288 34.9557Z" fill="white"/>
<path d="M52.566 28.5319H35.9038V30.5218H52.566V28.5319Z" fill="white"/>
<path d="M41.4251 33.3808H35.9038V31.3909H39.4352V27.6612H35.9038V25.6713H41.4251V33.3808Z" fill="white"/>
<path d="M52.5011 39.2875H35.9038V37.3032H39.7372L46.1646 32.4859L52.5011 39.2875ZM43.0519 37.2976H47.9247L45.9237 35.1484L43.0519 37.2976Z" fill="white"/>
<path d="M44.2339 21.8787C42.2419 21.8787 40.2946 21.288 38.6383 20.1813C36.982 19.0746 35.6911 17.5016 34.9288 15.6612C34.1665 13.8208 33.967 11.7957 34.3556 9.84199C34.7443 7.88825 35.7035 6.09363 37.1121 4.68507C38.5206 3.2765 40.3153 2.31726 42.269 1.92864C44.2227 1.54002 46.2478 1.73947 48.0882 2.50178C49.9286 3.26409 51.5016 4.55502 52.6083 6.21131C53.715 7.86761 54.3057 9.81488 54.3057 11.8069C54.3022 14.477 53.24 17.0368 51.3519 18.9249C49.4638 20.813 46.904 21.8752 44.2339 21.8787ZM44.2339 3.72131C42.6351 3.72131 41.0722 4.19541 39.7428 5.08366C38.4134 5.97191 37.3773 7.23442 36.7655 8.71153C36.1537 10.1886 35.9936 11.814 36.3055 13.3821C36.6174 14.9502 37.3873 16.3906 38.5178 17.5211C39.6484 18.6516 41.0887 19.4215 42.6568 19.7334C44.2249 20.0454 45.8503 19.8853 47.3274 19.2734C48.8045 18.6616 50.067 17.6255 50.9553 16.2961C51.8435 14.9668 52.3176 13.4039 52.3176 11.805C52.3152 9.66202 51.4627 7.60751 49.9471 6.09234C48.4316 4.57717 46.3769 3.72512 44.2339 3.72316V3.72131Z" fill="white"/>
<path d="M44.2335 18.1491C42.9794 18.148 41.7538 17.7751 40.7116 17.0776C39.6693 16.38 38.8573 15.3892 38.3781 14.2302C37.899 13.0712 37.7742 11.7962 38.0195 10.5663C38.2649 9.33644 38.8693 8.20691 39.7565 7.3205C40.6437 6.4341 41.7737 5.83063 43.0038 5.58636C44.2339 5.3421 45.5088 5.46802 46.6674 5.9482C47.8259 6.42839 48.8161 7.24127 49.5127 8.28411C50.2094 9.32694 50.5812 10.5529 50.5812 11.807C50.5792 13.4894 49.9097 15.1022 48.7195 16.2914C47.5293 17.4805 45.9159 18.1486 44.2335 18.1491ZM44.2335 7.45481C43.3727 7.45481 42.5313 7.71006 41.8156 8.18828C41.0998 8.66651 40.542 9.34623 40.2126 10.1415C39.8832 10.9368 39.797 11.8118 39.9649 12.6561C40.1329 13.5003 40.5474 14.2758 41.156 14.8845C41.7647 15.4932 42.5402 15.9077 43.3845 16.0756C44.2287 16.2435 45.1038 16.1573 45.899 15.8279C46.6943 15.4985 47.374 14.9407 47.8523 14.225C48.3305 13.5093 48.5857 12.6678 48.5857 11.807C48.5843 10.6532 48.1253 9.54704 47.3094 8.73116C46.4935 7.91528 45.3874 7.45628 44.2335 7.45481Z" fill="white"/>
<path d="M16.1192 65.1173C15.0727 65.111 14.0397 64.8804 13.0899 64.441C10.9073 63.3905 9.79378 61.6099 9.79934 59.2198C9.79934 56.7964 10.9407 54.9843 13.1844 53.9857C14.0757 53.5826 15.0402 53.3667 16.0183 53.3514C16.9964 53.3361 17.9672 53.5217 18.8706 53.8968C21.118 54.7787 22.7244 56.9112 22.402 60.0202C22.1593 62.3844 20.3084 64.3854 17.8127 64.8949C17.2476 65.008 16.6751 65.045 16.1192 65.1173ZM16.16 63.6999V63.6628C16.3453 63.6628 16.5305 63.6721 16.7047 63.6628C18.9058 63.5146 20.5826 61.9268 20.8086 59.7812C21.0476 57.5023 19.8285 55.5735 17.6996 55.0047C16.9974 54.8194 16.2684 54.7567 15.5448 54.8194C13.7977 54.9788 12.4155 55.781 11.7522 57.4893C10.8665 59.7608 11.641 62.9532 15.0742 63.6035C15.4207 63.6647 15.7876 63.6684 16.1507 63.6999H16.16Z" fill="white"/>
<path d="M34.5619 56.6074L25.7537 65.2006C25.7136 65.1899 25.6745 65.1757 25.637 65.158C25.6185 65.1451 25.5907 65.1247 25.5907 65.1062C25.5758 61.571 25.5629 58.0365 25.5518 54.5026C25.5518 54.221 25.5518 53.9375 25.5518 53.5966H26.9766C26.9954 53.6088 27.0128 53.6231 27.0284 53.6392C27.0435 53.6594 27.0537 53.6829 27.0581 53.7078C27.0736 53.7571 27.0829 53.8081 27.0859 53.8597V61.8267C27.6242 61.3857 28.1353 60.9123 28.6163 60.4093C29.1202 59.922 29.6186 59.4255 30.1189 58.9271L31.5696 57.5097L33.0185 56.0886C33.5188 55.5945 34.0209 55.1042 34.5248 54.6175C35.0047 54.1506 35.4864 53.6911 36.0664 53.1353V64.8783H34.573C34.5545 62.1843 34.5786 59.4922 34.5619 56.6074Z" fill="white"/>
<path d="M111.521 55.0642H104.068V64.8654H102.565V53.5745H112.952C112.952 54.2286 113 63.6778 113 64.8766H111.518C111.518 63.8001 111.518 62.7181 111.518 61.6379V55.0642H111.521Z" fill="white"/>
<path d="M41.1582 60.0534V64.8577H39.7297C39.6593 63.8627 39.6593 57.1927 39.6945 53.5853C39.8539 53.5686 43.8374 53.526 45.6568 53.5427C46.1236 53.5478 46.5888 53.5968 47.0464 53.6891C48.6731 54.0207 49.5995 55.1935 49.581 56.8499C49.5625 58.4563 48.6231 59.5976 47.0167 59.9052C46.4808 59.9991 45.9378 60.0468 45.3937 60.0478C44.0171 60.0664 42.6423 60.0534 41.1582 60.0534ZM41.1804 58.5619C42.7924 58.5619 44.3172 58.5619 45.8439 58.5619C46.051 58.5613 46.2579 58.5458 46.4628 58.5156C47.3892 58.3766 47.9598 57.7467 47.9728 56.8351C47.9876 55.8828 47.417 55.2213 46.4609 55.0805C46.2043 55.0447 45.9455 55.0273 45.6864 55.0286C44.3654 55.0286 41.3806 55.0712 41.1804 55.0972V58.5619Z" fill="white"/>
<path d="M80.3482 60.0922V64.8539H78.8252V53.5926C79.0475 53.5723 83.0273 53.5259 84.819 53.5426C85.2863 53.5471 85.7522 53.5955 86.2104 53.6871C87.8409 54.0132 88.7747 55.1823 88.7599 56.8369C88.7487 58.4433 87.8224 59.5864 86.2123 59.907C85.7276 59.9977 85.236 60.0461 84.743 60.0515C83.548 60.0663 80.652 60.0756 80.3482 60.0922ZM80.3649 58.5007C80.5224 58.5285 83.9815 58.5822 85.5842 58.51C86.568 58.4636 87.1461 57.7596 87.1516 56.8165C87.1572 55.8734 86.5958 55.2138 85.6194 55.0786C85.3626 55.0452 85.1039 55.0285 84.8449 55.0286C83.5239 55.0286 80.5427 55.0786 80.3649 55.1064V58.5007Z" fill="white"/>
<path d="M55.7859 53.1297L62.0984 64.8746H60.4012L58.9949 62.2806H52.5806L51.1706 64.8746H49.4697L55.7859 53.1297ZM58.063 60.7039C57.761 59.7775 56.1101 56.7945 55.6858 56.424C54.9558 57.8451 54.1629 59.218 53.4366 60.7039H58.063Z" fill="white"/>
<path d="M95.8119 60.413L99.4731 53.5577H101.115C101.028 53.7652 100.97 53.9283 100.887 54.0876C99.5027 56.6815 98.1316 59.2754 96.7217 61.8415C96.2915 62.6417 95.799 63.4068 95.2487 64.1297C94.2593 65.41 92.6993 65.1766 91.784 64.7115C91.6513 64.6592 91.5386 64.566 91.4624 64.4454C91.3861 64.3248 91.3501 64.1831 91.3597 64.0408C91.3782 62.716 91.406 59.9294 91.4634 59.7275C91.6024 60.4371 91.6913 61.0244 91.834 61.5933C91.9468 62.0723 92.1115 62.5376 92.325 62.981C92.7752 63.85 93.5923 63.9259 94.1982 63.1663C94.4814 62.7777 94.7448 62.3752 94.9874 61.9601L89.8145 53.5318C90.3796 53.5318 90.8353 53.4799 91.2726 53.554C91.4746 53.5873 91.6839 53.8319 91.8099 54.032C92.6159 55.3049 93.3978 56.5926 94.187 57.8747C94.5965 58.5399 95.0041 59.2031 95.4173 59.8646C95.5285 60.0443 95.6563 60.2 95.8119 60.413Z" fill="white"/>
<path d="M76.928 53.5874C76.6334 54.0321 76.3833 54.3897 76.1554 54.7602C75.9701 55.0678 75.6737 55.0215 75.3939 55.0215H69.4056V64.8672H67.9067V53.6634C68.7479 53.6634 74.4916 53.5874 76.928 53.5874Z" fill="white"/>
<path d="M1.49706 55.0229V64.8131C0.996803 64.9798 0.520635 64.9131 0 64.8724V53.5889H9.00643C8.76032 54.0199 8.48289 54.4324 8.17638 54.8228C8.03927 54.9766 7.71318 55.0081 7.47232 55.0081C5.80665 55.0303 1.91023 55.0229 1.49706 55.0229Z" fill="white"/>
<path d="M33.9359 51.5878C33.9441 51.7284 33.916 51.8686 33.8544 51.9952C33.7927 52.1217 33.6996 52.2303 33.5839 52.3104C32.2146 53.3906 30.0209 53.4221 28.6591 52.3419C28.4905 52.2104 28.2886 51.988 28.2886 51.8009C28.3627 50.893 28.3627 50.1519 28.3738 48.9365C28.548 49.3867 28.6906 49.8536 28.9056 50.2835C29.3595 51.1987 30.1006 51.6823 31.1474 51.6656C32.1628 51.6471 32.8668 51.1487 33.2985 50.2612C33.5079 49.8295 33.645 49.3608 33.8136 48.9087C33.9155 50.3372 33.9155 50.7078 33.9359 51.5878Z" fill="white"/>
<path d="M28.9849 76.6398C28.7324 76.5132 28.5281 76.3076 28.4031 76.0543C28.2632 75.7569 28.1959 75.4305 28.2067 75.102V74.4442C28.1957 74.1191 28.2637 73.7961 28.405 73.503C28.5319 73.2525 28.7358 73.0493 28.9868 72.9231C29.2823 72.7835 29.6068 72.7162 29.9335 72.7267C30.1335 72.725 30.3327 72.7493 30.5264 72.799C30.6993 72.844 30.8638 72.9166 31.0137 73.0139C31.1576 73.1078 31.2831 73.2271 31.3843 73.3659L30.8933 73.8032C30.7788 73.6631 30.6342 73.5505 30.4703 73.4739C30.3065 73.3972 30.1274 73.3584 29.9465 73.3604C29.8018 73.3496 29.6563 73.3683 29.5191 73.4155C29.3818 73.4626 29.2555 73.5371 29.1479 73.6346C29.0512 73.7451 28.9773 73.8738 28.9305 74.0131C28.8838 74.1524 28.8651 74.2995 28.8756 74.4461V75.1001C28.8544 75.4001 28.9523 75.6963 29.1479 75.9246C29.2546 76.0237 29.3806 76.0997 29.518 76.1478C29.6554 76.196 29.8013 76.2152 29.9465 76.2044C30.1317 76.2074 30.3152 76.1688 30.4835 76.0915C30.6519 76.0143 30.8007 75.9003 30.9192 75.7579L31.3824 76.2081C31.281 76.3452 31.1554 76.4626 31.0119 76.5546C30.862 76.6505 30.6973 76.7213 30.5246 76.7639C30.3315 76.8137 30.1328 76.838 29.9335 76.8362C29.6063 76.8465 29.2812 76.7792 28.9849 76.6398Z" fill="white"/>
<path d="M32.3057 71.183H32.9801V71.8519H32.3094L32.3057 71.183ZM32.3057 72.7839H32.9801V76.7803H32.3094L32.3057 72.7839Z" fill="white"/>
<path d="M37.3952 72.7841H37.9826V76.7806H37.3897V73.6512L37.4286 73.9347L36.3002 76.0024H35.9074L34.7791 73.9347L34.818 73.6512V76.7806H34.2251V72.7841H34.8143L36.1112 75.1668L37.3952 72.7841Z" fill="white"/>
<path d="M38.7847 71.183H39.5091V72.2947L38.7847 73.0729V71.183Z" fill="white"/>
<path d="M39.9243 76.7805L41.1064 75.0241L41.7604 75.2094L40.7284 76.7879L39.9243 76.7805ZM41.4066 75.3743C41.1545 75.3792 40.9048 75.324 40.6784 75.2131C40.475 75.1114 40.3047 74.9539 40.1874 74.7591C40.0737 74.5508 40.0142 74.3174 40.0142 74.0801C40.0142 73.8428 40.0737 73.6093 40.1874 73.401C40.3039 73.2058 40.4736 73.0477 40.6765 72.9452C40.9042 72.834 41.1551 72.7787 41.4084 72.784H42.8628V73.4159H41.3806C41.2942 73.4125 41.208 73.4272 41.1276 73.4591C41.0472 73.4911 40.9743 73.5394 40.9137 73.6011C40.8539 73.6654 40.8076 73.7409 40.7773 73.8233C40.7471 73.9057 40.7336 73.9933 40.7377 74.081C40.7346 74.2026 40.762 74.3229 40.8174 74.4312C40.8678 74.5291 40.9457 74.6103 41.0415 74.6646C41.1453 74.7216 41.2622 74.7504 41.3806 74.748H42.8628V75.378L41.4066 75.3743ZM42.5349 76.7805V72.784H43.2038V76.7805H42.5349Z" fill="white"/>
<path d="M46.5459 72.7842H47.2148V78.4037H46.5459V72.7842ZM47.602 76.675C47.3987 76.56 47.2425 76.377 47.161 76.1581L47.2148 75.3225C47.213 75.4862 47.2498 75.6481 47.3222 75.7949C47.3928 75.9325 47.5007 76.0474 47.6335 76.1266C47.779 76.2129 47.9461 76.2559 48.1152 76.2507C48.2426 76.2588 48.3701 76.2391 48.4891 76.193C48.6081 76.1469 48.7157 76.0756 48.8045 75.9839C48.9773 75.772 49.0639 75.5028 49.0472 75.2298V74.359C49.0653 74.0814 48.9787 73.807 48.8045 73.5901C48.7162 73.4976 48.6088 73.4254 48.4897 73.3787C48.3707 73.332 48.2429 73.3118 48.1152 73.3196C47.9468 73.3146 47.7803 73.3556 47.6335 73.4382C47.5005 73.5155 47.3925 73.6293 47.3222 73.7661C47.2503 73.9092 47.2134 74.0673 47.2148 74.2275L47.1351 73.4586C47.2466 73.2267 47.4246 73.0332 47.6465 72.9027C47.8684 72.7774 48.1197 72.7135 48.3746 72.7175C48.6289 72.7084 48.8804 72.7727 49.099 72.9027C49.3064 73.0356 49.467 73.23 49.5585 73.4586C49.6713 73.7386 49.7255 74.0387 49.7179 74.3405V75.2095C49.7261 75.508 49.6705 75.8049 49.5548 76.0803C49.4586 76.3099 49.2935 76.5041 49.0824 76.6361C48.8573 76.7654 48.6007 76.8296 48.3413 76.8214C48.0859 76.8354 47.8312 76.783 47.602 76.6695V76.675Z" fill="white"/>
<path d="M51.5227 76.6284C51.2644 76.4911 51.0552 76.2768 50.9243 76.0151C50.7797 75.7137 50.7092 75.3821 50.7186 75.048V74.5978C50.7094 74.2495 50.7771 73.9034 50.9169 73.5843C51.0378 73.317 51.2384 73.0938 51.4912 72.9451C51.7696 72.7925 52.0837 72.717 52.4009 72.7264C52.7026 72.7175 53 72.7988 53.2551 72.9599C53.4995 73.1247 53.6882 73.3599 53.7961 73.6343C53.928 73.9742 53.991 74.337 53.9814 74.7015V75.0591H51.1911V74.5033H53.3607V74.4829C53.3692 74.181 53.2766 73.8849 53.0976 73.6417C53.0135 73.5427 52.9078 73.4643 52.7886 73.4126C52.6694 73.3609 52.54 73.3372 52.4102 73.3434C52.2649 73.3348 52.1195 73.359 51.9848 73.4141C51.8501 73.4693 51.7296 73.554 51.632 73.6621C51.4358 73.919 51.3391 74.2381 51.3597 74.5607V75.0684C51.3492 75.2219 51.3697 75.376 51.4199 75.5215C51.4702 75.667 51.5493 75.8008 51.6524 75.9151C51.7628 76.018 51.893 76.0974 52.0351 76.1483C52.1772 76.1993 52.3281 76.2208 52.4788 76.2115C52.6551 76.2107 52.8296 76.1748 52.992 76.1059C53.1596 76.0359 53.3124 75.9346 53.4422 75.8076L53.8887 76.2467C53.6969 76.4335 53.4719 76.5831 53.2254 76.6877C52.9913 76.7886 52.7393 76.8415 52.4843 76.8433C52.1509 76.8532 51.8202 76.7793 51.5227 76.6284Z" fill="white"/>
<path d="M55.7245 76.6398C55.472 76.5127 55.2672 76.3073 55.1409 76.0544C55.001 75.7569 54.9337 75.4305 54.9445 75.102V74.4443C54.9345 74.1192 55.0025 73.7965 55.1427 73.5031C55.2698 73.252 55.4745 73.0486 55.7264 72.9231C56.0219 72.7834 56.3464 72.7161 56.6731 72.7267C56.8731 72.7251 57.0724 72.7494 57.266 72.799C57.4388 72.8444 57.6033 72.9169 57.7533 73.0139C57.8977 73.1072 58.0233 73.2266 58.1239 73.366L57.631 73.8032C57.5156 73.6621 57.37 73.5488 57.2049 73.4716C57.0414 73.3972 56.8638 73.3593 56.6843 73.3604C56.5395 73.3497 56.3941 73.3685 56.2569 73.4156C56.1196 73.4628 55.9933 73.5373 55.8857 73.6346C55.7893 73.7453 55.7157 73.874 55.6693 74.0133C55.6228 74.1526 55.6045 74.2997 55.6152 74.4461V75.1002C55.5935 75.3999 55.6907 75.6961 55.8857 75.9247C55.9925 76.0235 56.1185 76.0994 56.2559 76.1475C56.3933 76.1957 56.5391 76.215 56.6843 76.2044C56.8697 76.2072 57.0534 76.1685 57.222 76.0912C57.3906 76.014 57.5398 75.9001 57.6588 75.7579L58.1202 76.2081C58.0189 76.3453 57.8933 76.4627 57.7496 76.5546C57.5995 76.6502 57.435 76.7209 57.2623 76.764C57.0693 76.8136 56.8706 76.8379 56.6713 76.8362C56.3446 76.8464 56.0202 76.7791 55.7245 76.6398Z" fill="white"/>
<path d="M58.4873 72.7841H61.5889V73.3974H58.4873V72.7841ZM59.7027 73.1084H60.3734V76.7806H59.7027V73.1084Z" fill="white"/>
<path d="M62.9953 76.6342C62.7502 76.4989 62.5529 76.2912 62.4302 76.0395C62.2933 75.745 62.2267 75.4228 62.2357 75.0982V74.4479C62.2269 74.1281 62.2936 73.8108 62.4302 73.5215C62.5531 73.2714 62.7505 73.0655 62.9953 72.9323C63.2729 72.7993 63.5768 72.7303 63.8846 72.7303C64.1925 72.7303 64.4964 72.7993 64.774 72.9323C65.0155 73.0668 65.2096 73.2726 65.3298 73.5215C65.4665 73.8108 65.5331 74.1281 65.5244 74.4479V75.1094C65.5324 75.4291 65.4658 75.7463 65.3298 76.0357C65.2091 76.2848 65.0152 76.491 64.774 76.6268C64.4968 76.7612 64.1927 76.8311 63.8846 76.8311C63.5766 76.8311 63.2725 76.7612 62.9953 76.6268V76.6342ZM64.6054 75.919C64.7884 75.6904 64.8796 75.4017 64.8611 75.1094V74.4479C64.8798 74.1573 64.7885 73.8702 64.6054 73.6438C64.4094 73.4605 64.1511 73.3586 63.8828 73.3586C63.6145 73.3586 63.3562 73.4605 63.1602 73.6438C62.9785 73.8709 62.888 74.1576 62.9064 74.4479V75.1094C62.888 75.4013 62.9785 75.6898 63.1602 75.919C63.3556 76.1035 63.6141 76.2063 63.8828 76.2063C64.1515 76.2063 64.41 76.1035 64.6054 75.919Z" fill="white"/>
<path d="M66.6543 72.7842H67.325V78.4037H66.6543V72.7842ZM67.7122 76.6751C67.5089 76.5601 67.3528 76.377 67.2713 76.1581L67.325 75.3225C67.3223 75.4864 67.3592 75.6484 67.4325 75.795C67.503 75.932 67.6101 76.0468 67.7419 76.1266C67.8882 76.2127 68.0558 76.2557 68.2255 76.2508C68.3528 76.2588 68.4804 76.2391 68.5994 76.1931C68.7184 76.147 68.826 76.0757 68.9147 75.984C69.0875 75.7721 69.1742 75.5028 69.1574 75.2299V74.3591C69.1756 74.0814 69.089 73.8071 68.9147 73.5902C68.8265 73.4976 68.719 73.4255 68.6 73.3787C68.4809 73.332 68.3531 73.3118 68.2255 73.3197C68.0565 73.3148 67.8894 73.3558 67.7419 73.4382C67.6133 73.5175 67.5093 73.6311 67.4417 73.7662C67.3689 73.9089 67.332 74.0673 67.3343 74.2275L67.2528 73.4586C67.3654 73.2269 67.544 73.0336 67.766 72.9028C67.9873 72.7775 68.238 72.7135 68.4923 72.7175C68.7471 72.7082 68.9993 72.7725 69.2186 72.9028C69.4254 73.0362 69.5859 73.2304 69.6781 73.4586C69.7899 73.7389 69.8434 74.0389 69.8356 74.3405V75.2095C69.8434 75.5079 69.7885 75.8045 69.6744 76.0803C69.5781 76.31 69.4131 76.5042 69.2019 76.6362C68.9768 76.7653 68.7202 76.8294 68.4608 76.8214C68.2022 76.8376 67.944 76.7852 67.7122 76.6695V76.6751Z" fill="white"/>
<path d="M71.1271 76.5229C70.9989 76.4068 70.8989 76.2631 70.8347 76.1025C70.7704 75.942 70.7437 75.7689 70.7565 75.5965C70.7455 75.4332 70.7707 75.2694 70.8303 75.117C70.8898 74.9645 70.9823 74.8271 71.1012 74.7145C71.3872 74.4946 71.7436 74.3866 72.1035 74.4107H73.3356L73.3894 74.985H72.1072C71.9188 74.972 71.732 75.0272 71.581 75.1407C71.518 75.1979 71.4686 75.2686 71.4366 75.3475C71.4045 75.4264 71.3906 75.5115 71.3958 75.5965C71.3897 75.6911 71.408 75.7858 71.4488 75.8714C71.4897 75.957 71.5518 76.0308 71.6292 76.0856C71.8339 76.2083 72.071 76.2658 72.3092 76.2505C72.5602 76.2622 72.8113 76.2283 73.0503 76.1505C73.2189 76.0838 73.3023 75.9856 73.3023 75.854L73.3708 76.3969C73.2934 76.4946 73.1978 76.5764 73.0892 76.6377C72.9685 76.7064 72.8379 76.7557 72.702 76.7841C72.5423 76.8172 72.3796 76.8333 72.2165 76.8323C71.8284 76.8594 71.443 76.7499 71.1271 76.5229ZM73.2949 74.2476C73.3104 73.9984 73.2264 73.7532 73.0614 73.5658C72.9728 73.4818 72.8679 73.4169 72.7531 73.3752C72.6384 73.3334 72.5163 73.3157 72.3944 73.3231C72.22 73.3232 72.0467 73.3513 71.8812 73.4065C71.7206 73.4572 71.5702 73.5356 71.4365 73.6381L70.9474 73.3046C71.1086 73.1153 71.3142 72.9689 71.5458 72.8784C71.8086 72.774 72.0894 72.7224 72.3722 72.7265C72.6655 72.7177 72.9569 72.778 73.2226 72.9025C73.4505 73.0119 73.6388 73.1893 73.7618 73.4102C73.8908 73.6575 73.9545 73.9336 73.947 74.2124V76.7804H73.2949V74.2476Z" fill="white"/>
<path d="M75.1401 72.7841H75.809V76.7806H75.1401V72.7841ZM75.5515 74.5128H78.1583V75.1205H75.5515V74.5128ZM77.7748 72.7841H78.4437V76.7806H77.7804L77.7748 72.7841Z" fill="white"/>
<path d="M79.7388 71.183H80.4113V71.8519H79.7406L79.7388 71.183ZM79.7388 72.7839H80.4113V76.7803H79.7406L79.7388 72.7839Z" fill="white"/>
<path d="M81.6602 72.7838H82.3272V76.7803H81.6602V72.7838ZM82.1234 76.18H83.6056C83.7705 76.1919 83.9334 76.1387 84.0595 76.0318C84.1125 75.974 84.1532 75.9062 84.1793 75.8324C84.2055 75.7585 84.2164 75.6801 84.2115 75.6019V75.5908C84.2231 75.4231 84.1685 75.2575 84.0595 75.1295C83.9983 75.0742 83.9265 75.0319 83.8485 75.0051C83.7705 74.9783 83.6878 74.9677 83.6056 74.9738H82.1234V74.3809H83.6056C83.7479 74.3919 83.8892 74.3496 84.0021 74.2624C84.0492 74.2169 84.0857 74.1616 84.1091 74.1005C84.1325 74.0393 84.1421 73.9738 84.1373 73.9085C84.146 73.8377 84.1384 73.7659 84.1152 73.6985C84.0921 73.6311 84.0539 73.5698 84.0036 73.5193C83.9532 73.4688 83.8921 73.4304 83.8248 73.407C83.7574 73.3836 83.6856 73.3757 83.6149 73.3841H82.1326V72.7838H83.6445C83.9586 72.7621 84.2698 72.8564 84.519 73.0488C84.6229 73.1487 84.7036 73.2701 84.7555 73.4046C84.8073 73.539 84.8291 73.6832 84.8192 73.827C84.8283 74.0344 84.7626 74.2383 84.6339 74.4013C84.4969 74.5556 84.3087 74.655 84.104 74.6811C84.3333 74.7207 84.5405 74.8417 84.6876 75.022C84.8291 75.2169 84.9003 75.454 84.8896 75.6946V75.7057C84.8997 75.8546 84.8762 76.0039 84.8207 76.1425C84.7652 76.2811 84.6792 76.4053 84.569 76.5061C84.2994 76.7067 83.9668 76.804 83.6315 76.7803H82.1308L82.1234 76.18Z" fill="white"/>
</g>
<defs>
<clipPath id="clip0_471_3028">
<rect width="113" height="77.4152" fill="white" transform="translate(0 0.988281)"/>
</clipPath>
</defs>
</svg>
