<svg width="113" height="83" viewBox="0 0 113 83" fill="none" xmlns="http://www.w3.org/2000/svg">
<g clip-path="url(#clip0_471_3002)">
<path d="M2.06125 70.4273L2.31137 71.1283L9.46358 71.1317H10.5712L17.7234 71.1283L17.9755 70.4273C17.9755 70.4273 18.6629 68.252 19.3496 66.2299L19.3639 66.1873C19.3772 66.3207 19.396 66.4603 19.4214 66.6075L20.2522 70.4582C20.2522 70.4582 20.2741 71.1498 21.1049 71.1498H24.1036C24.9344 71.1498 24.9561 70.4582 24.9561 70.4582L25.5085 67.8993L25.5196 70.5974C25.5196 70.5974 25.5196 71.163 25.7958 71.163H30.0422C30.2296 71.163 30.289 70.8981 30.3075 70.7308C30.3075 70.7679 30.3184 71.163 30.5425 71.163H34.2066C34.4456 71.163 34.4456 70.7278 34.4456 70.7278L34.4677 65.9191C34.7349 67.8099 34.9394 69.3705 34.9394 69.3705L35.1157 70.6235C35.1157 70.6235 35.17 71.1498 35.6095 71.1498H40.9406C41.3801 71.1498 41.4323 70.6235 41.4323 70.6235L41.6115 69.3705C41.6115 69.3705 41.6247 69.2694 41.6488 69.0877C41.7913 69.6169 41.9692 70.1358 42.1814 70.641L42.3053 70.9457C42.3053 70.9457 42.3728 71.15 42.5381 71.15H51.4832C51.6484 71.15 51.7159 70.9457 51.7159 70.9457L51.84 70.641C51.9947 70.2696 52.1254 69.9104 52.2347 69.5629L52.2403 70.5586C52.2403 70.5586 52.2403 71.1633 52.6513 71.1633H58.9839C59.3927 71.1633 59.3927 70.5586 59.3927 70.5586L59.4082 67.9869C59.4961 68.3079 59.5957 68.6141 59.7069 68.9053C60.1922 70.1798 60.5859 70.6107 60.5859 70.6107C60.5859 70.6107 60.9818 71.1502 61.96 71.1502H64.391C65.3698 71.1502 65.7701 70.6107 65.7701 70.6107C65.7701 70.6107 66.1616 70.1802 66.6447 68.9053C66.9434 68.1205 67.1549 67.2378 67.2966 66.2148L67.3146 70.4498C67.3146 70.4498 67.3146 71.1633 67.6668 71.1633H73.114C73.3906 71.1633 73.4502 70.7241 73.4629 70.5349L73.4643 70.7414C73.4643 70.7414 73.4643 71.1502 73.782 71.1502H78.6829C79.0005 71.1502 79.0005 70.7414 79.0005 70.7414L79.0248 67.0153L79.8186 70.4586C79.8186 70.4586 79.8447 71.1502 80.7364 71.1502H83.9539C84.8436 71.1502 84.8699 70.4586 84.8699 70.4586L85.6007 67.2959C85.6653 68.2796 85.916 69.3924 86.4371 70.6414L86.561 70.9461C86.561 70.9461 86.6285 71.1504 86.7938 71.1504H95.741C95.9041 71.1504 95.9716 70.9461 95.9716 70.9461L96.0979 70.6414C96.6491 69.3183 96.8976 68.1482 96.9428 67.1223C97.8095 69.0117 99.342 69.6147 99.342 69.6147C99.342 69.6147 100.54 70.4761 100.656 71.1375H108.707C108.821 70.4761 110.019 69.6147 110.019 69.6147C110.019 69.6147 113.215 68.3573 112.988 63.7847C112.78 59.611 106.604 55.9238 105.539 55.3182L106.397 36.1558L105.854 36.1174L105.431 36.1224L105.095 24.2213C105.095 24.2213 104.847 20.1053 103.241 18.4923C101.068 16.317 98.4865 16.3616 98.4865 16.3616H63.9539C64.0571 16.226 64.1606 16.0897 64.2644 15.9525C64.8431 15.1867 65.4319 14.4137 66.0307 13.6336C66.6354 12.8503 67.2402 12.1143 67.8451 11.4255C68.23 11.2395 68.6251 11.0753 69.0285 10.9339C69.372 10.8208 69.655 10.7598 69.8769 10.7598C70.0006 10.76 70.1228 10.7867 70.2353 10.8381C70.3462 10.8905 70.4028 10.9948 70.4028 11.1472C70.4028 11.2995 70.3462 11.4516 70.2353 11.6084C70.1175 11.7744 69.9761 11.9224 69.8155 12.0477C69.645 12.1816 69.4559 12.2901 69.2542 12.3697C69.0626 12.4499 68.8573 12.492 68.6496 12.4937C68.4972 12.4937 68.3841 12.4654 68.3111 12.4067C68.2328 12.348 68.185 12.2934 68.1633 12.2474C68.1394 12.1939 68.1128 12.1417 68.0836 12.0909C68.0554 12.0429 67.9986 12.0212 67.9162 12.0212C67.8813 12.0212 67.8377 12.0365 67.7855 12.0648C67.7263 12.0971 67.6702 12.135 67.618 12.1779C67.5635 12.2216 67.5138 12.2711 67.4701 12.3256C67.4315 12.3731 67.41 12.4322 67.4092 12.4933C67.4092 12.528 67.4157 12.5531 67.4267 12.5628C67.4845 12.6264 67.5378 12.694 67.586 12.7651C67.6425 12.8522 67.7776 12.8958 67.9863 12.8958C68.2081 12.8958 68.4996 12.8327 68.8625 12.702C69.2279 12.5716 69.5822 12.4117 69.9219 12.2241C70.2473 12.0441 70.5478 11.8226 70.816 11.5649C71.0661 11.3214 71.1924 11.0755 71.1924 10.8319C71.1924 10.6774 71.1097 10.5468 70.9464 10.436C70.7831 10.3253 70.6202 10.2706 70.4572 10.2706C70.2005 10.2706 69.8826 10.3273 69.5013 10.4446C69.1199 10.5619 68.6986 10.7254 68.233 10.9341L68.3375 10.8319C68.4287 10.7316 68.51 10.6228 68.5803 10.5069C68.6739 10.359 68.7217 10.2634 68.7217 10.2176C68.7217 10.1481 68.6805 10.1089 68.5978 10.1045C68.5152 10.1001 68.4345 10.0871 68.3541 10.0762C68.2984 10.0772 68.243 10.0838 68.1888 10.0961C68.1235 10.1071 68.0908 10.1375 68.0908 10.1831C68.0321 10.2745 67.956 10.3876 67.8624 10.5139C67.7827 10.6204 67.6883 10.7489 67.5836 10.901C67.4789 11.0532 67.3618 11.2274 67.2311 11.4253C66.8117 11.6445 66.3762 11.8887 65.9244 12.1578L65.9172 12.1606C65.7836 12.2121 65.6471 12.2557 65.5084 12.2912C65.3517 12.3324 65.1842 12.3695 65.008 12.4065C64.8403 12.4399 64.6699 12.4566 64.499 12.4565C64.2552 12.4565 64.0682 12.3782 63.94 12.2129C64.2074 11.9214 64.4207 11.6364 64.5772 11.3566C64.7383 11.0761 64.8162 10.8433 64.8162 10.6541C64.8162 10.4452 64.7031 10.3408 64.4812 10.3408C64.3239 10.3395 64.1693 10.3825 64.0352 10.4649C63.9015 10.5463 63.7854 10.6535 63.6936 10.7803C63.5968 10.9158 63.5233 11.0665 63.4762 11.2262C63.4251 11.3873 63.3986 11.5551 63.3977 11.7241C63.3977 11.9566 63.4376 12.1502 63.5196 12.3004C63.2929 12.5067 63.0433 12.6863 62.7756 12.8356C62.5146 12.9814 62.2754 13.0531 62.0665 13.0531C61.8098 13.0531 61.6794 12.9268 61.6794 12.6702C61.6794 12.4941 61.7664 12.2719 61.9446 12.0046C62.1256 11.7259 62.3364 11.4677 62.5733 11.2346C62.8041 11.0013 63.0537 10.7874 63.3195 10.5949C63.5676 10.4143 63.7634 10.3229 63.9047 10.3229C63.9404 10.3222 63.976 10.3193 64.0113 10.3144C64.0461 10.3078 64.0635 10.2927 64.0635 10.2707C64.0635 10.2361 64.0352 10.1969 63.9838 10.1554C63.9361 10.1177 63.8771 10.097 63.8163 10.0967C63.6074 10.0967 63.3422 10.2054 63.0198 10.4275C62.6812 10.6641 62.3676 10.9345 62.0838 11.2346C61.8162 11.5099 61.5742 11.809 61.361 12.1283C61.2435 12.1741 61.069 12.245 60.8394 12.3352C60.7697 12.3591 60.6654 12.3983 60.5349 12.4505C60.3999 12.5005 60.252 12.557 60.0954 12.607C59.9389 12.657 59.78 12.7094 59.6213 12.7486C59.4823 12.7869 59.3391 12.8073 59.1949 12.8094C58.949 12.8094 58.8249 12.7028 58.8249 12.4941C58.8249 12.3788 58.8576 12.246 58.9229 12.098C58.986 11.9545 59.0557 11.8111 59.134 11.6717C59.2037 11.5376 59.2822 11.4082 59.369 11.2846C59.4514 11.1693 59.5084 11.0866 59.5452 11.0408C59.5689 10.9952 59.5908 10.9474 59.6125 10.9014C59.6369 10.8583 59.6497 10.8096 59.6496 10.76C59.6474 10.7275 59.6415 10.6954 59.632 10.6642C59.6191 10.623 59.5864 10.6013 59.5255 10.6013C59.3515 10.6013 59.1296 10.7079 58.862 10.9189C58.5943 11.13 58.3116 11.3604 58.0202 11.6193C57.7289 11.8782 57.4415 12.1088 57.1544 12.3199C56.8672 12.531 56.6193 12.6351 56.4104 12.6351C56.271 12.6351 56.1993 12.5831 56.1993 12.4758C56.1993 12.4063 56.2495 12.2966 56.3473 12.1518C56.4451 12.007 56.5584 11.8531 56.6802 11.6938C56.8021 11.5395 56.9128 11.3849 57.0152 11.2328C57.1108 11.0804 57.1631 10.9564 57.1631 10.865C57.1647 10.8117 57.1494 10.7592 57.1195 10.715C57.1044 10.6943 57.0844 10.6777 57.0612 10.6666C57.0381 10.6556 57.0125 10.6506 56.9869 10.6519C56.8716 10.6519 56.7368 10.7041 56.5844 10.802C56.4321 10.9 56.3343 10.9673 56.2857 11.0042C56.1117 11.098 55.8899 11.2328 55.6224 11.4066C55.355 11.5805 55.083 11.7569 54.8153 11.931C54.5477 12.105 54.3085 12.2637 54.0952 12.3965C53.8863 12.5292 53.7471 12.5989 53.677 12.5989C53.5835 12.5989 53.5376 12.5511 53.5376 12.4553C53.5376 12.3878 53.5898 12.2856 53.6942 12.1508C53.7985 12.016 53.9182 11.8766 54.051 11.7308C54.1792 11.594 54.2997 11.4502 54.4121 11.3001C54.5164 11.1607 54.5686 11.0434 54.5686 10.9522C54.5686 10.8238 54.5208 10.7584 54.4292 10.7584C54.3813 10.7582 54.3338 10.7678 54.2898 10.7867C54.2539 10.7984 54.219 10.813 54.1854 10.8303C53.9722 10.9825 53.7459 11.1262 53.5024 11.2674C53.2891 11.3959 53.0541 11.5307 52.7911 11.6787C52.5622 11.8053 52.3181 11.9254 52.0589 12.0389C52.055 12.0381 52.0511 12.0377 52.0471 12.0377C51.7185 12.1771 51.388 12.3073 51.0486 12.4226C50.7571 12.5162 50.4417 12.6052 50.1045 12.6925C49.7674 12.7797 49.4432 12.8273 49.1385 12.8273C48.7775 12.8273 48.5013 12.7476 48.3077 12.5901C48.1141 12.4326 48.0205 12.2117 48.0205 11.931C48.0205 11.7223 48.0988 11.5046 48.2553 11.2762C48.4162 11.0437 48.6113 10.8369 48.834 10.6627C49.0541 10.486 49.2926 10.3337 49.5453 10.2082C49.7891 10.0863 50.0022 10.0254 50.1762 10.0254C50.3153 10.0254 50.385 10.0668 50.3851 10.1495C50.3851 10.2648 50.3132 10.3996 50.1674 10.5519C50.0217 10.7043 49.9022 10.8064 49.809 10.8672C49.7373 10.9347 49.7025 11 49.7025 11.0565C49.7025 11.1414 49.7329 11.1826 49.7895 11.1826C49.8669 11.1827 49.944 11.171 50.0179 11.1479C50.0404 11.1369 50.0647 11.1302 50.0896 11.128C50.235 11.0374 50.3753 10.9386 50.5096 10.8321C50.6169 10.7362 50.7142 10.6297 50.7999 10.5141C50.8871 10.3988 50.9305 10.2813 50.9305 10.1638C50.9305 9.96587 50.8652 9.83763 50.7392 9.78087C50.6746 9.74318 50.6007 9.72434 50.5259 9.72651C50.2338 9.72651 49.9075 9.80556 49.5469 9.96368C49.1822 10.123 48.8379 10.3255 48.5214 10.5667C48.2094 10.8023 47.9342 11.0831 47.7049 11.3999C47.5277 11.6482 47.4229 11.8923 47.3877 12.1355C47.1356 12.2388 46.8799 12.336 46.6216 12.4244C46.3301 12.518 46.0124 12.607 45.6753 12.6943C45.3382 12.7815 45.0162 12.8291 44.7115 12.8291C44.5484 12.8291 44.3765 12.7892 44.1937 12.7138C44.0145 12.6375 43.9239 12.518 43.9239 12.3553C43.9239 12.1203 44.037 11.9333 44.2654 11.7942C44.4841 11.657 44.7236 11.5561 44.9745 11.4954C45.103 11.4737 45.1769 11.4325 45.203 11.3716C45.2254 11.3163 45.2372 11.2572 45.2378 11.1975C45.2378 11.1179 45.2249 11.0561 45.203 11.0235C45.1769 10.9886 45.1034 10.9647 44.9745 10.954H44.8071C44.7332 10.954 44.6527 10.9518 44.5721 10.9452C44.4914 10.9387 44.4128 10.9321 44.3437 10.9253C44.2746 10.9185 44.2328 10.9187 44.222 10.9187C44.1501 10.8968 44.1153 10.8556 44.1153 10.7947C44.1153 10.7598 44.1414 10.7252 44.185 10.6881C44.222 10.6662 44.3088 10.6206 44.4504 10.5511C44.592 10.4816 44.7461 10.4032 44.9224 10.3225C45.0932 10.2408 45.2682 10.1682 45.4467 10.1051C45.5788 10.0534 45.7139 10.0099 45.8513 9.97463C45.9028 9.96164 45.9551 9.95219 46.0079 9.94636C46.0557 9.94197 46.0905 9.93759 46.1122 9.93759C46.171 9.93759 46.1994 9.94855 46.1994 9.97463C46.1969 10.0007 46.1844 10.0248 46.1646 10.0419C46.1048 10.1226 46.0776 10.1987 46.0776 10.2704C46.0764 10.2963 46.0832 10.3219 46.0973 10.3438C46.1113 10.3656 46.1318 10.3825 46.1558 10.3922C46.2078 10.4156 46.2642 10.4275 46.3211 10.4271C46.406 10.4239 46.4898 10.407 46.5692 10.3771C46.6604 10.3408 46.7478 10.2955 46.8301 10.2421C46.9087 10.1948 46.9798 10.1362 47.0412 10.068C47.0999 10.0029 47.1304 9.94416 47.1304 9.88323C47.1304 9.75478 47.0782 9.66577 46.9781 9.6134C46.8799 9.56011 46.7696 9.53315 46.6579 9.53514C46.5533 9.53514 46.3705 9.56999 46.1138 9.63948C45.8571 9.70898 45.5745 9.80278 45.2655 9.92007C44.9564 10.0374 44.6434 10.1726 44.3279 10.3225C44.0439 10.4576 43.7686 10.6102 43.5035 10.7795C43.4636 10.8211 43.4259 10.8646 43.3904 10.91C43.3389 10.9707 43.3111 11.048 43.3121 11.1276C43.3136 11.1879 43.335 11.246 43.3729 11.2929C43.4143 11.3471 43.4991 11.3863 43.6274 11.408C43.8385 11.4429 43.9858 11.4678 44.0734 11.4777C44.1611 11.4877 44.2061 11.5082 44.2061 11.5299C44.2061 11.543 44.1561 11.5843 44.0559 11.6518C43.9564 11.7237 43.8472 11.8111 43.7254 11.9172C43.5978 12.0261 43.4825 12.1487 43.3816 12.2826C43.2808 12.4128 43.2257 12.5726 43.2249 12.7373C43.2249 12.9165 43.2968 13.0571 43.4426 13.168C43.5884 13.2789 43.7775 13.3333 44.0125 13.3333C44.2931 13.3333 44.639 13.2767 45.0546 13.1592C45.4702 13.0417 45.8711 12.9203 46.253 12.7916C46.6208 12.6692 46.9944 12.5328 47.3769 12.3802C47.3897 12.6771 47.4982 12.9071 47.7063 13.0722C47.9281 13.2463 48.1738 13.3333 48.4431 13.3333C48.7237 13.3333 49.0696 13.2767 49.485 13.1592C49.9004 13.0417 50.2987 12.9203 50.6858 12.7916C50.9431 12.7049 51.2051 12.6111 51.4718 12.5102C51.4771 12.5122 51.4828 12.5132 51.4885 12.5132C51.5953 12.4654 51.6952 12.424 51.7872 12.3892C51.883 12.3543 51.97 12.3197 52.0505 12.2826C52.157 12.2368 52.2895 12.1717 52.4529 12.0913C52.6164 12.0108 52.7706 11.9302 52.9161 11.8541C53.0617 11.778 53.1925 11.7127 53.3013 11.6518C53.4144 11.5952 53.4753 11.5647 53.4883 11.5647C53.5319 11.5647 53.5558 11.5847 53.5558 11.6191C53.5563 11.6377 53.551 11.6559 53.5406 11.6713C53.4797 11.7388 53.3971 11.8344 53.2837 11.9519C53.175 12.0694 53.0663 12.189 52.9619 12.3103C52.8602 12.4264 52.7665 12.5492 52.6814 12.6779C52.6017 12.7998 52.5573 12.9085 52.5573 13.0021C52.5567 13.0352 52.5635 13.0681 52.5773 13.0982C52.5911 13.1283 52.6115 13.155 52.637 13.1762C52.6877 13.2217 52.7537 13.2465 52.8219 13.2457C52.9002 13.2457 53.0328 13.2001 53.2135 13.1043C53.3963 13.0131 53.5962 12.8976 53.8182 12.7657C54.0403 12.6339 54.2751 12.483 54.5186 12.3199C54.7621 12.1568 54.9929 12.0066 55.2018 11.8738C55.4107 11.741 55.5975 11.6259 55.763 11.5301C55.9239 11.4365 56.0283 11.3907 56.0763 11.3907C56.1023 11.3907 56.1131 11.3973 56.1131 11.408C56.1131 11.4429 56.0719 11.5233 55.9892 11.6518C55.9066 11.7802 55.8196 11.9282 55.7282 12.0913C55.6368 12.2544 55.5453 12.4131 55.4627 12.572C55.3801 12.7309 55.341 12.8548 55.341 12.9503C55.341 13.0176 55.3823 13.0742 55.4627 13.1156C55.5432 13.157 55.6151 13.1766 55.676 13.1766C55.8608 13.1766 56.0653 13.1286 56.2871 13.0372C56.5267 12.9338 56.7574 12.8109 56.9767 12.6696C57.2205 12.5174 57.4662 12.3434 57.7251 12.1518C57.984 11.9602 58.2297 11.7689 58.4757 11.5839C58.5236 11.5392 58.5862 11.5137 58.6517 11.5122C58.6865 11.5122 58.7041 11.5339 58.7041 11.5839C58.5997 11.782 58.4952 11.9995 58.3974 12.2386C58.2996 12.4778 58.2494 12.6869 58.2494 12.8609C58.2494 13.1176 58.3821 13.2459 58.6517 13.2459C58.804 13.2459 58.9781 13.2198 59.1782 13.1676C59.374 13.1154 59.5785 13.0523 59.7918 12.9826C60.0005 12.9153 60.1964 12.8412 60.3768 12.7651C60.5572 12.6891 60.7054 12.6281 60.8229 12.5825L61.1706 12.4431C61.0433 12.6838 60.9795 12.8934 60.9794 13.0718C60.9794 13.2568 61.0272 13.3916 61.1208 13.4677C61.2144 13.5396 61.3428 13.5788 61.5059 13.5788C61.8801 13.5788 62.2543 13.4743 62.6348 13.2634C63.0109 13.0561 63.3558 12.7969 63.6594 12.4933C63.8227 12.6803 64.0555 12.7739 64.36 12.7739C64.5809 12.7739 64.8249 12.7407 65.092 12.6743L65.0864 12.6779C64.3339 13.1609 63.5929 13.6808 62.8633 14.2376C62.1324 14.788 61.4406 15.3667 60.7793 15.9627C60.6311 16.0954 60.487 16.2282 60.3469 16.361H18.0281C18.0281 16.361 14.2927 16.1126 12.0603 18.7737C10.942 20.1115 10.4115 20.7073 9.77941 22.9976C9.52989 23.8985 9.38811 26.5783 9.30746 29.1368C9.27301 29.1332 9.23816 29.1292 9.20391 29.1259C9.20211 29.1679 9.20212 29.189 9.20212 29.189L8.19149 47.4712C8.19149 47.4712 5.94263 48.4115 6.15551 51.1019C6.36839 53.7922 7.97304 54.6294 7.97304 54.6294L5.67181 55.7784C5.67181 55.7784 3.25289 56.7817 1.44671 58.5894C-1.02458 61.0559 0.344686 65.2229 0.686406 66.2303C1.37004 68.2524 2.06125 70.4273 2.06125 70.4273ZM63.7466 11.7778C63.7352 11.6899 63.7294 11.6013 63.7293 11.5126C63.726 11.3153 63.7716 11.1202 63.8619 10.9448C63.9489 10.7752 64.0557 10.6881 64.1861 10.6881C64.395 10.6881 64.4994 10.7708 64.4994 10.9339C64.4994 11.0645 64.4362 11.2276 64.308 11.4255C64.1665 11.6417 64.0016 11.8416 63.8163 12.0216C63.7844 11.9431 63.761 11.8613 63.7466 11.7778ZM61.1907 15.9699C61.7866 15.4256 62.4052 14.9063 63.0463 14.4122C63.6901 13.9142 64.3442 13.4531 65.0084 13.0288C65.674 12.6025 66.3046 12.2254 66.9002 11.8975C66.5391 12.4109 66.1214 12.9975 65.6472 13.6575C65.173 14.3174 64.6712 14.9945 64.1419 15.6887C63.9693 15.9144 63.7961 16.1385 63.6222 16.361H60.7741C60.9086 16.2307 61.0475 16.1004 61.1907 15.9699ZM60.8223 19.6625C60.3359 19.7021 59.8544 19.7882 59.3843 19.9195C58.9611 20.0405 58.5548 20.2144 58.1752 20.4373C58.2166 20.0491 58.3458 19.6404 58.5629 19.2112C58.8325 18.6782 59.1892 18.1401 59.633 17.597C59.7605 17.4408 59.8947 17.2842 60.0357 17.1274H63.0176C62.8583 17.3266 62.6982 17.5245 62.5373 17.7211C62.002 18.3802 61.4857 18.9704 60.9884 19.4916C60.9324 19.5499 60.8763 19.6075 60.8223 19.6625ZM13.5698 18.7737C15.0548 17.6251 16.2496 17.1274 18.0281 17.1274H59.5833C59.3892 17.3338 59.2042 17.5403 59.0285 17.7472C58.5193 18.3432 58.1168 18.9221 57.8189 19.4916C57.5306 20.0428 57.3821 20.5519 57.3736 21.0188C57.0706 21.3 56.8101 21.6236 56.6 21.9796C56.3532 22.3922 56.1678 22.8385 56.0496 23.3045C55.9271 23.7769 55.8657 24.263 55.8668 24.751C55.8674 25.1997 55.9133 25.6472 56.004 26.0866C56.0905 26.5211 56.224 26.945 56.4022 27.3506C56.5791 27.7518 56.8017 28.1314 57.0656 28.4817C57.3384 28.8464 57.6532 29.1779 58.0033 29.4694C59.2017 30.4678 60.8151 30.9667 62.8433 30.9659L64.8512 30.8615C65.1057 30.8615 65.2893 30.8791 65.4016 30.9115L66.6712 27.5833L66.5102 27.518C66.2713 28.038 65.9752 28.4926 65.6183 28.8863C65.2756 29.2707 64.8562 29.579 64.387 29.7914C63.9237 29.9979 63.4113 30.1002 62.8425 30.1002C61.8657 30.1002 60.997 29.8501 60.2364 29.3497C59.4752 28.8472 58.8879 28.175 58.4745 27.3332C58.0632 26.4935 57.8571 25.5886 57.8571 24.6291C57.8573 24.076 57.9469 23.5266 58.1224 23.002C58.2909 22.4948 58.5561 22.025 58.9034 21.6188C59.1133 21.5312 59.3135 21.422 59.5008 21.293C59.7777 21.103 60.0425 20.8961 60.2938 20.6733C60.6921 20.5484 61.1393 20.4851 61.6384 20.4851C62.4303 20.4851 63.1612 20.6751 63.8311 21.0552C64.5011 21.438 64.9783 21.9745 65.2627 22.6649L65.4021 22.6051L64.64 19.4759C64.5268 19.7065 64.3116 19.824 63.9918 19.824L63.4567 19.7738L61.638 19.6274C61.5376 19.6274 61.438 19.6289 61.3393 19.6318C61.7411 19.1917 62.1527 18.7005 62.5739 18.1582C62.8365 17.8216 63.102 17.478 63.3705 17.1272H98.6831C98.6831 17.1272 101.294 17.1511 102.721 19.0272C103.773 20.413 104.032 21.7004 104.032 24.249C104.032 26.793 103.695 36.1214 103.695 36.1214L103.289 36.1092L102.86 36.1214L103.813 55.3182C102.723 55.9399 96.58 59.6215 96.3735 63.7837C96.3703 63.8462 96.3679 63.908 96.3661 63.9693C95.5222 62.0897 94.0605 61.2342 94.0605 61.2342C92.2159 59.803 92.3921 57.2403 92.3921 57.2403C92.3921 57.2403 92.4138 54.3994 92.4138 54.1736C92.4138 53.943 92.2593 53.8993 92.2593 53.8993H91.996C91.7328 53.8993 91.7547 53.6036 91.7547 53.6036V53.2641C91.7547 53.0118 91.5131 53.0118 91.5131 53.0118H91.0193C91.0193 53.0118 90.7757 53.0118 90.7757 53.2641V53.6036C90.7757 53.6036 90.7974 53.8993 90.5368 53.8993H90.2715C90.2715 53.8993 90.1192 53.943 90.1192 54.1736C90.1192 54.3998 90.1409 57.2403 90.1409 57.2403C90.1409 57.2403 90.3149 59.803 88.4725 61.2342C88.4725 61.2342 86.4321 62.429 85.781 65.0948C85.4647 63.6628 84.0913 63.5523 83.6345 63.5489C83.1366 63.5446 83.1233 62.831 83.1233 62.831V60.0947C83.1233 59.4901 82.7925 59.4682 82.7925 59.4682H81.8986C81.8986 59.4682 81.5678 59.4901 81.5678 60.0947V62.8314C81.5678 62.8314 81.5527 63.545 81.0588 63.5493C80.6255 63.5525 79.3829 63.6507 78.9753 64.8563C78.8757 64.403 78.12 64.2975 78.12 64.2975C77.0432 63.9669 77.0801 63.31 77.0801 63.31V62.7524C77.0801 62.613 77.1519 62.4174 77.1519 62.4174C77.2563 62.2956 77.0801 62.2085 76.9562 62.1695C76.8323 62.1305 76.2339 62.1215 76.2339 62.1215C76.2339 62.1215 75.6335 62.1303 75.5117 62.1695C75.3898 62.2087 75.2116 62.2956 75.3159 62.4174C75.3159 62.4174 75.3876 62.6132 75.3876 62.7524V63.31C75.3876 63.31 75.4224 63.9671 74.3457 64.2975C74.3457 64.2975 73.5806 64.4046 73.4904 64.8664L73.5059 61.1607L73.4472 60.3211C73.3885 59.4638 72.488 59.2681 72.488 59.2681C71.2915 58.6906 71.3306 57.5495 71.3306 57.5495V56.5793C71.3306 56.3446 71.409 55.9965 71.409 55.9965C71.5265 55.7832 71.3306 55.6354 71.1957 55.5701C71.0564 55.5048 70.3908 55.4831 70.3908 55.4831C70.3908 55.4831 69.7253 55.5048 69.5881 55.5701C69.4509 55.6354 69.2554 55.7832 69.3728 55.9965C69.3728 55.9965 69.4511 56.3446 69.4511 56.5793V57.5495C69.4511 57.5495 69.4909 58.6896 68.2939 59.2681C68.2939 59.2681 67.813 59.3728 67.5302 59.7635C67.5249 59.4692 67.5183 59.1678 67.5103 58.8593C67.3928 54.0646 64.4518 51.028 64.1298 50.5168C63.8078 50.0056 63.834 49.4094 63.834 49.4094V47.6104C63.834 47.2276 63.6317 47.1922 63.6317 47.1922H62.7203C62.7203 47.1922 62.5158 47.227 62.5158 47.6104V49.4094C62.5158 49.4094 62.544 50.0068 62.222 50.5168C61.9 51.0268 58.9562 54.0646 58.8393 58.8593C58.8194 59.7038 58.8064 60.4922 58.804 61.2332C58.6293 61.1474 58.4436 61.0864 58.252 61.052C56.8642 60.5603 56.9076 59.5857 56.9076 59.5857V58.7635C56.9076 58.5633 56.9991 58.2718 56.9991 58.2718C57.1361 58.0892 56.9076 57.9586 56.7511 57.9064C56.59 57.8498 55.8152 57.8323 55.8152 57.8323C55.8152 57.8323 55.0407 57.8498 54.8818 57.9064C54.7225 57.9586 54.4947 58.0892 54.6317 58.2718C54.6317 58.2718 54.7231 58.5633 54.7231 58.7635V59.5857C54.7231 59.5857 54.7687 60.5603 53.3787 61.052C53.3787 61.052 52.3303 61.2129 52.2636 61.9439L52.1961 62.6574L52.2046 64.1922C51.3814 62.1576 49.8054 61.2346 49.8054 61.2346C47.9606 59.8034 48.1368 57.2407 48.1368 57.2407C48.1368 57.2407 48.1586 54.3998 48.1586 54.174C48.1586 53.9434 48.0042 53.8997 48.0042 53.8997H47.741C47.4777 53.8997 47.4996 53.604 47.4996 53.604V53.2645C47.4996 53.0122 47.258 53.0122 47.258 53.0122H46.762C46.762 53.0122 46.523 53.0122 46.523 53.2645V53.604C46.523 53.604 46.5443 53.8989 46.2795 53.8989H46.0162C46.0162 53.8989 45.8619 53.9426 45.8619 54.1732C45.8619 54.3994 45.8836 57.2399 45.8836 57.2399C45.8836 57.2399 46.0598 59.8026 44.2174 61.2338C44.2174 61.2338 43.3227 61.7575 42.5291 62.8852C42.6528 62.0865 42.7745 61.3417 42.8838 60.7423C43.3886 57.9743 41.8941 56.5047 41.8941 56.5047C41.8941 56.5047 40.6455 55.1864 39.7209 54.0638C38.9964 53.185 38.9747 51.5406 38.9747 51.5406C38.9747 51.5406 38.9964 48.1578 38.9747 47.8272C38.953 47.4967 38.7115 47.4334 38.7115 47.4334H37.8393C37.8393 47.4334 37.5955 47.4987 37.5738 47.8272C37.5521 48.1558 37.5738 51.5406 37.5738 51.5406C37.5738 51.5406 37.5521 53.185 36.8276 54.0638C35.903 55.1864 34.6545 56.5047 34.6545 56.5047C34.6545 56.5047 33.1609 57.9753 33.6669 60.7423C33.8292 61.6322 34.0188 62.842 34.2012 64.0741C34.0801 63.9758 33.9383 63.9061 33.7864 63.8703C32.9817 63.5181 33.0098 62.8175 33.0098 62.8175V62.2259C33.0098 62.0823 33.062 61.869 33.062 61.869C33.1402 61.7386 33.0098 61.6472 32.9162 61.6036C32.8226 61.5689 32.3767 61.5514 32.3767 61.5514C32.3767 61.5514 31.9265 61.5689 31.8351 61.6036C31.7437 61.6472 31.6132 61.7386 31.6915 61.869C31.6915 61.869 31.7437 62.0823 31.7437 62.2259V62.8175C31.7437 62.8175 31.7697 63.5181 30.9648 63.8703C30.9648 63.8703 30.463 63.9717 30.3441 64.3881L30.3493 63.2397L30.3035 62.5742C30.2557 61.8953 29.5553 61.7432 29.5553 61.7432C28.622 61.282 28.6525 60.3771 28.6525 60.3771V59.6112C28.6525 59.4242 28.7156 59.15 28.7156 59.15C28.807 58.9803 28.6525 58.863 28.5459 58.8115C28.4394 58.7599 27.9194 58.742 27.9194 58.742C27.9194 58.742 27.4017 58.7593 27.2929 58.8115C27.1842 58.8636 27.0319 58.9811 27.1255 59.15C27.1255 59.15 27.1852 59.4242 27.1852 59.6112V60.3771C27.1852 60.3771 27.2157 61.282 26.2825 61.7432C26.2825 61.7432 25.58 61.8953 25.5342 62.5742L25.4886 63.2397L25.4931 64.3349C24.9953 63.6196 24.1374 63.5513 23.8027 63.5487C23.3415 63.5444 23.3283 62.8308 23.3283 62.8308V60.0947C23.3283 59.4901 23.0195 59.4682 23.0195 59.4682H22.1831C22.1831 59.4682 21.8786 59.4901 21.8786 60.0947V62.8314C21.8786 62.8314 21.8657 63.545 21.4023 63.5493C21.105 63.5515 20.396 63.6057 19.8924 64.1189C20.1766 62.4238 20.1614 60.1614 18.5865 58.5894C16.7803 56.7817 14.3614 55.7784 14.3614 55.7784L12.0601 54.6294C12.0601 54.6294 13.6666 53.7944 13.8795 51.1019C14.0887 48.4115 11.8435 47.4712 11.8435 47.4712L10.9197 30.7592C11.0461 27.3539 11.3179 22.7561 11.8088 21.4629C12.0856 20.7362 13.0634 19.171 13.5698 18.7737Z" fill="white"/>
<path d="M25.4057 30.6197C25.0706 30.5829 24.827 30.4698 24.6659 30.2826C24.5061 30.095 24.4035 29.8654 24.3702 29.6212C24.3332 29.3624 24.3137 29.0238 24.3137 28.5989V22.0709C24.3137 21.6444 24.3439 21.3399 24.4007 21.1485C24.4551 20.9613 24.5942 20.8243 24.8161 20.7395C25.0379 20.6547 25.3838 20.6156 25.8582 20.6156H27.7072C28.1813 20.6156 28.5294 20.6569 28.7471 20.7395C28.9647 20.8222 29.1015 20.9613 29.1581 21.1485C29.2146 21.3399 29.2429 21.6444 29.2429 22.0709V28.5991C29.2429 29.0232 29.2256 29.3628 29.1864 29.6214C29.154 29.8659 29.0512 30.0956 28.8906 30.2828C28.7313 30.47 28.4858 30.5831 28.1508 30.6199V30.7483H32.1579V30.6048C31.6837 30.5265 31.3834 30.3349 31.2618 30.0239C31.1401 29.7128 31.0811 29.2713 31.0811 28.6927V22.017C31.0811 21.423 31.1427 20.9553 31.2659 20.6139C31.3922 20.2723 31.6879 20.0656 32.1579 19.9965V19.8372H21.416V19.9965C21.886 20.0662 22.1833 20.2686 22.3079 20.6035C22.4296 20.9365 22.4949 21.4084 22.4949 22.0174V28.6935C22.4949 29.2873 22.4352 29.7377 22.3123 30.0422C22.1895 30.3467 21.8904 30.5339 21.4162 30.6056V30.7491H25.4059L25.4057 30.6197Z" fill="white"/>
<path d="M35.6796 30.6051C35.4207 30.5768 35.2032 30.4811 35.027 30.3179C34.853 30.157 34.7638 29.9547 34.7638 29.7046C34.7638 29.4457 34.8552 29.0562 35.0314 28.5297L35.9951 25.8909C36.8346 25.9084 37.6069 26.0998 38.3074 26.4718C39.008 26.8438 39.556 27.3006 39.9541 27.851C40.3522 28.4014 40.5481 28.9299 40.5481 29.4367C40.5481 30.0892 40.2784 30.4786 39.7388 30.6049V30.7484H43.4999V30.6049C43.2042 30.5222 43.0039 30.4025 42.8973 30.248C42.7908 30.0887 42.656 29.8043 42.4885 29.3867L39.6496 21.2313C39.5518 20.9614 39.506 20.7484 39.506 20.5916C39.506 20.2784 39.6626 20.0785 39.9824 19.9914V19.8369H36.3105V19.9914C36.6476 20.0522 36.8195 20.2262 36.8195 20.5178C36.8195 20.7071 36.739 21.0283 36.5779 21.4814L33.9067 28.5291C33.6325 29.2426 33.3846 29.7538 33.1627 30.067C33.0496 30.2301 32.9365 30.3458 32.819 30.4149C32.7015 30.484 32.5297 30.5499 32.2969 30.6043V30.7478H35.6796V30.6051ZM37.7485 21.0863L39.5843 26.3877C39.164 25.9485 38.6492 25.6107 38.079 25.4C37.4931 25.1782 36.8716 25.0654 36.2452 25.0673L37.7485 21.0863Z" fill="white"/>
<path d="M47.9243 30.6051C47.448 30.5551 47.1493 30.3587 47.0282 30.0156C46.9063 29.6739 46.8454 29.1976 46.8454 28.5818V23.6831H51.7754V28.6973C51.7667 29.1541 51.7448 29.4913 51.7101 29.7109C51.6797 29.9286 51.5861 30.1222 51.4313 30.2962C51.2766 30.4702 51.0331 30.5724 50.6983 30.6051V30.7486H54.69V30.6051C54.3551 30.5551 54.1115 30.4354 53.957 30.2418C53.8068 30.0616 53.7097 29.8432 53.6764 29.611C53.6459 29.3826 53.6242 29.0367 53.6111 28.5798V21.895C53.6242 21.4511 53.6459 21.1249 53.6764 20.9117C53.7069 20.6984 53.8049 20.5006 53.9614 20.32C54.1179 20.1394 54.3596 20.0307 54.69 19.9916V19.8371H50.6979V19.9916C51.1679 20.0315 51.4614 20.2107 51.5813 20.5333C51.7012 20.8559 51.7661 21.3533 51.7748 22.0169V22.8732H46.8454V21.8942C46.8454 21.4874 46.8671 21.1675 46.902 20.9306C46.9373 20.7018 47.0368 20.4877 47.1891 20.3133C47.3458 20.1372 47.5894 20.0305 47.9243 19.9914V19.8369H43.9478V19.9914C44.2829 20.0414 44.5264 20.1609 44.681 20.3525C44.8358 20.545 44.9357 20.7758 44.9703 21.0204C45.005 21.2747 45.0247 21.6055 45.0247 22.0161V28.6921C45.0247 29.286 44.9659 29.7364 44.8441 30.0409C44.7222 30.3454 44.4243 30.5326 43.948 30.6043V30.7478H47.9245L47.9243 30.6051Z" fill="white"/>
<path d="M74.105 30.3831C74.7794 30.1417 75.2905 29.7863 75.6383 29.3172C75.9862 28.848 76.1602 28.281 76.1605 27.6161C76.1605 26.8548 75.8893 26.1818 75.347 25.5973C74.8047 25.0127 74.0694 24.5487 73.1412 24.2051C72.2144 23.8614 71.1869 23.6605 70.0587 23.6025V21.9841C70.0587 21.5795 70.0786 21.2575 70.1153 21.0205C70.1519 20.7835 70.2588 20.5723 70.4305 20.3853C70.6022 20.1983 70.8788 20.0676 71.2573 19.9916V19.837H67.1611V19.9916C67.6245 20.0566 67.9166 20.2509 68.0373 20.5744C68.1591 20.8986 68.2245 21.3794 68.2364 22.0168V28.6929C68.2235 29.3042 68.1581 29.7545 68.0407 30.0524C67.9232 30.3503 67.6296 30.5333 67.1597 30.605V30.7486H71.6343C72.6083 30.7486 73.4329 30.6289 74.105 30.3831ZM70.5092 29.8566C70.3068 29.7654 70.1806 29.6414 70.1308 29.4824C70.081 29.3235 70.0591 29.0758 70.0591 28.7429V24.3471C70.6698 24.3798 71.2397 24.4878 71.7689 24.6713C72.2996 24.8561 72.7501 25.0867 73.1197 25.3683C73.4893 25.6499 73.781 25.9774 73.9921 26.356C74.2008 26.7267 74.3095 27.1453 74.3075 27.5707C74.3075 28.058 74.1944 28.4844 73.969 28.8542C73.7436 29.224 73.4114 29.5048 72.9856 29.6983C72.5599 29.8919 72.0497 29.9898 71.4543 29.9898C71.0269 29.9873 70.7137 29.9429 70.5092 29.8566Z" fill="white"/>
<path d="M80.9158 30.605C80.4414 30.555 80.1413 30.3593 80.0217 30.0155C79.902 29.6718 79.8391 29.1953 79.8391 28.5798V24.96L81.416 23.7069C82.3297 24.7056 83.0751 25.6983 83.6523 26.685C83.922 27.1571 84.1917 27.7213 84.4616 28.3776C84.7315 29.034 84.8664 29.5604 84.8663 29.957C84.8663 30.3202 84.6703 30.5379 84.2832 30.6052V30.7488H89.6432V30.6052C89.3821 30.5769 89.1668 30.4811 88.9906 30.318C88.8144 30.1549 88.7295 29.9548 88.7295 29.7047C88.7295 29.4458 88.8166 29.0563 88.995 28.5298L89.9586 25.891C90.7984 25.9085 91.5684 26.0999 92.271 26.4719C92.9736 26.8439 93.5218 27.3007 93.9157 27.8511C94.314 28.4035 94.5117 28.93 94.5117 29.4368C94.5117 30.0894 94.2397 30.4787 93.7024 30.605V30.7486H97.4635V30.605C97.1648 30.5223 96.9657 30.4027 96.8589 30.2481C96.7544 30.0888 96.62 29.8045 96.4521 29.3869L93.6142 21.2314C93.5186 20.9616 93.4686 20.7485 93.4686 20.5918C93.4686 20.2786 93.6274 20.0785 93.9449 19.9916V19.837H90.2729V19.9916C90.6144 20.0523 90.784 20.2263 90.784 20.5179C90.784 20.7073 90.7014 21.0291 90.5405 21.4815L87.8725 28.529C87.6018 29.228 87.3585 29.7324 87.142 30.0472L87.1394 30.043C87.035 29.8674 86.944 29.6842 86.8674 29.4948C86.7782 29.2837 86.7131 29.125 86.6695 29.0248L86.354 28.2635C86.0235 27.452 85.6905 26.7365 85.349 26.1142C85.007 25.4863 84.6195 24.8843 84.1896 24.313C83.7369 23.7159 83.2341 23.1585 82.6865 22.6469L83.9361 21.6189C84.3885 21.2467 84.7454 20.9661 85.0085 20.7726C85.295 20.5682 85.6028 20.3953 85.9265 20.257C86.2769 20.1012 86.6531 20.0112 87.0361 19.9918V19.8372H83.0366V19.9918C83.1911 20.0091 83.3064 20.0439 83.3803 20.0983C83.4542 20.1527 83.4892 20.2485 83.4892 20.3898C83.4892 20.5725 83.3542 20.814 83.0868 21.1163C82.8031 21.4313 82.5008 21.7292 82.1817 22.0082C81.8511 22.2998 81.5423 22.5565 81.2639 22.7761L79.8391 23.9182V21.8949C79.8391 21.3011 79.8999 20.8465 80.0217 20.531C80.1411 20.2156 80.4414 20.035 80.9158 19.9916V19.837H76.9414V19.9916C77.4156 20.0633 77.7136 20.2648 77.8353 20.5963C77.9572 20.9291 78.0181 21.4011 78.0181 22.0168V28.6929C78.0181 29.0866 78.0008 29.402 77.9616 29.6348C77.9252 29.8641 77.8258 30.0787 77.6744 30.2547C77.5221 30.4339 77.2762 30.5506 76.9414 30.605V30.7486H80.9158V30.605ZM91.7142 21.0862L93.5481 26.3877C93.1273 25.9479 92.6116 25.6101 92.0404 25.3999C91.4552 25.1779 90.8342 25.0651 90.2083 25.0672L91.7142 21.0862Z" fill="white"/>
<path d="M22.3264 47.0573C21.9912 47.0224 21.7433 46.9093 21.5846 46.7221C21.4237 46.5352 21.3209 46.3053 21.2887 46.0608C21.2516 45.8043 21.2321 45.4648 21.2321 45.0384V38.5125C21.2321 38.084 21.2626 37.7793 21.3213 37.5945C21.3801 37.4097 21.5193 37.2703 21.7395 37.1833C21.957 37.1006 22.3051 37.0572 22.7794 37.0572C23.5015 37.0572 24.1586 37.1767 24.7509 37.4157C25.3403 37.6546 25.8232 37.9606 26.1996 38.3337C26.5738 38.7079 26.8313 39.1017 26.9719 39.515L27.1003 39.4823L26.3561 36.0691C26.291 36.1561 26.1908 36.2127 26.0574 36.2388C25.9204 36.2648 25.7288 36.2786 25.4799 36.2786H18.3345V36.4349C18.8044 36.5046 19.1002 36.7069 19.2242 37.0419C19.3483 37.3768 19.4114 37.849 19.4114 38.4581V45.1342C19.4114 45.7259 19.3505 46.1763 19.2286 46.4808C19.1067 46.7853 18.8104 46.9746 18.3345 47.0398V47.1883H22.3264V47.0573Z" fill="white"/>
<path d="M34.9288 36.4326C35.3139 36.4935 35.5063 36.7285 35.5063 37.1463C35.5063 37.4649 35.3932 37.8879 35.1714 38.4078L33.3815 42.6957L30.9102 38.4262C30.6752 38.008 30.5012 37.6909 30.4012 37.4667C30.2989 37.2477 30.2467 37.0469 30.2467 36.8621C30.2467 36.6184 30.362 36.477 30.5948 36.4334V36.2791H26.9663V36.4334C27.265 36.4732 27.534 36.6379 27.78 36.9338C28.0259 37.2297 28.3107 37.6605 28.6349 38.2216L32.5242 44.565C32.3112 45.074 32.0567 45.5025 31.7542 45.8528C31.4517 46.2031 31.1016 46.4054 30.7079 46.4597C29.7704 46.4597 29.2984 45.8745 29.2984 44.7042C29.3012 44.3312 29.342 43.9595 29.4201 43.5948L29.2504 43.5774L28.0279 46.5575C28.6871 47.158 29.4318 47.4575 30.262 47.456C30.4366 47.4571 30.6108 47.4403 30.782 47.406C31.1974 47.3493 31.5759 47.184 31.9196 46.9166C32.2745 46.6354 32.5809 46.298 32.8267 45.9179C33.0878 45.5176 33.3401 45.0479 33.5834 44.4996L36.4178 38.1585C36.6659 37.6059 36.8877 37.1927 37.0791 36.9165C37.2705 36.6403 37.5359 36.477 37.8756 36.4334V36.2791H34.9288V36.4326Z" fill="white"/>
<path d="M46.8815 38.1425C46.8815 37.6335 46.7597 37.2434 46.5161 36.9722C46.2725 36.701 45.965 36.5168 45.5937 36.4196C45.2219 36.3267 44.7767 36.2795 44.258 36.2782H38.1802V36.4347C38.5086 36.4745 38.7523 36.5871 38.9088 36.785C39.0647 36.9771 39.1654 37.208 39.2004 37.4529C39.2374 37.7074 39.2569 38.0402 39.2569 38.458V45.134C39.2569 45.7322 39.196 46.1818 39.0741 46.4828C38.9524 46.7851 38.6543 46.9745 38.1802 47.0404V47.1881H42.1522V47.0402C41.678 46.9968 41.3821 46.8012 41.2604 46.4573C41.1388 46.1134 41.0776 45.6351 41.0776 45.0215V42.1625C41.9475 41.9207 42.8043 41.6339 43.6445 41.3032C44.4569 40.9892 45.2147 40.5487 45.8896 39.9981C46.5487 39.4564 46.8815 38.8363 46.8815 38.1425ZM41.0776 41.3685V38.6404C41.0776 38.1823 41.1017 37.853 41.1517 37.655C41.1995 37.4527 41.3321 37.3069 41.552 37.2046C41.7718 37.1022 42.1327 37.0568 42.6395 37.0568C43.4097 37.0568 44.0014 37.1546 44.4104 37.3504C44.8236 37.5483 45.0277 37.903 45.0277 38.4141C45.028 39.5478 43.7113 40.5326 41.0776 41.3685Z" fill="white"/>
<path d="M52.4243 37.031C52.4243 36.7175 52.5836 36.5198 52.9006 36.4336V36.2792H49.2287V36.4336C49.5672 36.4945 49.7377 36.6686 49.7377 36.9601C49.7377 37.1493 49.658 37.4669 49.4963 37.9215L46.8249 44.971C46.5509 45.6823 46.3029 46.1949 46.0809 46.5089C45.9678 46.6698 45.8547 46.7851 45.7394 46.857C45.6241 46.9289 45.4501 46.9896 45.2173 47.0396V47.1882H48.5978V47.0402C48.339 47.0185 48.1215 46.9229 47.9475 46.7574C47.7682 46.5981 47.682 46.392 47.682 46.1441C47.682 45.8852 47.7734 45.4937 47.9518 44.9716L48.9133 42.3328C49.753 42.3482 50.5238 42.5411 51.2257 42.9115C51.9275 43.2819 52.4764 43.7416 52.8723 44.2907C53.2684 44.8409 53.4685 45.3718 53.4685 45.8787C53.4685 46.5312 53.198 46.9183 52.6571 47.0402V47.1882H56.4182V47.0402C56.1225 46.962 55.9224 46.8445 55.8178 46.6877C55.7112 46.5312 55.5742 46.2441 55.4067 45.8287L52.5678 37.671C52.4727 37.4006 52.4243 37.1897 52.4243 37.031ZM50.9972 41.8386C50.4111 41.6177 49.7898 41.5048 49.1634 41.5056L50.6689 37.5246L52.5025 42.8283C52.0824 42.3884 51.5676 42.05 50.9972 41.8386Z" fill="white"/>
<path d="M59.7333 47.0396C59.2156 46.983 58.8416 46.7608 58.6066 46.3739C58.376 45.9911 58.2585 45.556 58.2585 45.0687C58.2602 44.3736 58.3228 43.6799 58.4455 42.9957C58.5669 42.3223 58.7415 41.6596 58.9676 41.0139C59.1707 40.4316 59.4105 39.8627 59.6855 39.3107C59.9378 38.8104 60.1967 38.3747 60.4622 38.0119C60.9341 37.3747 61.5657 37.056 62.3568 37.056C62.7658 37.056 63.0661 37.1104 63.2618 37.2213C63.4576 37.3322 63.5795 37.4824 63.6338 37.6738C63.6882 37.8651 63.7135 38.1437 63.7135 38.5113V45.0375C63.7135 45.6727 63.6525 46.1526 63.5265 46.4798C63.4046 46.806 63.1001 46.9996 62.6128 47.0573V47.1881H66.6113V47.0402C66.137 46.9685 65.8369 46.7749 65.7172 46.4661C65.5975 46.1572 65.5344 45.7111 65.5344 45.1346V38.458C65.5344 37.8641 65.5968 37.3957 65.7216 37.0527C65.8456 36.7111 66.1414 36.5044 66.6113 36.4353V36.2788H59.3201V36.4347C59.6587 36.4762 59.8313 36.6892 59.8313 37.0636C59.8345 37.3071 59.7606 37.5454 59.6202 37.7445C59.0642 38.5485 58.5988 39.4116 58.2324 40.3179C57.8665 41.2117 57.5726 42.1333 57.3536 43.074C57.1359 43.9942 56.9872 44.8079 56.9076 45.5148C56.8279 46.2195 56.7881 46.7787 56.7881 47.1875H59.7335L59.7333 47.0396Z" fill="white"/>
<path d="M73.6252 40.6441C72.6964 40.3026 71.6694 40.1003 70.5405 40.0437V38.4261C70.5405 38.0193 70.5622 37.6995 70.5971 37.4625C70.6369 37.2235 70.7406 37.0145 70.9147 36.8253C71.0887 36.6403 71.3628 36.5098 71.7391 36.4336V36.2792H67.6431V36.4336C68.1085 36.4989 68.3998 36.6924 68.5219 37.0166C68.6439 37.3408 68.7088 37.8194 68.7198 38.4546V45.1307C68.7088 45.7442 68.6459 46.1967 68.5262 46.4924C68.4066 46.7881 68.1128 46.9755 67.6431 47.0406V47.1882H72.1199C73.0901 47.1882 73.9145 47.0663 74.5866 46.8228C75.2611 46.5838 75.7731 46.2277 76.1225 45.7546C76.4706 45.287 76.6447 44.7207 76.6447 44.0557C76.6447 43.2944 76.3727 42.6244 75.831 42.0369C75.2893 41.4494 74.5519 40.9878 73.6252 40.6441ZM74.4518 45.2886C74.2234 45.6606 73.8972 45.9434 73.4686 46.1347C73.0423 46.3305 72.5309 46.4263 71.9371 46.4263C71.5108 46.4263 71.1954 46.3821 70.991 46.2937C70.7884 46.2044 70.6624 46.0804 70.6144 45.9215C70.5664 45.7626 70.5405 45.5148 70.5405 45.1799V40.7855C71.154 40.8182 71.7239 40.9262 72.2503 41.1097C72.7812 41.2945 73.2337 41.5279 73.6034 41.8067C73.9732 42.0855 74.2648 42.4159 74.4735 42.7944C74.6845 43.1643 74.7944 43.5833 74.7921 44.0092C74.7911 44.4901 74.678 44.921 74.4518 45.2886Z" fill="white"/>
<path d="M84.1755 36.4325C84.6453 36.4724 84.939 36.6502 85.0587 36.9744C85.1784 37.2986 85.2415 37.7944 85.2523 38.4536V39.315H80.3234V38.3339C80.3234 37.9292 80.3433 37.6072 80.38 37.3725C80.4143 37.1415 80.5148 36.9254 80.6693 36.7504C80.8215 36.5763 81.0652 36.4716 81.4002 36.4317V36.2774H77.4258V36.4317C77.7607 36.4819 78.0051 36.6014 78.1588 36.7902C78.3122 36.9842 78.4113 37.2154 78.446 37.4603C78.4858 37.7124 78.5025 38.0453 78.5025 38.4522V45.1283C78.5025 45.7242 78.4416 46.1745 78.3199 46.4792C78.198 46.7837 77.9017 46.9731 77.4258 47.0382V47.1881H81.4002V47.0402C80.926 46.9968 80.6257 46.8012 80.504 46.4573C80.3824 46.1134 80.3236 45.6392 80.3236 45.0215V40.1227H85.2529V45.1348C85.2421 45.596 85.2202 45.9314 85.1878 46.1486C85.1559 46.3679 85.0587 46.5726 84.909 46.7359C84.7546 46.9099 84.5107 47.0121 84.1759 47.0404V47.1881H88.1655V47.0402C87.8305 46.9968 87.5868 46.8727 87.4346 46.6835C87.2857 46.5023 87.188 46.2844 87.1518 46.0527C87.1214 45.8221 87.0995 45.4783 87.0909 45.0215V38.3345C87.0995 37.893 87.1214 37.5644 87.1518 37.3512C87.1865 37.1381 87.2823 36.9423 87.4388 36.7595C87.5955 36.5803 87.8349 36.4724 88.1655 36.4331V36.2788H84.1755V36.4325Z" fill="white"/>
<path d="M90.9997 36.7135C90.5582 37.0029 90.3383 37.4205 90.3383 37.9709C90.3351 38.2726 90.4013 38.571 90.5319 38.8431C90.6614 39.108 90.8384 39.3469 91.054 39.548C91.2651 39.7468 91.4962 39.9232 91.7437 40.0744C91.9826 40.2201 92.355 40.4312 92.8552 40.7052C92.3348 41.3802 91.8495 42.0816 91.4015 42.8067C90.9571 43.5216 90.5533 44.2609 90.192 45.0211C89.82 45.7846 89.5547 46.3002 89.3914 46.5569C89.2281 46.8136 89.033 46.9751 88.7998 47.0398V47.1881H92.2957V47.0402C91.8866 46.9619 91.6821 46.7445 91.6821 46.3964C91.6821 46.205 91.7301 45.9961 91.8279 45.7633C92.0107 45.3326 92.2325 44.8823 92.4914 44.4082C92.7503 43.9382 93.0438 43.4444 93.3724 42.9376C93.701 42.4242 94.0598 41.9108 94.4491 41.3843L96.3766 42.05V45.0215C96.3766 45.6612 96.3156 46.1405 96.1938 46.4595C96.0721 46.7793 95.7718 46.9751 95.2911 47.0402V47.1881H99.272V47.0402C98.9391 46.9902 98.6945 46.8727 98.541 46.6965C98.388 46.5202 98.2885 46.3039 98.2542 46.073C98.2144 45.834 98.1977 45.5154 98.1977 45.1159V38.458C98.1977 37.8532 98.2586 37.3826 98.3783 37.0417C98.498 36.7008 98.7981 36.4978 99.2724 36.4347V36.2782H92.8552C92.0569 36.2782 91.4392 36.4218 90.9997 36.7135ZM95.8136 37.116C96.0661 37.1572 96.2205 37.2595 96.2836 37.427C96.3467 37.5945 96.3772 37.936 96.3772 38.4472V41.2738C95.4137 40.997 94.4869 40.6055 93.6167 40.1078C92.7356 39.6033 92.2955 39.0196 92.2963 38.3566C92.2963 37.8237 92.4696 37.4742 92.8162 37.3081C93.1598 37.1407 93.6427 37.0574 94.2649 37.058C95.0457 37.057 95.5635 37.0743 95.8136 37.1158V37.116Z" fill="white"/>
<path d="M31.9388 13.4923C32.2696 13.8185 32.6698 14.0774 33.1376 14.2624C33.6054 14.4474 34.1229 14.543 34.6973 14.543C35.724 14.543 36.655 14.3675 37.4904 14.0165C38.319 13.6708 39.094 13.2085 39.792 12.6438C40.5033 12.0654 41.1574 11.42 41.7453 10.7166C42.3457 9.99873 42.9316 9.27214 43.5031 8.53679C43.6096 8.39541 43.7162 8.25621 43.8293 8.11482C43.9424 7.97344 44.047 7.84061 44.1513 7.71237C44.3849 7.84496 44.6351 7.94588 44.8953 8.01247C45.1799 8.08247 45.4722 8.11685 45.7653 8.11482C46.3882 8.11704 47.0068 8.01008 47.5928 7.79879C48.1845 7.58996 48.7101 7.31004 49.1698 6.95903C49.631 6.61094 49.9986 6.20775 50.2728 5.74947C50.5468 5.29484 50.686 4.82288 50.686 4.3334C50.686 3.80688 50.5279 3.33705 50.2118 2.92391C49.8964 2.5105 49.4788 2.15803 48.9589 1.87306C48.4389 1.5881 47.8451 1.36666 47.1758 1.21452C46.4935 1.06297 45.7965 0.987104 45.0976 0.988295C44.1513 0.988295 43.1421 1.09702 42.0673 1.32105C39.8728 1.78143 37.773 2.61353 35.8588 3.78139C34.8974 4.37111 34.049 5.03025 33.3137 5.75883C32.5784 6.49205 31.9911 7.28681 31.5517 8.1431C31.1166 8.99939 30.8945 9.90726 30.8945 10.8665C30.8945 11.3908 30.9859 11.8773 31.1685 12.3262C31.3393 12.7653 31.6019 13.1629 31.9388 13.4923ZM32.2435 8.3962C32.5479 7.6979 32.9714 7.01771 33.514 6.35564C34.0583 5.6965 34.7065 5.07512 35.4588 4.49152C36.2113 3.90625 37.0423 3.40164 37.9537 2.96872C38.8652 2.53579 39.8354 2.19566 40.8709 1.94415C41.902 1.69191 42.9723 1.56646 44.0818 1.56778C44.8213 1.56471 45.5587 1.64616 46.2797 1.81053C46.9866 1.97383 47.6087 2.19865 48.146 2.48501C48.6833 2.77137 49.1125 3.1099 49.4338 3.50061C49.7536 3.89238 49.9139 4.31588 49.9145 4.77111C49.9154 5.16553 49.8253 5.55484 49.6513 5.90878C49.4774 6.26981 49.2251 6.58585 48.8987 6.85508C48.5723 7.12431 48.1852 7.33301 47.7437 7.48376C47.3022 7.6345 46.8018 7.70779 46.2536 7.69683C45.9623 7.69673 45.6719 7.66393 45.3879 7.59906C45.1008 7.536 44.818 7.41054 44.5396 7.22269C44.9833 6.68761 45.4272 6.1806 45.8708 5.70646C46.3022 5.2468 46.77 4.82272 47.2696 4.43835C47.411 4.3338 47.4807 4.26211 47.4807 4.22726C47.4807 4.18146 47.4285 4.15976 47.324 4.15976C47.2194 4.15976 47.1326 4.17509 47.0607 4.20974C46.5155 4.58216 46.0085 5.00775 45.5472 5.48024C45.0816 5.95662 44.6402 6.45616 44.2248 6.97695C44.166 6.91821 44.1007 6.85289 44.0312 6.77682C43.9597 6.69876 43.8956 6.61423 43.8396 6.52431C43.79 6.44115 43.734 6.36193 43.6722 6.28734C43.6515 6.2574 43.6239 6.23287 43.5917 6.21582C43.5596 6.19877 43.5238 6.1897 43.4874 6.18936C43.396 6.18936 43.3082 6.22919 43.2349 6.31124C43.1616 6.39328 43.1218 6.48747 43.1218 6.59182C43.1218 6.72246 43.1827 6.86583 43.3046 7.02992C43.4264 7.19401 43.6003 7.35173 43.8223 7.50407C43.2393 8.26318 42.6606 9.02747 42.0862 9.79694C41.5371 10.5425 40.9252 11.2397 40.2574 11.8811C39.6214 12.4914 38.895 12.9999 38.1039 13.3886C37.3141 13.7736 36.4055 13.9661 35.3781 13.9661C34.8669 13.9661 34.3884 13.8878 33.9511 13.7311C33.5284 13.581 33.1412 13.3455 32.8134 13.0393C32.4913 12.7347 32.2404 12.3664 32.0607 11.9343C31.8781 11.5035 31.7889 11.0141 31.7889 10.466C31.7889 9.78539 31.9418 9.09796 32.2435 8.3962Z" fill="white"/>
<path d="M71.3211 13.2377C71.4206 13.3247 71.5821 13.3703 71.804 13.3703C71.9541 13.3703 72.126 13.3399 72.3195 13.2811C72.5131 13.2224 72.7025 13.157 72.8873 13.082C73.0669 13.0092 73.2427 12.9272 73.4138 12.8362C73.5476 12.7672 73.6762 12.6887 73.7987 12.6012C73.7446 12.6706 73.7061 12.7507 73.6858 12.8362C73.6701 12.8959 73.6606 12.9572 73.6575 13.0188C73.6575 13.1712 73.7814 13.2473 74.0273 13.2473C74.1795 13.2473 74.3535 13.2212 74.5537 13.169C74.7494 13.1168 74.9539 13.0537 75.165 12.984C75.3761 12.9143 75.5718 12.8426 75.7523 12.7665C75.9327 12.6905 76.0808 12.6295 76.1983 12.5839L76.3722 12.5142H76.374L76.9863 12.2673C76.9937 12.2624 77.0004 12.2566 77.0062 12.25C77.0976 12.2078 77.2054 12.1542 77.33 12.0907C77.4865 12.0078 77.6389 11.9296 77.7912 11.8535C77.9436 11.7774 78.074 11.7121 78.1871 11.6512C78.2958 11.5946 78.3568 11.5641 78.3699 11.5641C78.4177 11.5641 78.4394 11.5841 78.4394 11.6185C78.4404 11.6279 78.4394 11.6375 78.4364 11.6465C78.4334 11.6555 78.4285 11.6637 78.4221 11.6707C78.3655 11.7382 78.2785 11.8318 78.1698 11.9427C78.0543 12.0547 77.9459 12.1738 77.845 12.2992C77.7455 12.4218 77.6546 12.5512 77.573 12.6865C77.4969 12.8125 77.4599 12.93 77.4599 13.0366C77.4599 13.165 77.5296 13.2303 77.6688 13.2303C77.6979 13.2298 77.727 13.232 77.7558 13.2369C77.7819 13.2433 77.8123 13.2303 77.8516 13.1933C77.895 13.1584 77.9511 13.0911 78.0308 12.9932C78.1047 12.8936 78.21 12.7365 78.3353 12.5276C78.3831 12.4232 78.4701 12.2992 78.5985 12.16C78.6204 12.1405 78.6382 12.1169 78.6507 12.0905C78.7505 12.0898 78.8502 12.0839 78.9494 12.0729C79.2519 12.0622 79.5454 12.049 79.824 12.0383C80.1026 12.0275 80.3503 12.0273 80.5592 12.0383H80.6833C80.6222 12.1488 80.5747 12.2664 80.5419 12.3884C80.5079 12.5199 80.4903 12.655 80.4895 12.7908C80.4872 12.9105 80.5305 13.0266 80.6106 13.1156C80.6933 13.2027 80.8456 13.2462 81.0674 13.2461C81.2198 13.2461 81.3938 13.22 81.594 13.1678C81.7897 13.1156 81.9942 13.0525 82.2073 12.9828C82.4162 12.9155 82.6119 12.8414 82.7926 12.7653C82.9732 12.6893 83.1209 12.6283 83.2384 12.5827L84.026 12.2671C84.0607 12.2542 84.0782 12.2171 84.0782 12.1606C84.0782 12.0809 84.0521 12.0389 83.9912 12.0389C83.9432 12.0496 83.8737 12.0801 83.7823 12.1257C83.654 12.1855 83.4778 12.2542 83.2559 12.3346C83.1862 12.3585 83.0819 12.3977 82.9513 12.4499C82.8165 12.4999 82.6685 12.5564 82.512 12.6064C82.3555 12.6564 82.1987 12.7088 82.0398 12.748C81.9001 12.7863 81.7561 12.8068 81.6113 12.8088C81.3655 12.8088 81.2415 12.7022 81.2415 12.4935C81.2415 12.3782 81.2763 12.2454 81.3395 12.0974C81.4024 11.9539 81.4721 11.8105 81.5503 11.6711C81.6202 11.5369 81.6988 11.4075 81.7855 11.2836C81.8682 11.1683 81.9249 11.0856 81.9618 11.0398L82.0291 10.9004C82.0535 10.8573 82.0663 10.8086 82.0661 10.759C82.0639 10.7266 82.0581 10.6944 82.0488 10.6632C82.0378 10.622 82.0008 10.6003 81.942 10.6003C81.8377 10.6003 81.7094 10.6591 81.5593 10.7678C81.4092 10.8765 81.2208 11.092 80.9981 11.4072C80.9633 11.467 80.9153 11.5488 80.8587 11.651C80.8324 11.7124 80.8026 11.7722 80.7693 11.8302C80.7121 11.8183 80.6539 11.8116 80.5955 11.8103C80.3018 11.7993 80.0102 11.7904 79.7193 11.7862C79.4279 11.7774 79.1647 11.782 78.9319 11.7928H78.9144C78.9275 11.7666 78.9453 11.7431 78.9667 11.7233C79.095 11.5709 79.2081 11.4295 79.3083 11.2925C79.4078 11.1597 79.4584 11.0444 79.4584 10.954C79.4584 10.8255 79.4104 10.7602 79.3168 10.7602C79.2683 10.7604 79.2203 10.77 79.1754 10.7885C79.132 10.8038 79.0958 10.8212 79.0711 10.8321C78.9676 10.9122 78.8601 10.9869 78.7491 11.0561C78.636 11.128 78.5187 11.1975 78.388 11.2692C78.1791 11.3977 77.9442 11.5325 77.6789 11.6804C77.4513 11.8075 77.2058 11.9278 76.9463 12.0417C76.8769 12.0654 76.8092 12.0937 76.7436 12.1263C76.6749 12.1532 76.5866 12.1888 76.4785 12.232C76.4333 12.2482 76.3867 12.2653 76.3391 12.283L76.329 12.2914L76.2172 12.3352C76.1475 12.3591 76.0454 12.3983 75.9106 12.4505C75.7758 12.5027 75.63 12.557 75.4725 12.607C75.315 12.657 75.157 12.7094 74.9981 12.7486C74.8592 12.7869 74.7159 12.8073 74.5718 12.8093C74.3587 12.8093 74.2544 12.7333 74.2544 12.5833C74.2558 12.5171 74.2683 12.4517 74.2912 12.3896C74.322 12.3038 74.3629 12.2221 74.4131 12.146C74.4131 12.0851 74.3892 12.0437 74.3414 12.022C74.3097 12.0024 74.2739 11.9905 74.2368 11.9871C74.1912 11.9871 74.1434 12.0088 74.0974 12.0546C74.0496 12.1046 74.0148 12.1395 73.9931 12.1612C73.9582 12.196 73.88 12.2504 73.7559 12.3264C73.6235 12.4078 73.4862 12.4809 73.3449 12.5455C73.1926 12.615 73.0358 12.6803 72.8706 12.7369C72.7097 12.7978 72.5617 12.8283 72.4334 12.8283C72.3097 12.8297 72.1882 12.7957 72.0832 12.7303C71.9786 12.6672 71.9264 12.5694 71.9264 12.4409C71.9264 12.2669 72.0222 12.0626 72.2136 11.8298C72.4208 11.5806 72.6534 11.3537 72.9076 11.1527C73.1687 10.943 73.4508 10.7608 73.7493 10.6091C74.0387 10.4655 74.2846 10.3914 74.4826 10.3914C74.6108 10.3914 74.6956 10.4046 74.7371 10.435C74.7558 10.4479 74.7711 10.4651 74.7817 10.4852C74.7923 10.5053 74.7979 10.5276 74.798 10.5503C74.798 10.6069 74.7675 10.6808 74.7022 10.7678C74.6509 10.8375 74.5957 10.9043 74.5369 10.9679C74.4411 11.0854 74.3955 11.1724 74.3955 11.2334C74.3954 11.2558 74.4009 11.2779 74.4116 11.2976C74.4222 11.3174 74.4377 11.3341 74.4565 11.3463C74.4977 11.3748 74.5282 11.3899 74.5543 11.3899C74.5911 11.3857 74.6268 11.3738 74.6588 11.355C74.8297 11.2471 74.9906 11.1241 75.1395 10.9874C75.307 10.8353 75.394 10.6654 75.394 10.4784C75.394 10.35 75.3504 10.25 75.2721 10.1825C75.1895 10.1108 75.0481 10.076 74.8502 10.076C74.4543 10.076 74.0387 10.1825 73.608 10.3914C73.1818 10.5969 72.7816 10.8525 72.4159 11.1527C72.0527 11.4514 71.7568 11.7641 71.5218 12.0905C71.2868 12.4168 71.1739 12.6909 71.1739 12.9149C71.1727 12.9763 71.1853 13.0372 71.2108 13.093C71.2363 13.1489 71.2739 13.1983 71.3211 13.2377ZM78.1612 12.0737H78.1786C78.1539 12.0956 78.1473 12.0956 78.1612 12.0737Z" fill="white"/>
<path d="M86.1235 12.562C86.2891 12.5616 86.4508 12.5121 86.5883 12.4197C86.7258 12.3274 86.8328 12.1964 86.8958 12.0432C86.9588 11.8901 86.9751 11.7217 86.9424 11.5593C86.9097 11.3969 86.8297 11.2479 86.7123 11.131C86.595 11.0142 86.4456 10.9347 86.2831 10.9027C86.1206 10.8707 85.9523 10.8876 85.7994 10.9512C85.6465 11.0149 85.5159 11.1224 85.4241 11.2602C85.3323 11.3981 85.2835 11.5601 85.2837 11.7257C85.2835 11.8358 85.3052 11.9449 85.3474 12.0467C85.3895 12.1485 85.4514 12.2409 85.5295 12.3186C85.6076 12.3964 85.7002 12.4579 85.8022 12.4997C85.9041 12.5415 86.0133 12.5626 86.1235 12.562Z" fill="white"/>
<path d="M55.6712 77.7089C56.6219 75.9382 55.7321 73.8238 53.9526 72.8231C51.4945 71.4397 48.3533 72.7275 46.4955 74.6243C45.2533 75.886 43.9938 77.1565 42.2601 77.6655C41.3922 77.9222 40.4611 77.7177 39.8694 77.1782C39.9676 77.0334 40.0306 76.8677 40.0534 76.6942C40.0762 76.5207 40.0581 76.3443 40.0006 76.179C39.9431 76.0138 39.8478 75.8642 39.7223 75.7423C39.5968 75.6205 39.4445 75.5296 39.2776 75.477C39.3821 74.881 39.8129 74.4285 40.4416 74.2806C40.7831 74.2023 41.0507 74.3588 40.9135 74.646C40.857 74.7593 40.7831 74.8419 40.7199 74.9375C40.3872 75.4292 40.6917 76.1339 41.2789 76.2646C41.448 76.3034 41.6247 76.292 41.7874 76.2319C41.9501 76.1717 42.0917 76.0655 42.195 75.926C42.5148 75.4866 42.4387 74.7511 42.1972 74.2945C41.5185 72.9979 39.1952 73.1764 38.4687 74.8123C38.3449 75.0899 38.2644 75.3849 38.2297 75.6869C38.0114 75.8667 37.87 76.1232 37.8344 76.4038H34.7703C34.1331 76.3604 34.8161 76.1905 34.8161 76.1905C36.4216 75.7337 36.0408 74.2987 36.0408 74.2987C34.5312 74.0854 33.3216 75.9171 33.3216 75.9171C32.7517 76.634 32.2251 75.9302 32.2251 75.9302C31.4161 74.5596 30.4632 74.2376 30.2392 74.2073C30.0151 74.177 29.6517 74.0376 29.6517 74.0376C29.6844 75.9294 31.2898 76.2737 31.2898 76.2737C31.6096 76.3391 31.2898 76.4131 31.2898 76.4131H29.1754C28.6178 76.3524 29.0927 76.2174 29.0927 76.2174C29.5778 76.1087 29.7933 75.2603 28.6359 74.9079C27.4743 74.5598 27.6352 73.6115 27.6352 73.6115C25.6468 76.5133 28.649 76.2998 28.649 76.2998L28.6664 76.4044H11.7931C11.781 76.0893 11.6518 75.7901 11.4308 75.5653C11.2098 75.3405 10.9129 75.2062 10.5981 75.1888C10.2833 75.1714 9.97334 75.272 9.72885 75.4711C9.48436 75.6701 9.32294 75.9532 9.27617 76.265C9.21424 76.265 9.1535 76.265 9.09376 76.265C9.04879 76.083 8.9454 75.9208 8.79943 75.8031C8.65347 75.6855 8.47297 75.619 8.28558 75.6137C8.09819 75.6084 7.91424 75.6647 7.7619 75.774C7.60956 75.8832 7.49723 76.0394 7.44211 76.2186C7.3517 76.2133 7.26541 76.2076 7.18323 76.2015C7.14172 76.1391 7.08691 76.0867 7.02275 76.048C6.95859 76.0093 6.88665 75.9853 6.81212 75.9777C6.73758 75.97 6.66228 75.979 6.59161 76.0039C6.52095 76.0289 6.45668 76.0691 6.40341 76.1218C5.79465 76.0348 5.67198 75.9406 5.67198 75.9406C4.097 75.6021 2.01721 73.9436 2.01721 73.9436C2.10464 74.6838 2.68074 75.3914 3.09753 75.8155C2.97468 75.8309 2.85805 75.8784 2.75947 75.9533C2.66089 76.0282 2.58385 76.1278 2.53617 76.2421H2.42365C2.37841 76.1338 2.30217 76.0414 2.20451 75.9763C2.10686 75.9113 1.99216 75.8766 1.87483 75.8766C1.75751 75.8766 1.6428 75.9113 1.54515 75.9763C1.44749 76.0414 1.37125 76.1338 1.32601 76.2421H1.2597C1.20731 76.1147 1.11233 76.0094 0.990975 75.9443C0.869618 75.8791 0.729406 75.8581 0.594273 75.8848C0.459139 75.9115 0.33746 75.9842 0.250007 76.0907C0.162553 76.1971 0.114746 76.3306 0.114746 76.4683C0.114746 76.606 0.162553 76.7395 0.250007 76.8459C0.33746 76.9524 0.459139 77.0251 0.594273 77.0518C0.729406 77.0785 0.869618 77.0575 0.990975 76.9923C1.11233 76.9272 1.20731 76.8219 1.2597 76.6945H1.32402C1.36847 76.8039 1.44452 76.8974 1.54245 76.9633C1.64037 77.0292 1.75571 77.0644 1.87374 77.0644C1.99176 77.0644 2.1071 77.0292 2.20503 76.9633C2.30295 76.8974 2.379 76.8039 2.42345 76.6945H2.50888C2.5419 76.8126 2.60521 76.92 2.69254 77.0061C2.77986 77.0922 2.88817 77.1539 3.00673 77.1852C2.36331 77.8674 1.84815 78.9177 1.84815 78.9177L5.19365 77.2862C5.68891 77.049 6.08519 76.9114 6.37872 76.8315C6.43483 76.8928 6.50489 76.9396 6.58295 76.9679C6.661 76.9963 6.74475 77.0055 6.82709 76.9946C6.90943 76.9837 6.98793 76.9531 7.05593 76.9054C7.12392 76.8577 7.17941 76.7943 7.21768 76.7206H7.44132C7.49536 76.8957 7.60407 77.0489 7.75153 77.1577C7.89898 77.2665 8.07741 77.3252 8.26067 77.3252C8.44392 77.3252 8.62235 77.2665 8.76981 77.1577C8.91726 77.0489 9.02598 76.8957 9.08002 76.7206H9.29051C9.35338 77.0088 9.51493 77.2661 9.74725 77.4479C9.97958 77.6297 10.2681 77.7247 10.563 77.7164C10.8579 77.7081 11.1406 77.5971 11.3624 77.4026C11.5842 77.2081 11.7311 76.9422 11.7777 76.6509H28.6656L28.6482 76.764C28.6482 76.764 25.646 76.5422 27.6344 79.4396C27.6344 79.4396 27.4735 78.4957 28.6351 78.1476C29.7925 77.7952 29.6204 76.8598 29.129 76.812C29.129 76.812 28.4481 76.6682 29.1746 76.6204H31.289C31.289 76.6204 31.6588 76.6553 31.289 76.7553C31.289 76.7553 29.6836 77.1209 29.6509 79.0133C29.6509 79.0133 30.0165 78.8785 30.2384 78.848C30.4624 78.8131 31.4153 78.4957 32.2243 77.1209C32.2243 77.1209 32.7509 76.4203 33.3208 77.1382C33.3208 77.1382 34.5304 78.9655 36.04 78.7566C36.04 78.7566 36.4208 77.321 34.8153 76.8598C34.8153 76.8598 34.1323 76.6945 34.7695 76.6509H37.8287C37.8512 76.8854 37.9469 77.107 38.1021 77.2842C38.2574 77.4614 38.4644 77.5854 38.6939 77.6386C39.229 78.4782 40.1602 79.0923 41.2216 79.1788C42.838 79.305 44.3542 78.3912 45.6424 77.3559C45.799 78.4312 46.8257 79.1395 48.0026 79.0961C47.0866 77.2774 47.9827 75.1805 49.6355 74.232C50.7109 73.6147 52.1176 73.5151 53.2335 74.0972C54.6649 74.8453 55.2371 76.5205 54.1972 77.656C53.351 78.5827 51.2888 78.6739 50.9168 77.2469C50.857 77.0121 50.9233 76.8425 51.1974 77.0382C51.3303 77.1323 51.4873 77.1866 51.65 77.1948C51.7672 77.2039 51.8851 77.1897 51.9968 77.153C52.1086 77.1163 52.2119 77.0579 52.3009 76.981C52.3899 76.9041 52.4628 76.8104 52.5153 76.7052C52.5679 76.6 52.599 76.4855 52.6071 76.3681C52.668 75.4501 51.6434 75.2544 50.9928 75.6763C50.162 76.2202 49.9054 77.334 50.3664 78.1737C51.427 80.1149 54.6749 79.5625 55.6712 77.7089ZM3.78914 76.8911C3.78914 76.8911 4.06972 76.5561 3.76086 76.0774L5.1375 76.4691L3.78914 76.8911Z" fill="white"/>
<path d="M56.5022 78.1966C54.0679 80.037 54.4748 81.2209 54.4748 81.2209C56.0017 81.6343 56.402 79.7244 56.402 79.7244L56.4456 80.9164C56.2967 80.9453 56.1639 81.0287 56.0731 81.1502C55.9823 81.2718 55.94 81.4228 55.9546 81.5738C55.9691 81.7248 56.0393 81.865 56.1516 81.967C56.2639 82.069 56.4102 82.1255 56.5619 82.1255C56.7136 82.1255 56.8599 82.069 56.9722 81.967C57.0845 81.865 57.1547 81.7248 57.1693 81.5738C57.1838 81.4228 57.1415 81.2718 57.0507 81.1502C56.9599 81.0287 56.8271 80.9453 56.6782 80.9164L56.6935 79.7244C57.2635 81.7864 58.6078 81.2209 58.6078 81.2209C58.9046 79.6716 56.5022 78.1966 56.5022 78.1966Z" fill="white"/>
<path d="M112.393 75.9558C112.275 75.9558 112.159 75.991 112.061 76.0569C111.962 76.1227 111.886 76.2163 111.841 76.3258H111.778C111.733 76.2164 111.657 76.1229 111.559 76.057C111.461 75.9911 111.345 75.9559 111.227 75.9559C111.109 75.9559 110.994 75.9911 110.895 76.057C110.797 76.1229 110.721 76.2164 110.677 76.3258H110.593C110.56 76.2083 110.497 76.1014 110.41 76.0155C110.323 75.9297 110.216 75.8678 110.098 75.8361C110.741 75.1513 111.255 74.1024 111.255 74.1024L107.91 75.734C107.414 75.9697 107.017 76.1062 106.723 76.1854C106.667 76.124 106.598 76.0769 106.52 76.0484C106.442 76.0198 106.358 76.0105 106.276 76.0213C106.193 76.0321 106.115 76.0627 106.047 76.1104C105.979 76.1581 105.923 76.2216 105.885 76.2953H105.663C105.609 76.1202 105.5 75.967 105.353 75.8582C105.205 75.7494 105.027 75.6907 104.843 75.6907C104.66 75.6907 104.482 75.7494 104.334 75.8582C104.186 75.967 104.078 76.1202 104.023 76.2953H103.81C103.747 76.0078 103.585 75.7514 103.353 75.5705C103.12 75.3895 102.832 75.2953 102.538 75.304C102.243 75.3128 101.961 75.424 101.74 75.6184C101.519 75.8129 101.372 76.0784 101.326 76.3692H84.4361L84.4514 76.2561C84.4514 76.2561 87.4584 76.4779 85.4694 73.5805C85.4694 73.5805 85.6287 74.5246 84.4687 74.8769C83.3072 75.225 83.481 76.1603 83.9727 76.2083C83.9727 76.2083 84.6557 76.3519 83.9271 76.4041H81.8148C81.8148 76.4041 81.445 76.3642 81.8148 76.2647C81.8148 76.2647 83.4181 75.899 83.4505 74.0066C83.4505 74.0066 83.0853 74.1415 82.8633 74.1719C82.6412 74.2024 81.6864 74.5244 80.8773 75.8991C80.8773 75.8991 80.353 76.5996 79.7808 75.8817C79.7808 75.8817 78.5735 74.0497 77.0638 74.2633C77.0638 74.2633 76.6811 75.6991 78.2863 76.1551C78.2863 76.1551 78.9693 76.3248 78.3341 76.3726H75.266C75.2229 76.1039 75.0842 75.8598 74.8755 75.6852C74.8389 75.3832 74.7575 75.0885 74.6339 74.8106C73.9053 73.1749 71.5841 72.9964 70.9033 74.2928C70.6643 74.7496 70.5857 75.4848 70.9077 75.9243C71.0107 76.0639 71.1524 76.1703 71.3151 76.2305C71.4779 76.2906 71.6546 76.3019 71.8237 76.2629C72.4133 76.1322 72.7136 75.4265 72.3829 74.9358C72.3176 74.8402 72.2459 74.7576 72.1893 74.6443C72.0523 74.3571 72.3176 74.2006 72.6613 74.2789C73.2878 74.4268 73.7229 74.8793 73.825 75.4753C73.5972 75.5468 73.3982 75.6892 73.257 75.8817C73.1157 76.0743 73.0396 76.3069 73.0398 76.5456C73.0386 76.7711 73.107 76.9914 73.2356 77.1765C72.6418 77.716 71.7086 77.9205 70.8428 77.6638C69.1069 77.1548 67.8495 75.8843 66.6073 74.6226C64.7474 72.7258 61.609 71.438 59.1502 72.8214C57.3707 73.822 56.4818 75.9365 57.4317 77.7072C58.4257 79.5608 61.6759 80.1132 62.7375 78.1728C63.1943 77.333 62.9366 76.2193 62.1088 75.6754C61.4582 75.2534 60.4315 75.4492 60.4968 76.3672C60.5316 76.8589 60.958 77.2331 61.4496 77.1938C61.6123 77.186 61.7694 77.1317 61.9021 77.0373C62.1783 76.8416 62.2458 77.0112 62.1849 77.246C61.8151 78.673 59.7506 78.5818 58.9043 77.655C57.8646 76.52 58.4389 74.8444 59.8703 74.0963C60.9841 73.5132 62.3894 73.6134 63.4661 74.2311C65.1189 75.1796 66.0135 77.2765 65.099 79.0952C66.2739 79.1386 67.3027 78.4295 67.4614 77.3549C68.7448 78.3905 70.2633 79.3041 71.8775 79.1778C72.9411 79.0908 73.8722 78.4773 74.4095 77.6377C74.6453 77.5826 74.8571 77.4529 75.0135 77.268C75.1698 77.0831 75.2624 76.8527 75.2775 76.611H78.3337C78.9689 76.6588 78.2859 76.8284 78.2859 76.8284C76.6807 77.2852 77.0634 78.7202 77.0634 78.7202C78.5731 78.9333 79.7804 77.1016 79.7804 77.1016C80.3526 76.3847 80.8769 77.0843 80.8769 77.0843C81.686 78.4584 82.641 78.7812 82.8629 78.8114C83.0847 78.8417 83.4501 78.9813 83.4501 78.9813C83.4177 77.0843 81.8144 76.7406 81.8144 76.7406C81.4924 76.6753 81.8144 76.6058 81.8144 76.6058H83.9267C84.4856 76.6665 84.0115 76.8015 84.0115 76.8015C83.5242 76.9103 83.3068 77.7586 84.4683 78.1067C85.6277 78.4592 85.469 79.4076 85.469 79.4076C87.4574 76.5056 84.451 76.7193 84.451 76.7193L84.4357 76.6147H101.311C101.322 76.9299 101.451 77.2293 101.672 77.4544C101.893 77.6794 102.19 77.8139 102.505 77.8313C102.82 77.8488 103.13 77.748 103.374 77.5487C103.618 77.3494 103.78 77.0661 103.826 76.7541H104.011C104.056 76.9365 104.159 77.0993 104.305 77.2174C104.451 77.3354 104.631 77.4023 104.819 77.4077C105.006 77.4132 105.191 77.3568 105.343 77.2473C105.495 77.1378 105.608 76.9813 105.663 76.8017C105.752 76.8072 105.838 76.8129 105.919 76.8189C105.961 76.8797 106.016 76.9306 106.08 76.9683C106.144 77.0059 106.215 77.0294 106.289 77.0371C106.363 77.0449 106.437 77.0366 106.508 77.013C106.578 76.9894 106.642 76.951 106.697 76.9003C107.306 76.9883 107.429 77.0835 107.429 77.0835C109.006 77.4185 111.088 79.0805 111.088 79.0805C110.998 78.3373 110.421 77.6286 110.005 77.204C110.129 77.1882 110.246 77.1397 110.345 77.0634C110.444 76.9872 110.521 76.886 110.568 76.7703H110.678C110.722 76.8796 110.798 76.9732 110.896 77.0391C110.994 77.105 111.109 77.1402 111.227 77.1402C111.345 77.1402 111.461 77.105 111.559 77.0391C111.657 76.9732 111.733 76.8796 111.777 76.7703H111.842C111.882 76.8702 111.949 76.9573 112.035 77.0221C112.122 77.0869 112.224 77.1271 112.331 77.1383C112.438 77.1494 112.547 77.1313 112.644 77.0856C112.742 77.04 112.826 76.9687 112.886 76.8793C112.946 76.7899 112.981 76.6857 112.987 76.578C112.992 76.4703 112.969 76.3631 112.918 76.2679C112.867 76.1727 112.792 76.093 112.699 76.0374C112.607 75.9818 112.501 75.9523 112.393 75.9522L112.393 75.9558ZM107.964 76.5476L109.315 76.1295C109.315 76.1295 109.032 76.4646 109.341 76.9431L107.964 76.5476Z" fill="white"/>
<path d="M28.1879 11.7428C28.3375 11.7428 28.4838 11.6984 28.6083 11.6152C28.7327 11.5321 28.8297 11.4139 28.887 11.2756C28.9443 11.1373 28.9593 10.9852 28.9301 10.8384C28.9009 10.6916 28.8288 10.5568 28.723 10.4509C28.6171 10.3451 28.4823 10.273 28.3355 10.2438C28.1887 10.2147 28.0366 10.2296 27.8983 10.2869C27.76 10.3442 27.6418 10.4412 27.5587 10.5656C27.4755 10.6901 27.4312 10.8364 27.4312 10.986C27.4312 11.1867 27.5109 11.3792 27.6528 11.5211C27.7947 11.663 27.9872 11.7428 28.1879 11.7428Z" fill="white"/>
</g>
<defs>
<clipPath id="clip0_471_3002">
<rect width="113" height="81.1372" fill="white" transform="translate(0 0.988281)"/>
</clipPath>
</defs>
</svg>
