<svg width="113" height="97" viewBox="0 0 113 97" fill="none" xmlns="http://www.w3.org/2000/svg">
<g clip-path="url(#clip0_471_3024)">
<path fill-rule="evenodd" clip-rule="evenodd" d="M47.3445 12.3885C47.7438 12.2243 48.3144 12.3682 48.6052 12.4865C48.8112 12.5702 49.4295 12.9351 49.4413 13.0984C49.5007 13.0687 49.5339 13.1011 49.3546 12.8246C49.1931 12.5751 48.973 12.3176 48.6911 12.1869C48.4954 12.0963 48.2766 12.0337 47.9955 12.0782C47.8381 12.1032 47.3926 12.2085 47.3445 12.3885ZM35.3476 51.3809L33.268 51.3343L32.1038 51.2138C30.9725 51.0541 29.9471 50.7975 29.0655 50.1397C28.9548 50.0572 28.8037 49.9366 28.7217 49.8292C28.5506 49.6056 28.4754 49.5503 28.3133 49.2799C27.754 48.3461 27.9175 47.3653 27.9175 46.335C27.7238 46.5579 27.6606 47.7847 27.6606 48.0404C27.6606 48.8426 27.8198 49.4268 28.2257 50.0218L28.6122 50.4997C28.6918 50.5834 28.7537 50.6173 28.8347 50.6978C29.2064 51.0679 29.7 51.2864 30.1607 51.5212C30.4487 51.668 30.782 51.7756 31.0924 51.8745C32.3167 52.265 33.6062 52.4457 34.8816 52.5479L36.7729 52.6193C36.8977 52.6193 37.0223 52.6193 37.1473 52.6198C37.302 52.6203 37.3487 52.5952 37.4963 52.595C37.6211 52.595 37.7465 52.5955 37.8713 52.5963C38.0287 52.597 38.0834 52.5732 38.2207 52.5717C38.578 52.5675 39.2958 52.529 39.6299 52.4855C39.8699 52.4546 40.0749 52.4521 40.3112 52.4192C40.541 52.3873 40.7588 52.3635 40.9786 52.3389C42.0819 52.2154 43.1417 52.0373 44.2128 51.8347L48.5441 50.9092C48.9273 50.8142 49.3372 50.7069 49.7269 50.5966L50.9088 50.2833C51.8937 50.0228 52.8519 49.708 53.8479 49.4607C54.0434 49.4121 54.2425 49.3561 54.4367 49.3018C56.4591 48.7365 58.5359 48.2857 60.6271 47.9922L61.6368 47.8803C62.1296 47.8282 62.5981 47.8081 63.0824 47.8074C63.2303 47.8074 63.2767 47.7821 63.4316 47.7828C63.6911 47.7837 64.6213 47.8019 64.8745 47.8363C65.3207 47.897 65.7463 47.9164 66.2128 47.9934C67.0438 48.1305 67.821 48.3429 68.605 48.6152C69.3366 48.8691 70.2216 49.3089 70.8581 49.7264L71.5267 50.2028C73.0337 51.339 73.9047 53.0151 73.5319 54.9617C73.4588 55.3445 73.3151 55.668 73.1272 55.982C72.9205 56.3282 72.6384 56.6109 72.3402 56.8771C72.2916 56.9206 72.2644 56.9422 72.2111 56.9817C72.1173 57.0509 72.0323 57.1064 71.9296 57.1676C71.5022 57.4222 71.0565 57.6118 70.5418 57.6955C69.267 57.903 68.1372 57.7017 67.1236 56.9181C66.978 56.8056 66.8225 56.6416 66.7063 56.4943C66.3363 56.0262 65.9557 55.2868 65.9557 54.6751C65.9557 53.9564 65.9387 53.509 66.3388 52.9088C66.4348 52.7649 66.462 52.7316 66.5806 52.6134C67.199 51.9961 67.873 51.9418 67.9415 51.8483C67.8499 51.8104 67.5744 51.904 67.471 51.9386C66.767 52.1744 66.117 52.6834 65.8351 53.3864C65.6392 53.8751 65.605 54.1914 65.605 54.7451C65.605 55.678 65.9554 56.8854 66.5686 57.543C67.0401 58.0489 67.5285 58.4013 68.2011 58.6441C69.4601 59.0989 71.0157 59.0729 72.1934 58.5526C72.5055 58.4148 72.7638 58.289 73.0349 58.109C73.2925 57.9379 73.5457 57.7508 73.7652 57.531C73.8765 57.42 73.9744 57.3346 74.0732 57.2081L74.3575 56.8383C74.7863 56.2188 75.0805 55.5086 75.1863 54.7466C75.3562 53.5217 75.1797 52.2117 74.6318 51.1163C74.5815 51.016 74.5451 50.9328 74.4914 50.8363C74.1474 50.2185 73.6857 49.6888 73.1931 49.1906L72.0495 48.2548C71.6257 47.9687 71.1984 47.6988 70.7527 47.4491C70.7009 47.4201 70.6677 47.3997 70.6189 47.3724C70.2854 47.1873 69.3412 46.774 69.0137 46.6645C68.6013 46.527 68.1876 46.3796 67.7549 46.2645C67.0001 46.0636 66.0311 45.8726 65.2554 45.82C65.1584 45.8134 64.9764 45.8041 64.8674 45.7876C64.6366 45.753 63.4824 45.7262 63.2444 45.7267C63.0942 45.7267 63.0355 45.752 62.8717 45.751C62.7384 45.7503 62.5817 45.7436 62.4508 45.7507L61.6564 45.7974C60.8031 45.8399 58.8391 46.1611 57.99 46.3364L55.9555 46.802C55.5027 46.9142 55.0599 47.0341 54.6187 47.1475C54.3913 47.206 54.184 47.2808 53.9648 47.3349C53.7313 47.3921 53.5282 47.4604 53.3126 47.5237L50.4211 48.3937C50.3157 48.4264 50.204 48.45 50.094 48.4873C49.5611 48.6678 48.6975 48.9126 48.1467 49.0634L46.1702 49.5869C45.9517 49.6417 45.7358 49.7082 45.5015 49.7593L44.1468 50.0869C43.9103 50.1458 43.7082 50.1897 43.4644 50.2455C41.7973 50.6259 40.2193 50.939 38.4827 51.1516L37.3537 51.2842C37.2849 51.2913 37.2188 51.2837 37.1503 51.2911C37.0781 51.299 37.0641 51.311 36.9605 51.3115C36.7913 51.3127 36.723 51.336 36.563 51.3346C36.3925 51.3329 36.3294 51.3591 36.1658 51.3581C35.8839 51.3567 35.6499 51.3809 35.3476 51.3809ZM70.9089 46.6618C71.1586 46.4948 71.7155 45.7687 71.8578 45.5548C72.4216 44.7056 72.9576 43.5579 72.9645 42.5027C72.9654 42.3387 73.0089 42.2152 72.9821 42.0192C72.9416 41.7241 72.9281 41.4009 72.866 41.1075C72.7263 40.4486 72.4659 39.8107 72.1197 39.2371C71.8678 38.8196 71.3543 38.1106 70.9722 37.7912C70.2481 37.1861 69.5517 36.7407 68.6099 36.5087C68.3251 36.4384 68.0771 36.362 67.7782 36.3122C67.4782 36.2623 67.196 36.2304 66.8773 36.1855C66.2659 36.099 65.5608 36.1056 64.8806 36.102C64.5698 36.1005 64.2014 36.1509 63.8999 36.1494C63.1195 36.1459 60.9998 36.4563 60.1622 36.5708C58.6822 36.7728 57.1895 37.082 55.7154 37.334C53.8995 37.6446 52.1737 37.9513 50.3204 38.1539L48.919 38.2948C48.4377 38.3457 47.9613 38.3602 47.4808 38.4218C47.0223 38.4805 46.4919 38.5283 46.0248 38.5313C45.7714 38.5331 45.3267 38.6011 45.0681 38.6027C44.8751 38.6042 44.7535 38.619 44.5527 38.6246C44.437 38.6278 44.4361 38.6462 44.3204 38.6494L42.5673 38.7189C41.9014 38.7187 41.2053 38.7656 40.5346 38.7656C39.8429 38.7656 39.145 38.7749 38.4542 38.7666L37.9646 38.7422C37.1149 38.7425 36.2788 38.6924 35.4176 38.6956C35.2195 38.6964 35.1205 38.6711 34.9273 38.672C34.2208 38.6755 33.6506 38.6047 32.9306 38.7083C32.1421 38.8221 31.3347 39.1563 30.7621 39.6705L30.4843 39.9067C30.1828 40.1471 29.7616 40.7332 29.5485 41.0503C29.4756 41.1586 29.4262 41.256 29.356 41.372C28.8266 42.2434 28.4607 43.4496 28.2743 44.4488C28.2449 44.6065 28.2316 44.7651 28.198 44.9097C28.2591 44.8852 28.2628 44.8268 28.2832 44.7612C28.3074 44.6831 28.3212 44.6457 28.347 44.5682C28.5385 43.9886 28.8039 43.3998 29.1082 42.8762C29.4648 42.2621 29.6512 41.9686 30.0937 41.4085C30.2945 41.1539 30.5818 40.8821 30.8328 40.6758C31.4106 40.2011 32.1335 39.8524 32.8955 39.7947C33.501 39.7488 34.1014 39.8654 34.6721 39.9317C35.2659 40.0007 35.8562 40.0643 36.4294 40.137C36.7348 40.1759 37.0182 40.1812 37.3237 40.2239L38.6887 40.3541C38.7938 40.3575 39.0284 40.3738 39.1426 40.3909C39.2267 40.4037 39.2806 40.3995 39.3672 40.4C39.4883 40.401 39.4954 40.4189 39.6 40.4243L40.5354 40.4702C40.6473 40.4732 40.6417 40.4889 40.7448 40.4946L41.4694 40.5174C41.6512 40.5164 41.7442 40.5417 41.9365 40.5412C42.1003 40.5405 42.2638 40.5412 42.4276 40.5405C42.5993 40.5397 42.7027 40.5648 42.8944 40.5646C43.2215 40.5635 43.5486 40.5643 43.8757 40.5643C44.5237 40.5643 45.1715 40.5142 45.8154 40.5179L47.4306 40.4277C47.5147 40.4182 47.6006 40.4275 47.685 40.4251C47.7968 40.4219 47.7917 40.4061 47.8945 40.4008C48.1207 40.3887 48.378 40.3909 48.602 40.3605C48.9426 40.3143 49.5933 40.3023 49.9675 40.2541L51.3039 40.1186C51.5919 40.0855 51.874 40.0413 52.1663 39.9995C52.4578 39.958 52.7473 39.9231 53.0483 39.877C53.8896 39.7478 54.7324 39.6093 55.5604 39.4453L58.8468 38.8063C60.2371 38.5283 61.623 38.2958 63.0318 38.0613C63.7155 37.9476 64.7534 37.828 65.4656 37.8084C65.581 37.8052 65.5822 37.787 65.6979 37.7836C67.0033 37.7446 68.3922 37.8 69.546 38.3761C70.4428 38.8238 71.259 39.7648 71.7033 40.6579C72.2212 41.6988 72.3582 42.78 72.1222 43.9268C71.9712 44.6617 71.6699 45.393 71.2841 46.0324C71.2092 46.1567 70.9335 46.5565 70.9089 46.6618H70.8856L70.905 46.6891L70.9089 46.6618ZM44.9038 29.4908C43.2866 29.4908 42.0689 29.4164 40.5046 29.217L39.2496 29.1404C38.4474 29.1404 37.3762 29.2573 36.6715 29.5996C36.3412 29.7599 35.9999 29.9227 35.7386 30.1855C35.3432 30.5833 35.1205 30.8499 34.9135 31.3929C34.6969 31.9611 34.6702 32.5421 34.6702 33.1587C34.6702 33.7716 34.8337 34.3153 34.8337 34.9341C34.8337 35.7638 34.7716 36.4301 34.6368 37.237C34.6031 37.4381 34.5533 37.6198 34.5533 37.831L34.6107 37.7249C34.6316 37.6755 34.6399 37.6593 34.6601 37.611C34.6989 37.5186 34.7276 37.4408 34.76 37.3602L34.9471 36.8699C35.1424 36.349 35.2703 35.8188 35.3808 35.271C35.5291 34.5351 35.4346 34.2021 35.5048 33.6896C35.5286 33.515 35.5124 33.1602 35.5844 32.741C35.7047 32.0385 36.0131 31.4253 36.6282 31.0515C37.7927 30.3444 39.8704 30.7385 41.0975 30.984C42.8645 31.3379 44.3732 31.4064 46.2356 31.4064C46.7083 31.4064 47.1178 31.3651 47.5684 31.3607C47.9598 31.3568 48.4613 31.2826 48.8547 31.2451C50.0977 31.1265 51.2283 30.9214 52.4182 30.6498C53.166 30.4791 53.8786 30.2842 54.6153 30.0664C54.8129 30.0079 54.963 29.9657 55.1523 29.9026L58.1881 28.7797C58.8155 28.5275 60.1104 28.0317 60.7368 27.847C60.9348 27.7888 61.0845 27.7466 61.2739 27.683C62.0699 27.416 63.3712 27.1079 64.2032 27.1079C65.4202 27.1079 66.092 27.2324 66.2995 28.4695C66.4481 29.3555 66.5443 30.2741 66.6524 31.1537C66.7989 32.3484 66.8674 33.8632 67.4116 34.9501C67.5044 35.1352 67.5774 35.2806 67.6889 35.4439C67.7834 35.5822 67.9017 35.771 68.0351 35.8687C67.9914 35.6813 67.7559 35.3336 67.6521 34.8734C67.4959 34.1824 67.4976 33.5727 67.4976 32.855C67.4976 31.9702 67.5445 31.1699 67.5445 30.2852C67.5445 29.5021 67.6137 28.2419 67.4129 27.5666C67.2439 26.9983 66.9772 26.5519 66.5367 26.2232C66.3663 26.0959 66.1856 25.9717 65.9856 25.8862C65.1249 25.5188 64.5148 25.4958 63.549 25.4958C62.6951 25.4958 61.887 25.6731 61.0816 25.8555C60.5229 25.9822 59.9643 26.117 59.4223 26.299L57.3019 27.0057C57.202 27.0386 57.1384 27.059 57.0387 27.0929C56.937 27.1275 56.8565 27.1658 56.7698 27.198C56.2529 27.3903 55.7276 27.5747 55.1994 27.7301L54.1126 28.0687C53.9378 28.1223 53.7521 28.1647 53.5621 28.219L51.8608 28.6438C51.271 28.7681 50.6944 28.8988 50.0908 29.0002C49.6891 29.0677 49.2876 29.1335 48.88 29.1912C48.2558 29.2796 46.8934 29.438 46.2814 29.4432C46.1469 29.4444 46.1054 29.4687 45.9559 29.4679L44.9038 29.4908ZM39.5767 28.4629C39.631 28.4231 40.0388 27.7109 40.101 27.6086C40.2443 27.3724 40.443 26.9416 40.5577 26.687C40.8308 26.0804 41.0636 25.1788 41.1912 24.5406C41.2462 24.2655 41.4228 22.8565 41.4575 22.9478L41.5942 22.9358C41.7477 22.9152 42.0384 22.9603 42.2396 22.9737C42.6994 23.0036 43.9903 23.2634 44.6929 23.3238C44.8216 23.3348 44.9636 23.3606 45.0917 23.3692C45.2165 23.3776 45.3952 23.3837 45.5249 23.4031C45.7999 23.4444 46.1474 23.4215 46.4057 23.4569C47.0301 23.5426 49.141 23.4289 49.9641 23.3132C50.246 23.2737 50.5186 23.2268 50.7752 23.1898C51.3257 23.1104 52.4865 22.8091 53.0203 22.6311L54.4046 22.1463C55.2436 21.848 55.9283 21.5069 56.7001 21.1943C56.8096 21.1498 56.8985 21.0926 57.0166 21.0433L57.671 20.7633C57.8019 20.7138 57.88 20.6779 58.0044 20.6295C58.1304 20.5807 58.2193 20.5544 58.3534 20.5112C58.8929 20.338 59.6956 20.0132 60.0525 20.6285C60.3859 21.2041 60.8274 22.2915 61.0226 22.929C61.2156 23.5598 61.4676 24.3681 61.9671 24.7881C62.1696 24.9585 62.3098 25.0214 62.5444 25.1454C62.5215 25.0599 62.4719 25.0459 62.414 24.972C61.8752 24.2862 61.9732 24.2012 61.8534 23.3835C61.8256 23.1949 61.8335 23.0109 61.8067 22.8226C61.7092 22.1407 61.7662 22.0344 61.5675 21.1926C61.4841 20.8377 61.4119 20.5431 61.3033 20.2187C60.9654 19.2068 60.1742 18.7227 59.0864 18.7208C58.6601 18.72 58.3468 18.8015 57.988 18.8607C57.5106 18.9393 57.0178 19.1269 56.5598 19.2787L55.6427 19.5996C55.4826 19.6556 55.3318 19.7192 55.1818 19.7696C54.8699 19.8737 54.5777 19.9849 54.2646 20.0908C53.3025 20.4156 52.4006 20.7081 51.4134 20.9544C50.9152 21.0784 50.3848 21.1815 49.8705 21.2572C49.3603 21.3323 48.698 21.3699 48.1715 21.4273L46.9896 21.4841C46.5506 21.5442 45.1038 21.4792 44.5525 21.4784C44.4174 21.4782 44.3934 21.457 44.2737 21.4533C44.1748 21.4504 44.0675 21.4597 43.9692 21.4544L43.3816 21.4109C43.2829 21.3998 43.182 21.4146 43.0825 21.4062L42.3471 21.3777C41.9434 21.3615 41.5122 21.4207 41.1232 21.529C40.5801 21.68 40.1994 22.1289 40.1206 22.6755C40.1002 22.8157 40.0944 22.832 40.0621 22.9471C40.0152 23.1148 40.0779 23.0063 40.0909 23.1826C40.0995 23.299 40.1118 23.3616 40.1147 23.4625C40.1243 23.7823 40.1584 24.4092 40.1361 24.6771C40.1221 24.8478 40.1309 25.1016 40.1105 25.2822C40.0698 25.6471 40.0597 26.0628 40.0007 26.4105C39.8991 27.0113 39.8139 27.3696 39.6747 27.93C39.64 28.0692 39.5767 28.3126 39.5767 28.4629H39.5533L39.5727 28.4901L39.5767 28.4629ZM53.6657 14.399C53.811 14.3601 53.9787 13.9549 54.6703 13.9549C54.9527 13.9549 55.2852 14.1193 55.4421 14.3282C56.082 15.1803 55.6365 16.4344 54.9045 16.9925C54.4131 17.367 53.7652 17.5693 53.0216 17.7032C52.6525 17.7695 52.1756 17.7837 51.8603 17.8267C51.6639 17.8534 50.7855 17.8478 50.5984 17.8734C50.3941 17.9014 49.5282 17.8959 49.3333 17.8662C49.102 17.8314 47.3339 17.8571 46.843 17.8564C46.6623 17.8561 46.5488 17.879 46.4 17.8807L44.2281 17.9984C44.1019 18.0082 43.9489 18.0305 43.8126 18.0504C42.3461 18.2633 40.8963 18.6073 39.6422 19.3939C39.1966 19.6733 38.4653 20.2521 38.1515 20.66L37.7409 21.184C37.5808 21.3956 37.1321 22.1267 37.0766 22.3654C37.1326 22.3243 37.2127 22.2013 37.2696 22.1377C37.3134 22.0886 37.3234 22.0697 37.364 22.0219C37.7971 21.5106 38.1077 21.2565 38.632 20.8601C39.1079 20.5004 39.7837 20.1659 40.3343 19.9456C40.4538 19.898 40.5336 19.8695 40.6604 19.8278C40.7868 19.786 40.8595 19.7484 40.9884 19.7119C42.062 19.4081 42.4397 19.3489 43.5351 19.1979C44.0721 19.124 45.5499 19.0329 46.0261 19.0471L47.7072 19.1419C48.3827 19.1579 49.4389 19.2942 50.1372 19.3288C50.7789 19.3605 51.0421 19.4255 51.7967 19.4216C51.9745 19.4207 52.0502 19.4457 52.2166 19.4457C52.3939 19.4459 52.4717 19.4207 52.637 19.4211C53.2531 19.4238 53.7138 19.342 54.2401 19.2482C54.6541 19.1745 55.5029 18.9118 55.8696 18.7051L56.4226 18.3704C56.899 18.0337 57.1784 17.7169 57.4755 17.2271C58.0921 16.2099 57.9175 14.9276 57.1904 14.0284C57.1538 13.9829 57.1521 13.9726 57.1067 13.9252C56.6598 13.4611 56.0137 13.1235 55.3875 13.0906H55.1877C54.6229 13.1218 54.094 13.4219 53.7666 14.1259C53.7229 14.2199 53.7062 14.3145 53.6657 14.399ZM30.1138 42.4099C30.3181 42.2732 30.3432 42.1347 30.8372 42.1288C31.2753 42.1236 31.3863 42.1319 31.6699 42.3026C32.1062 42.5649 32.316 43.0712 32.4709 43.5344C32.6414 44.0441 32.6806 44.6541 32.8336 45.1809C32.8705 45.3085 32.9235 45.4092 32.9741 45.531C33.1163 45.875 33.4537 46.1731 33.8755 46.1724C34.3588 46.1717 34.749 45.9121 35.0837 45.6272L35.7391 45.021C36.1111 44.6482 36.3824 44.3563 36.7061 43.9552C36.9327 43.6746 37.1913 43.4312 37.4445 43.1751C37.7016 42.9151 38.0243 42.7019 38.3619 42.5504C39.2071 42.1713 39.8809 42.53 40.5614 43.0373C40.6653 43.1149 40.7428 43.1842 40.8457 43.2669C41.3169 43.6461 41.732 44.1424 42.1801 44.4793C42.2887 44.5608 42.3677 44.6055 42.4738 44.6762C43.3242 45.2427 44.3853 45.172 45.2467 44.7386L45.876 44.3631C46.279 44.0957 46.641 43.7688 47.0267 43.4813C47.6652 43.0059 48.202 42.5771 49.0894 42.4833C49.4259 42.4477 49.7711 42.4959 50.0228 42.5482C50.3271 42.6116 50.5186 42.6965 50.7681 42.8075C51.2655 43.0287 51.7302 43.3592 52.1704 43.6714L53.3776 44.4969C54.3154 45.0819 55.5943 45.5968 56.6193 44.9195C56.7192 44.8535 56.8398 44.7837 56.9199 44.7059C56.9707 44.6563 56.9972 44.6239 57.0504 44.5797C57.129 44.5146 57.1102 44.5203 57.1762 44.4483C57.2656 44.3506 57.3324 44.2823 57.4203 44.1782C57.6906 43.8583 57.9239 43.5009 58.2154 43.1979C58.4496 42.9548 58.7104 42.6339 58.9661 42.4298L59.2335 42.1833C59.2949 42.1317 59.3131 42.1261 59.3727 42.0657C59.427 42.0104 59.4341 42.005 59.497 41.9561C59.7806 41.7361 60.0431 41.4829 60.343 41.2835C60.8115 40.9722 61.2242 40.6259 61.8757 40.5267C62.44 40.4408 63.1792 40.9933 63.6651 41.2425C63.7255 41.2735 63.7761 41.2877 63.8451 41.3196C64.3954 41.5745 65.0597 41.8601 65.6674 41.5846C65.8125 41.5188 65.8619 41.5033 65.9888 41.4154C66.5649 41.0151 66.5784 40.2625 67.5015 40.4204C68.0322 40.511 68.5918 40.8509 69.1472 40.6019C69.3722 40.5009 69.5141 40.2822 69.6045 40.0545C69.6642 39.904 69.7874 39.4165 69.7874 39.2093C69.7461 39.2687 69.5892 39.875 69.5507 39.9774C69.2094 40.8872 68.3629 40.4776 67.8428 40.3128C67.7034 40.2684 67.5796 40.2365 67.4266 40.2149C66.9691 40.1508 66.6413 40.2989 66.3704 40.6055C66.3304 40.6508 66.2938 40.7011 66.2563 40.7483C65.7028 41.4471 65.2259 41.5311 64.32 41.1718C63.8645 40.9913 63.4576 40.6893 63.0362 40.4464C62.0498 39.8777 61.3667 40.0614 60.4137 40.6768C60.3019 40.7487 60.2231 40.7932 60.118 40.8718C60.0611 40.9145 60.0228 40.9312 59.9611 40.9719C59.5105 41.2701 59.0874 41.6283 58.6835 41.9839L58.1692 42.4743C57.7088 42.9347 57.2948 43.4415 56.8867 43.9483C56.7745 44.0876 56.6497 44.2028 56.5063 44.316C56.3975 44.4017 56.3125 44.4437 56.1817 44.5051C55.3691 44.8859 54.5455 44.4876 53.8658 44.0788C53.7504 44.0093 53.6715 43.9651 53.5658 43.8882L51.2899 42.3792C51.0053 42.2199 50.721 42.0956 50.4027 42.0047C49.9452 41.8739 49.5356 41.798 49.0194 41.8525C48.2366 41.9355 47.5355 42.3085 46.9332 42.7802L45.6751 43.7652C44.4626 44.6406 43.4737 44.7923 42.2601 43.8152C41.9787 43.5889 41.7678 43.2942 41.4827 43.0739C41.413 43.0201 41.4066 43.0088 41.3467 42.9531L40.7824 42.5126C40.6247 42.4087 40.4956 42.3075 40.3244 42.223C40.2137 42.168 40.0997 42.1028 39.9811 42.0524C38.9611 41.6202 38.1544 41.9913 37.3667 42.6066C37.2625 42.6879 37.2034 42.7778 37.1034 42.8574C37.0494 42.9003 37.0271 42.9077 36.9772 42.9646L36.615 43.3735C36.4463 43.5432 36.3019 43.748 36.1521 43.9386L35.2023 44.9981C34.751 45.4912 33.8714 46.278 33.3176 45.5376C32.911 44.9942 32.9552 43.8757 32.4139 42.9136C32.2349 42.5951 31.982 42.3181 31.6562 42.1528C31.2102 41.9269 30.1997 42.0885 30.1138 42.4099L30.0904 42.4569H30.0671L30.0865 42.4841L30.0904 42.4569L30.1138 42.4099ZM65.3249 30.1217C65.1618 30.2307 65.2195 30.3132 64.9145 30.4357C64.6623 30.5368 64.2557 30.5776 63.9561 30.5322C63.8346 30.5138 63.7219 30.5288 63.602 30.5123C62.9933 30.4293 62.1562 30.4256 61.6093 30.5649C60.8426 30.7601 60.3177 31.455 59.7818 31.9852C59.7094 32.0569 59.6581 32.0836 59.5829 32.16C59.5198 32.2244 59.4626 32.2636 59.3954 32.3228C58.5471 33.0686 57.4441 33.3208 56.3319 32.9458C55.1877 32.5598 53.7278 31.439 52.5639 32.384C52.3154 32.5856 52.1034 32.9161 51.9323 33.2009C51.8846 33.28 51.8409 33.3448 51.7974 33.4168C51.1556 34.4821 50.8317 34.5712 49.876 33.9342C49.6552 33.7871 49.4538 33.6184 49.2257 33.4865C48.9807 33.3448 48.7457 33.2287 48.4556 33.1582C47.5765 32.9451 47.0265 33.4551 46.5528 34.0599L46.2542 34.4855C46.0617 34.7726 45.8868 35.0798 45.6751 35.355C45.4724 35.6187 45.2351 35.9036 44.9233 36.0516C44.424 36.2886 43.6832 36.1253 43.2544 35.7891C43.181 35.7314 43.14 35.6813 43.0754 35.6175C42.6153 35.1625 42.0824 34.234 41.7027 33.696C41.3575 33.2068 40.7254 32.4404 40.0683 32.4333C39.7812 32.4304 39.6638 32.4672 39.4672 32.5586C39.3171 32.6283 39.158 32.753 39.0357 32.8515C38.9061 32.9559 38.799 33.0983 38.6711 33.211L37.8614 33.8499C37.0548 34.3367 36.6069 33.9696 36.4362 33.1681C36.4141 33.0637 36.4286 32.934 36.3522 32.8783C36.3522 33.2555 36.4708 33.7093 36.6887 33.9904C37.1255 34.5545 38.0053 34.0226 38.4648 33.7056C38.548 33.6479 38.5971 33.6039 38.6755 33.5425C38.9507 33.3262 39.1872 33.0603 39.5064 32.9014C39.8817 32.7147 40.2276 32.7152 40.5634 33.0131C40.6307 33.0725 40.6871 33.1118 40.7512 33.1759C41.1512 33.5754 41.3794 33.9978 41.6888 34.4577C41.7491 34.5476 41.774 34.5957 41.8294 34.6908C42.0723 35.104 42.3284 35.5266 42.6428 35.8869C42.7815 36.0457 42.9251 36.2127 43.1142 36.3265C43.8146 36.7481 44.6197 36.8888 45.3468 36.4517C45.7145 36.2304 45.9993 35.878 46.2625 35.5451C46.4772 35.2732 46.638 34.9567 46.8463 34.6802C47.2283 34.1729 47.6553 33.5121 48.4524 33.7922C48.6288 33.8541 48.7712 33.9447 48.9303 34.0388C49.6586 34.47 50.4859 35.3975 51.4699 34.7477C51.7609 34.5554 51.9566 34.2687 52.1638 33.9931L52.4435 33.5484C52.7461 33.0403 52.9867 32.5824 53.6735 32.616C54.8741 32.6747 55.802 33.6054 57.1003 33.6025C58.2427 33.6 58.7296 33.4018 59.527 32.7582C59.6073 32.6934 59.6478 32.6497 59.7268 32.5843L60.6231 31.6581C61.0043 31.275 61.0666 31.0901 61.6493 30.862C62.757 30.4291 64.6805 31.0361 65.2625 30.2461C65.3057 30.1875 65.306 30.2024 65.3249 30.1217H65.3482L65.3285 30.0944L65.3249 30.1217ZM59.2966 22.4354C59.2966 23.0731 58.392 23.9072 57.5676 23.9072C56.8088 23.9072 56.4675 23.516 55.8389 23.2059C55.3549 22.9673 54.7159 22.9567 54.2695 23.3194L53.9363 23.6403C53.8808 23.7125 53.8322 23.744 53.7791 23.8102C53.7241 23.8788 53.6882 23.9193 53.6325 23.9907C53.4653 24.2056 53.0395 24.6422 52.8409 24.8111C52.5064 25.0958 52.2002 25.2156 51.7498 25.2156C51.1625 25.2156 50.5694 24.5148 49.7637 24.5148C48.9222 24.5148 48.2191 25.065 47.6544 25.4891C47.5269 25.5849 47.4211 25.664 47.2939 25.7598C47.0626 25.9338 46.7912 26.1148 46.5064 26.2337C45.7245 26.5603 45.1195 26.2555 44.5589 25.7008C44.2301 25.3755 43.6643 24.8652 43.1982 24.8652C43.0182 24.8652 42.6388 24.8588 42.4974 24.9818C42.9404 24.9818 43.2355 24.8382 43.8237 25.3612C43.9584 25.481 44.0923 25.608 44.2028 25.7529L44.4889 26.0743C44.5453 26.1301 44.5849 26.1696 44.6408 26.2261C45.1855 26.7736 45.9055 26.9519 46.6481 26.7025C47.0665 26.562 47.5409 26.2477 47.9041 25.996C48.2928 25.7268 49.0474 25.1454 49.6469 25.1454C50.2148 25.1454 50.2382 25.2549 50.7914 25.5429C51.6393 25.9842 52.319 25.9604 53.1019 25.3759C53.2777 25.2448 53.5019 25.0331 53.6389 24.8617L54.3361 24.0168C54.977 23.2548 55.4099 23.506 56.2436 23.9227C56.98 24.2908 57.351 24.3694 58.1258 24.0914C58.4097 23.9895 58.6152 23.8267 58.8268 23.6246L58.8505 23.6013C59.0398 23.4053 59.1866 23.1742 59.2868 22.9164C59.3622 22.7229 59.4292 22.3332 59.25 22.2019C59.259 22.3113 59.2966 22.3172 59.2966 22.4354ZM35.4412 50.5868C35.895 50.5868 37.3502 50.5966 37.791 50.5301C37.9123 50.5119 38.1294 50.4962 38.2448 50.4933C38.3982 50.4896 38.5434 50.4599 38.6895 50.4471C39.7569 50.355 41.395 50.0576 42.4271 49.7691C42.5251 49.7416 43.0894 49.5948 43.1749 49.5353C43.0118 49.5353 42.932 49.5651 42.7876 49.5921C41.9311 49.7514 40.0405 50.0134 39.2029 50.0495C39.103 50.0539 38.9026 50.0662 38.7921 50.0827L37.5209 50.1664C37.2171 50.1647 36.9573 50.1895 36.6327 50.1895C35.04 50.1895 33.8812 50.2018 32.3236 49.9427C31.6419 49.8292 30.5686 49.5572 29.95 49.2321C29.8871 49.1992 29.8501 49.1705 29.7869 49.138C29.729 49.1081 29.6772 49.0865 29.6183 49.0496C29.5129 48.9835 29.4159 48.9113 29.316 48.8382C29.062 48.6531 28.8256 48.3731 28.7821 48.3439C28.8337 48.5376 29.2524 48.9269 29.4291 49.0754C29.5834 49.2051 29.7364 49.3249 29.9193 49.4263C29.9822 49.461 30.0325 49.4801 30.0895 49.5132C30.1524 49.5495 30.1923 49.5751 30.2695 49.6137C30.4018 49.6797 30.5239 49.721 30.6592 49.7846L31.4921 50.0728C32.8378 50.4218 33.9897 50.5868 35.4412 50.5868ZM40.5113 37.8778H38.7357C38.1387 37.8778 37.6127 37.854 37.03 37.8543C36.7346 37.8545 36.501 37.8295 36.1885 37.8315C35.9166 37.8329 35.6207 37.7843 35.3476 37.7843L38.5944 38.1121C38.7546 38.1121 38.8444 38.1232 38.9704 38.1335C39.0924 38.1436 39.242 38.1323 39.3672 38.1337C39.5067 38.1355 39.5762 38.159 39.74 38.1583C40.2846 38.1553 40.7553 38.1814 41.3057 38.1814C41.8255 38.1814 42.2678 38.1578 42.7775 38.1581C43.0442 38.1583 43.2279 38.1342 43.5024 38.1352L44.9407 38.0549C45.2857 38.0028 45.8529 37.9962 46.1876 37.97L47.7381 37.8148C47.9709 37.7836 48.2054 37.7578 48.4326 37.7382C49.1498 37.6763 51.24 37.348 52.0398 37.1866C52.154 37.1636 52.2643 37.1302 52.3806 37.1302V37.1068C52.1499 37.1068 51.9041 37.1638 51.6791 37.1763L46.5997 37.6343L43.2227 37.8089C42.5831 37.8619 41.1353 37.8778 40.5113 37.8778ZM56.2124 36.4526C56.4773 36.4306 58.0774 36.1454 58.4789 36.0789C59.0579 35.9826 60.2508 35.7997 60.8147 35.7511C61.2073 35.7172 61.6174 35.6514 62.0091 35.6138C62.4204 35.5745 62.816 35.5389 63.2452 35.518C63.4289 35.5092 63.6577 35.4699 63.8527 35.4714L65.7921 35.4014C66.1231 35.4014 66.3702 35.4247 66.7032 35.4247C66.6713 35.4044 66.7253 35.4265 66.6555 35.4024C66.2263 35.2543 64.6398 35.1912 64.2501 35.1912C63.4761 35.1912 62.7501 35.2308 62.0321 35.2862C60.6447 35.3936 58.4251 35.7825 57.0976 36.1695C56.9422 36.2149 56.8054 36.2579 56.6424 36.2987C56.5372 36.325 56.2649 36.3812 56.2124 36.4526ZM45.1374 28.4629L42.4773 28.4128L40.9786 28.276C40.9967 28.2888 40.9901 28.2868 41.0238 28.3008C41.6472 28.5584 43.3998 28.7082 44.0628 28.743L46.6336 28.7438C46.7458 28.7408 46.7399 28.7249 46.843 28.7197C47.7556 28.6743 48.9726 28.5102 49.8671 28.3092L50.5768 28.1545C50.6787 28.1289 50.8113 28.0955 50.9132 28.0702C50.9974 28.0493 51.1978 28.0432 51.2356 27.9489C50.9237 28.0216 48.574 28.2811 48.2926 28.3L47.1456 28.3914C47.0076 28.403 46.8656 28.4052 46.7485 28.415C46.6135 28.4261 46.501 28.4091 46.3659 28.4297L45.1374 28.4629ZM53.8526 42.9708C54.3007 43.0079 54.4507 44.022 55.2544 44.022C55.5211 44.022 55.7453 43.8799 55.9265 43.7126C56.0572 43.592 56.1655 43.4514 56.2691 43.3077C56.3111 43.2495 56.3391 43.2127 56.3759 43.1576C56.2764 43.1807 56.1301 43.3183 56.0152 43.4042C55.6169 43.7021 55.3608 43.9388 54.8259 43.6095C54.6526 43.5029 54.4331 43.1942 54.2506 43.0634C54.2145 43.0378 53.8761 42.8333 53.8526 42.9708ZM44.0862 35.5416C44.355 35.5416 44.5763 35.3941 44.6234 35.1912C44.5213 35.2185 44.5048 35.2924 44.3342 35.3464C44.2038 35.3877 44.1009 35.3703 43.9855 35.3149C43.7578 35.2064 43.7254 35.1274 43.609 35.0375C43.5489 34.9911 43.5354 34.9817 43.4838 34.9289C43.4342 34.8784 43.4295 34.8653 43.3885 34.8138L42.8537 34.2274C42.7808 34.1549 42.7189 34.0511 42.614 34.0231C42.8772 34.5201 43.4111 35.5416 44.0862 35.5416ZM57.8481 32.5046C57.133 32.5046 57.1668 32.3877 56.5863 32.3877C56.4565 32.3877 56.4476 32.411 56.3293 32.411C56.3831 32.4844 56.4744 32.4711 56.6413 32.5195C57.2287 32.6902 57.7925 32.9446 58.3669 32.5561C58.5302 32.4459 58.7146 32.303 58.806 32.1308C58.5924 32.1804 58.1805 32.5046 57.8481 32.5046ZM43.7355 44.1153C43.9776 44.1153 44.0893 44.1134 44.3012 43.9803C44.4027 43.9164 44.5657 43.8268 44.5768 43.695C44.1684 43.9111 43.5842 43.9901 43.2152 43.6311C43.101 43.5199 42.8876 43.2659 42.7076 43.251L43.0911 43.802C43.2092 43.9543 43.4781 44.1153 43.7355 44.1153ZM51.6796 24.6547C51.3022 24.6547 51.5379 24.6179 51.0956 24.6547C51.1418 24.7178 51.2395 24.7436 51.326 24.7748C52.0447 25.0341 52.7115 24.7972 52.7777 24.0008C52.5724 24.1383 52.5054 24.6547 51.6796 24.6547ZM57.1237 23.2297C56.7852 23.2297 56.7047 23.0682 56.6097 23.0429C56.7585 23.6821 57.849 23.4547 58.2515 23.049C58.333 22.9667 58.4263 22.911 58.4556 22.7858C58.3723 22.8081 58.0777 22.9948 57.8512 23.0694C57.6676 23.13 57.3655 23.2297 57.1237 23.2297ZM33.3382 44.1153C33.3382 44.7189 33.4568 45.4703 34.2028 45.4703C34.1439 45.3078 33.8404 45.3375 33.6115 44.8002C33.4966 44.5306 33.4647 43.9955 33.4134 43.83L33.3849 43.7649C33.3591 43.8762 33.3382 43.9766 33.3382 44.1153ZM46.2122 25.6127C46.1228 25.6335 46.1137 25.646 46.0039 25.6612C45.3972 25.7457 45.3628 25.495 45.0908 25.4724C45.1241 25.5422 45.1177 25.5577 45.1698 25.6271C45.5244 26.1023 46.137 25.9353 46.2122 25.6127ZM50.7217 33.4389C50.3418 33.4389 50.4547 33.3689 50.0441 33.3689C49.9548 33.3689 50.0356 33.3618 49.9739 33.3922C50.0194 33.4544 50.5768 33.8924 50.9156 33.586C50.9754 33.5319 51.0289 33.4311 51.0487 33.3456C50.9257 33.3556 50.897 33.4389 50.7217 33.4389ZM47.9562 3.3475C46.9685 2.17424 47.4913 1.13355 47.4874 1.06822C47.5247 1.02008 47.5144 1.02992 47.5554 0.988396C47.7722 0.983742 48.1956 1.28456 48.3692 1.44541C48.8154 1.85845 49.1518 2.55339 49.1766 3.13731C49.1849 3.33992 49.1489 3.75147 48.9838 3.94006C48.6271 3.96703 48.1546 3.58298 47.9562 3.3475ZM50.2543 9.10316L50.5481 9.08842L50.6691 9.0654C50.4503 8.63195 49.6675 7.9061 49.2947 7.16915C48.8755 6.34063 48.8045 5.88612 48.7464 4.91393C48.4849 5.0743 48.0453 5.67175 47.8747 5.90945C46.9683 7.1716 46.5194 8.77955 46.5521 10.3064C46.5759 10.6273 46.6075 10.9473 46.6712 11.2668C46.7274 11.5485 46.863 11.9384 46.8919 12.1717C47.0115 12.142 47.9107 11.1219 49.0339 11.8918C51.1143 13.3178 49.7222 17.0979 46.9698 17.1099C45.8824 17.1146 45.0993 16.6718 44.5564 15.724C44.0248 14.7962 43.8631 13.3811 44.8322 12.6083C45.4335 12.129 45.8672 12.4003 46.5587 12.2653C46.303 11.4888 46.2468 10.856 46.2611 10.0346L46.2653 9.81284C46.3917 8.44902 46.7527 7.3133 47.412 6.17906C47.5675 5.91165 47.6991 5.71125 47.8727 5.46127C48.1104 5.11899 48.2366 4.96995 48.5252 4.67277C48.6833 4.51001 48.8387 4.34057 49.0305 4.19786C49.2296 4.05008 49.5967 3.86906 49.6451 4.28061C49.4873 4.4621 49.3006 4.49647 49.1693 4.69192C49.0445 4.87735 49.0631 5.11851 49.0771 5.38269C49.1302 6.38287 49.6068 7.26491 50.1974 7.99446L51.0536 8.92316C51.2391 8.80951 51.5514 7.84912 52.7637 7.96576C53.1677 8.00454 53.4928 8.17327 53.76 8.47551C53.8626 8.59168 53.9817 8.76822 54.063 8.92931C54.4419 9.68147 54.521 10.8115 54.1679 11.5855C53.7752 12.4467 52.848 13.0289 51.9008 13.0049C50.9798 12.9813 50.2131 12.5509 49.6461 11.8082C48.8353 10.7465 48.8235 9.30136 50.2543 9.10316ZM53.8233 9.23137C53.4223 8.3658 52.2822 8.05388 51.798 8.60295C52.0754 8.57575 52.46 8.56244 52.8136 8.64692C53.3059 8.76506 53.4427 8.92489 53.7558 9.26968C53.7585 9.27236 53.8403 9.32713 53.8233 9.23137ZM46.9403 5.13593C44.3587 5.58208 43.1692 4.20573 43.0653 4.16594C43.0207 4.08564 43.0278 4.10532 42.9961 4.02502C43.1594 3.74705 43.9553 3.41724 44.3391 3.3077C45.3255 3.0258 46.6591 3.07639 47.5768 3.446C47.8953 3.57415 48.4996 3.90223 48.6599 4.24088C48.4213 4.71137 47.4587 5.04632 46.9403 5.13593Z" fill="white"/>
<path d="M59.8555 86.8987H62.0389C62.3178 86.8987 62.6191 86.8886 62.9426 86.8679C63.1192 86.8544 63.386 86.8306 63.7441 86.7969L64.3026 87.6073L63.8175 87.8163C63.7393 87.728 63.6656 87.6532 63.5969 87.5919C63.4255 87.4326 63.1535 87.3522 62.7809 87.3522H61.23V93.5107L61.2446 93.6889C61.2642 93.8249 61.4652 93.8925 61.8474 93.8925V94.285H59.8555V93.8925C60.0907 93.8925 60.2498 93.8742 60.3331 93.8366C60.4161 93.7992 60.463 93.6907 60.4729 93.5107V87.6784L60.4505 87.5007C60.4113 87.3578 60.2132 87.2878 59.8555 87.2915V86.8987ZM103.804 88.2701L106.193 88.265L107.296 88.2701V88.5811C107.197 88.5811 107.116 88.5854 107.053 88.5936C106.989 88.6024 106.94 88.6135 106.906 88.6268C106.837 88.6573 106.8 88.7439 106.796 88.8867V93.556L106.818 93.6992C106.847 93.8111 107.006 93.8658 107.296 93.8623V94.1784H105.701V93.8623C106.004 93.8689 106.164 93.8146 106.178 93.6992L106.193 93.556V88.6217L104.238 88.6013C104.204 88.6185 104.191 88.6522 104.201 88.7034C104.211 88.754 104.213 88.8153 104.208 88.8867V93.556C104.213 93.6955 104.25 93.7841 104.319 93.8212C104.387 93.8517 104.517 93.8658 104.708 93.8623V94.1784H103.113V93.8623C103.417 93.8689 103.576 93.8146 103.591 93.6992L103.606 93.556V88.8867L103.591 88.7439C103.576 88.6355 103.417 88.5811 103.113 88.5811V88.2701H103.804ZM100.255 93.714L100.24 93.7194C100.236 93.7875 100.329 93.8281 100.52 93.8419V94.1524H99.2995V93.8419L99.469 93.8212C99.5814 93.8146 99.6525 93.7705 99.6819 93.6889L99.7333 93.5459L100.579 91.1708L99.6745 88.8562C99.6204 88.6968 99.4883 88.6013 99.2775 88.5708V88.2544H100.593V88.5708C100.392 88.5811 100.28 88.6066 100.255 88.6474L100.248 88.7087V88.7439C100.243 88.7883 100.255 88.8429 100.285 88.9073L100.829 90.5181L101.409 88.9124C101.424 88.8649 101.436 88.8238 101.446 88.7898C101.456 88.7562 101.461 88.7289 101.461 88.7087C101.456 88.6573 101.417 88.6217 101.343 88.6013L101.13 88.5708V88.2544H102.438V88.5708C102.316 88.5843 102.228 88.6082 102.174 88.6421L102.108 88.7034C102.088 88.7336 102.07 88.766 102.053 88.8002C102.035 88.8342 102.02 88.8696 102.005 88.9073L100.887 91.8383L100.255 93.714ZM96.2433 89.2534H97.2949C97.7993 89.2505 98.0494 89.1486 98.0443 88.9479C98.0443 88.7439 97.7945 88.6384 97.2949 88.6318H96.2433V89.2534ZM97.2872 88.2701C97.7431 88.2701 98.0639 88.3059 98.2504 88.3769C98.5392 88.4859 98.6837 88.676 98.6837 88.9479C98.6739 89.237 98.5297 89.4274 98.2504 89.5189C98.0738 89.5804 97.7529 89.6125 97.2872 89.6157H96.2433V93.556L96.2654 93.6992C96.2901 93.8111 96.4492 93.8658 96.7433 93.8623V94.1784H95.1481V93.8623L95.4127 93.8469C95.5451 93.8331 95.6162 93.7841 95.6263 93.6992L95.6406 93.556V88.8867L95.6263 88.7439C95.5915 88.6355 95.4324 88.5811 95.1481 88.5811V88.2701H97.2872ZM89.7402 86.8987H91.9233C92.2023 86.8987 92.5038 86.8886 92.8273 86.8679C93.0039 86.8544 93.2707 86.8306 93.6285 86.7969L94.187 87.6073L93.702 87.8163C93.6237 87.728 93.5503 87.6532 93.4816 87.5919C93.31 87.4326 93.0379 87.3522 92.6656 87.3522H91.1147V93.5107L91.1293 93.6889C91.1486 93.8249 91.3496 93.8925 91.732 93.8925V94.285H89.7402V93.8925C89.9754 93.8925 90.1345 93.8742 90.2178 93.8366C90.3008 93.7992 90.3475 93.6907 90.3573 93.5107V87.6784L90.3352 87.5007C90.2963 87.3578 90.0979 87.2878 89.7402 87.2915V86.8987ZM81.9444 89.1519L83.3558 89.1261L83.2969 88.6318H82.0181L81.9444 89.1519ZM80.0851 93.8623C80.4081 93.8623 80.5921 93.801 80.6362 93.6788L80.6802 93.5003L81.3859 88.892C81.3957 88.8175 81.4007 88.766 81.4007 88.7392C81.4053 88.661 81.3273 88.6145 81.1655 88.6013L80.9083 88.5811V88.1884C81.6824 88.2464 82.2653 88.2732 82.6575 88.2701C83.0447 88.2732 83.6281 88.2464 84.407 88.1884V88.5811L84.15 88.6013C83.983 88.6116 83.9047 88.6588 83.9148 88.7439C83.9095 88.7676 83.9148 88.8175 83.9294 88.892L84.6277 93.5003C84.6568 93.6568 84.7123 93.7559 84.7932 93.7986C84.8738 93.8408 85.0196 93.8623 85.2302 93.8623V94.1784H83.5838V93.8623C83.8925 93.8689 84.0519 93.801 84.0617 93.6581C84.0617 93.6173 84.0567 93.5732 84.0469 93.5255L83.4001 89.4881H81.9152L81.2684 93.5255C81.2535 93.5732 81.2488 93.6173 81.2535 93.6581C81.2535 93.801 81.413 93.8689 81.7314 93.8623V94.1784H80.0851V93.8623ZM76.8746 89.2534H77.9258C78.43 89.2505 78.6801 89.1486 78.6753 88.9479C78.6753 88.7439 78.4254 88.6384 77.9258 88.6318H76.8746V89.2534ZM77.9181 88.2701C78.3738 88.2701 78.6949 88.3059 78.8811 88.3769C79.1701 88.4859 79.3147 88.676 79.3147 88.9479C79.3048 89.237 79.1606 89.4274 78.8811 89.5189C78.7047 89.5804 78.3835 89.6125 77.9181 89.6157H76.8746V93.556L76.8961 93.6992C76.921 93.8111 77.0799 93.8658 77.3742 93.8623V94.1784H75.7791V93.8623L76.0437 93.8469C76.1758 93.8331 76.2469 93.7841 76.257 93.6992L76.2715 93.556V88.8867L76.257 88.7439C76.2225 88.6355 76.063 88.5811 75.7791 88.5811V88.2701H77.9181ZM71.6202 86.9854L71.6494 87.0923C71.8016 87.5583 72.1177 87.7908 72.598 87.7908C73.0827 87.7908 73.3991 87.5583 73.5461 87.0923L73.583 86.9854H73.1271C73.1172 87.0364 73.1053 87.0791 73.0902 87.1127C73.012 87.3304 72.8481 87.4389 72.598 87.4389C72.3429 87.4389 72.1814 87.3304 72.1124 87.1127C72.0984 87.0791 72.0856 87.0364 72.0758 86.9854H71.6202ZM74.6782 94.1784H73.0902V93.8623C73.3795 93.8658 73.536 93.8111 73.5606 93.6992L73.583 93.556V88.9124L71.4587 89.7483V93.556C71.4632 93.7331 71.542 93.83 71.6936 93.8469L71.9512 93.8623V94.1784H70.356V93.8623C70.6695 93.8658 70.8312 93.8111 70.8411 93.6992L70.8556 93.556V88.8867C70.8508 88.754 70.8164 88.671 70.7528 88.6373C70.6891 88.6029 70.5568 88.5843 70.356 88.5811V88.2701H71.9512V88.5811C71.7451 88.5843 71.6154 88.5997 71.5613 88.6268C71.4879 88.6644 71.4534 88.7511 71.4587 88.8867V89.3303L73.4872 88.5299V88.2701H74.6782V88.5811C74.5851 88.588 74.5019 88.5947 74.4284 88.6013C74.2714 88.6145 74.1903 88.7235 74.1857 88.9275V93.556C74.1804 93.6992 74.2136 93.7867 74.2849 93.8188C74.3557 93.8514 74.487 93.8658 74.6782 93.8623V94.1784ZM65.8739 91.446C65.864 93.0702 66.3345 93.8756 67.2856 93.8623C68.2066 93.8658 68.6646 93.0516 68.6601 91.4206C68.655 90.6014 68.5274 89.8825 68.2776 89.264C68.0962 88.8118 67.7534 88.5843 67.2487 88.5811C66.7732 88.5811 66.4425 88.8084 66.2566 89.264C66.1189 89.57 66.0258 89.879 65.9767 90.1919C65.9084 90.5555 65.8739 90.9735 65.8739 91.446ZM67.2558 88.173C68.0302 88.173 68.5667 88.5098 68.8658 89.1826C69.0029 89.4918 69.1058 89.8284 69.1745 90.1919C69.2576 90.63 69.2997 91.0517 69.2997 91.4561C69.3042 93.3319 68.6256 94.2699 67.2632 94.2699C66.9201 94.2734 66.6199 94.2132 66.3626 94.0888C66.1054 93.9649 65.906 93.8029 65.7638 93.6024C65.6217 93.4019 65.5161 93.1792 65.4474 92.9344C65.3053 92.4857 65.2369 91.9945 65.2419 91.4612C65.2517 89.2791 65.9229 88.1831 67.2558 88.173Z" fill="white"/>
<path d="M53.9739 69.9329C54.8908 69.6058 55.6625 69.5466 56.2885 69.7569C56.9106 70.0007 57.2966 70.4687 57.4472 71.1602C57.581 71.7774 57.4388 72.5486 57.0201 73.4739C60.8752 72.0794 64.0208 70.5434 66.4569 68.866C66.4921 68.8445 66.5261 68.8253 66.5586 68.8085C66.8405 68.5757 67.1227 68.536 67.4049 68.6897C67.8451 68.9561 68.2422 69.2657 67.8841 69.7532C65.6472 73.0082 63.8008 75.5867 62.3451 77.4881C62.2383 77.6493 62.185 77.7137 62.185 77.6815C62.256 77.6815 62.3451 77.6332 62.4513 77.5364C62.9484 77.0854 63.9606 76.344 65.4875 75.3126C67.4049 74.0234 68.7719 73.2662 69.5887 73.0408C70.1726 72.8636 71.0802 72.6972 71.0802 73.524C71.0802 73.7497 70.9913 74.0719 70.814 74.491C70.0682 76.2956 68.9497 77.6975 67.4581 78.6967C67.2806 78.7935 67.174 78.874 67.1386 78.9382C67.1386 79.1156 67.6161 78.9116 67.6712 78.8903C71.1867 77.7621 73.9741 76.4891 76.0336 75.071C76.0566 75.057 76.0791 75.0443 76.1004 75.0329C76.537 74.1706 77.0951 73.3048 77.7771 72.4364C78.065 72.0695 78.3569 71.7424 78.6518 71.456C79.73 70.4079 80.1315 70.0349 81.5999 69.6206C82.9392 69.2426 84.275 69.2307 84.275 70.0918C84.275 71.4453 83.6486 72.4853 82.4111 73.234L81.9317 73.524L80.7065 74.2492H80.6533C80.4046 74.378 80.1897 74.4699 80.014 74.5391C79.3475 74.8021 79.3099 74.4169 79.8543 74.1524C81.4097 73.3968 82.2703 72.2993 82.4111 70.817C82.4476 70.4304 82.2334 70.2366 81.7718 70.2366C81.4167 70.2366 81.1218 70.3882 80.8662 70.6718C79.5243 72.1606 78.4143 74.007 77.5639 76.2312C77.2068 77.1651 77.0313 78.0038 77.0313 78.745C77.0313 80.0665 77.5639 80.7272 78.6294 80.7272C79.4817 80.7272 80.5116 80.2052 81.7718 79.2283C81.8151 79.1949 81.8609 79.1785 81.9034 79.1756C81.9935 78.5618 82.4527 78.1767 83.2818 78.0199C83.8143 78.0844 84.0095 78.584 83.8674 79.5186C83.8674 79.8407 83.9916 80.0021 84.2405 80.0021C84.4889 80.0021 84.8619 79.8407 85.3587 79.5186C86.1754 78.9708 87.1255 78.294 88.2085 77.4881C89.2917 76.6824 90.1704 76.0056 90.8449 75.4577C91.2356 75.1354 91.5551 74.8454 91.804 74.5875C92.2653 74.1039 92.656 73.6447 92.9757 73.2096C93.2951 72.7745 93.6502 72.3153 94.041 71.832C94.2895 71.5096 94.5381 71.1794 94.7864 70.8411C95.0353 70.5026 95.2837 70.2205 95.5326 69.9947C95.6388 69.8983 95.7365 69.8015 95.8252 69.7047C95.9142 69.6082 96.0472 69.5596 96.2247 69.5596H96.6509C96.8993 69.5596 97.0592 69.6404 97.1301 69.8015C97.1301 69.9305 97.0414 70.0756 96.8639 70.2366C96.1536 71.2035 95.4525 72.1542 94.7599 73.0889C94.0675 74.0234 93.5081 74.8616 93.0821 75.6027C92.7626 76.2151 92.4784 76.8113 92.23 77.3915C91.9811 77.9715 91.7503 78.584 91.5375 79.2283C91.4665 79.5507 91.4309 79.7764 91.4309 79.9053C91.4309 80.4531 91.7328 80.7272 92.3365 80.7272C92.4784 80.7272 92.6913 80.6948 92.9757 80.6304C94.2542 80.3084 95.4079 79.8087 96.438 79.1319C97.4676 78.4552 98.5683 77.6332 99.74 76.6664C99.8091 76.6037 99.8946 76.5717 99.9968 76.5697C100.498 75.8399 101.016 75.0742 101.548 74.2733C102.116 73.4194 102.56 72.6699 102.88 72.0253C103.809 70.2318 101.346 70.7261 104.105 69.85C104.744 69.6567 105.215 69.6483 105.516 69.8259C105.818 70.0032 105.703 70.4139 105.17 71.0585C104.318 72.122 103.519 73.2181 102.773 74.3458C102.028 75.474 101.46 76.4407 101.069 77.2464C100.643 78.1489 100.59 78.7611 100.909 79.0835C101.229 79.4056 101.85 79.3413 102.773 78.8903C103.554 78.5031 104.389 78.028 105.277 77.4641C107.05 76.3373 108.745 75.0801 110.364 73.7415C111.162 73.0808 111.881 72.4443 112.521 71.832C112.698 71.6386 112.84 71.5901 112.947 71.6869C113.053 71.7837 113 71.9287 112.787 72.122C111.402 73.3789 109.84 74.6602 108.1 75.9653C106.36 77.2708 104.655 78.3744 102.986 79.2769C102.063 79.7925 101.238 80.147 100.51 80.3404C99.7816 80.5337 99.249 80.5499 98.9119 80.3886C98.5742 80.2278 98.4677 79.8488 98.5922 79.2527C98.682 78.8216 98.9345 78.2597 99.3493 77.5672C98.3804 78.3222 97.4811 78.9729 96.6509 79.5186C95.6212 80.1953 94.5912 80.6948 93.5614 81.0172C92.6027 81.3073 91.804 81.4524 91.1644 81.4524C90.0638 81.4524 89.5136 81.0335 89.5136 80.1953C89.5136 79.8407 89.6022 79.4783 89.7798 79.1076C89.9576 78.7371 90.1349 78.4067 90.3124 78.1166C90.5965 77.6654 90.854 77.2301 91.0847 76.8113C91.3155 76.3924 91.5019 76.0539 91.6438 75.7961C91.6438 75.7318 91.6532 75.6914 91.6708 75.6754C91.6885 75.6592 91.6973 75.635 91.6973 75.6027C91.6973 75.5383 91.6617 75.5061 91.5908 75.5061C91.4842 75.5061 91.2 75.6834 90.7384 76.0378C88.5369 77.8105 86.8859 79.0676 85.785 79.8087C85.3587 80.1311 84.9505 80.3485 84.56 80.4612C84.1694 80.574 83.8143 80.6304 83.4944 80.6304H83.3351C82.9444 80.5984 82.6069 80.4694 82.3229 80.2438C82.0987 80.0657 81.9629 79.827 81.9154 79.5282C80.6327 80.5929 79.3706 81.114 78.1501 81.114C77.5107 81.114 76.9043 80.9899 76.339 80.7272C75.4489 80.3134 75.0075 79.567 75.0075 78.5031C75.0075 78.0844 75.1522 77.4565 75.4335 76.6181C75.5423 76.2934 75.6682 75.9685 75.8117 75.6429C74.1907 76.6473 71.5481 77.8264 67.8841 79.1801C66.3407 79.761 64.009 80.4756 62.4513 79.567C62.3095 79.5027 62.2739 79.4219 62.3451 79.3254C62.3805 79.2283 62.4868 79.2123 62.6646 79.2769C63.2325 79.4701 63.9606 79.3815 64.848 79.011C65.736 78.6402 66.5705 77.9797 67.3518 77.0289C68.133 76.078 68.6477 75.1677 68.896 74.2975C68.9673 74.0719 68.9317 73.9432 68.7899 73.9107C68.6833 73.8461 68.5057 73.8787 68.2571 74.0075C66.6948 74.8132 64.6707 76.1992 62.185 78.1651C61.6524 78.584 60.9601 79.4219 60.1078 80.6789C57.5513 84.4176 55.4206 87.3502 53.7161 89.4773C50.9108 92.9256 48.7626 95.0851 47.2712 95.9554C46.419 96.4389 45.7088 96.6805 45.1407 96.6805C44.1465 96.6805 43.7559 96.1646 43.9691 95.1334C44.1465 94.2635 44.7502 93.2641 45.7799 92.1362C47.5908 90.1381 49.5262 88.2526 51.5853 86.48C52.0117 86.0931 54.1068 84.3691 57.8708 81.3073C58.3681 80.8882 58.7584 80.4531 59.0426 80.0021C61.5585 75.8013 63.7349 72.476 65.5717 70.0263C63.55 71.1986 60.6105 72.5276 56.7517 74.0133C56.4612 74.5381 56.0645 75.0714 55.5608 75.6129C54.0346 77.254 51.635 79.1456 49.4195 79.6566C43.4319 81.0374 49.8289 71.4119 53.9739 69.9329ZM29.3443 55.9754C29.3443 56.201 29.2394 56.4347 29.03 56.6764C28.8206 56.9183 28.6029 57.0551 28.3776 57.0871C26.637 57.2161 24.1391 57.4256 20.8843 57.7155C18.9505 57.8769 17.2746 58.1186 15.8565 58.4407C13.7619 58.9242 12.7142 60.0523 12.7142 61.8248C12.7142 62.0182 12.7303 62.3164 12.7623 62.7193C12.7948 63.1221 12.9396 63.5976 13.1974 64.1454C13.2621 64.2745 13.2946 64.371 13.2946 64.4353C13.2946 64.5323 13.1654 64.6451 12.9076 64.7739C12.5208 64.9672 12.3194 65.0718 12.3032 65.088C12.2872 65.1043 12.2145 65.1123 12.0858 65.1123C11.8924 65.1123 11.7473 64.9831 11.6507 64.7253C11.4573 64.2746 11.3607 63.7747 11.3607 63.227C11.3607 62.8078 11.4251 62.4051 11.5539 62.0182C12.263 59.9235 13.9872 58.4247 16.7268 57.5223C20.82 56.1687 24.6714 55.4917 28.2808 55.4917C28.9901 55.4917 29.3443 55.6531 29.3443 55.9754ZM50.3254 53.655C50.3254 53.8482 50.2287 54.0414 50.0355 54.235C49.1651 55.1053 48.0855 56.056 46.7962 57.0871C45.8938 57.7964 45.1366 58.6342 44.5242 59.6009C42.3648 62.9529 40.7533 66.208 39.6896 69.3667C38.8194 71.9769 38.3843 74.3458 38.3843 76.473C38.3843 77.0854 38.4006 77.5848 38.4329 77.9715C38.5616 79.5186 39.2871 80.2921 40.6084 80.2921C41.0594 80.2921 41.5914 80.1792 42.2036 79.9535C43.6538 79.4056 45.0559 78.1005 46.4094 76.0378C47.8597 73.8141 48.5852 71.7675 48.5852 69.8983C48.5852 68.0288 47.8114 66.5465 46.2646 65.4508C46.2001 65.4182 46.1679 65.354 46.1679 65.2575V65.2089C46.1679 65.1767 46.1842 65.1604 46.2162 65.1604C46.3128 65.1604 46.4095 65.1929 46.5062 65.2575C47.7955 65.9986 48.5527 67.1263 48.7781 68.6412C48.8427 69.0923 48.8752 69.5922 48.8752 70.14C48.8752 71.8479 48.5044 73.4596 47.7629 74.9744C46.5062 77.5848 44.6208 79.4381 42.107 80.5337C41.0757 80.985 40.141 81.2108 39.303 81.2108C37.1759 81.2108 36.1124 79.986 36.1124 77.5364C36.1124 76.9564 36.1768 76.3602 36.3056 75.7478C37.047 72.1059 38.6262 68.2867 41.0433 64.2905C42.397 62.1956 43.7346 60.0845 45.0559 57.9574C45.0559 57.9254 45.0398 57.9091 45.0076 57.9091C44.9754 57.9091 44.9432 57.9254 44.9108 57.9574C42.3648 59.4723 39.593 61.4382 36.596 63.8554C32.7284 66.9816 29.6021 69.7373 27.2173 72.122C26.8948 73.9266 26.3632 75.7156 25.6218 77.4881C24.7195 79.6152 23.7526 80.8562 22.7214 81.2108C22.5281 81.275 22.3183 81.3073 22.093 81.3073C21.4481 81.3073 21.1259 80.9364 21.1259 80.1953C21.1259 78.6484 22.3828 76.5372 24.8968 73.8624C25.1224 73.6367 25.4447 73.3145 25.8637 72.8957C25.8959 72.5731 25.9118 72.0253 25.9118 71.2518V70.2366C25.9118 69.3667 25.8313 66.7076 25.6703 62.26C25.6703 62.0988 25.6543 62.0182 25.6218 62.0182C25.6218 62.0505 25.5735 62.1313 25.4767 62.26L21.9962 67.481C19.4178 71.3486 17.0007 74.4748 14.7448 76.8596C11.7151 80.0505 8.75029 81.6456 5.84934 81.6456C5.26942 81.6456 4.65705 81.5813 4.0124 81.4524C1.33739 80.9364 0 79.0028 0 75.6513C0 75.2967 0.0161086 74.9262 0.0483262 74.5391C0.0804841 74.3138 0.161028 74.201 0.289838 74.201C0.418828 74.201 0.483442 74.2812 0.483442 74.4426C0.483442 74.507 0.467154 74.6117 0.435116 74.7567C0.4026 74.9018 0.38667 75.1032 0.38667 75.361C0.38667 76.8113 0.918379 77.9073 1.98204 78.6484C2.9167 79.2929 4.12528 79.6152 5.60776 79.6152C8.57297 79.6152 11.4893 78.3583 14.3578 75.8446C16.6462 73.8461 19.16 70.817 21.8994 66.7558C23.2207 64.7899 24.4135 62.8724 25.4767 61.0031C25.6381 60.7131 25.7186 60.4552 25.7186 60.2296C25.7186 60.1652 25.7104 60.0845 25.6943 59.9881C25.6784 59.8913 25.6703 59.8108 25.6703 59.7462C25.6703 59.4236 25.7991 59.1177 26.0571 58.8278C26.5402 58.2799 26.9916 57.9413 27.4106 57.8126H27.5072C27.604 57.8126 27.6524 57.9254 27.6524 58.1508V62.4534C27.6524 66.4498 27.5718 69.1731 27.4106 70.6234C27.3784 70.9135 27.3462 71.1713 27.314 71.3969C28.5709 70.14 29.7311 69.028 30.7946 68.0613C34.4365 64.7094 38.5135 61.3416 43.0254 57.9574C45.1849 56.346 46.8125 55.0085 47.9082 53.945C48.3594 53.5261 48.9395 53.3163 49.6484 53.3163C50.0997 53.3163 50.3254 53.4293 50.3254 53.655ZM25.8152 73.5724C24.2363 75.3126 23.1402 76.8596 22.5281 78.2133C22.2057 78.9223 22.0445 79.5186 22.0445 80.0021C22.0445 80.5499 22.2218 80.8237 22.5763 80.8237C23.1561 80.8237 23.7526 80.1953 24.3649 78.9382C25.1387 77.3269 25.6218 75.5383 25.8152 73.5724ZM109.058 63.5653C109.258 64.0496 109.125 64.6165 108.739 64.9672C108.348 65.3218 107.976 65.3862 107.62 65.1604C107.443 65.0317 107.336 64.8785 107.301 64.7012C107.265 64.5239 107.265 64.3871 107.301 64.2905C107.516 63.7017 107.783 63.3573 108.446 63.2509C108.748 63.2029 108.952 63.3075 109.058 63.5653ZM57.6043 82.1292C57.5689 82.0967 57.4623 82.1451 57.2849 82.2743C53.4496 85.3037 49.8632 88.7363 46.5255 92.5713C45.2828 94.0216 44.6613 95.0689 44.6613 95.7138C44.6613 96.1646 44.8745 96.3903 45.3006 96.3903C46.1882 96.3903 47.4309 95.4719 49.0289 93.6348C52.0473 90.1864 54.8526 86.4637 57.4448 82.4676C57.5866 82.2743 57.64 82.1613 57.6043 82.1292ZM49.2907 79.2784C49.8502 79.0659 50.4399 78.6754 51.0595 78.1061C52.2949 76.9723 53.419 75.6028 54.2919 74.1711C54.7156 73.4759 55.032 72.8811 55.2418 72.3864C55.6805 71.2261 55.599 70.5164 54.998 70.2573C54.3967 69.9985 53.5444 70.3417 52.4421 71.2878C51.3718 72.1534 50.035 73.6117 49.27 74.7744C48.6999 75.6417 48.1265 76.822 47.8013 77.6578C47.306 78.9322 48.1333 79.718 49.2907 79.2784Z" fill="white"/>
</g>
<defs>
<clipPath id="clip0_471_3024">
<rect width="113" height="95.6923" fill="white" transform="translate(0 0.988281)"/>
</clipPath>
</defs>
</svg>
