<svg width="113" height="33" viewBox="0 0 113 33" fill="none" xmlns="http://www.w3.org/2000/svg">
<g clip-path="url(#clip0_471_3131)">
<path d="M23.6565 10.1634C23.3217 8.83374 22.8551 7.54488 22.169 6.34015C21.0033 4.29497 19.4803 2.59846 17.3518 1.56286C15.9511 0.880262 12.5086 -0.00355458 7.97937 0.918425C5.79542 1.65393 4.11279 3.03212 2.78663 4.90297C1.90802 6.14066 1.27139 7.50065 0.769203 8.91007C0.410125 9.91965 0.272218 11.0064 0.0120174 12.0524C-0.076451 12.4098 0.346809 22.0962 0.520277 22.8404C0.906242 24.5221 1.62179 26.0582 2.58627 27.4832C3.70861 29.139 5.11716 30.4712 6.95765 31.3125C7.9733 31.7774 9.03926 32.0246 10.1425 32.2284C11.7679 32.5277 13.3517 32.3854 14.9129 32.0671C17.2217 31.597 19.1264 30.3697 20.6321 28.5448C21.5385 27.4459 22.2393 26.2291 22.823 24.9272C23.4622 23.5013 23.7649 21.9895 24.0633 20.4803C24.2411 19.58 24.2671 18.6459 24.3139 17.7239C24.4406 15.1748 24.2853 12.6431 23.6565 10.1634ZM18.253 21.9592C17.632 23.9887 16.4472 25.6254 14.5295 26.589C13.3152 27.1961 11.9821 27.2924 10.636 26.9845C8.8337 26.5725 7.58647 25.4563 6.59424 23.9488C5.73384 22.6478 5.34874 21.1855 5.13277 19.6867C4.76676 17.1446 4.76416 14.605 5.30624 12.0654C5.62109 10.5832 6.09552 9.19889 7.04092 8.0089C8.92217 5.61505 11.7957 5.04435 14.4844 6.11117C15.8123 6.63764 16.7837 7.66544 17.5201 8.91701C18.3007 10.2484 18.6155 11.702 18.7829 13.2025C18.8957 14.219 18.9633 15.2399 19.0509 16.259C18.9859 18.1932 18.8211 20.1039 18.253 21.9548V21.9592Z" fill="white"/>
<path d="M58.9007 23.2176C58.5191 24.4882 58.0932 25.7406 57.4661 26.9228C56.8286 28.125 56.0723 29.2256 55.0159 30.086C53.6845 31.1719 52.1875 31.9291 50.4554 32.1182C49.5699 32.2136 48.6705 32.348 47.7892 32.2856C45.3329 32.1121 43.2071 31.1962 41.4386 29.4034C40.3283 28.2835 39.4209 26.9793 38.7568 25.549C38.1115 24.156 37.7117 22.6642 37.4064 21.136C36.899 18.5903 36.9978 16.0412 37.1592 13.4965C37.2459 12.1729 37.5755 10.8502 37.9276 9.56308C38.2182 8.49625 38.6718 7.47366 39.1167 6.45801C39.3683 5.90734 39.6761 5.38416 40.0353 4.89681C40.9026 3.68253 41.8714 2.54546 43.182 1.78567C43.8758 1.38236 44.6373 1.08573 45.3746 0.75614C45.5428 0.680682 45.849 0.554051 46.2497 0.420481C48.1366 -0.200639 50.1827 -0.13179 52.0236 0.614765C52.9568 0.992056 53.8667 1.41965 54.7011 2.0025C56.1248 2.98811 57.238 4.35918 57.9102 5.95496C58.2493 6.74944 58.5503 7.5604 58.8582 8.36789C59.0455 8.85793 58.9016 9.17711 58.3864 9.34364C57.6587 9.57956 56.9188 9.77731 56.1859 9.99501C55.7705 10.119 55.3585 10.2552 54.9448 10.3801C54.4122 10.5423 54.2093 10.4374 54.0245 9.91262C53.7175 9.04007 53.4027 8.17187 52.8215 7.4303C51.5474 5.80578 49.8674 5.18997 47.85 5.43542C45.7684 5.68868 44.3806 6.9203 43.4265 8.6862C42.4898 10.4304 42.2123 12.355 42.2071 14.3031C42.1984 16.3387 42.1793 18.3856 42.3805 20.4065C42.554 22.1273 43.0605 23.8091 44.2496 25.1717C45.5203 26.6279 47.1344 27.3808 49.0556 27.1665C50.8692 26.9619 52.1884 25.9028 53.054 24.3043C53.557 23.378 53.9525 22.4083 54.126 21.3554C54.2188 20.7882 54.4729 20.639 54.9821 20.835C56.1417 21.2756 57.2961 21.7362 58.4349 22.2271C58.9848 22.4604 59.0733 22.6434 58.9007 23.2176Z" fill="white"/>
<path d="M113 9.28194V31.746C112.805 31.7939 112.608 31.8264 112.408 31.8431C111.252 31.8509 110.097 31.8431 108.939 31.8431C108.371 31.8431 108.177 31.6696 108.178 31.1059C108.189 24.8645 108.198 18.6229 108.207 12.3809C108.207 11.6298 108.194 10.8787 108.182 10.1259C108.17 9.39383 108.325 9.26546 109.069 9.2646C110.121 9.2646 111.174 9.21603 112.226 9.20215C112.485 9.21405 112.744 9.24069 113 9.28194Z" fill="white"/>
<path d="M113 0.868837V5.81266C112.541 5.83434 112.081 5.86817 111.623 5.87424C110.7 5.88638 109.778 5.88638 108.855 5.88465C108.372 5.88465 108.21 5.7398 108.204 5.28358C108.19 4.01727 108.182 2.75096 108.179 1.48465C108.179 0.9946 108.413 0.78297 108.904 0.782103C110.072 0.782103 111.239 0.772562 112.406 0.782103C112.606 0.796086 112.804 0.825079 113 0.868837Z" fill="white"/>
<path d="M93.3892 30.3053C93.3892 30.5941 93.4083 30.8838 93.3979 31.1726C93.3805 31.6583 93.175 31.8456 92.6919 31.8439C91.5354 31.8439 90.379 31.841 89.2225 31.8352C88.6561 31.8352 88.4818 31.6566 88.4931 31.0789C88.5052 30.4145 88.526 29.7502 88.5269 29.084C88.5327 25.7454 88.5356 22.407 88.5356 19.0689C88.5356 18.323 88.4038 18.1929 87.6466 18.192L78.8865 18.1834C78.3149 18.1834 78.1215 18.3568 78.1215 18.9258C78.1215 22.8999 78.127 26.8744 78.138 30.8491C78.138 31.6678 77.9784 31.8439 77.1605 31.8396C76.0624 31.8326 74.9644 31.8396 73.8646 31.8396C73.2817 31.8396 73.084 31.6288 73.084 31.0538C73.084 26.1389 73.084 21.224 73.084 16.309H73.11C73.11 11.6555 73.11 7.00078 73.11 2.34492C73.11 2.06997 73.0866 1.79589 73.0866 1.52181C73.0866 1.08207 73.2895 0.810599 73.7223 0.801925C74.9644 0.77764 76.2073 0.773303 77.4519 0.801925C77.9593 0.813201 78.1458 1.08381 78.1458 1.60595C78.1348 5.17475 78.1255 8.74413 78.118 12.3141C78.118 12.9394 78.3374 13.1754 78.8839 13.1745L87.1192 13.1615C87.3074 13.1615 87.4957 13.1667 87.683 13.1615C88.2901 13.1441 88.5503 12.877 88.5503 12.2707C88.5503 11.5482 88.5365 10.8257 88.5365 10.1024C88.5365 7.48649 88.5365 4.8706 88.5365 2.25471C88.5365 1.99451 88.5026 1.73431 88.5026 1.47411C88.5026 1.01616 88.7065 0.794986 89.1523 0.79065C90.3521 0.779085 91.5513 0.775616 92.75 0.780242C93.1836 0.780242 93.397 1.01009 93.4074 1.46891C93.417 1.88783 93.3996 2.30675 93.3996 2.72568C93.3932 11.9206 93.3898 21.1138 93.3892 30.3053Z" fill="white"/>
</g>
<defs>
<clipPath id="clip0_471_3131">
<rect width="113" height="32.3928" fill="white"/>
</clipPath>
</defs>
</svg>
