<svg width="113" height="57" viewBox="0 0 113 57" fill="none" xmlns="http://www.w3.org/2000/svg">
<g clip-path="url(#clip0_471_3108)">
<path d="M68.981 50.1369C69.0421 44.0963 68.9525 40.4451 68.7122 39.1833L64.0555 39.3155C64.7285 41.9803 64.8482 45.2094 64.4145 49.0028L60.6246 48.9382C60.2651 45.1147 60.3748 41.8246 60.9536 39.0676L57.1126 39.341C56.5558 40.5878 56.299 45.2885 56.342 53.4431L63.1678 53.5242L68.942 53.6008L68.8308 55.5852L72.3609 56.1259L72.442 52.6169L72.5096 50.556L68.981 50.1369Z" fill="white"/>
<path d="M81.3079 39.8083L77.7478 46.6054L78.4583 39.5244L74.1322 39.8473L73.0762 53.3155L76.6197 53.341L76.6483 47.8567L80.306 55.6964L84.7058 52.9415L79.4422 47.9288L86.1703 40.5879L81.3079 39.8083Z" fill="white"/>
<path d="M51.1596 39.1186C49.6546 39.134 48.1679 39.4501 46.7868 40.0484C45.0924 40.8025 44.2537 41.7594 44.2708 42.919C44.2828 43.7873 44.7384 44.613 45.6377 45.3961C46.4809 46.1251 47.6326 46.764 49.0926 47.3128C47.257 47.7684 45.6998 48.9126 44.421 50.7452L48.298 53.4175C48.7416 51.9274 49.9433 50.4923 51.9031 49.1124L51.8866 52.2669L56.0295 53.1486L55.5789 39.766C54.1486 39.321 52.6574 39.1026 51.1596 39.1186ZM51.9272 47.0184C50.1847 46.2483 49.3089 45.4546 49.2999 44.6375C49.2864 44.0036 49.7085 43.6836 50.5632 43.6716C51.0303 43.6798 51.4943 43.7485 51.9437 43.8759L51.9272 47.0184Z" fill="white"/>
<path d="M91.5527 47.4179L91.7359 40.801L87.3452 40.1115L86.3838 54.146L91.3183 55.6316L95.8353 48.1329L95.3711 54.3878L99.3653 55.1885L100.303 42.4789L95.64 40.9497L91.5527 47.4179Z" fill="white"/>
<path d="M33.1057 41.1422L30.4619 54.5383L35.3634 54.4317L36.7979 46.58L39.6595 53.9029L44.4408 52.8169L39.2374 39.7798L33.1057 41.1422Z" fill="white"/>
<path d="M16.5596 41.2696C17.1304 49.4022 17.7393 54.0718 18.3862 55.2785H22.2392C21.452 52.5747 21.096 49.3 21.1711 45.4545L24.943 45.1271C25.663 48.8774 25.7867 52.1065 25.314 54.8144L29.9707 54.6176C30.1419 53.1155 29.8555 48.3196 29.1115 40.2301L16.5596 41.2696Z" fill="white"/>
<path d="M18.2882 38.8723C20.5535 38.5659 22.5348 37.5439 24.2322 35.8065C26.0678 33.9038 26.8099 31.8288 26.4584 29.5816C26.1239 27.4185 25.2356 25.6795 23.7936 24.3647C22.2914 22.9907 20.5344 22.4399 18.5226 22.7123C16.1422 23.0328 14.274 24.3687 12.9181 26.72C11.6384 28.8914 11.165 31.4444 11.5812 33.9303C11.8526 35.7128 12.6137 37.0512 13.8644 37.9455C15.0742 38.7987 16.5488 39.1077 18.2882 38.8723ZM16.4181 33.1642C16.2679 32.1307 16.5683 31.0612 17.3464 29.9586C18.1245 28.8561 19.0168 28.2342 20.0127 28.102C21.605 27.8847 22.5133 28.4966 22.7376 29.9376C22.8868 30.887 22.4362 31.9229 21.3857 33.0455C20.4063 34.1111 19.4734 34.7044 18.5872 34.8256C17.3389 35.0013 16.6194 34.444 16.4181 33.1702V33.1642Z" fill="white"/>
<path d="M94.6079 23.2653L94.5748 23.2457C94.527 23.2164 94.4768 23.1913 94.4246 23.1706C94.3422 23.1395 94.2674 23.0911 94.2052 23.0287C94.143 22.9662 94.0949 22.8912 94.0641 22.8086C94.0459 22.7588 94.0217 22.7114 93.992 22.6674L93.8418 23.5837C93.8725 23.6143 93.9108 23.6363 93.9527 23.6474C93.9947 23.6584 94.0388 23.6583 94.0806 23.6468C94.0886 23.6451 94.0968 23.6451 94.1047 23.6468C94.1236 23.6447 94.1428 23.6447 94.1618 23.6468C94.2014 23.6479 94.2408 23.654 94.2789 23.6648C94.3525 23.6814 94.3961 23.6904 94.4291 23.6528L94.4802 23.5897C94.5283 23.5311 94.5779 23.4696 94.6304 23.4155C94.6403 23.4063 94.6481 23.3951 94.6532 23.3827C94.6584 23.3702 94.6609 23.3568 94.6605 23.3434C94.6584 23.3272 94.6525 23.3117 94.6434 23.2981C94.6343 23.2846 94.6221 23.2733 94.6079 23.2653Z" fill="white"/>
<path d="M8.26027 24.3859L0 26.8524L3.25664 41.7251L8.46907 40.4183L4.62809 29.1898L9.52056 28.7647L8.26027 24.3859Z" fill="white"/>
<path d="M85.4357 23.3087C84.4996 23.3302 83.564 23.2435 82.6478 23.0503L81.1802 36.6447C81.7077 36.8123 82.2533 36.9167 82.8055 36.9556C85.0287 37.1339 86.7902 37.0277 88.09 36.6372C90.172 36.0243 91.4068 34.6869 91.7943 32.6249C91.8331 32.4512 91.8602 32.275 91.8754 32.0977C92.0026 30.7648 91.5785 29.7739 90.6031 29.1249C89.9512 28.6743 89.101 28.4144 88.0299 28.3243C87.0739 28.2425 86.1118 28.2657 85.1608 28.3934L85.6355 23.3087H85.4357ZM86.0726 30.181C86.6134 30.2245 86.8598 30.5099 86.8087 31.0417C86.7321 31.8679 85.948 32.3936 84.4578 32.6339L84.6081 30.4874C85.2074 30.2546 85.6926 30.1479 86.0726 30.181Z" fill="white"/>
<path d="M106.255 24.0583L101.363 22.8656L97.0623 30.0879L98.4849 22.3639L95.1231 22.409C95.1321 22.4255 95.1411 22.442 95.1501 22.4615C95.1627 22.4862 95.1732 22.5118 95.1817 22.5381C95.1896 22.5735 95.2067 22.6061 95.2312 22.6328C95.2538 22.6508 95.2568 22.6538 95.3003 22.6117C95.3144 22.5946 95.3318 22.5805 95.3514 22.5702C95.371 22.5599 95.3924 22.5536 95.4145 22.5517C95.4686 22.5517 95.5241 22.5517 95.5782 22.5517H95.6593H95.7209C95.9732 22.5946 96.2325 22.5697 96.472 22.4796C96.5218 22.456 96.577 22.446 96.6319 22.4508C96.6868 22.4555 96.7394 22.4748 96.7844 22.5066C96.8883 22.5689 96.985 22.6425 97.0728 22.7259C97.2381 22.8866 97.2411 23.0399 97.0819 23.2426L97.0668 23.2637L97.0458 23.2967L97.0593 23.3087C97.1116 23.3486 97.1618 23.3912 97.2095 23.4364C97.2365 23.4587 97.2587 23.4861 97.2749 23.5171C97.2911 23.5481 97.3009 23.582 97.3039 23.6168C97.3068 23.6516 97.3027 23.6867 97.292 23.72C97.2812 23.7532 97.2639 23.784 97.2411 23.8105C97.1759 23.9058 97.0847 23.9804 96.9782 24.0253C96.8535 24.0793 96.819 24.1424 96.858 24.2446C96.8606 24.262 96.8606 24.2797 96.858 24.2971C96.8602 24.3439 96.8507 24.3904 96.8306 24.4326C96.8104 24.4748 96.7801 24.5113 96.7424 24.539C96.7067 24.5633 96.6646 24.5763 96.6215 24.5763C96.5783 24.5763 96.5362 24.5633 96.5005 24.539C96.457 24.5165 96.4374 24.515 96.4329 24.5165V24.533C96.4394 24.5659 96.4388 24.5999 96.431 24.6325C96.4232 24.6652 96.4085 24.6958 96.3879 24.7223C96.3621 24.7477 96.3313 24.7674 96.2974 24.7801C96.2634 24.7928 96.2272 24.7982 96.1911 24.7959C96.1399 24.7932 96.0891 24.8062 96.0454 24.833C96.0017 24.8598 95.9671 24.8992 95.9462 24.9461C95.9325 24.9849 95.9106 25.0204 95.8822 25.0501C95.8537 25.0799 95.8192 25.1033 95.781 25.1188C95.7428 25.1343 95.7018 25.1415 95.6606 25.1399C95.6195 25.1384 95.5791 25.1281 95.5422 25.1098C95.5391 25.1076 95.5354 25.1064 95.5316 25.1064C95.5279 25.1064 95.5242 25.1076 95.5211 25.1098L95.5587 25.1729C95.6939 25.3772 95.6789 25.5364 95.5121 25.6866C95.455 25.7346 95.3913 25.7741 95.3229 25.8038L95.2748 25.8248C95.1636 25.8744 95.075 25.9134 95.066 26.0441C95.066 26.1237 94.9864 26.1658 94.9338 26.1943C94.8251 26.2708 94.6914 26.3031 94.5598 26.2845C94.5253 26.2808 94.4904 26.2848 94.4577 26.2963C94.425 26.3077 94.3952 26.3262 94.3705 26.3506C94.2999 26.3987 94.2171 26.4258 94.1317 26.4287C94.0746 26.428 94.0183 26.4151 93.9665 26.391C93.9147 26.367 93.8686 26.3322 93.8312 26.289C93.7918 26.2418 93.7562 26.1915 93.7246 26.1388L93.687 26.0817H93.6615C93.591 26.1527 93.5011 26.2013 93.4031 26.2214L91.6411 37.1344L95.2568 37.4078L95.8231 31.3872L98.7913 40.2499L103.552 37.5235L98.6666 31.6561L106.255 24.0583Z" fill="white"/>
<path d="M33.6552 38.0972L36.7255 29.1475L37.4871 36.0197L41.6691 36.1775L40.1024 22.2061L35.1122 21.3844L32.2717 29.1384L31.1511 21.9207L26.5996 21.9507L28.4007 37.3642L33.6552 38.0972Z" fill="white"/>
<path d="M76.3595 36.6071C77.1191 36.6326 77.8776 36.531 78.6037 36.3067C79.3375 36.1084 80.0179 35.7492 80.5956 35.2552L80.0638 30.9861C78.9124 31.6228 77.606 31.9251 76.2919 31.8589C75.8383 31.8526 75.3938 31.7295 75.0016 31.5014C74.7983 31.3863 74.6326 31.2149 74.5244 31.0078C74.4162 30.8007 74.3701 30.5668 74.3917 30.3342C74.4398 29.2997 74.9786 28.3163 76.008 27.384C77.0385 26.4557 78.0645 26.017 79.0874 26.0591C79.579 26.0749 80.0637 26.1803 80.5175 26.37L81.2505 22.7919C80.1518 22.6083 79.0701 22.3345 78.0164 21.9733C77.4038 21.7647 76.8124 21.4986 76.2499 21.1786C74.9988 21.5957 73.8561 22.2858 72.9046 23.199C71.044 24.9445 70.049 27.1356 69.9199 29.7724C69.8257 31.6501 70.4161 33.2453 71.6909 34.5582C72.9347 35.844 74.4909 36.527 76.3595 36.6071Z" fill="white"/>
<path d="M108.734 23.803L105.127 38.8559L109.899 40.1793L113 24.6081L108.734 23.803Z" fill="white"/>
<path d="M47.0602 36.143L46.6096 31.9655C50.4 29.6362 52.2226 26.999 52.0773 24.0538C52.0032 22.5666 51.3178 21.4891 50.0209 20.8212C48.9604 20.2639 47.586 20.0205 45.887 20.0926C44.3028 20.1607 43.1121 20.3951 42.3149 20.7956L42.327 36.6147L47.0602 36.143ZM46.234 23.9306C46.6666 23.8892 47.101 23.9894 47.4718 24.216C47.6782 24.3441 47.8483 24.5229 47.9661 24.7353C48.0839 24.9478 48.1454 25.1868 48.1447 25.4297C48.2138 26.7917 47.601 28.0264 46.3061 29.134L45.7609 23.9516L46.234 23.9306Z" fill="white"/>
<path d="M66.0203 35.407C68.0442 34.6349 69.1598 33.2098 69.3671 31.1319C69.3881 30.9549 69.3996 30.7769 69.4016 30.5986C69.4136 29.2572 68.9029 28.3033 67.8769 27.7295C67.1869 27.329 66.3097 27.1287 65.2452 27.1287C64.9325 27.1233 64.6199 27.1389 64.3093 27.1752C65.8716 26.1658 66.6592 24.6316 66.6722 22.5727C66.6812 20.9884 65.3769 20.1873 62.7591 20.1692C61.6496 20.1596 60.5421 20.2653 59.4544 20.4847L59.127 35.9327C59.6681 36.0618 60.223 36.1248 60.7793 36.1205C63.0105 36.1355 64.7575 35.8977 66.0203 35.407ZM64.2583 29.9257C64.2493 30.7563 63.5162 31.3437 62.0516 31.6892L62.0141 29.5336C62.5969 29.2527 63.0746 29.1175 63.4441 29.1175C63.9909 29.125 64.2613 29.3939 64.2583 29.9257ZM61.7497 23.9096C62.0131 23.73 62.3183 23.6214 62.636 23.5941C63.1206 23.5941 63.362 23.8795 63.36 24.4503C63.36 25.26 62.7967 25.7617 61.6821 25.9705L61.7497 23.9096Z" fill="white"/>
<path d="M58.152 20.3151L53.8003 20.3076L53.4248 35.7255L58.3819 36.1521L58.152 20.3151Z" fill="white"/>
<path d="M36.5517 17.5902L32.1654 15.654L30.833 20.5885L33.0637 21.278L36.5517 17.5902Z" fill="white"/>
<path d="M92.0931 17.7688C92.0875 17.762 92.0834 17.7541 92.081 17.7456C92.0785 17.7372 92.0779 17.7283 92.079 17.7196C92.0801 17.7109 92.083 17.7025 92.0875 17.6949C92.092 17.6874 92.098 17.6808 92.1051 17.6756C92.162 17.6343 92.2255 17.6028 92.2928 17.5825C92.3684 17.5653 92.436 17.5233 92.4847 17.463C92.5335 17.4028 92.5606 17.328 92.5617 17.2505C92.5553 17.1851 92.5717 17.1195 92.6081 17.0647C92.6445 17.01 92.6987 16.9695 92.7615 16.9501C92.8049 16.9307 92.8427 16.9007 92.8717 16.863C92.9006 16.8254 92.9197 16.7811 92.9273 16.7342C92.9349 16.6872 92.9308 16.6392 92.9152 16.5943C92.8996 16.5494 92.8731 16.5091 92.8381 16.4769C92.7832 16.4167 92.7217 16.3628 92.6549 16.3162C92.4626 16.1915 92.3544 16.2261 92.2282 16.4304C92.206 16.4603 92.1819 16.4889 92.1561 16.516C92.1186 16.4604 92.0795 16.4138 92.0495 16.3658C92.0194 16.3177 92.0029 16.2756 91.9519 16.2846C91.8752 16.3012 91.8797 16.3658 91.8843 16.4243C91.889 16.6011 91.8616 16.7772 91.8031 16.9441C91.7686 17.0688 91.8377 17.1529 91.9609 17.1319C92.0053 17.1201 92.0482 17.1029 92.0885 17.0808C92.1516 17.0507 92.2252 17.0177 92.2718 17.1018C92.2929 17.1373 92.3014 17.1788 92.2959 17.2197C92.2905 17.2606 92.2714 17.2984 92.2418 17.3271C92.2039 17.3724 92.1554 17.4075 92.1006 17.4293C92.0439 17.4451 91.9934 17.4776 91.9556 17.5227C91.9178 17.5677 91.8945 17.6231 91.8888 17.6816C91.8797 17.7492 91.8122 17.7703 91.7476 17.7372C91.7055 17.7192 91.6664 17.6816 91.692 17.6261C91.731 17.5359 91.7686 17.4428 91.7055 17.3572C91.6145 17.2323 91.4836 17.1422 91.3345 17.1018C91.277 17.0949 91.2188 17.1021 91.1647 17.1228C91.135 17.1287 91.1082 17.1446 91.0888 17.1678C91.0694 17.191 91.0585 17.2202 91.0581 17.2505C91.0636 17.2957 91.0862 17.3371 91.1212 17.3662C91.2068 17.4263 91.3044 17.4683 91.3946 17.5164C91.4105 17.5247 91.4243 17.5365 91.435 17.5509C91.4457 17.5653 91.453 17.582 91.4563 17.5996C91.4596 17.6173 91.4589 17.6355 91.4542 17.6528C91.4495 17.6701 91.4409 17.6861 91.4291 17.6997C91.378 17.7673 91.3134 17.7928 91.2579 17.7417C91.1862 17.6792 91.0929 17.6474 90.998 17.6531C90.8568 17.6623 90.7169 17.6213 90.6029 17.5374C90.5639 17.5374 90.5293 17.5374 90.4963 17.5374C90.4632 17.5374 90.4497 17.5374 90.4272 17.5464C90.313 17.572 90.2484 17.6185 90.2529 17.6786C90.2585 17.7195 90.2775 17.7574 90.3068 17.7865C90.3361 17.8155 90.3742 17.8341 90.4152 17.8394C90.4861 17.8461 90.5575 17.8461 90.6285 17.8394C90.7216 17.8394 90.8147 17.8138 90.9094 17.8138C91.0325 17.8138 91.0836 17.8529 91.1212 17.9926C91.1722 18.1638 91.2023 18.1894 91.36 18.1593C91.4516 18.1391 91.5414 18.112 91.6289 18.0782C91.6845 18.0617 91.7355 18.0226 91.7896 18.0106C91.8212 18.0025 91.8542 18.0018 91.8861 18.0086C91.918 18.0153 91.9479 18.0293 91.9735 18.0496C91.9991 18.0698 92.0197 18.0956 92.0336 18.1251C92.0476 18.1545 92.0546 18.1868 92.054 18.2194C92.054 18.4492 91.9188 18.5724 91.6965 18.5288C91.6274 18.5148 91.5614 18.4889 91.5012 18.4522C91.4486 18.4158 91.387 18.3946 91.3232 18.3909C91.2593 18.3872 91.1957 18.4012 91.1392 18.4312C91.1042 18.4537 91.0645 18.4676 91.0231 18.472C90.9818 18.4764 90.94 18.4711 90.901 18.4565C90.8621 18.442 90.8271 18.4185 90.7988 18.388C90.7705 18.3576 90.7498 18.3209 90.7381 18.281C90.7115 18.1846 90.6544 18.0994 90.5753 18.0382C90.4962 17.977 90.3995 17.9431 90.2995 17.9415C90.2413 17.9282 90.1845 17.9096 90.1298 17.8859C90.0172 17.8514 89.8968 17.8514 89.7843 17.8859C89.6821 17.916 89.5755 17.928 89.4733 17.949C89.433 17.9535 89.395 17.9703 89.3646 17.9972C89.3343 18.0241 89.3129 18.0597 89.3036 18.0992C89.2469 18.3283 89.2112 18.5621 89.1969 18.7977C89.1911 18.8441 89.1998 18.8911 89.2219 18.9323C89.244 18.9734 89.2783 19.0067 89.3201 19.0276C89.367 19.0364 89.4155 19.0307 89.459 19.0111C89.5026 18.9914 89.539 18.9589 89.5634 18.9179C89.5793 18.9011 89.5895 18.8797 89.5924 18.8567C89.5954 18.8338 89.591 18.8105 89.58 18.7902C89.5634 18.7557 89.5379 18.7301 89.5244 18.6956C89.4987 18.6247 89.4952 18.5477 89.5142 18.4747C89.5333 18.4018 89.574 18.3363 89.631 18.287C89.7122 18.2449 89.8489 18.3261 89.9315 18.4793C89.9891 18.5548 90.0202 18.6472 90.0201 18.7421C90.0081 18.8413 89.9825 18.8924 89.8804 18.9089C89.8274 18.9091 89.7757 18.9249 89.7317 18.9543C89.6876 18.9837 89.6531 19.0253 89.6325 19.0741C89.6161 19.1178 89.5949 19.1596 89.5695 19.1988C89.5299 19.2531 89.478 19.2973 89.4181 19.3278C89.3582 19.3582 89.2919 19.3741 89.2247 19.3741C89.1575 19.3741 89.0912 19.3582 89.0313 19.3278C88.9714 19.2973 88.9196 19.2531 88.88 19.1988C88.8496 19.1359 88.804 19.0815 88.7474 19.0406C88.6908 18.9997 88.6248 18.9735 88.5555 18.9645C88.509 18.9645 88.4924 18.8833 88.53 18.8533C88.6967 18.7512 88.7808 18.5769 88.9085 18.4402C88.941 18.4141 88.9674 18.3813 88.9858 18.3439C89.0042 18.3065 89.0143 18.2656 89.0152 18.2239C89.0197 18.1418 89.0404 18.0614 89.0763 17.9874C89.1121 17.9134 89.1623 17.8472 89.224 17.7928C89.3042 17.7232 89.367 17.6357 89.4072 17.5374C89.4181 17.5094 89.4179 17.4784 89.4068 17.4505C89.3956 17.4226 89.3743 17.4 89.3471 17.3872C89.2972 17.3559 89.2375 17.3442 89.1794 17.3544C89.1214 17.3647 89.0693 17.3962 89.0332 17.4428C89.0032 17.4803 88.9821 17.5239 88.9521 17.5585C88.9384 17.5781 88.9197 17.5937 88.8979 17.6038C88.8762 17.6138 88.8522 17.6179 88.8283 17.6156C88.8045 17.6133 88.7817 17.6047 88.7623 17.5907C88.7428 17.5767 88.7275 17.5578 88.7177 17.5359C88.6506 17.4392 88.6055 17.329 88.5856 17.213C88.5834 17.19 88.5901 17.167 88.6044 17.1489C88.6186 17.1307 88.6393 17.1187 88.6622 17.1153C88.814 17.0842 88.9718 17.1021 89.1128 17.1664C89.189 17.1987 89.274 17.204 89.3537 17.1816C89.4334 17.1593 89.5031 17.1105 89.5514 17.0432C89.5759 17.0184 89.5931 16.9872 89.6009 16.9532C89.6088 16.9192 89.6072 16.8837 89.5961 16.8506C89.5851 16.8175 89.5651 16.788 89.5384 16.7656C89.5117 16.7431 89.4793 16.7285 89.4448 16.7233C89.4215 16.719 89.3984 16.7135 89.3757 16.7067C89.3336 16.6842 89.2405 16.7143 89.266 16.6211C89.266 16.5866 89.3291 16.5565 89.3682 16.54C89.4395 16.5111 89.5178 16.5046 89.5929 16.5212C89.668 16.5379 89.7363 16.5769 89.7888 16.6331C89.8 16.6459 89.8076 16.6613 89.8107 16.678C89.8139 16.6946 89.8125 16.7118 89.8068 16.7278C89.778 16.7918 89.739 16.8507 89.6911 16.902C89.6254 16.9844 89.5894 17.0865 89.589 17.1919C89.5862 17.2239 89.5905 17.2562 89.6015 17.2863C89.6126 17.3165 89.6301 17.3438 89.6529 17.3665C89.6757 17.3891 89.7031 17.4065 89.7334 17.4173C89.7636 17.4282 89.7958 17.4323 89.8278 17.4293C89.921 17.4293 90.0111 17.3917 90.1042 17.3752L90.292 17.3617C90.3776 17.3872 90.4662 17.4082 90.5564 17.4293C90.5851 17.4255 90.6133 17.4184 90.6405 17.4082C90.7637 17.2806 90.8838 17.1484 91.007 17.0252C91.1337 16.8849 91.3052 16.793 91.4922 16.7653C91.5456 16.763 91.5974 16.7465 91.6423 16.7174C91.6872 16.6884 91.7236 16.6479 91.7476 16.6001C91.7554 16.5842 91.7594 16.5667 91.7594 16.549C91.7594 16.5313 91.7554 16.5138 91.7476 16.4979C91.7377 16.4852 91.7249 16.475 91.7103 16.4682C91.6956 16.4614 91.6796 16.4582 91.6634 16.4589C91.4392 16.4812 91.226 16.5672 91.0491 16.7067C90.9184 16.8089 90.7937 16.914 90.666 17.0177C90.6076 17.0753 90.5359 17.1176 90.4572 17.1409C90.3941 17.1529 90.334 17.1529 90.307 17.0943C90.2892 17.0705 90.2788 17.042 90.2772 17.0123C90.2756 16.9826 90.2828 16.9531 90.298 16.9276C90.3358 16.8666 90.3872 16.8152 90.4482 16.7773C90.5984 16.7007 90.7667 16.6271 90.9289 16.5686C91.1933 16.4664 91.4576 16.3763 91.7205 16.2786C91.8106 16.2486 91.8197 16.172 91.7461 16.1284C91.6986 16.0906 91.6484 16.0565 91.5958 16.0263C91.4561 15.9331 91.4456 15.9286 91.3104 16.0608C91.2742 16.0996 91.228 16.1277 91.1768 16.142C91.1257 16.1563 91.0716 16.1563 91.0205 16.1419C90.8853 16.1029 90.7531 16.0518 90.621 16.0143C90.5706 15.9925 90.5138 15.9909 90.4623 16.0099C90.4108 16.029 90.3686 16.0671 90.3446 16.1164C90.2845 16.214 90.2289 16.3162 90.1658 16.4304C89.9941 16.3262 89.813 16.2382 89.625 16.1675L89.5484 16.1495C89.5094 16.1495 89.4748 16.1495 89.4418 16.1585C89.0873 16.2186 88.9986 16.3282 89.0197 16.6782C89.0272 16.7117 89.0302 16.7461 89.0287 16.7804C89.0289 16.7922 89.0264 16.804 89.0215 16.8149C89.0166 16.8257 89.0094 16.8353 89.0004 16.8431C88.9913 16.8508 88.9807 16.8565 88.9693 16.8597C88.9578 16.8628 88.9458 16.8635 88.934 16.8615C88.8109 16.8359 88.6877 16.7969 88.5645 16.7593C88.509 16.7413 88.4579 16.7037 88.4023 16.6902C88.3714 16.6807 88.3387 16.6782 88.3067 16.6829C88.2747 16.6876 88.2441 16.6993 88.2172 16.7173C88.1903 16.7353 88.1677 16.7591 88.1512 16.7868C88.1346 16.8146 88.1244 16.8458 88.1214 16.878C88.1079 17.0092 88.1302 17.1416 88.186 17.261C88.2389 17.3465 88.2631 17.4466 88.2553 17.5468C88.2475 17.647 88.2079 17.7421 88.1424 17.8183C88.0358 17.9505 88.0868 18.1082 88.1304 18.257C88.1381 18.2793 88.1509 18.2995 88.1679 18.316C88.1849 18.3324 88.2055 18.3446 88.228 18.3516C88.3075 18.3746 88.3857 18.4017 88.4624 18.4327C88.4734 18.4366 88.4832 18.4433 88.491 18.452C88.4987 18.4608 88.5041 18.4713 88.5067 18.4827C88.5092 18.4941 88.5088 18.506 88.5056 18.5172C88.5023 18.5284 88.4962 18.5386 88.4879 18.5469C88.4278 18.619 88.3602 18.6836 88.2956 18.7512C88.231 18.8188 88.1454 18.9014 88.0823 18.9855C88.0664 19.0035 88.055 19.025 88.0491 19.0483C88.0431 19.0715 88.0429 19.0959 88.0483 19.1193C88.0538 19.1427 88.0648 19.1644 88.0803 19.1827C88.0959 19.201 88.1157 19.2153 88.1379 19.2243C88.2307 19.2724 88.3338 19.2972 88.4383 19.2964C88.5074 19.2964 88.5795 19.2709 88.6351 19.3355C88.7117 19.3355 88.7628 19.364 88.7673 19.4497C88.7974 19.4842 88.8259 19.5173 88.8559 19.5563C88.9086 19.6341 88.9876 19.6903 89.0784 19.7146C89.1692 19.7389 89.2656 19.7296 89.3501 19.6885C89.5259 19.6225 89.6734 19.4978 89.7677 19.3355C89.7725 19.3247 89.7798 19.3152 89.789 19.3077C89.7982 19.3002 89.809 19.295 89.8206 19.2926C89.8321 19.2901 89.8441 19.2903 89.8556 19.2934C89.867 19.2964 89.8776 19.3021 89.8864 19.31C89.9248 19.3366 89.965 19.3607 90.0066 19.3821C90.1416 19.4548 90.2996 19.4723 90.4473 19.4308C90.595 19.3893 90.7208 19.2922 90.7982 19.1597C90.8255 19.1222 90.8467 19.0806 90.8613 19.0366C90.8702 19.0021 90.892 18.9723 90.9221 18.9533C90.9523 18.9343 90.9886 18.9275 91.0235 18.9344C91.1302 18.9434 91.2323 18.9555 91.339 18.969C91.369 18.969 91.4021 18.969 91.4366 18.96C91.5868 18.9134 91.7521 18.8623 91.9098 18.8203C92.0074 18.7961 92.097 18.7466 92.1695 18.6769C92.242 18.6072 92.2949 18.5196 92.3229 18.423C92.3509 18.3264 92.353 18.2241 92.329 18.1264C92.305 18.0287 92.2558 17.9391 92.1862 17.8664C92.152 17.837 92.1208 17.8043 92.0931 17.7688Z" fill="white"/>
<path d="M73.5163 18.5409C74.1325 19.4462 74.9211 20.2211 75.8371 20.8211C76.0084 20.9338 76.1826 21.0389 76.3629 21.1411C76.48 21.2072 76.5987 21.2703 76.7204 21.3319L76.788 21.3649C76.9112 21.427 77.0373 21.4871 77.1665 21.5452C77.2912 21.6007 77.4189 21.6533 77.5496 21.7059L77.6442 21.7435C77.7764 21.7945 77.9116 21.8456 78.0498 21.8937C78.188 21.9417 78.3127 21.9838 78.4463 22.0274L78.5966 22.0739L78.8519 22.152L79.0472 22.2076L79.265 22.2677L79.4933 22.3293L79.6796 22.3759L79.9455 22.4389L80.0807 22.4705C80.4622 22.5561 80.8573 22.6357 81.2719 22.7093C81.4837 22.7454 81.6985 22.7814 81.9193 22.816C82.6884 22.9797 83.2322 23.0774 83.6828 23.1344H83.6993L83.8495 23.1525H83.8676L84.0178 23.1675C84.2221 23.187 84.4114 23.199 84.6021 23.205H84.6352H84.7493H84.7989H84.9055H85.6266C85.9916 23.205 86.4107 23.205 86.9575 23.2306C87.2023 23.2216 87.4502 23.2155 87.698 23.2095C88.1036 23.199 88.5227 23.1885 88.9343 23.1705C89.2122 23.157 89.4931 23.1254 89.7665 23.0939L89.9873 23.0683L90.9517 22.9557L91.3137 22.9121L91.3032 22.9692C91.2947 23.0322 91.2644 23.0903 91.2174 23.1331C91.1704 23.176 91.1098 23.2009 91.0463 23.2035C90.9351 23.2201 90.8195 23.2381 90.7053 23.2666C90.5912 23.2952 90.5551 23.3552 90.5551 23.4484C90.5624 23.5106 90.548 23.5734 90.5144 23.6262C90.4807 23.6791 90.4298 23.7186 90.3703 23.7383C90.3069 23.7701 90.2516 23.8161 90.2087 23.8726C90.1657 23.9291 90.1362 23.9946 90.1225 24.0643C90.0879 24.1724 90.094 24.24 90.142 24.2911C90.1889 24.3316 90.2194 24.3878 90.2277 24.4493C90.236 24.5107 90.2216 24.5731 90.1871 24.6246C90.1571 24.6828 90.1402 24.7469 90.1375 24.8123C90.1314 24.8675 90.1467 24.9228 90.1802 24.967C90.2138 25.0112 90.263 25.0408 90.3178 25.0497C90.3608 25.0584 90.4045 25.0634 90.4485 25.0647C90.5323 25.0566 90.6168 25.0726 90.6919 25.1109C90.7669 25.1493 90.8294 25.2083 90.8721 25.281C90.8932 25.3035 90.9158 25.3245 90.9397 25.3441C90.9862 25.3846 91.0538 25.4237 91.1124 25.3801C91.2836 25.2389 91.4218 25.3321 91.545 25.4132L91.5705 25.4297C91.7042 25.5228 91.8214 25.6024 91.9776 25.4943C92.009 25.4705 92.0485 25.4601 92.0876 25.4651C92.1266 25.4702 92.1621 25.4904 92.1864 25.5213C92.2754 25.5941 92.3467 25.686 92.3952 25.7902C92.4261 25.8656 92.4784 25.9303 92.5457 25.9762C92.613 26.0221 92.6923 26.0473 92.7738 26.0486C92.8564 26.0602 92.9375 26.0809 93.0156 26.1102C93.0918 26.1438 93.1746 26.1603 93.2579 26.1585C93.3412 26.1567 93.4231 26.1366 93.4978 26.0997L93.5113 26.0906C93.5414 26.0724 93.5695 26.0513 93.5954 26.0276C93.6054 26.0189 93.6172 26.0124 93.6298 26.0085C93.6425 26.0046 93.6559 26.0034 93.669 26.005H93.6946H93.7216L93.7366 26.0261C93.7547 26.0516 93.7712 26.0801 93.7892 26.1072C93.8187 26.1549 93.8513 26.2005 93.8869 26.2439C93.9365 26.3062 94.0088 26.3463 94.088 26.3553C94.1671 26.3643 94.2466 26.3415 94.309 26.2919C94.3423 26.2605 94.3824 26.2372 94.4261 26.2237C94.4698 26.2101 94.5161 26.2067 94.5613 26.2138C94.6674 26.2254 94.7741 26.1982 94.8617 26.1372C94.9113 26.1087 94.9579 26.0816 94.9594 26.0471C94.9729 25.8638 95.1096 25.8067 95.2193 25.7557L95.2658 25.7346C95.3268 25.7087 95.3835 25.6738 95.4341 25.631C95.5693 25.5108 95.5843 25.3982 95.4656 25.2269C95.4476 25.1954 95.4311 25.1668 95.4145 25.1413L95.401 25.1203L95.4115 25.0992C95.4223 25.0721 95.4432 25.0502 95.4699 25.0384C95.4966 25.0266 95.5269 25.0258 95.5542 25.0361C95.6774 25.0932 95.7765 25.0497 95.8547 24.91C95.8835 24.8512 95.9285 24.8019 95.9844 24.7679C96.0403 24.7338 96.1047 24.7164 96.1701 24.7177C96.1946 24.7201 96.2194 24.7175 96.2429 24.71C96.2664 24.7025 96.2882 24.6903 96.3068 24.6741C96.3199 24.6562 96.3288 24.6356 96.333 24.6137C96.3371 24.5919 96.3364 24.5694 96.3308 24.5479C96.328 24.5299 96.3301 24.5114 96.337 24.4945C96.3439 24.4775 96.3553 24.4628 96.3699 24.4518C96.4044 24.4293 96.4525 24.4353 96.5201 24.4668C96.5877 24.4984 96.6313 24.5119 96.6703 24.4758C96.6984 24.4572 96.7211 24.4317 96.7364 24.4017C96.7517 24.3717 96.7589 24.3382 96.7574 24.3046C96.7594 24.2952 96.7594 24.2855 96.7574 24.2761C96.7034 24.1258 96.7574 24.0222 96.9257 23.9501C97.0169 23.9113 97.0951 23.8472 97.151 23.7653C97.1682 23.747 97.1814 23.7253 97.1897 23.7016C97.198 23.6779 97.2013 23.6528 97.1993 23.6277C97.1973 23.6027 97.1901 23.5784 97.1782 23.5563C97.1662 23.5342 97.1498 23.5148 97.13 23.4995C97.0822 23.4562 97.032 23.4156 96.9798 23.3778L96.9017 23.3162L96.9272 23.2831C96.9437 23.2606 96.9572 23.2396 96.9692 23.2216L96.9858 23.196C97.118 23.0263 97.118 22.9181 96.9858 22.7889C96.9022 22.7108 96.8106 22.6418 96.7124 22.5831C96.6794 22.5589 96.6406 22.5439 96.6 22.5397C96.5593 22.5355 96.5183 22.5422 96.481 22.5591C96.2278 22.6571 95.9528 22.6852 95.6849 22.6402H95.6233H95.5422C95.4896 22.6402 95.4371 22.6402 95.392 22.6402C95.3755 22.6402 95.3559 22.6598 95.3364 22.6778C95.3169 22.6958 95.2373 22.7739 95.1547 22.7033C95.1172 22.6676 95.0911 22.6216 95.0796 22.5711C95.0705 22.5486 95.063 22.5246 95.0525 22.5035C95.0258 22.4211 94.9714 22.3504 94.8986 22.3034C94.8259 22.2563 94.7391 22.2358 94.6529 22.2452C94.5508 22.2528 94.4481 22.2377 94.3525 22.2008C94.2569 22.1639 94.1707 22.1062 94.1002 22.0319L94.0596 21.9883L94.1122 21.9643C94.6696 21.7054 95.1958 21.3839 95.6804 21.0059C96.6375 20.2407 97.3759 19.2365 97.821 18.0948C97.9898 17.7077 98.1026 17.2985 98.1559 16.8795C98.2001 16.5521 98.1462 16.2189 98.001 15.9221C97.8558 15.6253 97.6259 15.3782 97.3403 15.2121C97.0072 15.0027 96.6587 14.8189 96.2978 14.6624L96.2362 14.6353C96.1596 14.6008 96.086 14.5677 96.0094 14.5422C95.6728 14.4393 95.3733 14.2411 95.1471 13.9714C95.0759 13.8776 94.9854 13.8001 94.8818 13.7442C94.7782 13.6882 94.6638 13.655 94.5463 13.6469C94.4573 13.6364 94.3725 13.6034 94.2999 13.5508C94.1866 13.488 94.1 13.386 94.0566 13.2639C94.0403 13.2007 94.0401 13.1344 94.0561 13.0712C94.0722 13.0079 94.1038 12.9497 94.1482 12.9019C94.1753 12.8628 94.1768 12.8433 94.1753 12.8388C94.1738 12.8343 94.1753 12.8237 94.0971 12.8162C94.0827 12.8148 94.0681 12.8148 94.0536 12.8162H94.0296H93.989H93.9499C93.7802 12.7727 93.7757 12.657 93.7877 12.5924C93.792 12.555 93.7985 12.5179 93.8072 12.4813C93.8072 12.4482 93.8208 12.4167 93.8253 12.3851C93.8508 12.2349 93.8793 12.0847 93.9064 11.9345C94.0197 11.3785 94.099 10.8162 94.1437 10.2506C94.1437 10.1244 94.1437 9.99221 94.1437 9.86603V9.8465C94.1472 9.8236 94.1472 9.80031 94.1437 9.7774C94.1221 9.78055 94.1015 9.78878 94.0836 9.80144C94.0745 9.80594 94.0645 9.80828 94.0543 9.80828C94.0442 9.80828 94.0342 9.80594 94.025 9.80144C93.977 9.77891 93.959 9.7008 93.9529 9.66925L93.9259 9.51904C93.8899 9.31775 93.8523 9.11045 93.8042 8.90767C93.6801 8.37196 93.4739 7.85867 93.1929 7.386C93.1102 7.2508 93.0291 7.11561 92.948 6.98042C92.8218 6.77162 92.6972 6.56282 92.571 6.35703C92.3683 6.00205 92.0644 5.71548 91.6982 5.53386C91.4198 5.3943 91.1661 5.2101 90.9472 4.98858C90.6378 4.68813 90.2443 4.48903 89.8191 4.41777C89.6238 4.37571 89.4255 4.32914 89.2347 4.28258C89.0845 4.24803 88.9343 4.21197 88.7841 4.17893C88.7221 4.1636 88.6646 4.13403 88.6161 4.09256C88.5676 4.0511 88.5295 3.99889 88.5047 3.94009L88.4716 3.88H88.5407C88.6057 3.88 88.669 3.90109 88.721 3.94009C88.7399 3.95352 88.7606 3.96414 88.7826 3.97163L88.8622 3.99717L89.056 4.05725C89.1221 4.07528 89.1897 4.0903 89.2317 4.09931H89.2407C89.2663 4.09931 89.2723 4.0903 89.2738 4.0888C89.2753 4.0873 89.2738 4.0888 89.2738 4.07979C89.3188 3.85597 89.2407 3.69975 89.0034 3.53451C88.8622 3.43837 88.7225 3.33923 88.5843 3.23408C88.3349 3.05533 88.0781 2.86906 87.8092 2.70983L87.6304 2.60468L87.8362 2.63172C87.9694 2.65693 88.0955 2.71074 88.2058 2.78945L88.2779 2.83301C88.4824 2.95297 88.68 3.08437 88.8697 3.22657L89.0199 3.33923C89.6057 3.76734 90.2126 4.21047 90.8225 4.61755C91.1139 4.81283 91.3963 5.02914 91.6712 5.23643L91.871 5.38665L91.4984 4.96154C91.2356 4.66111 90.9637 4.35167 90.6873 4.06026C90.2746 3.62499 89.8186 3.23291 89.3263 2.89009C89.2482 2.83601 89.2482 2.83752 89.1761 2.92915C89.1661 2.94656 89.1523 2.96151 89.1357 2.97291C89.1191 2.9843 89.1002 2.99186 89.0804 2.99503C89.0605 2.99819 89.0402 2.99689 89.0209 2.99121C89.0016 2.98553 88.9838 2.97562 88.9688 2.96219L88.7766 2.78044C88.6909 2.70383 88.6053 2.63022 88.5167 2.55361C88.3244 2.38687 88.1261 2.21413 87.9158 2.0564C87.834 1.99769 87.7464 1.94737 87.6545 1.90619L87.6244 1.89417C87.6171 1.89196 87.6092 1.89196 87.6019 1.89417C87.6019 1.94825 87.6019 2.01434 87.5613 2.04439C87.5208 2.07443 87.4367 2.04439 87.3796 2.00533C87.3225 1.96628 87.2294 1.92872 87.1618 1.88516C86.915 1.71403 86.6209 1.62423 86.3206 1.62829C86.2496 1.63067 86.1789 1.61858 86.1128 1.59276C86.0467 1.56693 85.9866 1.52791 85.936 1.47808C85.8452 1.38856 85.7322 1.32479 85.6086 1.29332H85.5815C85.0188 1.1243 84.4378 1.02343 83.8511 0.992889C83.6914 0.978682 83.5305 0.996558 83.3779 1.04546C83.1721 1.10705 82.9588 1.17615 82.7049 1.26327C82.5894 1.30537 82.4861 1.37558 82.4045 1.46756L82.3714 1.50812C82.3279 1.55769 82.2843 1.60877 82.2363 1.65834C82.0749 1.82616 81.8646 1.93868 81.6354 1.97979C81.58 1.98862 81.5253 2.00117 81.4717 2.01735C81.4732 2.02323 81.4758 2.02881 81.4792 2.03387C81.6994 2.13007 81.9304 2.19966 82.1671 2.24117C82.6638 2.32387 83.1659 2.36906 83.6693 2.37636C83.8465 2.37636 84.0283 2.38988 84.2025 2.4019L84.518 2.41992C84.5407 2.41635 84.5639 2.41805 84.5859 2.42487C84.6079 2.4317 84.628 2.44347 84.6447 2.45929C84.6613 2.47511 84.6742 2.49455 84.6822 2.51611C84.6902 2.53767 84.6931 2.56078 84.6907 2.58366C84.6907 2.6167 84.7403 2.61971 84.7553 2.61971C85.1569 2.66972 85.5497 2.77486 85.9225 2.93215C86.0547 2.98172 86.1914 3.03129 86.3281 3.08237C86.5746 3.16238 86.8253 3.22858 87.0792 3.28065C87.3402 3.33061 87.5886 3.43279 87.8092 3.58108C87.8498 3.60852 87.8919 3.6336 87.9354 3.65618C88.0415 3.70785 88.1373 3.77863 88.2178 3.86498L88.2974 3.95511L88.1787 3.93558L87.9008 3.88751C87.6815 3.84996 87.4757 3.81391 87.2699 3.78987C86.6764 3.72095 86.0758 3.74527 85.4899 3.86198C84.3993 4.05725 83.3178 4.49738 82.0845 5.24995C81.2794 5.74266 80.5824 6.42763 79.9004 7.40402C79.5017 7.94202 79.1919 8.54046 78.9826 9.17655C78.8873 9.4888 78.8367 9.81298 78.8324 10.1394C78.8311 10.1619 78.8374 10.1841 78.8504 10.2025C78.8654 10.219 78.891 10.216 78.924 10.1935C79.0066 10.1439 79.0848 10.0929 79.1629 10.0433C79.241 9.99371 79.3206 9.94114 79.4032 9.89307C79.5234 9.82247 79.588 9.85101 79.6225 9.89307C79.6329 9.9076 79.6461 9.91988 79.6613 9.92917C79.6765 9.93847 79.6935 9.94458 79.7112 9.94715C79.7532 9.94715 79.7968 9.89758 79.8403 9.84951C79.9064 9.7714 79.968 9.69929 80.0296 9.61818C80.0912 9.53706 80.1573 9.46045 80.2219 9.38384C80.234 9.36815 80.2492 9.35502 80.2665 9.34522C80.2838 9.33543 80.3028 9.32915 80.3225 9.32676C80.343 9.32913 80.3628 9.33569 80.3806 9.34603C80.3984 9.35636 80.4139 9.37026 80.4262 9.38685C80.43 9.39153 80.4353 9.39472 80.4412 9.39586C80.4592 9.39586 80.4893 9.36432 80.5088 9.34629L81.2268 8.56368L81.2944 8.49307C81.329 8.45853 81.3635 8.42398 81.3966 8.38642C81.4134 8.36166 81.4357 8.34107 81.4617 8.32623C81.4878 8.31139 81.5169 8.30269 81.5468 8.3008C81.5765 8.30322 81.6054 8.31214 81.6314 8.32694C81.6573 8.34173 81.6797 8.36204 81.697 8.38642C81.6999 8.39126 81.7042 8.39521 81.7092 8.39786C81.7142 8.4005 81.7199 8.40174 81.7255 8.40144C81.7405 8.40144 81.7556 8.38342 81.7661 8.36239C81.8006 8.28728 81.8307 8.21217 81.8622 8.13406C81.8938 8.05595 81.9328 7.95982 81.9704 7.8772C81.9801 7.86184 81.9928 7.8486 82.0078 7.83827C82.0228 7.82795 82.0397 7.82075 82.0575 7.81711L82.0785 7.8081H82.095C82.1476 7.8081 82.1702 7.89673 82.1702 7.89823C82.1822 7.96733 82.1897 8.03642 82.1972 8.10552C82.1972 8.12655 82.1972 8.14608 82.1972 8.16711C82.2137 8.15599 82.2259 8.13956 82.2317 8.12054C82.3473 7.88406 82.5351 7.69047 82.768 7.56776C82.9294 7.48322 83.0676 7.36048 83.1706 7.21025C83.2369 7.1237 83.3119 7.04417 83.3944 6.97291C83.4489 6.91542 83.5188 6.87476 83.5957 6.85574C83.6919 6.84343 83.7863 6.81921 83.8766 6.78364C83.9505 6.75571 84.0263 6.73312 84.1034 6.71604H84.1184C84.1515 6.70703 84.2371 6.683 84.2686 6.77463C84.2715 6.79107 84.2706 6.80793 84.2662 6.82403C84.2618 6.84012 84.2539 6.85504 84.2431 6.86776C84.237 6.87557 84.2319 6.88416 84.2281 6.8933C84.2227 6.90307 84.2191 6.91376 84.2176 6.92484H84.2296C84.3848 6.90882 84.538 6.89079 84.6892 6.87076L85.1804 6.81368C85.371 6.78425 85.5495 6.70203 85.6957 6.57634C85.8444 6.46082 86.0271 6.39748 86.2154 6.39609C86.5369 6.38238 86.8588 6.40862 87.1738 6.4742C87.2216 6.48317 87.2683 6.49675 87.3135 6.51476C87.3298 6.52357 87.3439 6.53578 87.3551 6.55055C87.3662 6.56532 87.3741 6.58231 87.3781 6.60038C87.3805 6.62009 87.3767 6.64006 87.3673 6.65754C87.3579 6.67503 87.3433 6.68916 87.3255 6.69802L87.2219 6.73707L87.1257 6.77162C87.1265 6.77508 87.1265 6.77868 87.1257 6.78214L87.1377 6.79115L87.2699 6.81218L87.4111 6.83621C87.8555 6.9041 88.2943 7.00451 88.724 7.13664C88.9208 7.19823 89.1115 7.27183 89.2888 7.34244C89.3816 7.37537 89.4641 7.4324 89.5276 7.50767C89.556 7.53311 89.5754 7.56702 89.583 7.60436C89.5906 7.6417 89.5859 7.68048 89.5697 7.71497C89.5412 7.76904 89.5412 7.8096 89.6223 7.86518C89.7241 7.92685 89.8215 7.99562 89.9137 8.07097C90.0501 8.18131 90.1466 8.33325 90.1886 8.50359C90.1964 8.52748 90.1972 8.55312 90.1908 8.57743C90.1844 8.60175 90.1711 8.6237 90.1526 8.64066C90.134 8.65763 90.111 8.66888 90.0862 8.67308C90.0614 8.67727 90.0359 8.67423 90.0128 8.66432C89.6368 8.53662 89.2452 8.46032 88.8487 8.4375C88.5212 8.41046 88.1367 8.38192 87.7626 8.37741C87.3886 8.3729 86.968 8.37741 86.4918 8.40745C85.7524 8.44397 85.0171 8.5389 84.2927 8.69136C84.15 8.7229 84.0058 8.75144 83.8631 8.78149C83.6483 8.82505 83.435 8.86861 83.2202 8.91668C83.0594 8.95273 82.8476 9.0008 82.6403 9.06689C81.8164 9.29686 81.0185 9.61148 80.2594 10.0057C80.0065 10.1297 79.739 10.2216 79.4633 10.2791L79.2425 10.3377C79.0202 10.3948 78.8054 10.4489 78.5906 10.5074C78.4712 10.5422 78.357 10.5927 78.2511 10.6577C78.168 10.6989 78.1006 10.7661 78.0592 10.849C78.0177 10.9319 78.0044 11.0261 78.0212 11.1173C78.0333 11.2195 78.0438 11.3201 78.0558 11.4177C78.0678 11.5154 78.0798 11.6401 78.0933 11.7497L78.1009 11.7948C78.1083 11.8395 78.1129 11.8847 78.1144 11.93C78.1231 12.0107 78.1006 12.0916 78.0514 12.1562C78.0022 12.2207 77.9301 12.264 77.85 12.277L77.3768 12.4001C76.9592 12.5098 76.5281 12.621 76.109 12.7456C74.9914 13.0761 74.0736 13.4051 73.2189 13.9323C72.7898 14.1744 72.4366 14.5313 72.1989 14.9628C72.0877 15.2035 72.0337 15.4668 72.0412 15.7319C72.0453 15.8191 72.0689 15.9043 72.1103 15.9812C72.507 16.8721 72.9773 17.7282 73.5163 18.5409ZM86.9139 2.31778C86.7489 2.33003 86.5849 2.28317 86.4513 2.18559L86.3341 2.121L86.4678 2.10597H86.4993C86.531 2.0951 86.5653 2.0951 86.597 2.10597C86.6355 2.12318 86.6758 2.13627 86.7171 2.14503C86.8005 2.15923 86.8787 2.19496 86.944 2.24868L87.0296 2.32679L86.9139 2.31778ZM84.2191 5.92291C84.148 5.98688 84.0632 6.03365 83.9712 6.05961L83.9442 6.06862C83.5354 6.2114 83.1374 6.38308 82.753 6.58235C81.9695 6.94908 81.2575 7.4521 80.65 8.06797L80.4277 8.29479C80.0792 8.6538 79.7247 9.01432 79.4032 9.40487L79.253 9.58964L79.3356 9.36281C79.3835 9.24591 79.4505 9.13779 79.5339 9.04286L79.5684 8.99779C79.7465 8.76791 79.9403 8.55059 80.1483 8.34737C80.2324 8.26024 80.318 8.17312 80.4006 8.08299C80.9107 7.54015 81.4972 7.07459 82.1416 6.70102C82.7666 6.31678 83.4478 6.03245 84.1605 5.85832H84.2025H84.2101H84.2371V5.90639L84.2506 5.93944C84.2392 5.93944 84.2282 5.93575 84.2191 5.92892V5.92291ZM91.4158 21.4701C91.3069 21.5289 91.1851 21.5598 91.0613 21.5602H91.0403C90.477 21.6007 89.9512 21.6218 89.457 21.6218C89.0184 21.6218 88.6023 21.6053 88.2058 21.5722C87.9414 21.5512 87.677 21.5271 87.4111 21.5016C87.1452 21.4761 86.8854 21.4535 86.6225 21.4325L86.0412 21.3859L85.8173 21.3679L85.188 21.3168C84.9401 21.2958 84.6907 21.2718 84.4369 21.2447C84.2536 21.2237 84.0704 21.2012 83.8871 21.1756C82.67 21.0121 81.4655 20.7657 80.282 20.4381C78.8309 20.0325 77.5616 19.6284 76.4049 19.2063C75.6123 18.924 74.8463 18.5721 74.1157 18.1548C73.4082 17.7508 72.914 17.3227 72.573 16.8029L72.5504 16.7699L72.582 16.7458C72.5971 16.7324 72.6151 16.7226 72.6346 16.7172C72.6541 16.7118 72.6746 16.711 72.6945 16.7147C72.7144 16.7185 72.7331 16.7268 72.7493 16.739C72.7655 16.7511 72.7786 16.7668 72.7878 16.7849L72.8058 16.8059C73.9189 17.9076 75.3045 18.694 76.821 19.0847C77.2071 19.1868 77.6157 19.2995 78.0092 19.4392C78.7408 19.7005 79.3356 19.8898 79.8794 20.055C79.9151 20.0661 79.9493 20.0812 79.9815 20.1001L80.0041 20.1121C80.0303 20.1066 80.0575 20.1071 80.0835 20.1136C80.1095 20.1201 80.1337 20.1325 80.1543 20.1497L80.2174 20.1617C80.2835 20.1737 80.3526 20.1857 80.4217 20.2038C81.0616 20.3795 81.8187 20.5793 82.5787 20.74C83.1517 20.8658 83.7315 20.9581 84.3152 21.0164C85.3832 21.1156 86.268 21.1982 87.1933 21.2928C88.3035 21.4161 89.4224 21.4418 90.5371 21.3694C90.6873 21.3604 90.8375 21.3694 90.9682 21.3694H91.0854C91.1931 21.3623 91.3014 21.3663 91.4083 21.3814L91.5225 21.401L91.4158 21.4701ZM93.1853 24.0778L93.1027 24.0943C93.0569 24.108 93.0094 24.1156 92.9615 24.1168C92.9416 24.1191 92.9214 24.1191 92.9014 24.1168L92.8684 24.1093V24.0808H92.8504H92.8684V24.0628L92.8774 24.0492C93.0441 23.6902 93.0036 23.4198 92.7437 23.148C92.6576 23.0596 92.5557 22.9883 92.4433 22.9377L92.4223 22.9271C92.3622 22.9001 92.2811 22.864 92.2811 22.7574C92.2811 22.6507 92.3682 22.5952 92.4929 22.5741L92.5815 22.5621C92.7648 22.487 92.8624 22.6477 92.9135 22.7349C93.0815 23.0309 93.229 23.338 93.3551 23.6542C93.4302 23.8284 93.4587 23.9231 93.4242 23.9876C93.3896 24.0522 93.313 24.0598 93.1853 24.0838V24.0778ZM94.6875 23.4604C94.6364 23.5115 94.5883 23.5716 94.5373 23.6286L94.4847 23.6917C94.4699 23.7105 94.4509 23.7254 94.4293 23.7353C94.4076 23.7453 94.3838 23.7499 94.36 23.7488C94.3235 23.7473 94.2872 23.7418 94.2519 23.7323C94.2111 23.7194 94.1682 23.7148 94.1257 23.7188C94.1163 23.7208 94.1065 23.7208 94.0971 23.7188C94.0705 23.7246 94.0433 23.7276 94.016 23.7278H93.998H93.9424H93.9289C93.9109 23.7234 93.8933 23.7173 93.8763 23.7098C93.858 23.7012 93.8404 23.6912 93.8238 23.6797C93.7738 23.6434 93.7306 23.5987 93.6961 23.5475C93.4754 23.2479 93.3165 22.9073 93.2289 22.5456C93.2039 22.4676 93.2104 22.383 93.2469 22.3098C93.2696 22.2848 93.2972 22.2647 93.3279 22.2507C93.3587 22.2368 93.3919 22.2293 93.4257 22.2286C93.4827 22.2131 93.5427 22.2121 93.6001 22.2257C93.6576 22.2394 93.7107 22.2673 93.7547 22.3068C93.8472 22.3808 93.9323 22.4638 94.0085 22.5546C94.0336 22.5877 94.0576 22.6222 94.0806 22.6583C94.1045 22.6984 94.1247 22.7406 94.1407 22.7844C94.1674 22.8557 94.2091 22.9204 94.263 22.974C94.3169 23.0277 94.3818 23.0691 94.4532 23.0954C94.5087 23.1173 94.562 23.1444 94.6124 23.1765L94.6454 23.196C94.6708 23.209 94.6928 23.2277 94.7098 23.2507C94.7267 23.2736 94.7381 23.3001 94.7431 23.3282C94.7458 23.3534 94.7429 23.3788 94.7345 23.4027C94.7262 23.4266 94.7127 23.4484 94.695 23.4664L94.6875 23.4604ZM94.4171 16.851C94.4967 16.9291 94.5763 17.0012 94.6604 17.0838C94.7064 17.1222 94.7377 17.1752 94.7491 17.234C94.7625 17.2364 94.7753 17.2415 94.7866 17.2491C94.8037 17.2589 94.817 17.2743 94.8242 17.2926C94.8258 17.2971 94.8284 17.3012 94.8317 17.3046L94.9053 17.4008L94.7881 17.3722H94.7851C94.763 17.3722 94.7417 17.3642 94.725 17.3497C94.7096 17.3371 94.6973 17.3212 94.689 17.3031C94.6036 17.2606 94.5255 17.2049 94.4577 17.1379C94.4178 17.1012 94.3756 17.0671 94.3315 17.0357C94.1953 16.9314 94.0431 16.8497 93.8808 16.7939C93.8665 16.7872 93.8508 16.7838 93.835 16.7838C93.8192 16.7838 93.8036 16.7874 93.7892 16.7941C93.7749 16.8008 93.7622 16.8106 93.7521 16.8228C93.742 16.8349 93.7346 16.8492 93.7306 16.8645C93.7087 16.9131 93.6906 16.9633 93.6765 17.0147C93.5777 17.402 93.3418 17.7404 93.0126 17.9671C92.9104 18.0483 92.8024 18.1221 92.6896 18.1879C92.6424 18.209 92.6014 18.2419 92.5706 18.2835C92.5398 18.3251 92.5203 18.3739 92.5139 18.4252C92.4908 18.5531 92.4349 18.6727 92.3517 18.7725C92.2685 18.8723 92.1608 18.9488 92.0392 18.9945C91.796 19.1008 91.5324 19.1521 91.2671 19.1448C91.2463 19.1492 91.2248 19.1492 91.204 19.1448C91.0538 19.1583 90.9832 19.1898 90.9637 19.3115C90.9609 19.3402 90.9506 19.3677 90.9336 19.3911C90.8799 19.506 90.7905 19.6004 90.6787 19.6603C90.5668 19.7201 90.4386 19.7421 90.3133 19.7231C90.1656 19.7041 90.0253 19.6471 89.9062 19.5578C89.8296 19.5068 89.8281 19.5068 89.756 19.5849C89.7229 19.6194 89.6929 19.657 89.6613 19.693C89.5954 19.7767 89.5209 19.8533 89.439 19.9214C89.3642 19.9888 89.2678 20.0272 89.1671 20.0295H89.1281C89.0675 20.0203 89.0095 19.9986 88.9578 19.9657C88.9061 19.9329 88.8617 19.8896 88.8276 19.8387C88.7397 19.7432 88.6763 19.6277 88.6429 19.5023L88.6023 19.4767L88.5543 19.4467H88.4837C88.4306 19.4437 88.3775 19.4437 88.3244 19.4467C88.2464 19.4591 88.1664 19.4461 88.0964 19.4096C88.0263 19.3731 87.9699 19.315 87.9354 19.2439C87.8966 19.175 87.8794 19.0961 87.8861 19.0173C87.8928 18.9385 87.923 18.8636 87.9729 18.8023C88.0297 18.7198 88.1021 18.6493 88.1862 18.595L88.2027 18.583C88.2358 18.5619 88.2568 18.5469 88.2658 18.5244H88.2358C88.1918 18.5177 88.1482 18.5086 88.1051 18.4973C88.0668 18.4907 88.0312 18.4729 88.0029 18.4462C87.9746 18.4195 87.9547 18.385 87.9459 18.3471C87.9459 18.3081 87.9309 18.2705 87.9234 18.2314C87.8956 18.1565 87.8834 18.0767 87.8875 17.9969C87.8916 17.9171 87.912 17.839 87.9474 17.7673C88.0055 17.6882 88.0378 17.5931 88.0399 17.495C88.0421 17.3969 88.014 17.3006 87.9594 17.219C87.9221 17.1551 87.8938 17.0864 87.8753 17.0147C87.8512 16.9475 87.8434 16.8756 87.8525 16.8048C87.8617 16.7341 87.8875 16.6665 87.9279 16.6076C87.9671 16.5624 88.0172 16.5276 88.0733 16.5067C88.1295 16.4857 88.19 16.4791 88.2493 16.4875C88.3338 16.4897 88.418 16.4968 88.5017 16.5085C88.5903 16.5205 88.6849 16.534 88.7766 16.5491C88.8802 16.2381 88.8982 16.2216 89.2182 16.0368C89.2296 16.028 89.2423 16.021 89.2558 16.0158C89.2967 16.0008 89.3309 15.9717 89.3521 15.9336C89.3733 15.8956 89.3802 15.8512 89.3714 15.8085C89.3624 15.6883 89.3564 15.5667 89.3489 15.445C89.3399 15.2948 89.3309 15.122 89.3158 14.9613C89.2783 14.5752 89.2347 14.1847 89.1912 13.7971C89.1641 13.5403 89.1356 13.2849 89.1085 13.0295V12.998C89.0886 12.8761 89.1108 12.751 89.1716 12.6435L89.2287 12.5368L89.2753 12.7832C89.2918 12.8763 89.3053 12.9454 89.3143 13.0145L89.3909 13.6514C89.445 14.1021 89.4991 14.5632 89.5577 15.0169C89.5803 15.2271 89.6154 15.4357 89.6628 15.6418L89.6733 15.6853C89.7094 15.8355 89.7439 15.9858 89.9377 16.0323C89.9888 16.0443 90.0218 16.0924 90.0564 16.1435L90.0894 16.0684C90.2246 15.801 90.3899 15.7394 90.6588 15.8445C90.6978 15.8596 90.7369 15.8791 90.7744 15.8971C90.81 15.9158 90.8466 15.9323 90.8841 15.9467C90.904 15.9602 90.9272 15.9681 90.9513 15.9696C90.9753 15.971 90.9993 15.9659 91.0207 15.9548C91.0421 15.9437 91.0601 15.9271 91.0728 15.9066C91.0855 15.8861 91.0924 15.8626 91.0929 15.8385L91.1049 15.786C91.1244 15.7144 91.1394 15.6416 91.1499 15.5682C91.2982 14.739 91.3626 13.8971 91.3422 13.0551C91.3283 12.8448 91.2931 12.6364 91.2371 12.4332C91.2017 12.2804 91.1154 12.1442 90.9922 12.0471L90.9682 12.0321C90.9393 12.0189 90.9146 11.9978 90.8971 11.9712C90.8795 11.9447 90.8698 11.9137 90.869 11.8819V11.8413H90.9111C90.9933 11.8335 91.0736 11.8116 91.1484 11.7768C91.2095 11.7501 91.2729 11.729 91.3377 11.7137C91.3643 11.709 91.3916 11.7103 91.4176 11.7176C91.4436 11.7249 91.4676 11.7379 91.4879 11.7557C91.5022 11.7718 91.5123 11.7913 91.5173 11.8122C91.5223 11.8332 91.522 11.8551 91.5165 11.8759C91.4994 11.9649 91.4943 12.0559 91.5015 12.1463C91.5015 12.1808 91.5015 12.2154 91.5015 12.2499C91.5015 12.3491 91.5015 12.4482 91.5015 12.5504C91.5105 12.7004 91.5105 12.8509 91.5015 13.001C91.4909 13.1512 91.5015 13.3014 91.5015 13.4516C91.5015 13.6019 91.5015 13.734 91.5015 13.8767C91.4819 14.2027 91.4804 14.5332 91.4804 14.8531C91.4804 15.0755 91.4804 15.3038 91.4714 15.5321C91.459 15.6172 91.4749 15.7041 91.5167 15.7793C91.5585 15.8545 91.6239 15.9138 91.7027 15.9482C91.7343 15.9617 91.7673 15.9782 91.7989 15.9948L91.8935 16.0413C92.0727 16.1147 92.2676 16.141 92.4598 16.1179C92.5331 16.1088 92.6076 16.1143 92.6787 16.1341C92.7499 16.154 92.8164 16.1878 92.8744 16.2336C92.937 16.2913 92.9876 16.3608 93.0232 16.4382C93.0587 16.5155 93.0786 16.5992 93.0817 16.6842C93.0984 16.7694 93.0855 16.8577 93.045 16.9345C93.0046 17.0113 92.9391 17.072 92.8594 17.1063C92.7991 17.125 92.7468 17.1631 92.7106 17.2148C92.6744 17.2665 92.6565 17.3287 92.6596 17.3918C92.6589 17.4651 92.6346 17.5364 92.5902 17.5948C92.5458 17.6533 92.4838 17.6958 92.4133 17.7162L92.3637 17.7312C92.3141 17.7448 92.2916 17.7523 92.2856 17.7958L92.4808 18.0452L92.553 17.9791C92.6401 17.8995 92.7212 17.8289 92.8083 17.7568C93.1929 17.4669 93.31 17.0553 93.3761 16.6903C93.4344 16.2612 93.4485 15.8273 93.4182 15.3954C93.4068 15.1939 93.3832 14.9932 93.3476 14.7946L93.3205 14.6218C93.3205 14.5963 93.3055 14.5782 93.2905 14.5737C93.2755 14.5692 93.2605 14.5737 93.2439 14.5933C93.1268 14.7194 93.0006 14.8621 92.8504 15.0439C92.7467 15.1641 92.6491 15.2888 92.5499 15.4104L92.4718 15.5111C92.3484 15.6656 92.1839 15.7823 91.9972 15.8476C91.9251 15.8671 91.8785 15.8476 91.8469 15.8055C91.8154 15.7634 91.8635 15.7094 91.8725 15.6973C91.9251 15.6478 91.9746 15.6057 92.0227 15.5621C92.0708 15.5186 92.1549 15.4465 92.218 15.3864C92.529 15.0723 92.8166 14.7359 93.0787 14.38L93.1087 14.3424C93.1854 14.2388 93.2725 14.1396 93.3566 14.042C93.3776 14.0194 93.4047 14.0255 93.4317 14.03H93.4617L93.4738 14.0615C93.4888 14.1847 93.5068 14.3274 93.5203 14.4686C93.5338 14.6098 93.5594 14.769 93.5804 14.9192C93.6423 15.3171 93.6789 15.7185 93.6901 16.1209C93.6872 16.1665 93.697 16.212 93.7185 16.2524C93.74 16.2927 93.7723 16.3262 93.8117 16.3493C94.0333 16.4953 94.2388 16.6645 94.4246 16.854L94.4171 16.851ZM93.4332 10.0838C93.4888 10.0173 93.5265 9.93768 93.5429 9.85251C93.5699 9.75037 93.5999 9.68277 93.648 9.67075C93.657 9.6347 93.666 9.59414 93.7381 9.61217C93.7381 9.65874 93.7381 9.70981 93.7502 9.76238C93.8114 9.98671 93.8442 10.2178 93.8478 10.4504C93.8478 10.4664 93.8419 10.4819 93.8313 10.4939C93.8435 10.4994 93.8571 10.5007 93.8701 10.4977C93.8831 10.4947 93.8948 10.4876 93.9034 10.4774C93.9334 10.4489 93.959 10.4188 93.989 10.3843C94.0126 10.4156 94.0289 10.4518 94.0367 10.4903C94.0445 10.5288 94.0436 10.5685 94.0341 10.6066C93.9765 11.0637 93.8836 11.5157 93.7562 11.9585C93.6881 12.2109 93.6275 12.4612 93.5744 12.7096C93.5489 12.8328 93.5999 12.8973 93.7141 12.8973C93.8042 12.8973 93.9274 12.8283 93.974 12.9139C94.0416 13.0325 93.8883 13.0836 93.8238 13.1527C93.7436 13.236 93.6588 13.3147 93.5699 13.3885L93.5924 13.4186L93.5639 13.4441L93.5083 13.4952C93.4202 13.5644 93.3441 13.6477 93.283 13.7416C93.2822 13.7445 93.2822 13.7476 93.283 13.7506C93.283 13.7506 93.298 13.7506 93.2995 13.7506C93.325 13.7416 93.3492 13.7295 93.3716 13.7145C93.4021 13.6874 93.4402 13.6702 93.4808 13.6654C93.5213 13.6605 93.5624 13.6683 93.5984 13.6875L93.6465 13.713L93.609 13.7536C93.4925 13.8646 93.3628 13.961 93.2229 14.0405L93.1748 14.0705C92.988 14.1829 92.8329 14.3411 92.7242 14.5302L92.5665 14.79L92.4163 15.0409C92.2772 15.2824 92.087 15.4906 91.859 15.6508C91.8379 15.6643 91.8134 15.6715 91.7884 15.6718C91.769 15.672 91.7499 15.6673 91.7328 15.6583C91.7135 15.6491 91.6971 15.635 91.6852 15.6172C91.6733 15.5995 91.6664 15.5789 91.6652 15.5576C91.6547 15.4585 91.6472 15.3579 91.6396 15.2572C91.6321 15.1566 91.6246 15.0574 91.6141 14.9568C91.6065 14.8992 91.6114 14.8407 91.6285 14.7852C91.6456 14.7297 91.6745 14.6786 91.7133 14.6353L91.7748 14.5557C91.913 14.383 92.0542 14.2042 92.1834 14.0194C92.6626 13.3435 92.963 12.5504 93.2349 11.8459C93.2222 11.8698 93.2107 11.8944 93.2004 11.9195C93.0141 12.3325 92.7978 12.7231 92.61 13.0521C92.4117 13.4285 92.1065 13.7379 91.7328 13.9413L91.6892 13.9654L91.6727 13.9173C91.6677 13.9004 91.6616 13.8839 91.6547 13.8677C91.6445 13.8463 91.6374 13.8236 91.6336 13.8001C91.6022 13.4548 91.6527 13.1069 91.7808 12.7847C91.8202 12.6808 91.88 12.5858 91.9566 12.5053C92.1391 12.3122 92.2685 12.0752 92.3321 11.8173C92.4351 11.483 92.6053 11.1732 92.8323 10.907C93.0291 10.6637 93.2004 10.4323 93.3536 10.1995C93.3804 10.1603 93.4095 10.1227 93.4407 10.0868L93.4332 10.0838ZM90.1015 8.12505L90.0459 8.03042L90.151 8.06346C90.2454 8.09684 90.3296 8.15371 90.3959 8.2287L90.4605 8.28878L90.5731 8.38492L90.7819 8.56067C90.7876 8.56194 90.7934 8.56148 90.7988 8.55933C90.8042 8.55719 90.8088 8.55346 90.812 8.54865C90.816 8.54228 90.8186 8.5351 90.8195 8.52762C90.7001 8.31979 90.5433 8.13592 90.3568 7.98535C89.8119 7.58978 89.3086 7.13983 88.8547 6.64244C88.6731 6.43397 88.4283 6.2905 88.1577 6.23386C88.1337 6.23386 88.1171 6.20832 88.1036 6.18879C88.0955 6.17563 88.0865 6.16307 88.0766 6.15124L88.015 6.08364H88.1066C88.2935 6.08047 88.4762 6.13909 88.6264 6.25038C88.7961 6.37806 88.9643 6.51175 89.1266 6.64694C89.3742 6.8626 89.6346 7.06324 89.9062 7.2478C89.9147 7.24897 89.9232 7.24897 89.9317 7.2478L89.9167 7.23128L89.5036 6.86475L89.077 6.4787C89.0657 6.46828 89.0537 6.45874 89.0409 6.45016C89.0084 6.43236 88.9815 6.40571 88.9634 6.37328C88.9453 6.34085 88.9368 6.30397 88.9388 6.2669V6.19931L88.9989 6.23085L89.1236 6.29695C89.2126 6.3476 89.3044 6.39323 89.3985 6.43364C89.9494 6.65791 90.4599 6.97101 90.9096 7.36046C91.0208 7.4566 91.1349 7.54072 91.2551 7.63085L91.3843 7.72849C91.3857 7.72409 91.3857 7.71937 91.3843 7.71497C91.273 7.47498 91.1204 7.25637 90.9336 7.06905C90.821 6.95639 90.7008 6.84523 90.5851 6.73707L90.3733 6.53729C90.3448 6.51926 90.1931 6.43364 90.0579 6.35703C89.9738 6.30896 89.8957 6.2654 89.8491 6.23686C89.5275 6.05052 89.1845 5.90375 88.8276 5.79974C88.1885 5.64139 87.5332 5.55771 86.8749 5.55038L86.4618 5.52935H86.4347L85.5965 5.6315C85.5184 5.63901 85.4358 5.64351 85.3577 5.64802H85.3472L85.3397 5.5639C85.4719 5.54738 85.6071 5.52034 85.7377 5.4948C86.0318 5.4189 86.3373 5.39752 86.639 5.43171C86.678 5.43677 86.7176 5.43265 86.7547 5.4197C86.9995 5.36562 88.7285 5.53686 89.2558 5.72012C89.6463 5.85682 90.4695 6.39008 90.5311 6.43214C90.9603 6.76965 91.3449 7.16033 91.6757 7.5948C91.8507 7.82123 91.9961 8.06908 92.1083 8.33235C92.168 8.47751 92.2124 8.62856 92.2405 8.78299L92.2721 8.91968C92.2774 8.9267 92.2847 8.93194 92.2931 8.9347C92.2973 8.93671 92.3019 8.93775 92.3066 8.93775C92.3113 8.93775 92.3159 8.93671 92.3201 8.9347C92.34 8.91947 92.3568 8.90062 92.3697 8.87912C92.3853 8.85181 92.407 8.82842 92.433 8.81072C92.459 8.79302 92.4888 8.78148 92.5199 8.77698H92.5605V8.81754C92.5656 8.88786 92.5465 8.95782 92.5064 9.01582C92.4909 9.04119 92.4788 9.06846 92.4703 9.09694C92.4544 9.15324 92.4349 9.20843 92.4118 9.26217C92.3641 9.35497 92.3409 9.45835 92.3442 9.5626C92.3471 9.59457 92.3471 9.62676 92.3442 9.65874C92.3442 9.72633 92.3442 9.7759 92.3637 9.78642C92.3832 9.79693 92.4072 9.79843 92.4448 9.72183C92.4593 9.68752 92.4796 9.65601 92.5049 9.62869C92.5876 9.54793 92.6658 9.46268 92.7392 9.37333C92.9642 9.15226 93.0977 8.85465 93.1132 8.53964L93.1328 8.38943L93.1944 8.52913C93.2423 8.63376 93.2671 8.74751 93.2671 8.8626C93.2671 8.9777 93.2423 9.09144 93.1944 9.19608C93.0747 9.47988 92.9373 9.75582 92.7828 10.0223C92.5992 10.3354 92.4521 10.6686 92.3442 11.0152C92.3332 11.0525 92.3256 11.0907 92.3216 11.1293L92.3562 11.0753C92.3727 11.0512 92.3877 11.0272 92.4027 11.0032C92.5214 10.7868 92.6401 10.569 92.7602 10.3557L92.7678 10.3407C92.773 10.3247 92.7816 10.31 92.793 10.2975C92.8044 10.2851 92.8183 10.2752 92.8339 10.2686C92.8474 10.2646 92.8615 10.2634 92.8755 10.2653C92.8895 10.2671 92.9029 10.2718 92.915 10.2791L92.945 10.2956L92.936 10.3287C92.8038 10.7793 92.0482 12.2079 91.8259 12.4317L91.7899 12.4662L91.7613 12.4257C91.7493 12.4057 91.7421 12.3833 91.7403 12.3601C91.7385 12.3369 91.7421 12.3136 91.7508 12.292C91.7513 12.282 91.7513 12.272 91.7508 12.2619L91.7899 12.1117C91.8454 11.9029 91.9025 11.6866 91.9401 11.4703C92.021 10.9831 91.9431 10.4828 91.7178 10.0433C91.7178 10.0508 91.7102 10.0583 91.7057 10.0703C91.6976 10.0974 91.682 10.1216 91.6608 10.1402C91.6395 10.1588 91.6135 10.171 91.5856 10.1755H91.5585L91.5435 10.1514C91.2741 9.6931 90.9043 9.30176 90.462 9.00681C90.4512 8.99293 90.4436 8.97687 90.4397 8.95974C90.4358 8.94261 90.4357 8.92483 90.4394 8.90767C90.4432 8.89152 90.4525 8.87718 90.4656 8.86706C90.4787 8.85693 90.495 8.85165 90.5115 8.85209L90.5716 8.86561C90.598 8.87398 90.6252 8.87952 90.6527 8.88213C90.6745 8.88433 90.6964 8.88015 90.7158 8.87011L90.6948 8.84908C90.6663 8.81453 90.6377 8.78599 90.6092 8.75595C90.5806 8.72591 90.5506 8.69586 90.5221 8.66282C90.4935 8.62977 90.4379 8.57119 90.3959 8.52462C90.2825 8.40332 90.1837 8.26923 90.1015 8.12505ZM78.4869 10.9205L78.8174 11.0557C79.0006 11.1308 79.1719 11.2059 79.3506 11.266C79.9721 11.4742 80.6057 11.6442 81.2478 11.7753C81.4882 11.8278 81.733 11.8744 81.9719 11.9255L82.3504 11.9976L82.4465 12.0111L82.7965 12.0471C83.0174 12.0697 83.2382 12.0922 83.4605 12.1117L83.6017 12.1252C84.0133 12.1628 84.4399 12.2034 84.859 12.2139C84.9987 12.2139 85.1354 12.2229 85.2736 12.2289C85.5079 12.2379 85.7483 12.2469 85.9871 12.2439H86.271C86.5819 12.2439 86.9019 12.2439 87.2188 12.2154L87.4337 12.1989C87.5839 12.1853 87.7341 12.1733 87.8843 12.1643C88.697 12.1057 89.6538 11.9931 90.5882 11.61L90.6257 11.595C90.8213 11.4996 91.0376 11.4541 91.2551 11.4628L91.4143 11.4763L91.2641 11.5439C91.0403 11.6476 90.8135 11.7257 90.6077 11.8008C90.477 11.8474 90.3523 11.8909 90.2276 11.9405C89.8293 12.0972 89.4113 12.1983 88.9854 12.2409C88.8592 12.2574 88.73 12.2845 88.6068 12.3085C87.649 12.4798 86.6777 12.5638 85.7047 12.5594C85.4568 12.5594 85.206 12.5594 84.9536 12.5443C84.2207 12.5076 83.4907 12.4253 82.768 12.298C82.7274 12.2905 82.6869 12.286 82.6448 12.28C82.4851 12.2682 82.3284 12.2307 82.1807 12.1688H82.1341C82.0901 12.1709 82.0461 12.1663 82.0034 12.1553C81.2148 11.966 80.5208 11.7933 79.8854 11.628C79.5164 11.5412 79.1571 11.4174 78.8129 11.2585L78.7663 11.236C78.6339 11.1836 78.5178 11.097 78.4298 10.9851L78.3502 10.8695L78.4869 10.9205ZM77.7734 13.4381C77.7734 13.4201 77.7734 13.4021 77.7854 13.384C77.7997 13.2638 77.8442 13.1491 77.9146 13.0506L78.0032 12.9379L77.9867 13.1317C77.9819 13.2033 77.9728 13.2745 77.9597 13.345L77.9191 13.5673C77.883 13.7686 77.8455 13.9774 77.8019 14.1802C77.758 14.3504 77.769 14.5301 77.8335 14.6937C77.898 14.8572 78.0126 14.9961 78.1609 15.0905C78.3022 15.1956 78.4531 15.2872 78.6116 15.3639C78.9559 15.5356 79.3217 15.6604 79.6991 15.7349C80.336 15.8851 80.9895 15.9903 81.6038 16.0879L81.9268 16.1405C82.5277 16.2351 83.7624 16.4409 83.9397 16.4589C84.2401 16.5025 84.5405 16.5536 84.8304 16.6091L85.3892 16.7008L85.5304 16.7263C86.0579 16.769 86.5813 16.8529 87.0957 16.9772L87.2834 17.0222L87.0942 17.0613C86.9803 17.086 86.8625 17.086 86.7487 17.0613C86.5684 17.0282 86.3807 17.0102 86.2004 16.9907L85.918 16.9606C85.9061 16.9567 85.8934 16.9555 85.881 16.9573C85.8685 16.9591 85.8567 16.9637 85.8463 16.9708C85.836 16.978 85.8274 16.9874 85.8214 16.9984C85.8153 17.0094 85.8119 17.0217 85.8113 17.0342C85.7993 17.0883 85.7903 17.1469 85.7828 17.2055C85.7407 17.5059 85.7017 17.8154 85.6626 18.1188L85.6506 18.2179C85.65 18.2269 85.65 18.236 85.6506 18.245C85.6506 18.2885 85.6401 18.3681 85.544 18.3787H85.5034V18.3381C85.5041 18.3291 85.5041 18.3201 85.5034 18.3111C85.4968 18.2943 85.4932 18.2765 85.4929 18.2585C85.5034 18.0617 85.5154 17.8649 85.5259 17.6681C85.5364 17.4714 85.55 17.2626 85.5605 17.0598C85.5605 16.9411 85.5605 16.9291 85.4223 16.8945L85.2901 16.8585C84.865 16.8495 84.4384 16.7969 84.0253 16.7473L83.8961 16.7308C83.432 16.6752 83.432 16.6752 83.3583 17.1544L83.0774 19.0366C83.0774 19.0513 83.0737 19.0657 83.0666 19.0786C83.0595 19.0915 83.0493 19.1023 83.0369 19.1102C83.026 19.1125 83.0147 19.1125 83.0038 19.1102C82.9808 19.1089 82.9586 19.1017 82.9393 19.0892L82.9152 19.0772V19.0501C82.9152 18.9735 82.9242 18.8999 82.9272 18.8203C82.9347 18.6791 82.9423 18.5364 82.9543 18.3937C82.9723 18.1368 82.9933 17.8784 83.0144 17.6201C83.0354 17.3617 83.0579 17.0823 83.0774 16.8134C83.088 16.6527 83.0775 16.6377 82.9032 16.6076C82.6028 16.5566 82.3114 16.501 82.0154 16.4454L81.4146 16.3342C81.2163 16.2967 81.2043 16.3027 81.1292 16.507C81.1081 16.5626 81.0916 16.6166 81.0751 16.6722C80.9721 17.0555 80.9028 17.4471 80.8678 17.8424V17.883C80.8638 17.9664 80.8502 18.049 80.8272 18.1293C80.8199 18.1584 80.8199 18.1888 80.8272 18.2179C80.8395 18.2524 80.8423 18.2895 80.8354 18.3254C80.8286 18.3613 80.8123 18.3947 80.7882 18.4222L80.7566 18.4553L80.7266 18.4207C80.6859 18.3738 80.6649 18.313 80.668 18.251L80.6785 18.0407C80.6862 17.5128 80.7318 16.9862 80.8152 16.4649C80.8468 16.3147 80.8378 16.3147 80.7236 16.2847C80.4232 16.2066 80.1122 16.1345 79.8058 16.0564L79.3867 15.9527C79.3747 15.9491 79.362 15.948 79.3495 15.9495C79.3371 15.951 79.325 15.955 79.3142 15.9614C79.3033 15.9677 79.2939 15.9762 79.2865 15.9864C79.279 15.9965 79.2738 16.008 79.271 16.0203L79.2425 16.0909C79.1974 16.2066 79.1493 16.3252 79.1148 16.4469C78.9961 16.863 78.879 17.2896 78.7663 17.7027C78.7614 17.719 78.7574 17.7355 78.7543 17.7523C78.7519 17.7914 78.7392 17.8292 78.7176 17.8619C78.696 17.8945 78.6662 17.921 78.6311 17.9385L78.586 17.9596L78.5725 17.9115C78.5551 17.8399 78.5551 17.7652 78.5725 17.6937L78.5815 17.6471C78.6822 17.1244 78.7843 16.5641 78.882 15.9812C78.909 15.819 78.909 15.816 78.7603 15.7649C78.4663 15.6588 78.191 15.5067 77.9446 15.3143C77.8725 15.2572 77.7944 15.2061 77.7178 15.1641C77.604 15.0955 77.4965 15.0171 77.3963 14.9297C77.3558 14.8952 77.3318 14.8892 77.3212 14.8922C77.3107 14.8952 77.2867 14.9177 77.2672 14.9553C77.1661 15.1782 77.0876 15.4107 77.0328 15.6493C76.9151 16.1621 76.8937 16.6923 76.9697 17.213C76.9794 17.2625 76.9849 17.3128 76.9863 17.3632C76.9857 17.3697 76.9857 17.3762 76.9863 17.3827C76.9925 17.3967 76.9958 17.4118 76.9958 17.4271C76.9958 17.4423 76.9925 17.4574 76.9863 17.4714C76.9776 17.4824 76.9667 17.4914 76.9542 17.4979C76.9418 17.5043 76.9282 17.5081 76.9142 17.5089H76.9097H76.8976C76.8751 17.4974 76.8558 17.4803 76.8416 17.4593C76.8274 17.4383 76.8188 17.414 76.8165 17.3887C76.8174 17.3803 76.8174 17.3717 76.8165 17.3632C76.7348 16.9901 76.706 16.6073 76.7309 16.2261C76.7316 15.8923 76.7781 15.5603 76.8691 15.2392C76.9394 14.9429 77.0914 14.6723 77.3077 14.4581C77.4444 14.3357 77.5478 14.1807 77.6082 14.0074C77.6764 13.8217 77.7316 13.6315 77.7734 13.4381ZM72.4032 15.4134C72.4881 15.1322 72.6543 14.8824 72.8809 14.6954C73.1968 14.4227 73.5479 14.1938 73.9249 14.0149C74.3484 13.8051 74.7838 13.62 75.2288 13.4607C75.9482 13.1984 76.6844 12.9846 77.4324 12.8207L77.4564 12.9019C77.2086 12.995 76.9427 13.0896 76.6663 13.1843C76.4575 13.2564 76.2457 13.3345 76.0354 13.3976C75.6944 13.5117 75.3429 13.6304 75.0034 13.7536C74.5282 13.9208 74.0744 14.1437 73.6515 14.4175C73.4231 14.5567 73.2221 14.7364 73.0582 14.9478C72.9309 15.1019 72.8546 15.2918 72.8398 15.4912C72.825 15.6905 72.8724 15.8896 72.9756 16.0609C73.0519 16.2038 73.1537 16.3316 73.276 16.4379C73.4935 16.633 73.7306 16.8051 73.9835 16.9516C74.6857 17.3329 75.4251 17.6415 76.1901 17.8724C77.5696 18.3075 78.9742 18.6586 80.3961 18.9239C82.1807 19.2724 83.809 19.5458 85.3757 19.7576C86.563 19.9337 87.7599 20.0375 88.9598 20.0686C89.5246 20.0686 90.0894 20.049 90.6122 20.0205C91.1735 19.9828 91.7282 19.8779 92.2645 19.7081C92.5612 19.6154 92.8688 19.5619 93.1793 19.5488C93.307 19.5488 93.4392 19.5338 93.5669 19.5203C93.66 19.5113 93.7532 19.5023 93.8463 19.4978C94.1068 19.4883 94.3629 19.4275 94.5998 19.3187C94.8368 19.2099 95.0498 19.0553 95.2268 18.8639C95.4465 18.6408 95.6999 18.4537 95.9778 18.3096C96.2626 18.148 96.5326 17.9615 96.7845 17.7523C96.9213 17.6467 97.0436 17.5235 97.148 17.3857C97.4289 17.0012 97.4064 16.6572 97.0744 16.3342C96.9196 16.1765 96.7449 16.0396 96.5547 15.9272C96.2032 15.7109 95.8532 15.4976 95.5032 15.2843C95.1532 15.0709 94.7957 14.8546 94.4517 14.6368L94.4111 14.6158C94.3291 14.5856 94.2615 14.5255 94.2218 14.4476L94.1963 14.3875H94.2774C94.2998 14.3846 94.3226 14.3877 94.3435 14.3965L94.8332 14.6293C95.1952 14.8021 95.5692 14.9793 95.9358 15.1626C96.3572 15.3611 96.7511 15.6136 97.1074 15.9136C97.3105 16.0858 97.4691 16.3043 97.5701 16.5506C97.6337 16.6986 97.654 16.8616 97.6287 17.0207C97.5696 17.3688 97.4049 17.6902 97.157 17.9415C96.7544 18.3651 96.3368 18.7917 95.9328 19.2033C95.7296 19.414 95.4872 19.5829 95.2193 19.7005C94.9354 19.8216 94.6407 19.9151 94.339 19.9799C94.2128 20.01 94.0866 20.037 93.959 20.0641C93.7787 20.1016 93.5924 20.1407 93.4122 20.1887C92.895 20.3304 92.3698 20.4412 91.8394 20.5207C90.9393 20.6538 90.0305 20.7206 89.1206 20.7205H88.8051C88.2388 20.7115 87.6725 20.6799 87.0731 20.6229C86.3807 20.5492 85.6852 20.4591 85.0047 20.354C84.0403 20.2038 83.0339 20.0115 82.0169 19.7741C81.4641 19.645 80.7341 19.4737 79.9936 19.2754C78.8219 18.96 77.5901 18.5875 76.0009 18.0737C75.3127 17.8587 74.6397 17.5977 73.9865 17.2926C73.6101 17.1129 73.257 16.8879 72.935 16.6227C72.7256 16.4565 72.5596 16.2421 72.4513 15.9978C72.3653 15.8152 72.3483 15.6076 72.4032 15.4134Z" fill="white"/>
</g>
<defs>
<clipPath id="clip0_471_3108">
<rect width="113" height="55.1378" fill="white" transform="translate(0 0.988281)"/>
</clipPath>
</defs>
</svg>
