<svg width="113" height="90" viewBox="0 0 113 90" fill="none" xmlns="http://www.w3.org/2000/svg">
<g clip-path="url(#clip0_471_3201)">
<path d="M7.85889 42.0378C7.91338 41.9889 7.97754 41.952 8.04722 41.9296C8.1169 41.9071 8.19053 41.8995 8.26332 41.9074C12.0102 41.9074 15.7571 41.91 19.5039 41.9152C19.6709 41.9152 19.8379 41.9034 20.0049 41.9152C20.2032 41.9152 20.2658 41.9882 20.2567 42.1865C20.2332 42.7906 20.1954 43.3946 20.1823 44C20.138 45.9086 20.1497 47.816 20.2476 49.7247C20.3168 51.3612 20.4692 52.9933 20.7042 54.6144C20.9195 56.0077 21.2013 57.388 21.6944 58.7148C21.9945 59.5198 22.3598 60.2921 22.9338 60.9444C23.2523 61.3353 23.6674 61.6361 24.138 61.8172C25.1412 62.1694 26.0062 61.9163 26.7472 61.1871C27.3617 60.5817 27.7439 59.829 28.061 59.0397C28.6298 57.6254 28.922 56.1421 29.1516 54.6457C29.5227 52.147 29.7093 49.6245 29.71 47.0985C29.7191 45.4729 29.6774 43.8447 29.6565 42.2179C29.6565 41.9765 29.7022 41.9217 29.9409 41.9152C30.0348 41.9152 30.1288 41.9152 30.2227 41.9152L41.7451 41.9217C42.0504 41.9217 42.0896 41.9635 42.0752 42.2635C41.9397 45.0046 41.9537 47.7509 42.117 50.4905C42.199 52.0202 42.3628 53.5444 42.6075 55.0566C42.841 56.4278 43.1463 57.7794 43.6681 59.0723C43.9721 59.8224 44.3544 60.5269 44.9258 61.1114C45.3299 61.5559 45.8742 61.8483 46.4679 61.9398C47.2963 62.0533 47.9877 61.765 48.5696 61.1936C49.1515 60.6222 49.5233 59.932 49.826 59.1923C50.49 57.5667 50.8214 55.8577 51.0588 54.1277C51.3787 51.7388 51.5413 49.3313 51.5455 46.921C51.5533 45.3881 51.5128 43.8539 51.4946 42.3209C51.4946 42.2583 51.4946 42.1905 51.4946 42.1331C51.4918 42.1042 51.4954 42.0751 51.5051 42.0478C51.5148 42.0205 51.5305 41.9957 51.5509 41.9751C51.5714 41.9545 51.5961 41.9387 51.6233 41.9288C51.6506 41.9189 51.6797 41.9152 51.7085 41.9178C51.792 41.9178 51.8755 41.9178 51.959 41.9178H63.4814C63.8219 41.9178 63.8546 41.9491 63.8533 42.2922C63.8428 45.3594 63.9237 48.4239 64.1142 51.4872C64.2446 53.6124 64.4338 55.7324 64.7378 57.8394C65.0313 59.8746 65.4188 61.8942 66.0581 63.855C66.4599 65.0879 66.9517 66.2816 67.6758 67.3684C68.2564 68.2398 68.9635 68.9796 69.8937 69.4897C70.3461 69.7301 70.8288 69.9086 71.3287 70.0207C71.5897 70.0859 71.6158 70.1511 71.5009 70.3938C71.0626 71.3422 70.5877 72.2659 69.9354 73.0983C69.043 74.2568 67.9785 75.213 66.623 75.7923C65.9009 76.1017 65.1253 76.2671 64.3399 76.2789C62.5486 76.3327 60.7937 75.7664 59.3719 74.6755C58.3989 73.9169 57.5639 72.9963 56.9035 71.9541C56.0909 70.6768 55.426 69.3112 54.9218 67.8837C53.9225 65.144 53.3263 62.3116 52.8905 59.4389C52.7862 58.7592 52.7053 58.0755 52.6152 57.3919C52.5813 57.131 52.5252 57.0305 52.4182 57.0579C52.2408 57.1023 52.2669 57.2628 52.2565 57.3919C52.0839 59.5451 51.7925 61.687 51.3837 63.808C51.0557 65.5622 50.5947 67.2889 50.0047 68.973C49.4163 70.6103 48.6831 72.1733 47.5964 73.5497C46.9618 74.3802 46.1623 75.0704 45.248 75.577C44.0582 76.2189 42.7797 76.3781 41.4516 76.2359C39.5129 76.0271 37.8926 75.1752 36.5384 73.7936C35.3381 72.5699 34.4797 71.1231 33.7752 69.5745C32.9637 67.7924 32.4014 65.9215 31.9396 64.0285C31.4657 62.0176 31.0981 59.983 30.8385 57.9333C30.8137 57.7481 30.8007 57.5602 30.7785 57.3736C30.7776 57.3012 30.7635 57.2296 30.7367 57.1623C30.7228 57.1364 30.7031 57.1141 30.6791 57.0972C30.6551 57.0802 30.6275 57.069 30.5984 57.0645C30.57 57.0702 30.5433 57.0827 30.5206 57.1008C30.4979 57.119 30.4799 57.1423 30.468 57.1688C30.4439 57.2484 30.4312 57.331 30.4301 57.4141C30.2429 59.807 29.9026 62.1854 29.4112 64.5347C28.9572 66.6821 28.3675 68.7917 27.4373 70.7878C26.8659 72.0128 26.181 73.1687 25.243 74.1563C24.395 75.05 23.4061 75.7219 22.2045 76.0584C21.3644 76.279 20.4899 76.3374 19.6279 76.2307C17.3878 75.9984 15.6136 74.913 14.1733 73.23C13.2674 72.1487 12.5182 70.9454 11.9476 69.6554C10.7395 67.0187 10.0272 64.2347 9.49227 61.3971C9.1883 59.8211 8.94303 58.2373 8.77212 56.6405C8.60644 55.0853 8.47597 53.525 8.36378 51.9647C8.25941 50.5296 8.23331 49.0945 8.10937 47.6594C7.97891 46.1826 7.88759 44.7071 7.89803 43.2237C7.89141 43.1212 7.87834 43.0193 7.85889 42.9184L7.85889 42.0378Z" fill="white"/>
<path d="M7.85889 2.41773C7.90639 2.36167 7.9669 2.31809 8.03512 2.2908C8.10334 2.26351 8.17721 2.25334 8.25027 2.26117C11.9902 2.26639 15.7262 2.26943 19.4583 2.2703C19.6357 2.2703 19.8131 2.25856 19.9906 2.25987C20.2045 2.25987 20.2632 2.33032 20.258 2.54819C20.2241 4.12287 20.1576 5.69755 20.1654 7.27092C20.1573 9.84859 20.3378 12.4234 20.7055 14.9747C20.9195 16.368 21.2026 17.7483 21.6957 19.0738C21.9984 19.8892 22.3715 20.6694 22.9573 21.3282C23.3839 21.807 23.8862 22.1684 24.532 22.2819C25.4295 22.4385 26.1771 22.141 26.7968 21.4991C27.19 21.08 27.5145 20.6014 27.7583 20.081C28.4106 18.7242 28.7563 17.2748 29.0212 15.8031C29.3446 13.9949 29.5403 12.166 29.6069 10.3303C29.6696 8.63425 29.7061 6.93172 29.727 5.2318C29.7374 4.36683 29.6891 3.50187 29.663 2.6356C29.6526 2.31466 29.6904 2.2703 30.0048 2.2703H41.7138C42.0556 2.2703 42.0817 2.30814 42.0739 2.64473C42.0413 4.05242 41.9891 5.4601 41.9982 6.86779C42.0074 8.27548 42.053 9.68447 42.1352 11.0895C42.2657 13.2787 42.5083 15.4561 43.0615 17.5853C43.3459 18.6785 43.6995 19.747 44.3139 20.7098C44.5827 21.1464 44.9304 21.5291 45.3394 21.8383C45.7532 22.1545 46.2589 22.327 46.7797 22.3299C47.3004 22.3327 47.8079 22.1656 48.2252 21.854C48.7562 21.473 49.1202 20.9538 49.428 20.3928C49.8798 19.5331 50.2221 18.6201 50.447 17.6753C51.0093 15.5044 51.2454 13.2865 51.3993 11.0556C51.5624 8.70731 51.5924 6.36682 51.5402 4.0185C51.5298 3.55014 51.505 3.08047 51.4907 2.61212C51.4815 2.31858 51.5324 2.2703 51.8325 2.2703H63.4801C63.8115 2.2703 63.848 2.30944 63.848 2.65256C63.8389 5.72103 63.9172 8.78428 64.109 11.8475C64.2394 13.9715 64.4286 16.0928 64.7326 18.1997C65.0287 20.2558 65.4175 22.2949 66.0698 24.2741C66.4612 25.4482 66.9165 26.5858 67.5962 27.6243C68.1924 28.5376 68.9087 29.3203 69.8793 29.8513C70.3188 30.0928 70.7913 30.2687 71.2818 30.3732C71.5714 30.4332 71.6053 30.4971 71.4918 30.7502C71.0814 31.71 70.5594 32.6182 69.9367 33.456C69.1461 34.4853 68.2237 35.3633 67.0548 35.9569C66.0562 36.4711 64.938 36.708 63.8167 36.6432C62.75 36.5994 61.703 36.3416 60.7378 35.8852C59.7994 35.4241 58.9535 34.7949 58.2421 34.0287C56.9205 32.6236 56.0164 30.9629 55.2858 29.2016C54.5617 27.3999 53.9943 25.5392 53.5898 23.64C53.1595 21.6942 52.8316 19.7272 52.6074 17.747C52.5918 17.6166 52.6165 17.4561 52.4326 17.4235C52.323 17.4039 52.2682 17.5174 52.2473 17.7679C52.043 20.4104 51.6506 23.035 51.0732 25.6217C50.6387 27.5278 50.0804 29.3947 49.2467 31.1703C48.7339 32.3259 48.0519 33.3987 47.2232 34.3536C46.6602 34.9967 45.9885 35.5358 45.2389 35.9465C44.4173 36.3896 43.5017 36.6298 42.5683 36.6471C40.5958 36.6914 38.8241 36.1148 37.2912 34.8571C36.376 34.09 35.5905 33.1803 34.965 32.1631C34.1768 30.8968 33.5306 29.5475 33.0381 28.1397C32.425 26.3974 31.938 24.6133 31.5808 22.8011C31.2377 21.1143 30.9585 19.4091 30.7746 17.704C30.7746 17.6622 30.7746 17.6114 30.7563 17.5813C30.7078 17.5211 30.6551 17.4644 30.5984 17.4117C30.5476 17.4665 30.4758 17.5148 30.4497 17.58C30.427 17.6606 30.4169 17.7442 30.4197 17.8279C30.1457 21.066 29.663 24.2714 28.7915 27.4078C28.2697 29.2942 27.5822 31.1181 26.5476 32.7919C25.8718 33.8839 25.0642 34.8585 23.9892 35.5864C22.8121 36.3855 21.3943 36.7516 19.9775 36.6223C19.1118 36.5693 18.2603 36.3772 17.4557 36.0535C16.0415 35.4716 14.9038 34.5219 13.9541 33.3373C12.9704 32.1174 12.2359 30.7528 11.6305 29.3138C10.6077 26.8768 9.97107 24.3315 9.48314 21.747C9.18308 20.1606 8.94042 18.5585 8.77212 16.9512C8.60643 15.4065 8.47989 13.8567 8.36769 12.3068C8.26462 10.8717 8.21113 9.43659 8.12112 8.00151C8.07284 7.31006 7.97761 6.62644 7.94369 5.94021C7.90585 5.17961 7.91368 4.41771 7.89803 3.65712C7.89803 3.5123 7.87193 3.3688 7.85889 3.22529V2.41773Z" fill="white"/>
<path d="M103.896 21.5172C103.78 22.7407 103.553 23.9511 103.218 25.1336C102.41 27.9268 101.051 30.4017 98.9493 32.4395C97.4497 33.8999 95.6478 35.0133 93.6708 35.7011C91.7058 36.3884 89.6301 36.7042 87.5496 36.6326C86.4748 36.598 85.4065 36.4537 84.3611 36.202C82.7034 35.8066 81.1294 35.1192 79.7127 34.172C78.5748 33.4142 77.5463 32.5038 76.656 31.4663C74.9891 29.5223 73.7534 27.247 73.0304 24.7905C72.2328 22.1731 71.9232 19.4313 72.1172 16.7018C72.2559 14.4308 72.8016 12.2032 73.7284 10.1253C74.513 8.37102 75.6127 6.77559 76.973 5.41818C78.3566 4.03659 80.0039 2.94737 81.817 2.21533C83.3369 1.59433 84.926 1.27079 86.5528 1.09727C86.9638 1.05422 88.4954 0.974636 88.6298 0.990292C88.9298 1.02682 89.2286 1.07509 89.5287 1.10771C91.2354 1.27535 92.9022 1.72687 94.4601 2.44364C96.2201 3.27117 97.7997 4.43756 99.1085 5.8761C100.571 7.48207 101.722 9.347 102.501 11.3751C102.979 12.5642 103.334 13.7992 103.561 15.0606C103.692 15.8082 103.787 16.5623 103.89 17.315C103.93 17.6373 103.926 21.2119 103.896 21.5172ZM87.5104 15.1924C87.5578 16.9633 87.6984 18.7305 87.9318 20.4866C88.1762 22.4517 88.5816 24.3934 89.1438 26.2921C89.4413 27.3229 89.8485 28.3188 90.3584 29.2627C90.7576 29.9764 91.2221 30.6391 91.8926 31.131C92.8059 31.8002 93.9592 31.8603 94.8789 31.0396C95.4295 30.5504 95.7922 29.9281 96.0622 29.2601C96.4338 28.3206 96.6998 27.3426 96.8554 26.3443C97.1175 24.7202 97.2483 23.0776 97.2468 21.4324C97.2766 18.9759 97.1087 16.5209 96.7445 14.0913C96.4744 12.1948 96.0534 10.3228 95.4856 8.49317C95.126 7.30655 94.6318 6.16498 94.0126 5.09072C93.7097 4.56663 93.3247 4.09446 92.8724 3.69216C92.3414 3.23033 91.7374 2.94853 91.0107 3.06073C90.5227 3.14197 90.0756 3.38341 89.74 3.74696C89.136 4.36926 88.7942 5.13638 88.5163 5.93611C88.157 7.01338 87.9117 8.12534 87.7844 9.25377C87.5613 10.9641 87.4843 12.6888 87.5104 15.1924Z" fill="white"/>
<path d="M103.898 61.101C103.78 61.8838 103.68 62.6666 103.533 63.4493C103.272 64.7596 102.859 66.0347 102.301 67.2484C101.783 68.4019 101.131 69.4901 100.357 70.4904C99.2468 71.9345 97.8749 73.1568 96.3128 74.0938C94.2449 75.3358 91.9945 76.0037 89.5992 76.2164C88.339 76.3325 87.0696 76.3045 85.8158 76.1329C83.5102 75.819 81.3141 74.9549 79.4127 73.6137C78.1141 72.6985 76.9646 71.5883 76.005 70.3221C74.0781 67.7963 72.9522 64.9314 72.3978 61.8225C72.0411 59.7837 71.9669 57.7055 72.1773 55.6464C72.3446 53.8562 72.7664 52.0991 73.4297 50.4279C74.3677 48.0874 75.735 46.0405 77.6319 44.364C78.9949 43.157 80.5744 42.2193 82.2868 41.6008C83.9474 40.9995 85.6941 40.67 87.4596 40.625C88.8372 40.5718 90.2159 40.6972 91.5613 40.9981C92.8246 41.2861 94.0426 41.7452 95.1817 42.3627C98.0518 43.9283 100.151 46.2231 101.653 49.0959C102.875 51.4364 103.569 53.9334 103.853 56.5531C103.88 56.8388 103.94 60.8218 103.898 61.101ZM87.474 54.0378C87.5353 55.1937 87.5744 56.3509 87.6631 57.5042C87.8451 60.1703 88.29 62.8119 88.9912 65.3906C89.3722 66.7487 89.8484 68.0729 90.5933 69.2836C90.9964 69.9359 91.4752 70.5295 92.151 70.9222C92.8268 71.3149 93.5444 71.3971 94.2789 71.0631C94.6685 70.8778 95.0081 70.6018 95.2691 70.2582C95.8066 69.5863 96.1353 68.81 96.3806 67.9973C96.8855 66.3299 97.0955 64.6131 97.1895 62.8792C97.2918 60.8163 97.2605 58.7489 97.0955 56.6901C96.9538 54.9118 96.7038 53.1438 96.3467 51.3959C96.0891 50.0952 95.7457 48.813 95.3186 47.5577C94.9273 46.441 94.4785 45.3568 93.8262 44.364C93.5169 43.8666 93.1189 43.4301 92.652 43.0764C92.0975 42.6745 91.4896 42.4658 90.7968 42.6589C90.3331 42.7959 89.921 43.0685 89.6135 43.4417C89.0917 44.0418 88.7708 44.7528 88.5124 45.4964C88.1517 46.5865 87.9051 47.711 87.7766 48.8519C87.5713 50.5729 87.4703 52.3047 87.474 54.0378Z" fill="white"/>
<path d="M32.9075 89.5507C32.7225 89.3253 32.6293 89.0383 32.6466 88.7471C32.6635 87.4973 32.6466 86.2461 32.6466 84.9963C32.6424 84.913 32.6468 84.8295 32.6596 84.7471C32.6713 84.6796 32.7066 84.6185 32.7592 84.5745C32.8117 84.5306 32.8781 84.5067 32.9466 84.5071C33.01 84.5097 33.0704 84.5347 33.117 84.5778C33.1636 84.6208 33.1934 84.6789 33.201 84.7419C33.2154 84.811 33.231 84.8789 33.2545 84.9898C33.3312 84.9482 33.4045 84.9007 33.4737 84.8476C33.6249 84.7118 33.8037 84.6103 33.9978 84.55C34.1918 84.4897 34.3966 84.472 34.5982 84.4982C34.7997 84.5243 34.9932 84.5937 35.1655 84.7015C35.3378 84.8093 35.4847 84.953 35.5963 85.1228C36.0099 85.7138 36.0321 86.8541 35.6094 87.4712C35.4958 87.6394 35.3479 87.7816 35.1753 87.8885C35.0027 87.9953 34.8094 88.0643 34.6082 88.091C34.407 88.1176 34.2024 88.1012 34.0079 88.043C33.8135 87.9847 33.6336 87.8859 33.4802 87.753C33.4099 87.6976 33.3363 87.6467 33.2597 87.6003C33.2356 87.668 33.2186 87.7379 33.2089 87.8091C33.2089 88.1209 33.1945 88.4353 33.2245 88.7458C33.2389 88.8911 33.2231 89.0378 33.1782 89.1768C33.1333 89.3157 33.0603 89.4439 32.9636 89.5533L32.9075 89.5507ZM35.3497 86.2657C35.3056 86.0131 35.2383 85.765 35.1488 85.5247C35.069 85.3407 34.9308 85.1881 34.7556 85.0905C34.5804 84.9929 34.378 84.9557 34.1795 84.9846C33.989 84.9946 33.8061 85.0624 33.6551 85.1789C33.5041 85.2954 33.3921 85.4552 33.3341 85.6369C33.1755 86.0618 33.1732 86.5293 33.3276 86.9558C33.3924 87.1503 33.517 87.3193 33.6836 87.4388C33.8502 87.5583 34.0502 87.6221 34.2552 87.6212C34.4661 87.6374 34.6762 87.5805 34.8501 87.46C35.024 87.3396 35.1511 87.1629 35.2102 86.9598C35.2717 86.7317 35.3183 86.4998 35.3497 86.2657Z" fill="white"/>
<path d="M58.4575 89.5508C58.2938 89.2851 58.2172 88.975 58.2383 88.6636C58.254 87.4229 58.2383 86.1849 58.2383 84.9429C58.2383 84.9115 58.2383 84.8802 58.2383 84.8489C58.2514 84.6545 58.3518 84.5228 58.4992 84.5058C58.6467 84.4888 58.7602 84.5932 58.8084 84.7902C58.8202 84.8385 58.8306 84.8881 58.8528 84.9846C58.9279 84.9477 58.9995 84.904 59.0667 84.8541C59.211 84.7224 59.3811 84.6223 59.5663 84.5601C59.7515 84.4979 59.9476 84.4751 60.1421 84.493C60.3366 84.5109 60.5252 84.5692 60.6959 84.6642C60.8665 84.7592 61.0155 84.8888 61.1333 85.0446C61.6395 85.6969 61.6447 86.8841 61.145 87.543C60.9489 87.7966 60.6749 87.9787 60.3651 88.0612C60.0553 88.1437 59.727 88.1221 59.4307 87.9996C59.313 87.9357 59.2024 87.8596 59.1007 87.7726C59.0289 87.7204 58.9611 87.663 58.8632 87.5847C58.8363 87.6542 58.8171 87.7264 58.8058 87.8C58.8058 88.0818 58.7993 88.3636 58.828 88.6428C58.8697 88.967 58.7831 89.2947 58.5866 89.556L58.4575 89.5508ZM60.9023 86.3049C60.9245 86.0274 60.8666 85.7493 60.7353 85.5038C60.6417 85.3157 60.4888 85.1636 60.3002 85.0709C60.1116 84.9783 59.8978 84.9502 59.6917 84.9911C59.2637 85.0577 59.0159 85.3355 58.8971 85.7348C58.8027 86.0676 58.7933 86.4188 58.8697 86.7563C58.9168 86.9821 59.0294 87.189 59.1933 87.3512C59.3693 87.5143 59.5984 87.6081 59.8383 87.6153C60.0781 87.6225 60.3124 87.5426 60.4979 87.3903C60.8267 87.0955 60.9219 86.7145 60.9023 86.3049Z" fill="white"/>
<path d="M85.6977 89.5507C85.5054 89.3172 85.4072 89.0204 85.4224 88.7183C85.4394 87.4776 85.4224 86.2395 85.4224 84.9962C85.4194 84.9234 85.4229 84.8505 85.4329 84.7784C85.4434 84.7057 85.4786 84.6389 85.5325 84.589C85.5864 84.5392 85.6558 84.5093 85.729 84.5044C85.7981 84.5079 85.8636 84.5362 85.9134 84.5842C85.9633 84.6321 85.9942 84.6964 86.0004 84.7653C86.0121 84.824 86.0278 84.8827 86.0486 84.9728C86.1183 84.9485 86.1849 84.9161 86.2469 84.8762C86.8849 84.3074 87.7916 84.3713 88.3109 85.0276C88.5113 85.2703 88.6393 85.5647 88.6801 85.8769C88.7427 86.37 88.7349 86.8553 88.4974 87.3119C88.3432 87.6181 88.086 87.8601 87.7711 87.9954C87.4561 88.1307 87.1035 88.1506 86.7753 88.0517C86.6051 87.9796 86.4446 87.8862 86.2978 87.7738C86.2261 87.7281 86.1674 87.6694 86.0578 87.5911C86.0337 87.6641 86.0171 87.7393 86.0082 87.8155C86.0082 88.1286 85.9978 88.4418 86.0239 88.7536C86.0386 88.8985 86.0223 89.0449 85.9759 89.1831C85.9296 89.3212 85.8543 89.4479 85.7551 89.5546L85.6977 89.5507ZM86.0226 86.2813C86.0226 86.6727 86.0813 87.0288 86.3631 87.325C86.4536 87.4188 86.5619 87.4936 86.6817 87.5452C86.8014 87.5968 86.9303 87.624 87.0606 87.6253C87.191 87.6267 87.3204 87.6021 87.4411 87.553C87.5619 87.5039 87.6718 87.4313 87.7642 87.3393C88.1647 86.9349 88.2404 86.0921 87.9495 85.5129C87.87 85.3597 87.752 85.2298 87.6071 85.136C87.4622 85.0422 87.2954 84.9878 87.1231 84.9781C86.9508 84.9683 86.7789 85.0036 86.6244 85.0805C86.4698 85.1573 86.338 85.2731 86.2417 85.4163C86.0852 85.6768 86.009 85.9777 86.0226 86.2813Z" fill="white"/>
<path d="M21.3386 86.2645C21.3386 85.8261 21.3386 85.3891 21.3386 84.9507C21.3386 84.6663 21.439 84.5111 21.6204 84.5032C21.8017 84.4954 21.9374 84.6676 21.9374 84.9573C21.9374 85.6974 21.9374 86.4367 21.9374 87.1751C21.9374 87.5665 21.9556 87.5913 22.3627 87.59C22.6862 87.59 23.015 87.59 23.3333 87.59C23.606 87.59 23.6569 87.5352 23.6556 87.256L23.6477 84.9729C23.6439 84.8898 23.6501 84.8066 23.666 84.725C23.6999 84.5946 23.7965 84.485 23.9269 84.5072C24.0317 84.5375 24.1235 84.6017 24.1878 84.6898C24.2252 84.7639 24.2398 84.8475 24.2296 84.9299C24.2296 85.6909 24.2266 86.4519 24.2205 87.2129C24.2205 87.5065 24.2205 87.5065 24.501 87.5965C24.5791 87.6094 24.6495 87.6514 24.6979 87.7141C24.7464 87.7768 24.7692 87.8555 24.7619 87.9344C24.771 88.1744 24.7619 88.4145 24.7619 88.6532C24.7663 88.7053 24.7539 88.7574 24.7267 88.802C24.6659 88.8818 24.5841 88.9432 24.4905 88.9794C24.4321 88.986 24.3734 88.9693 24.3272 88.9329C24.2811 88.8965 24.2511 88.8434 24.2439 88.785C24.2239 88.6626 24.2182 88.5382 24.227 88.4145C24.227 88.1014 24.18 88.0427 23.876 88.044H21.7795C21.4351 88.044 21.3333 87.9422 21.332 87.5978C21.332 87.3682 21.332 87.1386 21.332 86.909V86.2567L21.3386 86.2645Z" fill="white"/>
<path d="M93.4271 87.6513C93.3345 87.7231 93.2628 87.7727 93.1962 87.8301C92.6326 88.331 91.6163 88.1223 91.2967 87.4387C91.0645 86.9442 91.2654 86.3754 91.7938 86.2162C92.2047 86.1075 92.6266 86.0454 93.0514 86.031C93.4637 86.0036 93.5276 85.9579 93.465 85.5535C93.4478 85.4016 93.3773 85.2608 93.2659 85.1561C93.1546 85.0514 93.0097 84.9898 92.857 84.9821C92.5004 84.9565 92.1443 85.0378 91.8342 85.2156C91.756 85.2711 91.6672 85.3098 91.5733 85.3291C91.5296 85.3324 91.4858 85.3259 91.4449 85.3101C91.4041 85.2943 91.3672 85.2696 91.3371 85.2378C91.3187 85.1982 91.3101 85.1547 91.3122 85.1111C91.3142 85.0675 91.3268 85.025 91.3489 84.9873C91.4246 84.8875 91.5224 84.8067 91.6346 84.7511C92.091 84.5099 92.6156 84.4299 93.1232 84.5241C93.332 84.5544 93.5263 84.6485 93.6795 84.7936C93.8327 84.9386 93.9373 85.1275 93.979 85.3343C94.0258 85.5375 94.0486 85.7455 94.0468 85.954C94.0573 86.5163 94.0468 87.0799 94.0468 87.65C94.0514 87.7017 94.0514 87.7536 94.0468 87.8053C94.0421 87.8739 94.0147 87.939 93.9689 87.9903C93.923 88.0415 93.8614 88.076 93.7937 88.0884C93.6359 88.1105 93.5433 88.014 93.4989 87.8666C93.4924 87.804 93.4663 87.7492 93.4271 87.6513ZM92.4761 87.6448C93.0201 87.6448 93.478 87.1817 93.4832 86.6989C93.4832 86.4863 93.4232 86.4106 93.2067 86.4132C92.9366 86.4132 92.6665 86.4406 92.3965 86.4667C92.3032 86.4784 92.2124 86.5053 92.1277 86.5463C92.0589 86.5722 91.9968 86.6132 91.946 86.6664C91.8952 86.7195 91.857 86.7834 91.8342 86.8533C91.8114 86.9232 91.8046 86.9973 91.8143 87.0702C91.824 87.143 91.85 87.2128 91.8903 87.2743C91.946 87.3826 92.0298 87.4741 92.1327 87.5393C92.2357 87.6044 92.3543 87.6409 92.4761 87.6448Z" fill="white"/>
<path d="M42.6413 86.6074C42.5447 86.5527 42.4938 86.5187 42.439 86.4926C42.2702 86.4185 42.1286 86.2936 42.0339 86.1353C41.9393 85.9771 41.8962 85.7933 41.9107 85.6094C41.9048 85.4154 41.9581 85.2241 42.0634 85.061C42.1687 84.8979 42.3211 84.7707 42.5004 84.6962C42.6729 84.624 42.8574 84.5846 43.0444 84.5801C43.4358 84.5618 43.8167 84.567 44.2029 84.5696C44.503 84.5696 44.6152 84.6844 44.6165 84.9923C44.6165 85.8899 44.6165 86.7875 44.6165 87.6838C44.6165 87.7046 44.6165 87.7255 44.6165 87.7464C44.5995 87.9551 44.486 88.096 44.3281 88.0947C44.2443 88.0852 44.1668 88.0453 44.1103 87.9825C44.0539 87.9198 44.0223 87.8386 44.0216 87.7542C44.0137 87.535 44.0216 87.3159 44.0307 87.1019C44.0307 86.8071 43.9876 86.7692 43.6889 86.7549C43.5106 86.7461 43.3333 86.7851 43.1751 86.8676C43.0169 86.9501 42.8835 87.0733 42.7887 87.2245C42.6582 87.4085 42.5382 87.6081 42.4103 87.7986C42.3593 87.8773 42.3021 87.9519 42.2394 88.0217C42.2213 88.0475 42.1981 88.0694 42.1713 88.0861C42.1445 88.1028 42.1146 88.1138 42.0833 88.1186C42.0521 88.1233 42.0203 88.1217 41.9897 88.1138C41.9591 88.1059 41.9305 88.0918 41.9055 88.0725C41.8724 88.0561 41.8432 88.0328 41.8198 88.0043C41.7964 87.9757 41.7794 87.9425 41.7698 87.9069C41.7601 87.8713 41.7582 87.834 41.764 87.7976C41.7699 87.7611 41.7834 87.7263 41.8037 87.6955C42.015 87.3889 42.1625 87.0328 42.4795 86.8044C42.5401 86.7446 42.5943 86.6786 42.6413 86.6074ZM44.0307 85.6668C44.0307 85.5364 44.0307 85.3981 44.0307 85.2637C44.0307 85.1293 43.9589 85.0223 43.8063 85.021C43.5475 85.0086 43.2881 85.0138 43.03 85.0367C42.9263 85.0476 42.827 85.0841 42.7409 85.1429C42.6547 85.2016 42.5845 85.2809 42.5366 85.3735C42.4886 85.466 42.4644 85.5691 42.466 85.6733C42.4677 85.7776 42.4952 85.8798 42.546 85.9708C42.6016 86.0657 42.6803 86.145 42.7747 86.2013C42.8691 86.2576 42.9762 86.2892 43.0861 86.293C43.3236 86.31 43.5623 86.3074 43.8011 86.3074C43.8325 86.3104 43.8642 86.3063 43.8938 86.2954C43.9234 86.2844 43.9502 86.267 43.9721 86.2443C43.994 86.2216 44.0106 86.1943 44.0205 86.1643C44.0304 86.1344 44.0334 86.1025 44.0294 86.0713C44.0333 85.9369 44.0307 85.8025 44.0307 85.6668Z" fill="white"/>
<path d="M28.7328 86.4117C28.4301 86.4117 28.1275 86.4117 27.8196 86.4117C27.5495 86.4117 27.4908 86.4978 27.5587 86.7653C27.7178 87.3876 28.2018 87.7111 28.8633 87.6041C29.0746 87.5531 29.2798 87.4792 29.4752 87.3837C29.5521 87.3537 29.6187 87.2806 29.6956 87.2702C29.7822 87.2585 29.8702 87.2769 29.9448 87.3223C29.967 87.3371 29.9856 87.3567 29.9992 87.3797C30.0127 87.4027 30.0209 87.4284 30.0232 87.455C30.0255 87.4815 30.0217 87.5083 30.0122 87.5332C30.0027 87.5581 29.9877 87.5806 29.9683 87.5989C29.8722 87.7077 29.7584 87.7995 29.6317 87.8703C29.3763 88.0034 29.096 88.0822 28.8086 88.1017C28.5212 88.1213 28.2329 88.0811 27.9618 87.9838C27.738 87.9066 27.5362 87.7763 27.3737 87.6041C27.2113 87.4318 27.093 87.2228 27.029 86.9949C26.8511 86.4748 26.8824 85.9059 27.1164 85.4085C27.2748 85.057 27.5558 84.7753 27.9069 84.6161C28.258 84.4569 28.655 84.4311 29.0237 84.5435C29.7843 84.7614 30.0766 85.5324 30.0427 86.1273C30.0309 86.3217 29.9213 86.4104 29.7008 86.4156C29.3786 86.4235 29.0551 86.4156 28.7315 86.4156L28.7328 86.4117ZM28.5332 86.0282H29.2181C29.5078 86.0282 29.5652 85.9473 29.4869 85.6616C29.4597 85.5395 29.408 85.4241 29.335 85.3225C29.262 85.221 29.1692 85.1352 29.0622 85.0705C28.9551 85.0057 28.8361 84.9634 28.7122 84.9459C28.5883 84.9284 28.4622 84.9362 28.3414 84.9688C27.95 85.051 27.7439 85.3171 27.6069 85.6616C27.4973 85.9368 27.5574 86.0242 27.8496 86.0255L28.5332 86.0282Z" fill="white"/>
<path d="M65.7165 86.4105C65.4138 86.4105 65.1125 86.4105 64.8033 86.4105C64.5489 86.4105 64.4863 86.4927 64.5424 86.7393C64.6833 87.3916 65.226 87.7347 65.9122 87.5977C66.0831 87.5538 66.2491 87.4931 66.408 87.4164C66.4921 87.3742 66.574 87.3276 66.6532 87.2768C66.6961 87.2457 66.7493 87.2326 66.8017 87.2401C66.854 87.2477 66.9014 87.2753 66.9337 87.3172C66.9555 87.3367 66.9729 87.3605 66.9848 87.3871C66.9967 87.4138 67.0029 87.4426 67.0029 87.4718C67.0029 87.501 66.9967 87.5298 66.9848 87.5565C66.9729 87.5831 66.9555 87.607 66.9337 87.6264C66.8158 87.743 66.6802 87.8404 66.5319 87.9147C66.0813 88.118 65.5744 88.1594 65.0968 88.0321C64.882 87.9819 64.6818 87.8823 64.5122 87.7412C64.3426 87.6002 64.2082 87.4215 64.1197 87.2194C63.8092 86.5305 63.8248 85.8352 64.2397 85.1868C64.4385 84.8823 64.7365 84.6559 65.0832 84.546C65.4299 84.4362 65.8039 84.4496 66.1418 84.584C66.3963 84.6838 66.6124 84.862 66.7589 85.0928C66.9387 85.3764 67.0363 85.7043 67.0407 86.04C67.0524 86.2944 66.9468 86.4066 66.6885 86.4144C66.3662 86.4236 66.0361 86.4144 65.7191 86.4144L65.7165 86.4105ZM65.4921 86.0322V86.0243H65.8679C65.9983 86.0243 66.1379 86.0361 66.2736 86.0322C66.4667 86.0322 66.5345 85.9565 66.5162 85.7921C66.4908 85.5942 66.4052 85.4089 66.271 85.2612C66.1369 85.1135 65.9606 85.0106 65.7661 84.9663C65.1881 84.8554 64.7224 85.1711 64.5541 85.7843C64.5071 85.9513 64.5789 86.0269 64.7733 86.0309C65.012 86.0361 65.2521 86.0322 65.4921 86.0322Z" fill="white"/>
<path d="M82.8281 86.224C82.815 86.8228 82.6898 87.299 82.3062 87.6695C81.4635 88.4823 80.0179 88.1444 79.6422 87.0381C79.5377 86.7583 79.4933 86.4597 79.512 86.1616C79.5306 85.8635 79.6119 85.5727 79.7505 85.3082C80.0806 84.6898 80.6976 84.4027 81.4074 84.4993C81.7313 84.5349 82.0358 84.6718 82.2773 84.8906C82.5189 85.1094 82.6851 85.3989 82.7524 85.7178C82.7863 85.8851 82.8115 86.0541 82.8281 86.224ZM82.2227 86.3179C82.2071 86.1522 82.2045 85.9839 82.1732 85.8209C82.1359 85.5978 82.0249 85.3937 81.8579 85.2411C81.6909 85.0886 81.4776 84.9964 81.2521 84.9794C81.021 84.9501 80.7871 85.0065 80.5948 85.138C80.4024 85.2695 80.265 85.467 80.2084 85.693C80.0589 86.1324 80.0775 86.6116 80.2606 87.0381C80.3292 87.1876 80.4337 87.3179 80.5648 87.4173C80.6959 87.5168 80.8495 87.5823 81.012 87.6081C81.1745 87.6339 81.3409 87.6192 81.4963 87.5653C81.6518 87.5114 81.7915 87.4199 81.9031 87.299C82.168 87.025 82.2227 86.6806 82.2227 86.3179Z" fill="white"/>
<path d="M12.1525 86.3374V84.9911C12.1525 84.6936 12.2699 84.5658 12.5634 84.5645C13.2836 84.5645 14.0037 84.5645 14.7239 84.5645C15.0031 84.5645 15.127 84.6949 15.1283 84.9663C15.1283 85.8795 15.1283 86.781 15.1283 87.689C15.1296 87.7305 15.127 87.772 15.1205 87.813C15.1115 87.8861 15.0772 87.9537 15.0236 88.0042C14.97 88.0547 14.9004 88.0849 14.8269 88.0895C14.7538 88.0801 14.686 88.046 14.6348 87.9929C14.5835 87.9398 14.5519 87.8708 14.5451 87.7973C14.5412 87.7456 14.5412 87.6937 14.5451 87.6421L14.5504 85.3916C14.5504 85.0902 14.5047 85.0393 14.2138 85.0393C13.8224 85.0393 13.4414 85.0393 13.0553 85.0393C12.7852 85.0393 12.7317 85.0967 12.733 85.3746C12.733 86.1157 12.733 86.8549 12.733 87.5925C12.7376 87.6753 12.7337 87.7584 12.7213 87.8404C12.7127 87.9033 12.6834 87.9615 12.6381 88.0059C12.5927 88.0503 12.5339 88.0784 12.4708 88.0856C12.4042 88.0878 12.3388 88.0679 12.2847 88.0289C12.2307 87.99 12.191 87.9342 12.172 87.8704C12.1563 87.8099 12.1497 87.7475 12.1525 87.6851C12.1525 87.2363 12.1525 86.7888 12.1525 86.3401V86.3374Z" fill="white"/>
<path d="M99.8744 86.3336C99.8744 86.7719 99.8744 87.209 99.8744 87.6473C99.8791 87.7197 99.8725 87.7923 99.8548 87.8626C99.8417 87.9247 99.808 87.9806 99.7593 88.0213C99.7105 88.062 99.6495 88.0852 99.5861 88.087C99.5226 88.0881 99.4606 88.0671 99.4109 88.0276C99.3612 87.9881 99.3267 87.9325 99.3134 87.8704C99.2906 87.7908 99.281 87.7079 99.2847 87.6252C99.2847 87.3642 99.2847 87.1033 99.2847 86.8424C99.2847 86.5541 99.2299 86.5006 98.9351 86.5006C98.5437 86.5006 98.1418 86.5006 97.7452 86.5006C97.4765 86.5006 97.4204 86.5593 97.4191 86.8359C97.4178 87.1124 97.4191 87.3773 97.4295 87.6486C97.44 87.92 97.3186 88.0896 97.1386 88.087C96.9586 88.0844 96.8451 87.9187 96.8438 87.6473C96.8438 86.7506 96.8438 85.8543 96.8438 84.9585C96.8438 84.6663 96.9638 84.4941 97.1543 84.5045C97.3447 84.5149 97.4269 84.6741 97.4256 84.9598C97.4256 85.2103 97.4178 85.4608 97.4256 85.7113C97.4334 85.9618 97.483 86.027 97.7348 86.0283C98.1523 86.0283 98.5685 86.0283 98.9859 86.0283C99.2364 86.0283 99.2886 85.9709 99.2899 85.7061C99.2899 85.4764 99.2899 85.2481 99.2899 85.0185C99.2899 84.9768 99.2899 84.935 99.2899 84.8881C99.3043 84.6363 99.4204 84.4849 99.6017 84.4967C99.7831 84.5084 99.8783 84.6545 99.8809 84.8881C99.8809 85.3682 99.8809 85.8483 99.8809 86.3231L99.8744 86.3336Z" fill="white"/>
<path d="M69.4461 86.305C69.4269 85.9279 69.523 85.5538 69.7214 85.2326C69.9615 84.8739 70.3293 84.6203 70.7498 84.5233C71.1704 84.4264 71.6121 84.4934 71.9849 84.7107C72.0971 84.7854 72.197 84.8769 72.2811 84.9821C72.3135 85.0232 72.3306 85.0743 72.3294 85.1266C72.3281 85.1789 72.3087 85.2291 72.2743 85.2686C72.2399 85.3081 72.1929 85.3343 72.1412 85.3427C72.0896 85.3512 72.0366 85.3413 71.9915 85.3148C71.908 85.2717 71.8323 85.2156 71.7514 85.1687C71.0404 84.7473 70.302 85.0447 70.0893 85.8419C69.9969 86.1761 70.0056 86.5301 70.1141 86.8595C70.1609 87.0179 70.2437 87.1634 70.3562 87.2845C70.4686 87.4056 70.6075 87.499 70.7621 87.5574C70.9167 87.6158 71.0826 87.6376 71.2471 87.621C71.4115 87.6045 71.5698 87.5502 71.7097 87.4622C71.8088 87.4048 71.9014 87.3317 71.9993 87.2769C72.0195 87.2602 72.0429 87.2476 72.0681 87.2401C72.0933 87.2325 72.1197 87.23 72.1459 87.2328C72.172 87.2356 72.1973 87.2436 72.2203 87.2563C72.2433 87.2691 72.2635 87.2863 72.2798 87.3069C72.3007 87.3271 72.3174 87.3514 72.3288 87.3782C72.3402 87.4049 72.346 87.4337 72.346 87.4629C72.346 87.492 72.3402 87.5208 72.3288 87.5476C72.3174 87.5743 72.3007 87.5986 72.2798 87.6188C72.175 87.7337 72.052 87.8307 71.9158 87.9058C70.9712 88.3598 69.5923 88.0806 69.437 86.5477C69.437 86.4668 69.4461 86.3833 69.4461 86.305Z" fill="white"/>
<path d="M76.1664 86.5316C76.1664 86.906 76.1534 87.2817 76.1664 87.6562C76.1808 87.951 76.0034 88.0919 75.8651 88.0906C75.7268 88.0893 75.5559 87.8962 75.5624 87.6509C75.5846 86.8903 75.5768 86.1298 75.582 85.3692C75.582 85.0952 75.5311 85.0365 75.261 85.0352C75.0954 85.0352 74.9284 85.0417 74.7614 85.043C74.6991 85.0467 74.6367 85.0446 74.5748 85.0365C74.4156 85.0091 74.3139 84.9152 74.3335 84.799C74.3409 84.7352 74.3716 84.6763 74.4197 84.6337C74.4679 84.591 74.5301 84.5677 74.5944 84.5681C74.6465 84.5642 74.6988 84.5642 74.7509 84.5681H77.004C77.0353 84.5681 77.0666 84.5681 77.0979 84.5681C77.2884 84.5825 77.4019 84.6803 77.3967 84.8199C77.3915 84.9595 77.2897 85.0352 77.1045 85.043C76.9192 85.0508 76.7131 85.043 76.5109 85.043C76.2095 85.043 76.1625 85.0861 76.1625 85.3809V86.5368L76.1664 86.5316Z" fill="white"/>
<path d="M52.3465 86.3206C52.3493 86.5728 52.2517 86.8158 52.0753 86.9961C51.8989 87.1765 51.6581 87.2793 51.4059 87.2821C51.281 87.2834 51.1571 87.2602 51.0411 87.2137C50.9252 87.1671 50.8196 87.0982 50.7303 87.0109C50.55 86.8345 50.4472 86.5937 50.4444 86.3415C50.4416 86.0892 50.5392 85.8462 50.7156 85.6659C50.892 85.4856 51.1328 85.3827 51.385 85.3799C51.6373 85.3772 51.8803 85.4747 52.0606 85.6511C52.2409 85.8275 52.3438 86.0683 52.3465 86.3206Z" fill="white"/>
<path d="M39.124 86.3286V87.6332C39.124 87.675 39.124 87.7167 39.124 87.7637C39.1288 87.805 39.1248 87.8468 39.1123 87.8865C39.0997 87.9261 39.0789 87.9627 39.0513 87.9937C39.0236 88.0248 38.9897 88.0496 38.9518 88.0666C38.9138 88.0836 38.8727 88.0924 38.8311 88.0924C38.7895 88.0924 38.7484 88.0836 38.7105 88.0666C38.6725 88.0496 38.6386 88.0248 38.611 87.9937C38.5833 87.9627 38.5625 87.9261 38.55 87.8865C38.5375 87.8468 38.5335 87.805 38.5382 87.7637C38.5291 87.6502 38.5382 87.5354 38.5382 87.4206C38.5382 86.6091 38.5382 85.7976 38.5382 84.9861C38.5334 84.8931 38.5427 84.7998 38.5656 84.7096C38.5829 84.6485 38.6204 84.5952 38.6721 84.5583C38.7237 84.5215 38.7863 84.5033 38.8497 84.5068C38.913 84.5103 38.9733 84.5352 39.0205 84.5775C39.0678 84.6198 39.0992 84.677 39.1097 84.7396C39.1224 84.811 39.1272 84.8836 39.124 84.9561V86.3286Z" fill="white"/>
<path d="M18.5225 86.3112C18.5225 86.7495 18.5225 87.1879 18.5225 87.6249C18.5244 87.7079 18.5156 87.7908 18.4964 87.8715C18.4863 87.9291 18.4572 87.9816 18.4136 88.0207C18.3701 88.0597 18.3147 88.083 18.2564 88.0868C18.1929 88.0911 18.1299 88.0734 18.078 88.0365C18.0262 87.9996 17.9887 87.9459 17.972 87.8846C17.9467 87.8054 17.9356 87.7223 17.9394 87.6393C17.9394 86.7426 17.9394 85.8459 17.9394 84.9492C17.9352 84.8662 17.9458 84.7831 17.9707 84.7039C17.9877 84.6426 18.0256 84.5892 18.0777 84.5528C18.1298 84.5164 18.193 84.4992 18.2564 84.5043C18.3145 84.5084 18.3696 84.5318 18.4128 84.5708C18.4561 84.6098 18.4851 84.6622 18.4951 84.7195C18.5147 84.8108 18.5239 84.9041 18.5225 84.9974C18.5225 85.4358 18.5225 85.8741 18.5225 86.3112Z" fill="white"/>
<path d="M18.6251 83.401C18.6152 83.4998 18.5704 83.5919 18.4986 83.6606C18.4268 83.7292 18.3329 83.77 18.2337 83.7754C18.1366 83.7646 18.0457 83.7223 17.975 83.6549C17.9043 83.5875 17.8577 83.4987 17.8423 83.4023C17.856 83.3052 17.9022 83.2157 17.9732 83.1482C18.0443 83.0807 18.1361 83.0392 18.2337 83.0305C18.3325 83.035 18.4264 83.0749 18.4983 83.1429C18.5702 83.2109 18.6151 83.3025 18.6251 83.401Z" fill="white"/>
<path d="M39.2262 83.4126C39.2148 83.511 39.1681 83.602 39.0946 83.6684C39.0212 83.7349 38.9261 83.7724 38.827 83.774C38.7766 83.7751 38.7265 83.7659 38.6797 83.747C38.633 83.7281 38.5906 83.6999 38.555 83.6641C38.5195 83.6283 38.4917 83.5856 38.4732 83.5387C38.4547 83.4918 38.4459 83.4416 38.4474 83.3912C38.4489 83.3408 38.4607 83.2912 38.482 83.2455C38.5032 83.1997 38.5336 83.1588 38.5711 83.1252C38.6087 83.0916 38.6528 83.0659 38.7006 83.0499C38.7484 83.0338 38.7989 83.0276 38.8492 83.0317C38.9481 83.0371 39.0415 83.0791 39.1111 83.1495C39.1808 83.2199 39.2218 83.3137 39.2262 83.4126Z" fill="white"/>
</g>
<defs>
<clipPath id="clip0_471_3201">
<rect width="113" height="88.5676" fill="white" transform="translate(0 0.988281)"/>
</clipPath>
</defs>
</svg>
