<svg width="20" height="20" viewBox="0 0 20 20" fill="none" xmlns="http://www.w3.org/2000/svg">
<path d="M0.546999 3.3205C-0.665656 1.50152 1.50152 -0.665653 3.3205 0.547002L8.8906 4.2604C9.5624 4.70827 10.4376 4.70827 11.1094 4.2604L16.6795 0.546999C18.4985 -0.665656 20.6657 1.50152 19.453 3.3205L15.7396 8.8906C15.2917 9.5624 15.2917 10.4376 15.7396 11.1094L19.453 16.6795C20.6657 18.4985 18.4985 20.6657 16.6795 19.453L11.1094 15.7396C10.4376 15.2917 9.5624 15.2917 8.8906 15.7396L3.3205 19.453C1.50152 20.6657 -0.665653 18.4985 0.547002 16.6795L4.2604 11.1094C4.70827 10.4376 4.70827 9.5624 4.2604 8.8906L0.546999 3.3205Z" fill="white"/>
</svg>
