<svg width="113" height="39" viewBox="0 0 113 39" fill="none" xmlns="http://www.w3.org/2000/svg">
<g clip-path="url(#clip0_471_3256)">
<path fill-rule="evenodd" clip-rule="evenodd" d="M66.6645 3.88092C66.8436 3.91317 76.5619 8.19896 85.4864 12.1569H89.9442L85.8394 1.71473L80.7706 8.4068C77.0994 6.77454 61.6441 -0.0232326 61.6172 5.97131e-05C61.6566 0.0573947 66.7523 6.77813 70.8302 12.1569H72.991L66.6645 3.88092Z" fill="#FEFEFE"/>
<path fill-rule="evenodd" clip-rule="evenodd" d="M65.3795 34.4333C65.3795 34.4333 68.963 30.1332 72.43 25.8725H70.2494L60.644 38.1296L86.8819 26.4566L99.5655 36.7464L95.3191 25.8725H84.4255C75.2125 30.0203 65.3795 34.4333 65.3795 34.4333Z" fill="#FEFEFE"/>
<path fill-rule="evenodd" clip-rule="evenodd" d="M0 21.5509H9.82398V20.4149L1.45846 19.6642L0 18.2075V14.9466L1.24345 13.7014H13.2569V16.5753H3.43293V17.6037L11.8397 18.3777L13.2569 19.7932V23.1831L12.0117 24.4266H0V21.5509Z" fill="#FEFEFE"/>
<path fill-rule="evenodd" clip-rule="evenodd" d="M19.8847 16.5753H14.7568V13.7014H28.4205V16.5753H23.3159V24.4266H19.8847V16.5753Z" fill="#FEFEFE"/>
<path fill-rule="evenodd" clip-rule="evenodd" d="M55.0612 17.8868V16.5753H48.6253V17.8868H55.0612ZM45.1924 13.7014H57.2488L58.4923 14.9556V19.1715L57.2488 20.4131H54.4824L59.2269 24.4248H54.3104L49.9333 20.4131H48.6253V24.4248H45.1924V13.7014Z" fill="#FEFEFE"/>
<path fill-rule="evenodd" clip-rule="evenodd" d="M37.2355 19.8595L35.3058 16.3047L33.3743 19.8667L37.2355 19.8595ZM33.2686 13.7014H37.343L43.0496 24.4266H39.7027L38.78 22.7101H31.8299L30.9089 24.4266H27.562L33.2686 13.7014Z" fill="#FEFEFE"/>
<path fill-rule="evenodd" clip-rule="evenodd" d="M63.6562 13.6279H65.7507L69.1854 22.4395L72.6416 13.6279H74.7379L77.6531 24.4265H76.0119L73.636 15.4644L70.0938 24.4265H68.2788L64.7581 15.4644L62.3823 24.4265H60.7393L63.6562 13.6279Z" fill="white"/>
<path fill-rule="evenodd" clip-rule="evenodd" d="M90.1593 20.259L86.9629 15.2888L83.7647 20.259H90.1593ZM94.3287 24.4265H92.8613L91.1985 21.8357H82.7291L81.0664 24.4265H79.5972L86.1638 13.6279H87.762L94.3287 24.4265Z" fill="white"/>
<path fill-rule="evenodd" clip-rule="evenodd" d="M101.262 19.0245L95.0757 13.8142L97.5035 13.6278L102.45 17.9262L108.411 12.1389L113 11.8254L103.638 19.0245L108.845 24.4265H107.397L102.45 20.1282L97.5035 24.4265H96.0557L101.262 19.0245Z" fill="white"/>
</g>
<defs>
<clipPath id="clip0_471_3256">
<rect width="113" height="38.1296" fill="white"/>
</clipPath>
</defs>
</svg>
