<svg width="113" height="87" viewBox="0 0 113 87" fill="none" xmlns="http://www.w3.org/2000/svg">
<g clip-path="url(#clip0_471_3235)">
<path d="M2.67671 76.4395H3.72859V86.2374H2.67671V80.6463H1.05008V86.2374H0V76.4395H1.05189V79.561H2.67851L2.67671 76.4395Z" fill="white"/>
<path d="M9.88959 84.36H8.01716L7.79847 86.2374H6.74658L7.831 76.4394H10.0667L11.1511 86.2374H10.0938L9.88959 84.36ZM9.77934 83.3718L9.12327 77.5248H8.76179L8.13283 83.3718H9.77934Z" fill="white"/>
<path d="M16.7324 86.2372V80.011L15.1817 81.6343V86.2354H14.1226V76.4393H15.1817V80.3267L16.7396 78.6454V76.4393H17.7843V86.2372H16.7324ZM16.9511 75.4025H14.963V74.6814H16.9511V75.4025Z" fill="white"/>
<path d="M23.1341 79.546C23.3648 79.5397 23.5945 79.5803 23.81 79.6656C23.9826 79.736 24.1368 79.8473 24.2601 79.9906C24.3762 80.1304 24.4624 80.294 24.5131 80.4707C24.5683 80.6609 24.5957 80.8587 24.5944 81.0573V84.728C24.6005 84.9665 24.5612 85.2038 24.4788 85.4267C24.4106 85.605 24.3029 85.7644 24.1643 85.8918C24.029 86.0118 23.8707 86.101 23.6998 86.1533C23.5163 86.2102 23.3256 86.2386 23.1341 86.2374H21.061V76.4394H24.3143V77.5248H22.1129V79.5441L23.1341 79.546ZM23.5425 81.0573C23.5452 80.9509 23.5141 80.8466 23.454 80.7602C23.4144 80.7141 23.3647 80.6785 23.309 80.6564C23.2533 80.6343 23.1933 80.6264 23.1341 80.6332H22.122V85.1502H23.1341C23.2389 85.1546 23.342 85.1223 23.4269 85.0586C23.4696 85.0165 23.5023 84.9648 23.5224 84.9074C23.5424 84.85 23.5493 84.7886 23.5425 84.728V81.0573Z" fill="white"/>
<path d="M31.4569 76.4394V86.2373H30.405V77.5247H29.2031L28.8886 84.8811C28.8971 85.2414 28.7994 85.5958 28.6085 85.8974C28.441 86.124 28.1397 86.2367 27.7048 86.2355H27.1318V85.1483H27.5692C27.643 85.1583 27.7179 85.1411 27.7807 85.0997C27.8219 85.0349 27.8433 84.9587 27.8421 84.8811L28.2036 76.4375L31.4569 76.4394Z" fill="white"/>
<path d="M37.3437 86.2374V80.0111L35.7858 81.6345V86.2355H34.7339V76.4394H35.7858V80.3268L37.3437 78.6456V76.4394H38.3956V86.2374H37.3437Z" fill="white"/>
<path d="M42.5052 80.1102L41.3178 76.4394H42.4239L43.4613 79.645H44.2674V76.4394H45.3193V79.645H46.1127L47.1502 76.4394H48.2707L47.0815 80.1102L48.3466 86.2374H47.2622L46.0874 80.5622H45.3085V86.2374H44.2566V80.5622H43.4794L42.3046 86.2374H41.2202L42.5052 80.1102Z" fill="white"/>
<path d="M54.5262 76.4395V86.2374H53.4616V83.129H52.3953C52.2031 83.1296 52.0118 83.1006 51.8278 83.0431C51.6575 82.9904 51.4999 82.9013 51.3651 82.7815C51.2254 82.6551 51.1174 82.4955 51.0506 82.3164C50.9674 82.0938 50.9275 81.8563 50.9332 81.6177V76.4395H51.985V81.6215C51.9783 81.683 51.9859 81.7453 52.0073 81.8032C52.0287 81.8611 52.0632 81.9128 52.1079 81.954C52.1921 82.0148 52.2926 82.0468 52.3953 82.0455H53.4616V76.4414L54.5262 76.4395Z" fill="white"/>
<path d="M60.7416 84.36H58.8692L58.6505 86.2374H57.5986L58.6831 76.4394H60.9224L62.0158 86.2374H60.9495L60.7416 84.36ZM60.6314 83.3718L59.9753 77.5248H59.6138L58.9722 83.3699L60.6314 83.3718Z" fill="white"/>
<path d="M72.3376 76.4394V86.2374H71.2857V77.5248H69.7838V86.2355H68.7319V76.4394H72.3376Z" fill="white"/>
<path d="M78.7704 76.4394V77.5248H76.6666V79.5441H78.2589V80.6444H76.6739V85.1483H78.7776V86.2355H75.6147V76.4394H78.7704Z" fill="white"/>
<path d="M81.8154 76.4394H82.8673V79.645H83.771L84.8102 76.4394H85.929L84.7416 80.1102L86.0067 86.2374H84.9223L83.7475 80.5622H82.8673V86.2374H81.8154V76.4394Z" fill="white"/>
<path d="M91.6783 84.36H89.8077L89.589 86.2374H88.5371L89.6215 76.4394H91.8608L92.9453 86.2374H91.8789L91.6783 84.36ZM91.5681 83.3718L90.9102 77.5248H90.5487L89.9161 83.3718H91.5681Z" fill="white"/>
<path d="M99.4049 81.6214C99.4112 81.8598 99.3719 82.0973 99.2893 82.32C99.2205 82.4995 99.1108 82.6591 98.9694 82.7852C98.8306 82.904 98.6702 82.9929 98.4976 83.0467C98.3137 83.1044 98.1224 83.1333 97.9301 83.1326H96.965V86.2373H95.9131V76.4394H97.9337C98.1646 76.4335 98.3943 76.4748 98.6097 76.5608C98.7821 76.6278 98.9371 76.7352 99.0625 76.8746C99.188 77.014 99.2804 77.1815 99.3326 77.3641C99.3877 77.5544 99.4151 77.752 99.414 77.9506L99.4049 81.6214ZM98.3404 77.9506C98.3419 77.8445 98.3109 77.7405 98.2518 77.6536C98.212 77.6074 98.1619 77.5717 98.106 77.5496C98.05 77.5275 97.9897 77.5196 97.9301 77.5266H96.965V82.0454H97.9337C98.039 82.0492 98.1426 82.017 98.2283 81.9539C98.2709 81.9112 98.3034 81.8591 98.3235 81.8015C98.3435 81.7438 98.3505 81.6822 98.344 81.6214L98.3404 77.9506Z" fill="white"/>
<path d="M105.188 76.4394H106.24V86.2374H105.188V80.6463H103.562V86.2374H102.51V76.4394H103.562V79.5609H105.188V76.4394Z" fill="white"/>
<path d="M113 76.4394V86.2373H111.948V81.5504H111.348L110.309 86.2373H109.224L110.276 81.4794C110.016 81.3982 109.787 81.2356 109.62 81.0143C109.431 80.7282 109.34 80.3849 109.361 80.0391V77.9506C109.36 77.752 109.388 77.5544 109.443 77.3641C109.494 77.1877 109.58 77.0242 109.696 76.884C109.819 76.7407 109.973 76.6299 110.146 76.5608C110.361 76.4748 110.591 76.4335 110.822 76.4394H113ZM111.948 77.5247H110.827C110.768 77.5179 110.708 77.5258 110.652 77.5479C110.597 77.57 110.547 77.6057 110.507 77.6518C110.448 77.7383 110.416 77.8425 110.419 77.9488V80.0373C110.412 80.0977 110.42 80.1589 110.441 80.2155C110.463 80.2722 110.497 80.3226 110.542 80.3623C110.623 80.4288 110.724 80.4638 110.827 80.4613H111.948V77.5247Z" fill="white"/>
<path d="M112.581 20.9897C112.082 20.2206 111.531 19.489 110.932 18.8004C110.242 17.9878 109.485 17.2378 108.671 16.5587C107.854 15.8763 107.148 15.5188 106.551 15.4865C103.871 15.4323 101.19 15.5221 98.5192 15.7555C95.5202 16.0045 92.3645 16.3451 89.0522 16.7773C85.74 17.2094 82.356 17.7194 78.9003 18.3072C75.4446 18.8913 72.0998 19.514 68.8658 20.1753C65.6318 20.8366 62.5858 21.5103 59.7278 22.1965C56.8697 22.879 54.3732 23.5284 52.2381 24.1449C52.0194 24.2103 52.1043 24.5017 52.4965 25.021C52.9591 25.6182 53.4629 26.1801 54.0039 26.7023C54.5821 27.2761 55.1981 27.8079 55.8474 28.2938C56.4595 28.7472 56.8914 28.9259 57.1432 28.83C57.8394 28.5505 58.5539 28.3227 59.2814 28.1481C60.2718 27.8878 61.4888 27.5958 62.9322 27.272C64.3757 26.9482 66.0023 26.607 67.8121 26.2483C69.6195 25.8909 71.5431 25.5341 73.583 25.1779C72.1697 28.0996 70.7876 31.0691 69.4369 34.0867C68.1192 37.0224 66.9554 40.0293 65.9505 43.0944C65.6626 43.9799 65.3987 44.861 65.1589 45.7377C65.0667 45.7994 64.877 46.0777 64.5842 46.569C64.2492 47.1344 63.8275 47.853 63.319 48.7247C62.8105 49.5965 62.2569 50.5511 61.658 51.5885C61.0556 52.6246 60.4833 53.6066 59.941 54.5344C59.3988 55.4622 58.9169 56.2623 58.4952 56.9348C58.2441 57.3653 57.962 57.7756 57.6511 58.1621C57.58 58.2344 57.633 57.8072 57.8102 56.8807C57.9873 55.9541 58.2596 54.7629 58.6271 53.3071C58.997 51.8537 59.4368 50.226 59.9465 48.424C60.4561 46.6219 60.9845 44.8853 61.5315 43.214C62.0749 41.5415 62.6286 40.0414 63.1925 38.7138C63.7564 37.3863 64.2841 36.4523 64.7757 35.9118C64.8119 35.8763 64.7143 35.7941 64.4866 35.667C64.1736 35.5103 63.8468 35.3852 63.5106 35.2934L62.0647 34.8582C61.5189 34.6938 60.9465 34.5207 60.3477 34.3389C58.9416 33.9391 57.3408 33.5213 55.5455 33.0854C55.2636 33.1937 54.9292 33.6209 54.5424 34.3669C54.0835 35.2885 53.6955 36.246 53.3821 37.2306C52.9941 38.3938 52.5983 39.712 52.1947 41.1853C51.791 42.6585 51.4296 44.1773 51.1103 45.7415C50.6873 46.3953 50.0626 47.3773 49.236 48.6874C48.4095 49.9975 47.5739 51.3251 46.7292 52.6701C45.8858 54.0151 45.1116 55.2237 44.4068 56.296C43.7019 57.3682 43.238 57.9903 43.0151 58.1621C42.944 58.2344 42.997 57.8072 43.1741 56.8807C43.3513 55.9541 43.6236 54.7629 43.9911 53.3071C44.3622 51.8537 44.802 50.226 45.3104 48.424C45.8189 46.6219 46.3467 44.8853 46.8937 43.214C47.4395 41.5415 47.9938 40.0414 48.5565 38.7138C49.1192 37.3863 49.6469 36.4523 50.1397 35.9118C50.1759 35.8763 50.0783 35.7941 49.8505 35.667C49.5376 35.5103 49.2108 35.3852 48.8746 35.2934L47.4287 34.8582C46.8828 34.6938 46.3111 34.5207 45.7135 34.3389C44.3061 33.9391 42.7054 33.5213 40.9113 33.0854C40.5583 33.1937 40.1366 33.8027 39.6462 34.9123C39.4401 35.3756 39.2341 35.8912 39.028 36.4535C38.8473 36.7542 38.6666 37.07 38.5328 37.3334C38.128 38.0806 37.7394 38.9025 37.152 39.9262C36.5646 40.9499 35.7061 42.2575 35.0193 43.3858C33.9674 45.0671 32.9463 46.5802 31.6721 48.3156C30.3979 50.0511 29.1165 51.736 27.7826 53.1576C26.4488 54.5792 25.3336 55.6552 24.0595 56.6173C22.9118 57.4822 20.9996 58.2331 19.4995 57.9567C17.2204 57.5214 14.71 54.9752 13.2026 52.6794C11.6823 50.3997 10.7243 47.7703 10.4121 45.0204C10.1138 42.2164 10.3092 39.3798 10.9886 36.6478C11.6798 33.7716 12.6555 30.9766 13.9003 28.3069C15.1258 25.6624 16.5565 23.1247 18.1783 20.7189C19.6031 18.5847 21.1531 16.5428 22.8196 14.6047C24.3161 12.8917 24.627 12.4322 25.7837 11.5542C26.9404 10.6762 28.1766 9.49935 29.0875 9.82252C29.1155 9.83334 29.1417 9.84846 29.1653 9.86736C29.778 10.368 29.6189 11.218 29.44 12.7348C29.2592 14.2834 28.7966 15.8395 28.3718 18.055C27.9471 20.2705 27.1464 22.912 26.2391 25.3815C25.3752 27.7353 24.6902 29.523 23.8552 31.6731C23.2064 33.3432 22.5377 34.6247 21.6267 36.7318C21.24 37.6285 26.4271 37.608 27.9344 36.829C29.8141 35.8576 30.7377 34.2866 32.0119 32.2578C33.2949 30.215 34.4498 28.0891 35.4693 25.8934C36.4221 23.8712 37.2727 21.7992 38.0177 19.6858C38.6865 17.7618 39.1781 16.1365 39.3841 14.7934C39.6986 12.7143 39.5739 11.7186 39.3642 10.5529C38.8636 7.75085 36.8972 4.97679 35.5254 3.5907C31.7606 -0.214528 28.5562 -0.137938 25.0156 0.0880967C24.0396 0.151611 21.1912 0.648513 19.7561 1.59375C18.3211 2.53898 16.792 3.88211 15.1817 5.63808C13.3972 7.60318 11.7524 9.69899 10.2602 11.9091C6.755 17.0768 4.0054 22.7499 2.09999 28.7459C1.12151 31.7988 0.470564 34.9536 0.158881 38.1534C-0.146545 41.2609 -0.013825 44.3977 0.552886 47.4657C1.04351 50.2705 1.95068 52.98 3.24224 55.4983C4.81964 58.2505 6.88475 60.6708 9.32944 62.6324C11.0258 63.9819 12.9485 64.9964 15.0009 65.625C16.7083 66.1543 18.4912 66.3755 20.2712 66.2788C21.4117 66.1985 22.9714 65.8567 24.0667 65.3168C25.4168 64.6518 26.4054 63.9681 27.6814 62.9985C29.4888 61.6199 30.5298 60.4468 31.7444 59.0271C32.9842 57.5756 33.8734 56.494 34.9976 55.0051L35.1784 54.7511C35.1621 55.0014 35.1476 55.248 35.1368 55.4983C35.0669 57.0264 35.1723 58.1354 35.4531 58.8253C35.8556 59.7274 36.4847 60.5015 37.2749 61.067C38.1154 61.7096 39.0252 62.2493 39.9859 62.6754C40.8471 63.065 41.739 63.3775 42.6518 63.6094C43.4778 63.8074 44.0507 63.8896 44.367 63.8541C44.5477 63.8167 44.8062 63.6094 45.1586 63.2264C45.6007 62.7332 46.0153 62.2143 46.4003 61.6722C46.8738 61.0184 47.3925 60.2712 47.9564 59.4306C48.5203 58.5899 49.0836 57.7182 49.6463 56.8153C49.715 57.7256 49.8355 58.3981 50.0078 58.8328C50.409 59.7352 51.0376 60.5094 51.8278 61.0744C52.6684 61.7169 53.5781 62.2567 54.5388 62.6828C55.4081 63.0756 56.3093 63.3881 57.2318 63.6169C58.0752 63.8149 58.6379 63.8964 58.9199 63.8616C59.1657 63.8242 59.6139 63.4076 60.2664 62.6062C60.9188 61.8049 61.6562 60.798 62.4822 59.58C62.8208 59.0819 63.1606 58.57 63.5016 58.0445C63.5497 58.7917 63.6293 59.5302 63.7401 60.26C63.7401 60.3571 63.8666 60.4785 64.1179 60.6242C64.3691 60.7699 64.698 60.9399 65.1065 61.1361C65.515 61.3322 65.9632 61.5321 66.4494 61.7451C66.9355 61.958 67.447 62.1579 67.9802 62.3522C69.2056 62.8404 70.5876 63.3597 72.1263 63.9101C72.2199 60.9859 72.5745 58.0768 73.1854 55.22C73.8717 51.9262 74.737 48.675 75.7772 45.4818C76.8616 42.1193 78.149 38.6871 79.6395 35.1851C81.13 31.6831 82.7711 28.226 84.5628 24.8137C84.6242 24.7501 84.373 24.6287 83.8091 24.4494C83.2452 24.2701 82.5542 24.0671 81.736 23.8404C84.6567 23.4182 87.6088 23.0209 90.5921 22.6486C93.5755 22.2762 96.4528 21.9829 99.2241 21.7687C101.971 21.5744 104.523 21.4773 106.88 21.4773C108.898 21.4513 110.915 21.5981 112.909 21.9163C113.099 21.9474 112.989 21.6386 112.581 20.9897Z" fill="white"/>
<path d="M100.833 42.5922C100.693 41.8035 100.49 41.0281 100.226 40.274C99.9966 39.6513 99.7592 39.2328 99.5134 39.0186C98.9262 38.5668 98.2987 38.174 97.6392 37.8455C97.0309 37.5341 96.405 37.2609 95.765 37.0273C95.3131 36.8549 94.8438 36.7358 94.3661 36.6724C94.0046 36.6369 93.8474 36.7097 93.9178 36.8909C94.1561 37.8163 94.2806 38.7691 94.2884 39.7266C94.3204 41.0011 94.2848 42.2764 94.1817 43.5468C94.0692 44.9826 93.8755 46.4104 93.6016 47.8228C93.3338 49.2406 92.9634 50.6355 92.4936 51.996C91.8322 51.8117 91.2181 51.4794 90.6946 51.0226C90.1712 50.5658 89.7512 49.9958 89.4645 49.3527C88.8114 47.9828 88.7849 46.1552 89.385 43.87C89.8571 42.534 90.4125 41.2311 91.0478 39.9695C91.6205 38.8131 92.3388 37.7403 93.1841 36.7788C93.325 36.6331 93.1756 36.4059 92.7358 36.097C92.1911 35.729 91.6173 35.409 91.0206 35.1406C90.2539 34.7868 89.4696 34.475 88.6711 34.2065C87.8096 33.9151 87.0095 33.6785 86.2709 33.4967C85.7769 33.3883 85.1347 33.8161 84.3442 34.78C83.418 35.9578 82.6215 37.2384 81.9694 38.5983C81.1191 40.3224 80.3941 42.1094 79.8005 43.9447C79.1675 45.8509 78.7082 47.814 78.4287 49.8085C78.1622 51.5731 78.1891 53.3717 78.5083 55.1269C78.8251 56.7459 79.5481 57.9912 80.6771 58.863C81.541 59.5569 82.4399 60.2029 83.3701 60.7983C84.3173 61.414 85.2946 61.9789 86.298 62.4907C87.1869 62.9501 88.1143 63.3253 89.0687 63.6116C89.9489 63.8656 90.7062 63.9404 91.3387 63.8301C92.4852 63.6406 93.5972 63.2727 94.6372 62.7392C95.5835 62.2473 96.448 61.6029 97.1982 60.83C97.935 60.0695 98.5653 59.2062 99.0706 58.2652C99.3399 57.7683 100.318 55.1904 100.822 52.1623C101.149 50.0227 101.288 47.8568 101.236 45.6913C101.158 44.6513 101.023 43.6167 100.833 42.5922ZM89.4844 57.4302C88.7588 58.2075 87.7827 58.6827 86.7408 58.7658C86.6685 58.8387 86.6251 58.693 86.6089 58.3306C86.5958 57.8026 86.6133 57.2742 86.6613 56.7483C86.7131 56.0572 86.8095 55.239 86.9505 54.2937C87.0914 53.3485 87.2667 52.3285 87.4764 51.2339C88.0466 51.8594 88.6743 52.4263 89.3506 52.9263C90.0581 53.448 90.8087 53.9043 91.5936 54.29C91.0703 55.4531 90.3568 56.5141 89.4844 57.4265V57.4302Z" fill="white"/>
</g>
<defs>
<clipPath id="clip0_471_3235">
<rect width="113" height="86.2368" fill="white"/>
</clipPath>
</defs>
</svg>
