<svg width="113" height="77" viewBox="0 0 113 77" fill="none" xmlns="http://www.w3.org/2000/svg">
<g clip-path="url(#clip0_471_3091)">
<path d="M26.4801 64.3576H25.4488C24.4927 64.3576 24.4907 64.3576 24.1293 63.4583C24.0765 63.3244 24.0217 63.1924 23.973 63.0523C23.6238 62.0373 22.8788 61.6577 21.8455 61.6414C21.0558 61.6313 20.2824 61.7896 19.4744 61.6861C18.6679 61.609 17.8772 61.4134 17.1277 61.1055C16.7217 60.9248 16.4903 61.0081 16.3401 61.4344C16.068 62.1997 15.731 62.9447 15.4874 63.7161C15.3271 64.2135 15.0611 64.3881 14.5435 64.3658L11.8334 64.3536C11.2244 64.3536 11.1939 64.3191 11.4152 63.7344C12.3125 61.3755 13.224 59.0186 14.1293 56.6597C15.0347 54.3008 15.9442 51.9419 16.8496 49.5932C17.3226 48.365 17.7976 47.1368 18.2706 45.9066C18.3149 45.7764 18.396 45.6618 18.5041 45.5767C18.6122 45.4917 18.7426 45.4399 18.8796 45.4275H20.6092C21.1513 45.389 21.34 45.7645 21.4984 46.1665C22.2394 48.0666 22.9661 49.9708 23.7071 51.8688C25.2431 55.8193 26.7839 59.7684 28.3295 63.7161C28.5548 64.2927 28.5325 64.3516 27.8869 64.3576C27.416 64.3576 26.947 64.3576 26.4781 64.3576H26.4801ZM111.013 64.3576H109.982C109.026 64.3576 109.024 64.3576 108.662 63.4604C108.609 63.3264 108.555 63.1924 108.506 63.0544C108.157 62.0393 107.412 61.6597 106.378 61.6435C105.589 61.6313 104.813 61.7917 104.007 61.6881C103.201 61.6111 102.41 61.4154 101.661 61.1075C101.255 60.9248 101.023 61.0101 100.873 61.4364C100.601 62.2017 100.264 62.9468 100.02 63.7182C99.8599 64.2155 99.594 64.3901 99.0763 64.3678L96.3662 64.3556C95.7572 64.3556 95.7247 64.3211 95.948 63.7365C96.8453 61.3762 97.75 59.018 98.6622 56.6618C99.5744 54.3056 100.481 51.9487 101.382 49.5911C101.855 48.3636 102.328 47.1348 102.803 45.9046C102.849 45.7718 102.933 45.6552 103.044 45.5694C103.155 45.4835 103.289 45.4321 103.429 45.4214H105.15C105.692 45.3829 105.881 45.7584 106.037 46.1604C106.78 48.0585 107.507 49.9626 108.248 51.8627C109.78 55.82 111.321 59.7711 112.87 63.7161C113.096 64.2927 113.073 64.3516 112.428 64.3576C111.957 64.3576 111.488 64.3576 111.019 64.3576H111.013ZM105.861 57.9041C106.202 57.8737 106.297 57.6748 106.194 57.3784C105.721 56.0203 105.238 54.6642 104.754 53.3081C104.738 53.2271 104.696 53.1535 104.635 53.0983C104.573 53.0431 104.496 53.0092 104.413 53.0016C104.21 53.0016 104.145 53.164 104.086 53.3122C103.626 54.4652 103.252 55.6506 102.966 56.8587C102.852 57.352 103.021 57.7011 103.561 57.8189C104.553 58.0361 104.88 57.9914 105.861 57.9041ZM36.2304 46.1299C36.2304 45.7503 36.3705 45.6204 36.7399 45.6265C37.9146 45.64 39.0894 45.64 40.2641 45.6265C40.7046 45.6265 40.8081 45.7889 40.6559 46.1868C40.3981 46.8607 39.9413 47.4048 39.4784 47.9285C38.6841 48.8108 37.8388 49.6459 36.947 50.4295C36.7034 50.6488 36.2466 50.9127 36.2446 50.188V46.1279L36.2304 46.1299ZM4.78508 56.7876V50.1798C4.78508 49.2684 4.78508 49.2684 3.8472 49.2663C2.76316 49.2663 1.67912 49.2542 0.599137 49.2663C0.156588 49.2663 -0.00987512 49.108 0.00230511 48.6573C0.0266656 47.8453 0.0368158 47.0333 0.00230511 46.2213C-0.0220554 45.6833 0.142378 45.5067 0.700639 45.5087C4.13343 45.5331 7.56623 45.5209 10.997 45.5209C11.606 45.5209 12.2272 45.5371 12.8403 45.5209C13.2239 45.5087 13.4087 45.6346 13.4026 46.0406C13.3891 46.9257 13.3891 47.8108 13.4026 48.6959C13.4026 49.1222 13.2118 49.2724 12.8078 49.2684C11.6344 49.2684 10.459 49.2684 9.28567 49.2684C8.61779 49.2684 8.54674 49.3455 8.54674 50.0256C8.54674 54.5431 8.54674 59.0592 8.54674 63.574C8.54674 64.3597 8.54674 64.3597 7.78344 64.3617H5.61333C4.80132 64.3617 4.80132 64.3617 4.80132 63.5659V56.7917L4.78508 56.7876ZM72.4666 56.9906C72.4666 54.6899 72.4666 52.3939 72.4666 50.1027C72.4666 49.445 72.4077 49.3881 71.752 49.3841C70.5766 49.3841 69.4012 49.3658 68.2279 49.3841C67.7528 49.3942 67.5823 49.2217 67.5965 48.7548C67.6209 47.9062 67.6148 47.0556 67.5965 46.205C67.5965 45.799 67.7143 45.6163 68.1548 45.6163C72.2582 45.6285 76.3622 45.6285 80.467 45.6163C80.8222 45.6163 81.0009 45.7219 80.9948 46.1096C80.9785 47.0313 80.9806 47.9529 80.9948 48.8745C80.9948 49.2582 80.8324 49.38 80.471 49.376C79.2956 49.376 78.1202 49.376 76.9448 49.376C76.2425 49.376 76.2079 49.4084 76.2079 50.1088C76.2079 54.6101 76.2079 59.112 76.2079 63.6146C76.2079 64.5322 76.2079 64.5322 75.268 64.5322C74.5798 64.5322 73.8937 64.5322 73.2055 64.5322C72.4666 64.5322 72.4645 64.5322 72.4645 63.7628C72.4645 61.5041 72.4645 59.244 72.4645 56.9825L72.4666 56.9906ZM62.8137 51.9805C62.4077 51.9805 62.018 51.9805 61.6201 51.9805C61.3237 51.9805 61.1532 51.879 61.2811 51.5603C61.5186 50.9614 61.1877 50.6386 60.7533 50.3098C57.4483 47.7986 52.5925 49.7211 51.8211 53.8502C51.2344 57.0048 53.3761 60.1067 56.5409 60.5655C58.4634 60.8436 60.1402 60.2245 61.5125 58.8278C62.1215 58.2188 62.1215 58.2188 62.7305 58.8278C63.3395 59.4368 63.8775 59.9788 64.4642 60.5452C64.6895 60.7645 64.7098 60.9269 64.4804 61.1745C62.3671 63.4563 59.7443 64.6094 56.6384 64.3252C53.0269 64.0024 50.3574 62.1368 48.8471 58.8238C46.8515 54.4429 48.3923 49.4572 52.4524 46.8689C53.6807 46.1029 55.0711 45.6351 56.5125 45.5026C57.8983 45.3699 59.2961 45.5589 60.5969 46.0548C60.9705 46.1888 61.2608 46.1989 61.4435 45.7848C61.4809 45.702 61.5438 45.6332 61.6231 45.5887C61.7023 45.5441 61.7937 45.5261 61.884 45.5371C62.7894 45.5371 63.6928 45.5371 64.5961 45.5371C64.9615 45.5371 64.9818 45.6955 64.86 45.9736C64.7382 46.2517 64.6286 46.542 64.5149 46.8262C64.3925 47.0985 64.3292 47.3935 64.3292 47.692C64.3292 47.9905 64.3925 48.2856 64.5149 48.5578C64.9473 49.5282 64.8438 50.5209 64.5718 51.5176C64.5614 51.5933 64.5359 51.6661 64.4969 51.7318C64.4579 51.7974 64.4061 51.8546 64.3445 51.8998C64.283 51.9451 64.213 51.9775 64.1387 51.9952C64.0644 52.0129 63.9873 52.0155 63.912 52.0028C63.5506 51.9846 63.1893 52.0028 62.828 52.0028L62.8137 51.9805ZM87.1498 45.4214C88.5912 45.4316 90.0325 45.393 91.4678 45.6244C94.1068 46.0447 96.5774 48.4198 97.0646 51.0852C97.7223 54.6825 96.0272 57.7113 92.5031 59.2582C91.285 59.7961 90.0061 60.2082 88.7617 60.6914C88.51 60.7888 88.2664 60.9106 88.0248 61.0324C87.8924 61.0927 87.7821 61.1927 87.7093 61.3186C87.6366 61.4445 87.6049 61.59 87.6188 61.7348C87.633 62.4393 87.6188 63.1437 87.6188 63.8481C87.6188 64.2155 87.4909 64.3719 87.1133 64.3658C86.2099 64.3536 85.3066 64.3475 84.4032 64.3658C83.9607 64.3759 83.849 64.177 83.8571 63.777C83.8734 62.8006 83.8571 61.8242 83.8571 60.8497V46.2091C83.8571 45.4255 83.8571 45.4235 84.6448 45.4235L87.1498 45.4214ZM87.6269 53.0727C87.6269 54.1912 87.6269 55.3057 87.6269 56.4303C87.6269 56.8039 87.7853 57.013 88.1527 56.8851C89.5128 56.41 90.9176 56.0284 92.1113 55.1758C92.6505 54.8028 93.0617 54.2729 93.2891 53.6579C93.5165 53.043 93.549 52.3729 93.3821 51.7389C93.2051 51.1105 92.8534 50.5451 92.368 50.1085C91.8825 49.6719 91.2831 49.382 90.6395 49.2724C89.8478 49.1364 89.0561 49.2217 88.2643 49.179C87.7913 49.1547 87.6229 49.3658 87.631 49.8226C87.6472 50.9066 87.631 51.9906 87.631 53.0706L87.6269 53.0727ZM30.8183 55.0743C30.8183 52.1632 30.8305 49.2541 30.8081 46.3451C30.8081 45.8011 30.9563 45.6021 31.5105 45.6346C32.2129 45.6752 32.9214 45.6346 33.6258 45.6447C34.3303 45.6549 34.3648 45.6447 34.3567 46.3613C34.3282 48.9801 34.2856 51.5988 34.2633 54.2176C34.2064 55.188 34.5739 55.2326 35.2783 54.7129C37.506 53.0715 39.5481 51.192 41.3684 49.108C42.1804 48.1803 42.9092 47.1896 43.2909 45.9939C43.3184 45.8795 43.3875 45.7795 43.4846 45.7131C43.5818 45.6467 43.7001 45.6187 43.8166 45.6346C45.0996 45.6427 46.3853 45.6427 47.6737 45.6346C48.0411 45.6346 48.1061 45.7584 47.9782 46.0934C47.3956 47.6017 46.7237 49.0572 45.6579 50.2935C45.42 50.5652 45.2944 50.9172 45.3067 51.2781C45.2783 55.4356 45.2417 59.5918 45.1971 63.7466C45.1971 64.5464 45.1747 64.5586 44.3729 64.5688C43.571 64.5789 42.8179 64.5586 42.0404 64.587C41.5937 64.6053 41.4456 64.4409 41.4476 63.9943C41.4618 61.2293 41.4476 58.4624 41.4476 55.6975C41.4564 55.5351 41.453 55.3722 41.4374 55.2103C41.3806 54.8469 41.1654 54.719 40.869 54.9545C38.4147 56.9074 35.9827 58.8786 34.7505 61.9135C34.5015 62.6092 34.3372 63.3323 34.2612 64.0673C34.2085 64.4328 34.04 64.5708 33.6949 64.5667C32.9356 64.5667 32.1764 64.5444 31.4172 64.5667C30.936 64.5809 30.8081 64.3779 30.8081 63.9171C30.8244 60.9715 30.8081 58.03 30.8081 55.0783L30.8183 55.0743ZM21.3279 57.9062C21.6689 57.8757 21.7643 57.6748 21.6628 57.3804C21.1878 56.0203 20.7074 54.6629 20.2215 53.3081C20.2046 53.2274 20.1625 53.1542 20.1011 53.0991C20.0398 53.0439 19.9625 53.0098 19.8804 53.0016C19.6774 53.0016 19.6125 53.164 19.5536 53.3122C19.0934 54.4652 18.7188 55.6506 18.433 56.8587C18.3193 57.352 18.4878 57.7011 19.0278 57.8189C20.0205 58.0361 20.3474 57.9914 21.3279 57.9062Z" fill="white"/>
<path fill-rule="evenodd" clip-rule="evenodd" d="M46.2588 22.2547C44.4866 22.0375 43.0534 21.8832 42.9336 22.1816C42.2254 23.7517 41.7108 25.402 41.4009 27.0963C42.6819 26.9907 45.4772 23.3387 46.2588 22.2547ZM40.9421 20.7281C40.9813 20.5416 41.0864 20.3755 41.2382 20.2603C41.39 20.145 41.5782 20.0884 41.7684 20.1008L46.9531 20.6103C47.7996 20.4358 49.1557 19.9587 48.8167 20.7524C47.152 24.6562 44.2308 28.0058 40.3981 29.2989C37.4647 30.2896 40.528 22.1613 40.9056 20.856L40.9421 20.7281Z" fill="white"/>
<path d="M39.9674 29.8246C39.2122 29.9241 39.0782 27.8717 39.1554 27.7499C44.3563 26.3979 46.157 21.877 49.0579 16.5847C51.027 12.9956 52.915 9.22786 55.893 6.33303L54.3685 6.72888C54.2674 6.7574 54.1617 6.76548 54.0575 6.75265C53.9533 6.73982 53.8527 6.70634 53.7616 6.65417C53.6705 6.602 53.5907 6.53218 53.5269 6.44881C53.4631 6.36543 53.4166 6.27017 53.39 6.16859C53.2337 5.56973 55.014 1.15846 55.5175 1.05492C55.8829 0.981843 57.783 0.890492 57.7079 1.46093C57.6064 2.21205 55.9966 4.09998 55.5804 4.97696C56.8037 4.66921 58.0048 4.27923 59.1756 3.80969L59.2974 3.76097C60.9111 2.85257 62.6571 2.20253 64.472 1.83446C65.6596 1.68424 66.8796 5.3241 66.2198 5.40733C58.7392 6.76136 54.3198 11.9786 51.1184 17.8129C47.7445 23.1803 46.3214 28.2493 39.9674 29.8246Z" fill="white"/>
<path d="M62.6351 16.942C65.0003 14.1112 68.2522 12.162 71.8636 11.4102C73.0817 11.1564 73.6704 11.4792 73.1344 12.7581C72.2554 14.8491 71.5835 17.0415 70.8446 19.1852C70.7913 19.3589 70.6799 19.509 70.5291 19.6102C70.3783 19.7115 70.1972 19.7578 70.0163 19.7415L63.033 19.0147C60.7675 18.8117 62.0728 17.5937 62.627 16.942H62.6351ZM63.7536 17.6221L69.0439 18.2839C69.2961 16.6255 69.6527 14.9847 70.1117 13.3712C67.6533 13.8016 65.806 15.8945 63.7536 17.6343V17.6221Z" fill="white"/>
<path fill-rule="evenodd" clip-rule="evenodd" d="M37.1502 19.6076C37.2436 18.5783 37.8709 18.4687 38.7235 18.9031C39.6736 19.3903 39.3751 20.2815 39.16 21.0935C39.028 21.5848 37.9704 25.9372 37.7511 25.9068C37.4182 25.8641 37.0731 21.5442 37.0832 20.9291C37.0832 20.4845 37.1137 20.0501 37.1502 19.6076Z" fill="white"/>
<path fill-rule="evenodd" clip-rule="evenodd" d="M49.9273 5.58799C50.1526 4.89777 50.92 1.48934 51.328 1.17671C51.7056 0.886416 53.5123 0.837695 53.4088 1.72279C53.3317 2.37849 51.9533 5.39513 51.5635 6.50962C51.5065 6.67258 51.3976 6.8123 51.2534 6.9073C51.1093 7.0023 50.9379 7.04731 50.7657 7.0354C48.827 6.95217 43.6849 7.12879 43.7377 6.09956C43.7722 5.44791 48.9549 5.521 49.9273 5.58799Z" fill="white"/>
<path fill-rule="evenodd" clip-rule="evenodd" d="M71.7459 22.0416C71.8514 22.5491 72.7447 23.0018 73.2136 23.0972C73.648 23.1866 73.6805 22.6912 73.7353 22.34C74.0402 20.0758 74.0933 17.7848 73.8937 15.5089C73.8388 15.0238 73.6907 14.7883 73.4288 15.3993C72.834 16.7737 71.5449 21.0205 71.756 22.0416H71.7459Z" fill="white"/>
<path fill-rule="evenodd" clip-rule="evenodd" d="M61.1047 32.9184C60.8388 33.5944 59.8725 36.9501 59.4482 37.2384C59.0543 37.5084 57.2476 37.4515 57.4019 36.5725C57.5176 35.9229 59.0706 32.9915 59.5233 31.9034C59.5902 31.7441 59.7073 31.6111 59.8569 31.5246C60.0064 31.4381 60.1801 31.4029 60.3515 31.4243C62.2821 31.6273 67.4262 31.7451 67.3126 32.7703C67.2415 33.4199 62.069 33.0443 61.1047 32.9205V32.9184Z" fill="white"/>
<path fill-rule="evenodd" clip-rule="evenodd" d="M60.3373 29.9262C62.2902 30.1657 66.7786 30.7199 68.7477 30.1942C69.6694 28.8259 69.8805 23.9518 69.8703 22.4435C69.8703 21.7634 69.8135 21.6558 69.1192 21.5766C68.8614 21.5482 62.6779 20.1982 61.3361 21.3736C59.6958 24.5425 60.0348 27.1735 59.9516 29.4268C59.9374 29.7821 59.978 29.8917 60.3373 29.9343V29.9262ZM67.9012 23.2656C67.5886 24.9891 68.1935 27.1227 67.345 28.4727C65.8651 29.037 63.7295 28.1682 61.9816 28.1438C62.3024 26.4203 61.7522 24.3416 62.5906 22.9936C64.0726 22.4394 66.1533 23.2474 67.9012 23.2656Z" fill="white"/>
<path fill-rule="evenodd" clip-rule="evenodd" d="M50.13 8.95395C51.1673 9.05748 50.8344 11.321 49.4783 11.1525C47.2696 10.982 39.9899 10.6937 40.1239 9.81265C40.2863 8.72861 48.3232 8.81387 50.13 8.95395Z" fill="white"/>
<path fill-rule="evenodd" clip-rule="evenodd" d="M48.5182 12.4578C49.513 12.5918 49.1151 14.8431 47.8159 14.636C45.6945 14.4005 38.6949 13.8991 38.8532 13.0242C39.0562 11.9442 46.7826 12.2649 48.5182 12.4578Z" fill="white"/>
<path fill-rule="evenodd" clip-rule="evenodd" d="M47.1826 16.1056C47.9581 16.2497 47.5196 18.1194 46.5107 17.9022C44.8643 17.6342 39.3832 16.9988 39.5557 16.2721C39.7689 15.3768 45.8306 15.8904 47.1826 16.1056Z" fill="white"/>
<path fill-rule="evenodd" clip-rule="evenodd" d="M46.5027 29.0211C46.9087 28.8181 47.3776 28.9744 47.8526 29.6057C48.2485 30.2391 48.8392 30.8055 48.1998 31.1303C47.2253 31.5708 43.687 32.6122 43.0699 31.8631C42.6172 31.313 45.6764 29.4007 46.5027 29.0211ZM67.6414 9.41293C68.3702 9.19572 67.9744 8.4649 67.7612 7.91679C67.4811 7.19613 67.0852 6.52012 66.4742 6.73328C65.4896 7.07838 61.6873 9.18151 62.3227 10.2168C62.8506 11.0918 66.6873 9.74586 67.6516 9.40481L67.6414 9.41293ZM59.6837 14.8473C60.0714 14.352 59.8867 14.1267 59.0889 13.3776C58.4555 12.7828 57.9805 12.8193 57.6252 13.272C56.8904 14.2079 54.501 17.7381 55.4511 18.5034C56.1433 19.0576 58.8473 15.9131 59.6837 14.8494V14.8473ZM53.9691 23.4243C54.3081 22.9127 54.4523 22.7259 53.4413 21.9829C52.5339 21.3171 52.1157 21.5546 51.8173 21.9951C51.0499 23.1583 49.1965 26.2582 49.8928 26.7819C50.6439 27.3463 53.3175 24.4027 53.963 23.4243H53.9691Z" fill="white"/>
<path d="M47.4238 36.6212C47.0503 36.6882 45.3694 35.6752 45.2314 35.3362C45.0284 34.8307 45.3857 34.5039 45.8688 34.4186C50.9967 32.9814 53.3211 30.456 57.0848 23.4564C60.343 17.21 63.0937 11.5888 72.2695 10.2896C73.0003 10.1109 73.8631 12.5592 73.0226 12.683C65.2456 14.2177 62.5923 19.033 59.5148 24.9343C57.4076 28.0849 55.4384 30.6468 53.1039 32.7621L56.758 31.9623C56.9654 31.9339 57.1757 31.9889 57.3427 32.1152C57.5098 32.2416 57.6199 32.4289 57.6492 32.6363C57.7324 33.2453 55.4628 37.4251 54.9451 37.4698C54.5716 37.5002 52.6756 37.3723 52.8156 36.8181C53.0024 36.0853 54.8193 34.4024 55.3329 33.5701C53.987 33.7568 52.5761 34.2258 51.2403 34.2948C50.0439 35.1801 48.7715 35.958 47.4381 36.6192L47.4238 36.6212Z" fill="white"/>
<path fill-rule="evenodd" clip-rule="evenodd" d="M66.2385 24.847C66.2385 24.8998 66.4415 26.1219 65.8853 26.8567C65.3473 27.2242 64.5048 26.8994 63.7761 26.8202C63.6624 26.808 63.636 26.7776 63.64 26.6639C63.6664 25.931 63.5345 25.0398 63.9973 24.5689C64.4358 24.1852 66.0274 24.6156 66.0477 24.6176C66.2365 24.6359 66.2243 24.6886 66.2385 24.847Z" fill="white"/>
<path d="M25.9463 71.8972V74.8326H26.9796V72.8878H27.8769V74.8326H28.9041V71.8972H25.9463ZM32.0811 71.7997C31.7732 71.8049 31.4737 71.901 31.2202 72.0758C30.9666 72.2506 30.7704 72.4963 30.6561 72.7823C30.5417 73.0682 30.5144 73.3815 30.5775 73.6829C30.6406 73.9843 30.7913 74.2604 31.0107 74.4764C31.2301 74.6925 31.5085 74.8389 31.8108 74.8974C32.1132 74.9558 32.426 74.9236 32.7102 74.8049C32.9943 74.6862 33.237 74.4861 33.4079 74.23C33.5788 73.9738 33.6701 73.6728 33.6706 73.3649C33.6652 72.9472 33.4953 72.5485 33.1977 72.2555C32.9 71.9624 32.4988 71.7986 32.0811 71.7997ZM32.0811 73.9881C31.957 73.9873 31.836 73.9497 31.7333 73.8801C31.6306 73.8105 31.5508 73.7121 31.5041 73.5971C31.4573 73.4822 31.4457 73.356 31.4707 73.2345C31.4957 73.113 31.5562 73.0016 31.6445 72.9144C31.7328 72.8273 31.8449 72.7683 31.9667 72.7448C32.0886 72.7214 32.2146 72.7347 32.3289 72.7829C32.4432 72.8311 32.5407 72.9121 32.6089 73.0157C32.6772 73.1193 32.7132 73.2408 32.7124 73.3649C32.7119 73.4478 32.6949 73.5298 32.6625 73.6061C32.6301 73.6824 32.5829 73.7515 32.5237 73.8094C32.4644 73.8674 32.3942 73.913 32.3172 73.9437C32.2402 73.9744 32.1579 73.9895 32.075 73.9881H32.0811ZM38.4676 73.3649C38.4676 72.496 37.9479 71.7997 37.1176 71.7997C36.8111 71.7997 36.3888 72.0027 36.2914 72.1793V71.8972H35.2581V76.1704H36.2914V74.6661C36.5333 74.8359 36.8221 74.926 37.1176 74.924C37.9479 74.924 38.4676 74.2277 38.4676 73.3649ZM37.4404 73.3649C37.4404 73.7445 37.1968 74.0429 36.872 74.0429C36.7102 74.0178 36.5627 73.9357 36.4561 73.8113C36.3496 73.687 36.2911 73.5286 36.2911 73.3649C36.2911 73.2012 36.3496 73.0428 36.4561 72.9185C36.5627 72.7941 36.7102 72.712 36.872 72.6869C36.9539 72.6937 37.0337 72.7168 37.1067 72.7547C37.1797 72.7925 37.2445 72.8445 37.2974 72.9075C37.3502 72.9705 37.39 73.0434 37.4146 73.1219C37.4391 73.2004 37.4479 73.283 37.4404 73.3649ZM41.8841 71.9033L41.3827 73.6207L40.8265 71.9033H39.6815L40.8874 74.6296C40.6844 75.1371 40.3738 75.4416 39.9515 75.2122L39.6267 75.9816C39.8747 76.1665 40.181 76.2558 40.4895 76.2333C41.5776 76.146 42.0242 74.5748 42.2374 73.9881L43.0088 71.9033H41.8841ZM46.2954 71.9033V73.1213C46.2352 73.1755 46.1645 73.2166 46.0876 73.2421C46.0107 73.2676 45.9294 73.2769 45.8488 73.2695C45.5118 73.2695 45.4428 73.0421 45.4428 72.7681V71.8972H44.4156V72.8817C44.4156 73.5293 44.5942 74.116 45.6153 74.0856C45.8572 74.0703 46.0918 73.9972 46.2995 73.8724V74.8326H47.3328V71.8972L46.2954 71.9033ZM57.7753 73.2735C57.869 73.1959 57.9457 73.0998 58.0006 72.9912C58.0554 72.8825 58.0872 72.7637 58.094 72.6422C58.1062 72.1469 57.6474 71.8058 56.9267 71.8058C56.5538 71.8094 56.1926 71.9365 55.8995 72.1672L56.1675 72.766C56.2609 72.6849 56.3694 72.623 56.4868 72.584C56.6042 72.545 56.7282 72.5296 56.8516 72.5387C57.0546 72.5508 57.1886 72.6117 57.1886 72.7599C57.1886 72.9081 57.0911 72.9629 56.8577 72.9629H56.4862V73.6633H56.9572C57.2312 73.6633 57.3348 73.7201 57.3348 73.8907C57.3348 74.0612 57.1642 74.1465 56.809 74.1465C56.6817 74.1528 56.5544 74.1334 56.4348 74.0895C56.3151 74.0455 56.2056 73.9779 56.1127 73.8907L55.8 74.5261C56.1422 74.77 56.5493 74.9064 56.9693 74.9179C57.8687 74.9179 58.2706 74.4834 58.2706 73.9638C58.2735 73.8092 58.227 73.6578 58.1379 73.5315C58.0488 73.4052 57.9218 73.3105 57.7753 73.2614V73.2735ZM66.88 73.848V71.8972H64.3364C64.3364 71.8972 64.312 73.1314 64.1841 73.5212C64.1471 73.6295 64.1003 73.7342 64.044 73.8338H63.638V75.5086H64.6774V74.8245H66.2852V75.5086H67.3185V73.8338L66.88 73.848ZM65.1321 73.848C65.1681 73.7569 65.1946 73.6624 65.2113 73.5659C65.2478 73.3771 65.2722 73.1375 65.2966 72.8939H65.8467V73.848H65.1321ZM70.3757 71.8058C70.0678 71.811 69.7683 71.907 69.5148 72.0818C69.2613 72.2566 69.0651 72.5024 68.9507 72.7884C68.8364 73.0743 68.8091 73.3876 68.8721 73.689C68.9352 73.9904 69.086 74.2665 69.3054 74.4825C69.5248 74.6986 69.8032 74.845 70.1055 74.9035C70.4078 74.9619 70.7207 74.9297 71.0048 74.811C71.289 74.6922 71.5317 74.4922 71.7025 74.2361C71.8734 73.9799 71.9648 73.6789 71.9652 73.371C71.9604 72.9531 71.7906 72.5542 71.4929 72.261C71.1951 71.9678 70.7936 71.8042 70.3757 71.8058ZM70.3757 73.9942C70.2516 73.9938 70.1303 73.9566 70.0274 73.8872C69.9244 73.8179 69.8443 73.7195 69.7973 73.6046C69.7502 73.4897 69.7383 73.3635 69.7631 73.2418C69.7879 73.1201 69.8482 73.0086 69.9364 72.9212C70.0246 72.8339 70.1367 72.7746 70.2586 72.7511C70.3805 72.7275 70.5067 72.7406 70.6211 72.7888C70.7355 72.8369 70.8331 72.918 70.9014 73.0216C70.9698 73.1252 71.0058 73.2468 71.005 73.371C71.0048 73.4533 70.9883 73.5347 70.9565 73.6106C70.9247 73.6865 70.8782 73.7553 70.8198 73.8132C70.7613 73.8711 70.692 73.9169 70.6158 73.948C70.5396 73.979 70.458 73.9947 70.3757 73.9942ZM76.48 71.9033L75.465 73.1619L74.45 71.9033H73.5527V74.8387H74.586V73.3527L75.2884 74.2398H75.6437L76.3522 73.3527V74.8387H77.3794V71.8972L76.48 71.9033ZM80.5564 71.8058C80.2485 71.811 79.949 71.907 79.6955 72.0818C79.4419 72.2566 79.2457 72.5024 79.1314 72.7884C79.017 73.0743 78.9897 73.3876 79.0528 73.689C79.1159 73.9904 79.2666 74.2665 79.486 74.4825C79.7054 74.6986 79.9838 74.845 80.2861 74.9035C80.5885 74.9619 80.9014 74.9297 81.1855 74.811C81.4696 74.6922 81.7123 74.4922 81.8832 74.2361C82.0541 73.9799 82.1454 73.6789 82.1459 73.371C82.1411 72.9531 81.9713 72.5542 81.6735 72.261C81.3758 71.9678 80.9742 71.8042 80.5564 71.8058ZM80.5564 73.9942C80.4322 73.9938 80.311 73.9566 80.208 73.8872C80.105 73.8179 80.025 73.7195 79.9779 73.6046C79.9309 73.4897 79.919 73.3635 79.9437 73.2418C79.9685 73.1201 80.0288 73.0086 80.117 72.9212C80.2052 72.8339 80.3174 72.7746 80.4393 72.7511C80.5612 72.7275 80.6873 72.7406 80.8017 72.7888C80.9162 72.8369 81.0137 72.918 81.0821 73.0216C81.1504 73.1252 81.1865 73.2468 81.1857 73.371C81.1854 73.4533 81.1689 73.5347 81.1371 73.6106C81.1053 73.6865 81.0589 73.7553 81.0004 73.8132C80.9419 73.8711 80.8726 73.9169 80.7964 73.948C80.7202 73.979 80.6386 73.9947 80.5564 73.9942ZM86.6627 71.9033L85.6477 73.1619L84.6327 71.9033H83.7334V74.8387H84.7667V73.3527L85.4691 74.2398H85.8243L86.5328 73.3527V74.8387H87.56V71.8972L86.6627 71.9033ZM53.2117 71.5602C53.3121 71.5602 53.4102 71.5304 53.4937 71.4747C53.5772 71.4189 53.6422 71.3396 53.6806 71.2469C53.719 71.1542 53.7291 71.0521 53.7095 70.9537C53.6899 70.8552 53.6416 70.7648 53.5706 70.6938C53.4996 70.6228 53.4092 70.5745 53.3108 70.5549C53.2123 70.5353 53.1103 70.5454 53.0175 70.5838C52.9248 70.6222 52.8455 70.6873 52.7898 70.7707C52.734 70.8542 52.7042 70.9523 52.7042 71.0527C52.704 71.1194 52.7169 71.1855 52.7423 71.2472C52.7677 71.3089 52.8051 71.365 52.8523 71.4121C52.8995 71.4593 52.9555 71.4967 53.0172 71.5221C53.0789 71.5475 53.145 71.5605 53.2117 71.5602ZM52.6981 71.9033V74.8387H53.7253V71.8972L52.6981 71.9033Z" fill="white"/>
</g>
<defs>
<clipPath id="clip0_471_3091">
<rect width="113" height="75.2483" fill="white" transform="translate(0 0.988281)"/>
</clipPath>
</defs>
</svg>
