<svg width="113" height="45" viewBox="0 0 113 45" fill="none" xmlns="http://www.w3.org/2000/svg">
<g clip-path="url(#clip0_471_3068)">
<path d="M78.2361 35.8214C78.0511 35.8184 77.8674 35.8535 77.6965 35.9246C77.5257 35.9957 77.3713 36.1012 77.2429 36.2345C77.1146 36.3679 77.0151 36.5262 76.9506 36.6997C76.8862 36.8731 76.8581 37.058 76.8682 37.2428C76.8682 37.6056 77.0123 37.9535 77.2689 38.2101C77.5254 38.4666 77.8733 38.6107 78.2361 38.6107C78.5989 38.6107 78.9468 38.4666 79.2034 38.2101C79.4599 37.9535 79.604 37.6056 79.604 37.2428C79.6141 37.058 79.5861 36.8731 79.5216 36.6997C79.4571 36.5262 79.3576 36.3679 79.2293 36.2345C79.101 36.1012 78.9466 35.9957 78.7757 35.9246C78.6048 35.8535 78.4212 35.8184 78.2361 35.8214Z" fill="white"/>
<path d="M87.1813 23.4965C87.4191 23.2557 87.6005 22.9653 87.7126 22.646C87.7484 22.5284 87.7658 22.4061 87.7641 22.2832C87.7641 22.1993 87.7521 22.1159 87.7285 22.0354C87.7132 21.9675 87.6835 21.9037 87.6414 21.8483C87.5994 21.7929 87.5459 21.7472 87.4846 21.7142C87.3943 21.6871 87.2986 21.6829 87.2062 21.7019C87.1138 21.7209 87.0276 21.7626 86.9553 21.8233C86.4815 22.1385 86.192 22.64 85.9264 23.1277C85.6421 23.6868 85.455 24.2901 85.3733 24.912C85.3735 24.9502 85.3681 24.9883 85.3574 25.025C86.016 24.5791 86.6271 24.0669 87.1813 23.4965Z" fill="white"/>
<path d="M34.5523 35.8492C34.1842 35.8492 33.8313 35.9954 33.571 36.2557C33.3108 36.5159 33.1646 36.8689 33.1646 37.2369C33.1646 37.605 33.3108 37.958 33.571 38.2182C33.8313 38.4785 34.1842 38.6247 34.5523 38.6247C36.4059 38.6326 36.4059 35.8492 34.5523 35.8492Z" fill="white"/>
<path d="M50.0616 35.8492C49.6935 35.8492 49.3405 35.9954 49.0803 36.2557C48.82 36.5159 48.6738 36.8689 48.6738 37.2369C48.6738 37.605 48.82 37.958 49.0803 38.2182C49.3405 38.4785 49.6935 38.6247 50.0616 38.6247C51.9152 38.6326 51.9152 35.8492 50.0616 35.8492Z" fill="white"/>
<path d="M49.1616 23.7898C49.4179 23.5196 49.574 23.1698 49.6037 22.7985V22.7628C49.6034 22.64 49.5668 22.52 49.4987 22.4179C49.465 22.3666 49.4195 22.3242 49.3661 22.2942C49.3126 22.2642 49.2527 22.2474 49.1914 22.2454C49.1087 22.2498 49.028 22.2729 48.9555 22.3128C48.438 22.5725 48.1347 23.1058 47.8909 23.6074C47.6292 24.1478 47.4565 24.7268 47.3794 25.3222C48.0387 24.8926 48.638 24.3773 49.1616 23.7898Z" fill="white"/>
<path d="M29.4199 24.7038C29.5527 24.5829 29.6875 24.4501 29.8263 24.3073C29.9633 24.1681 30.0898 24.019 30.205 23.8613C30.3157 23.713 30.407 23.5511 30.4766 23.3796C30.5415 23.2185 30.5726 23.0457 30.5678 22.872C30.5623 22.7892 30.5497 22.7069 30.5301 22.6262C30.5123 22.5514 30.4829 22.4798 30.4429 22.4141C30.4081 22.3573 30.3631 22.3076 30.31 22.2674C30.259 22.2315 30.1979 22.2127 30.1356 22.2139C29.8402 22.2297 29.5408 22.4121 29.2534 22.7511C28.9146 23.1611 28.6344 23.6161 28.4207 24.1032C28.3552 24.2359 28.3008 24.3738 28.2582 24.5155C28.2106 24.6682 28.167 24.8228 28.1253 24.9814C28.0837 25.14 28.048 25.2966 28.0163 25.4512C27.9846 25.6059 27.9608 25.7446 27.937 25.8676L28.73 25.2728C28.9785 25.0878 29.2084 24.8981 29.4199 24.7038Z" fill="white"/>
<path d="M55.3068 37.1357C55.3068 36.2932 54.7478 35.8412 54.0599 35.8412C53.3719 35.8412 52.8268 36.2654 52.8268 37.1357C52.8183 37.3021 52.8441 37.4684 52.9025 37.6245C52.9609 37.7805 53.0506 37.9229 53.1661 38.0429C53.2817 38.1629 53.4206 38.258 53.5743 38.3222C53.728 38.3864 53.8933 38.4185 54.0599 38.4164C54.394 38.4086 54.7117 38.2701 54.9449 38.0307C55.178 37.7912 55.308 37.4699 55.3068 37.1357Z" fill="white"/>
<path d="M74.2458 35.8214C74.0608 35.8187 73.8773 35.854 73.7065 35.9252C73.5358 35.9964 73.3815 36.1019 73.2533 36.2351C73.125 36.3684 73.0255 36.5267 72.9609 36.7C72.8963 36.8733 72.8681 37.0581 72.8779 37.2428C72.8779 37.6056 73.022 37.9535 73.2785 38.2101C73.5351 38.4666 73.883 38.6107 74.2458 38.6107C74.6086 38.6107 74.9565 38.4666 75.213 38.2101C75.4696 37.9535 75.6137 37.6056 75.6137 37.2428C75.6238 37.058 75.5957 36.8731 75.5312 36.6997C75.4668 36.5262 75.3673 36.3679 75.239 36.2345C75.1106 36.1012 74.9562 35.9957 74.7854 35.9246C74.6145 35.8535 74.4308 35.8184 74.2458 35.8214Z" fill="white"/>
<path d="M57.813 35.8212C57.4645 35.8148 57.1274 35.9453 56.8742 36.1848C56.621 36.4243 56.4719 36.7536 56.459 37.1019H59.1611C59.1552 36.2792 58.6159 35.8212 57.813 35.8212Z" fill="white"/>
<path d="M26.6485 26.9123C26.2735 27.3282 25.8658 27.7134 25.4292 28.0641C24.7399 28.6453 23.931 29.0676 23.0602 29.3012C22.6486 29.4211 22.2095 29.4058 21.8073 29.2576C21.1511 28.9701 20.8537 28.2029 20.7625 27.4932C20.6713 26.7834 20.7189 26.042 20.4592 25.3739C20.4432 25.3165 20.4083 25.2662 20.36 25.2311C20.2708 25.1737 20.1618 25.2311 20.0647 25.2827C19.4993 25.6601 18.9924 26.1183 18.56 26.6427C17.7075 27.6153 16.958 28.6736 16.3237 29.8008L27.4256 29.2873L27.382 29.2476C26.8943 28.7322 26.6498 27.9537 26.6485 26.9123Z" fill="white"/>
<path d="M70.374 27.3069L72.0314 27.2296C72.1001 26.7128 72.1662 26.1947 72.2296 25.6753C71.6488 26.2225 71.0659 26.7657 70.4454 27.2613L70.374 27.3069Z" fill="white"/>
<path d="M91.624 26.3253L92.7402 26.2737C92.7639 26.02 92.7937 25.7305 92.8274 25.4034C92.8413 25.2567 92.8611 25.1061 92.8789 24.9574C92.7719 25.0902 92.6628 25.225 92.5479 25.3539C92.2564 25.693 91.9481 26.0172 91.624 26.3253Z" fill="white"/>
<path d="M84.1677 25.7366C83.8347 26.0926 83.4762 26.4238 83.0952 26.7279L84.2054 26.6763C84.176 26.4522 84.1615 26.2264 84.1618 26.0003C84.1618 25.9104 84.1638 25.8225 84.1677 25.7366Z" fill="white"/>
<path d="M100.97 25.3758L100.422 25.925L101.285 25.8853L101.15 25.6712C101.085 25.5741 101.025 25.465 100.97 25.3758Z" fill="white"/>
<path d="M77.8617 23.9583C77.8513 23.8982 77.8238 23.8425 77.7824 23.7977C77.6872 23.7085 77.5306 23.762 77.4156 23.8295C76.9399 24.1267 76.5105 24.492 76.1409 24.9139C75.4974 25.604 74.9075 26.3423 74.3765 27.1223L78.3414 26.94C78.3057 26.8309 78.274 26.7199 78.2482 26.6109C78.044 25.7386 78.0817 24.8247 77.8617 23.9583Z" fill="white"/>
<path d="M112.006 23.538C111.86 23.3702 111.766 23.1635 111.736 22.9432C111.708 22.7476 111.666 22.5542 111.611 22.3643C111.511 22.0137 111.368 21.6768 111.185 21.3612V21.3493C110.95 20.9445 110.65 20.5814 110.297 20.2748L110.281 20.2629C109.568 19.6513 108.659 19.3145 107.72 19.3133C107.391 19.3128 107.064 19.3555 106.746 19.4402C106.577 19.4854 106.4 19.4911 106.228 19.4567C106.056 19.4223 105.894 19.3489 105.755 19.2419C100.601 15.4197 93.8781 17.6877 92.0186 18.5124C91.889 18.5701 91.7445 18.5859 91.6055 18.5574C91.4665 18.529 91.3399 18.4578 91.2434 18.3538C90.9633 18.0455 90.6448 17.7743 90.2958 17.5469C90.2036 17.4895 90.1263 17.4109 90.0703 17.3178C90.0144 17.2246 89.9814 17.1195 89.974 17.0111C89.9667 16.9027 89.9852 16.7941 90.028 16.6942C90.0709 16.5944 90.1368 16.5061 90.2205 16.4367H90.2343C91.1621 15.6755 97.282 11.1118 97.6706 10.7768C98.2809 10.2664 98.7685 9.62525 99.0973 8.90079C99.4261 8.17632 99.5876 7.38715 99.5698 6.59177C99.5698 6.51049 98.7867 3.11253 98.6559 2.76758C98.3532 1.95215 97.8074 1.24939 97.0922 0.75439C96.377 0.259394 95.527 -0.00393305 94.6572 4.44026e-05C94.5462 4.44026e-05 94.4332 4.44026e-05 94.3222 0.0119392C93.5032 0.0772941 92.7102 0.330315 92.0047 0.751402C91.2305 1.20222 90.494 1.7147 89.8022 2.28385L83.6565 7.61671C83.4919 7.02197 83.0042 5.30316 82.9131 5.03949C82.6389 4.23297 82.1169 3.53372 81.4215 3.04167C80.7262 2.54961 79.8931 2.28993 79.0413 2.29971C78.9818 2.29971 78.5199 2.32945 78.4465 2.33738C77.6179 2.40082 73.7144 3.88569 73.5657 3.98284L73.5399 3.99869C72.7674 4.48067 72.1807 5.20979 71.8751 6.06751C71.5695 6.92522 71.5631 7.86109 71.8568 8.72293C71.8865 8.80818 72.969 12 73.3734 13.1954C73.3906 13.2459 73.3963 13.2995 73.3902 13.3525C73.384 13.4054 73.3662 13.4564 73.3379 13.5015C73.3096 13.5467 73.2716 13.585 73.2266 13.6137C73.1817 13.6424 73.1309 13.6606 73.078 13.6672H73.0661C71.494 13.8655 70.1994 14.8567 69.5115 16.3911C69.4129 16.6116 69.3281 16.8381 69.2578 17.0691C69.2028 17.2515 69.0809 17.4064 68.9166 17.5027C68.7522 17.599 68.5576 17.6297 68.3716 17.5886L68.2685 17.5648C67.0421 17.2761 65.752 17.4594 64.6545 18.0782C64.5805 18.1192 64.5091 18.1628 64.4404 18.2091C64.0926 18.436 63.772 18.7021 63.4848 19.0021C63.3929 19.0993 63.2826 19.1772 63.1603 19.2314C63.038 19.2856 62.9061 19.315 62.7724 19.3177C62.6386 19.3205 62.5057 19.2966 62.3812 19.2476C62.2568 19.1985 62.1434 19.1251 62.0475 19.0318C61.8065 18.7939 61.5406 18.5825 61.2545 18.4014C60.602 17.9984 59.8679 17.7458 59.1055 17.6619C58.8496 17.6318 58.5921 17.6166 58.3343 17.6163C56.8888 17.6327 55.4806 18.0777 54.2881 18.895C54.1938 18.9592 54.087 19.0028 53.9747 19.0231C53.8625 19.0434 53.7472 19.0398 53.6364 19.0127C53.5256 18.9856 53.4217 18.9356 53.3314 18.8658C53.2412 18.796 53.1666 18.708 53.1125 18.6075C52.1213 16.6984 49.9544 16.0065 48.5528 15.8995C48.1932 15.8722 47.8462 15.7552 47.5435 15.5592C47.2408 15.3632 46.9921 15.0944 46.8201 14.7774C46.4448 14.0691 45.8846 13.4758 45.199 13.0604C44.5134 12.645 43.7281 12.4231 42.9266 12.4183C40.9619 12.4183 39.3383 13.7326 38.7911 15.7686C38.671 16.3215 38.5882 16.8818 38.5433 17.4458C38.5173 17.6737 38.4323 17.8908 38.2967 18.0758C38.1611 18.2607 37.9796 18.4071 37.7701 18.5005C36.8074 18.942 36.0484 19.7328 35.6469 20.7129C35.6356 20.741 35.6184 20.7663 35.5965 20.7871C35.5747 20.808 35.5486 20.8239 35.52 20.8339C35.4674 20.8515 35.41 20.8477 35.3602 20.8232C35.3105 20.7987 35.2724 20.7555 35.2544 20.703C35.1929 20.5365 35.1235 20.372 35.0462 20.2134C34.8087 19.7261 34.508 19.2722 34.1521 18.8633C33.768 18.4128 33.2957 18.0458 32.7644 17.7848C32.503 17.6502 32.2311 17.5369 31.9516 17.4458C31.6805 17.3574 31.4027 17.2911 31.1209 17.2476C30.8833 17.2119 30.6435 17.1933 30.4033 17.1921C30.3259 17.1921 30.2506 17.1921 30.1733 17.1921C29.6868 17.2258 29.2062 17.3183 28.7419 17.4676C28.3081 17.6011 27.8895 17.7798 27.493 18.0009C27.1405 18.1974 26.8049 18.4228 26.4899 18.675C26.1914 18.9136 25.9118 19.1747 25.6533 19.456C25.6235 19.4878 25.5938 19.5195 25.566 19.5532C25.1749 20.0101 24.8196 20.4966 24.5034 21.0083C24.4563 21.0822 24.394 21.1451 24.3205 21.1927C24.247 21.2404 24.1642 21.2718 24.0776 21.2848C23.991 21.2977 23.9026 21.292 23.8184 21.2679C23.7342 21.2438 23.6561 21.2019 23.5895 21.1451C23.3967 20.9817 23.1897 20.8357 22.971 20.709C22.4639 20.4177 21.9038 20.2303 21.3235 20.1578C21.1836 20.1431 21.0535 20.0792 20.9562 19.9776C20.8589 19.876 20.8008 19.7432 20.7922 19.6027V19.569C20.7557 18.8454 20.5423 18.1417 20.1708 17.5196C19.7993 16.8975 19.2809 16.3759 18.6611 16.0006C18.0024 15.6047 17.2488 15.3945 16.4803 15.392C15.6429 15.3895 14.8242 15.6396 14.1311 16.1096C13.8001 16.3377 13.4134 16.4716 13.0122 16.4971C12.611 16.5226 12.2105 16.4387 11.8532 16.2544C11.2259 15.9219 10.5272 15.7471 9.81725 15.7449C8.77319 15.7179 7.76098 16.1057 7.00213 16.8233C5.02957 18.8058 0.216125 31.8326 0.216125 31.8326C-0.440074 33.8845 0.434197 35.9661 2.34729 36.8939C3.15613 37.2904 4.11169 37.4609 5.44391 37.4609C5.86023 37.4609 20.5583 36.7254 26.6167 36.4201C26.7985 36.4112 26.9802 36.4394 27.1508 36.5028C27.3213 36.5663 27.4772 36.6637 27.609 36.7892C27.7408 36.9147 27.8458 37.0656 27.9175 37.2329C27.9892 37.4001 28.0262 37.5802 28.0263 37.7622V38.9121C28.0268 39.9054 28.4218 40.858 29.1244 41.5602C29.827 42.2625 30.7798 42.6569 31.7731 42.6569H37.9803C38.92 44.007 40.5218 44.8377 42.425 44.8377C43.2862 44.8558 44.1392 44.6672 44.9125 44.2878C45.6858 43.9084 46.357 43.3491 46.8697 42.6569H49.6154C50.1322 43.3443 50.8038 43.9 51.5758 44.279C52.3478 44.6579 53.1983 44.8493 54.0581 44.8377C54.9191 44.8558 55.7718 44.6672 56.5448 44.2878C57.3178 43.9083 57.9886 43.3491 58.5009 42.6569H81.0297C81.5224 42.6598 82.0107 42.5652 82.4666 42.3785C82.9226 42.1919 83.3371 41.9169 83.6862 41.5693C84.0354 41.2218 84.3124 40.8086 84.5013 40.3536C84.6901 39.8986 84.787 39.4107 84.7865 38.918C84.7865 38.918 84.7865 36.5945 84.7746 35.068C84.7723 34.7193 84.906 34.3835 85.1474 34.1318C85.3887 33.88 85.7187 33.7323 86.0672 33.72C91.8164 33.5078 107.541 32.9587 108.088 32.8259C108.697 32.6876 109.271 32.4259 109.774 32.0569C110.277 31.6879 110.7 31.2196 111.015 30.6808L112.361 28.397C113.459 26.5315 113.011 24.6937 112.006 23.538ZM75.5283 7.18057C75.6288 7.10926 75.7349 7.04627 75.8455 6.99223C76.3114 6.79398 76.7713 6.57393 77.2491 6.39749C77.7261 6.22564 78.2244 6.12024 78.73 6.08426C78.8192 6.08426 78.9104 6.06245 79.0016 6.05849C79.072 6.04766 79.144 6.06147 79.2055 6.09759C79.2669 6.13371 79.3139 6.18993 79.3387 6.25673C79.4021 6.44309 79.4616 6.63142 79.5151 6.82174C79.7517 7.66627 79.9849 8.51213 80.2149 9.35931C80.5262 10.4953 80.8334 11.6332 81.1447 12.7692C81.2636 13.2053 81.3839 13.6408 81.5055 14.0756C81.5055 14.0974 81.5214 14.1192 81.5273 14.1391C81.535 14.1812 81.5544 14.2204 81.5833 14.2521C81.6121 14.2839 81.6492 14.3069 81.6905 14.3187C81.7317 14.3304 81.7754 14.3304 81.8166 14.3186C81.8579 14.3069 81.895 14.2838 81.9238 14.2521L82.2906 13.921C82.6137 13.6236 82.9349 13.3262 83.258 13.0289L85.1592 11.3041C85.4447 11.0464 85.7262 10.7847 86.0117 10.527C86.8562 9.76968 87.7027 9.01369 88.5512 8.25903C89.1579 7.72376 89.7665 7.1885 90.385 6.67305C91.0035 6.15761 91.5745 5.68182 92.1692 5.18223C92.7082 4.74064 93.2816 4.34287 93.8841 3.99275C94.1045 3.86239 94.3522 3.78502 94.6077 3.76675C94.7203 3.75191 94.8347 3.77607 94.9317 3.83522C95.0287 3.89437 95.1025 3.98494 95.141 4.09187C95.2579 4.39915 95.3689 4.70842 95.4582 5.02363C95.5771 5.43401 95.6782 5.85033 95.7754 6.26665C95.7984 6.39765 95.8116 6.53018 95.815 6.66314C95.8225 6.9052 95.7736 7.14568 95.6721 7.36556C95.5706 7.58543 95.4193 7.77866 95.2302 7.92994C94.9674 8.15595 94.6906 8.36519 94.4015 8.5564C93.2338 9.31767 92.086 10.1245 90.9916 10.9929C89.9389 11.8275 88.8981 12.676 87.8593 13.5265C87.1437 14.1212 86.4419 14.716 85.7341 15.3107C85.3158 15.6596 84.9054 16.0145 84.4792 16.3515C83.5541 17.0877 82.6236 17.8146 81.6879 18.5322C81.4631 18.704 81.2273 18.8609 80.9821 19.0021C80.847 19.0781 80.6908 19.1079 80.5372 19.0867C80.3836 19.0656 80.2412 18.9948 80.1316 18.8851C79.9403 18.7031 79.7707 18.4995 79.6261 18.2785C79.128 17.547 78.7168 16.7599 78.4009 15.9332C77.8868 14.6763 77.415 13.4055 76.9855 12.1209C76.6973 11.2658 76.4105 10.412 76.1251 9.55954C75.9486 9.04211 75.7742 8.5227 75.5977 8.00329C75.5402 7.83875 75.4788 7.6742 75.4213 7.50767C75.396 7.44844 75.394 7.38185 75.4157 7.32121C75.4374 7.26057 75.4811 7.21035 75.5382 7.18057H75.5283ZM32.1122 38.9002H31.7811V34.1819H32.1122V38.9002ZM36.2357 38.9002H35.9066V38.1924C35.7664 38.4277 35.5667 38.6219 35.3276 38.7555C35.0886 38.8892 34.8185 38.9575 34.5447 38.9537C34.1007 38.9386 33.68 38.7516 33.3713 38.4322C33.0626 38.1128 32.8901 37.686 32.8901 37.2418C32.8901 36.7976 33.0626 36.3708 33.3713 36.0514C33.68 35.732 34.1007 35.5451 34.5447 35.5299C34.82 35.5219 35.0923 35.5891 35.3323 35.7243C35.5722 35.8595 35.7708 36.0575 35.9066 36.2972V35.5696H36.2357V38.9002ZM40.1451 38.9002H39.824V36.9851C39.824 36.2298 39.3581 35.8253 38.6345 35.8333C38.477 35.832 38.3209 35.8629 38.1758 35.924C38.0306 35.9852 37.8995 36.0753 37.7904 36.1889C37.6812 36.3024 37.5964 36.4371 37.5412 36.5846C37.4859 36.732 37.4612 36.8892 37.4688 37.0465V38.9002H37.1397V35.5696H37.4648V36.1643C37.5857 35.9583 37.7601 35.7889 37.9696 35.6741C38.179 35.5592 38.4156 35.5033 38.6543 35.5121C39.5445 35.5121 40.157 36.0573 40.157 36.9811L40.1451 38.9002ZM42.421 41.071C41.5388 41.071 40.835 40.5853 40.835 39.7447H41.1641C41.1641 40.4247 41.745 40.7478 42.4111 40.7478C43.0772 40.7478 43.672 40.4524 43.672 39.7447C43.672 39.0369 43.0316 38.7535 42.4111 38.7535C41.4476 38.7535 40.8469 38.0338 40.8469 37.1437C40.8469 36.1049 41.5487 35.52 42.4111 35.52C42.7489 35.5244 43.0777 35.63 43.3548 35.8234L43.6779 35.4447L43.894 35.633L43.5709 36.0117C43.7109 36.1637 43.8193 36.3421 43.8898 36.5364C43.9603 36.7308 43.9913 36.9372 43.9812 37.1437C43.9803 37.4401 43.8957 37.7301 43.7371 37.9805C43.5786 38.2309 43.3526 38.4315 43.0852 38.5592C43.6799 38.7574 43.9951 39.1797 43.9951 39.7487C44.007 40.6408 43.3072 41.071 42.421 41.071ZM47.6785 38.9021H47.3554V38.3074C47.2343 38.5133 47.0599 38.6828 46.8505 38.7979C46.6412 38.9131 46.4047 38.9696 46.1659 38.9616C45.2778 38.9616 44.6632 38.4144 44.6632 37.4926V35.5656H44.9982V37.4787C44.9982 38.234 45.4641 38.6385 46.1877 38.6325C46.3452 38.6338 46.5013 38.6029 46.6465 38.5418C46.7916 38.4806 46.9227 38.3905 47.0319 38.2769C47.141 38.1634 47.2258 38.0287 47.2811 37.8812C47.3364 37.7338 47.361 37.5766 47.3534 37.4192V35.5656H47.6845L47.6785 38.9021ZM51.7505 38.9021H51.4195V38.1944C51.2792 38.4297 51.0796 38.6239 50.8405 38.7575C50.6014 38.8911 50.3314 38.9595 50.0575 38.9557C49.6136 38.9406 49.1929 38.7536 48.8842 38.4342C48.5755 38.1148 48.4029 37.688 48.4029 37.2438C48.4029 36.7996 48.5755 36.3728 48.8842 36.0534C49.1929 35.734 49.6136 35.547 50.0575 35.5319C50.3329 35.5237 50.6053 35.5908 50.8453 35.726C51.0853 35.8612 51.2838 36.0594 51.4195 36.2992V35.5716H51.7505V38.9021ZM54.0542 41.071C53.172 41.071 52.4781 40.5853 52.4781 39.7447H52.8092C52.8092 40.4247 53.3881 40.7478 54.0542 40.7478C54.7203 40.7478 55.315 40.4524 55.315 39.7447C55.315 39.0369 54.6747 38.7535 54.0542 38.7535C53.0907 38.7535 52.492 38.0338 52.492 37.1437C52.492 36.1049 53.1918 35.52 54.0542 35.52C54.392 35.5244 54.7207 35.63 54.9978 35.8234L55.323 35.4447L55.5371 35.633L55.2139 36.0117C55.3544 36.1636 55.4631 36.3419 55.5339 36.5362C55.6047 36.7306 55.6361 36.9371 55.6263 37.1437C55.6237 37.44 55.5383 37.7296 55.3795 37.9798C55.2208 38.23 54.9952 38.4307 54.7282 38.5592C55.323 38.7574 55.6382 39.1797 55.6382 39.7487C55.6421 40.6408 54.9423 41.071 54.0581 41.071H54.0542ZM59.4544 37.3915H56.4589C56.4784 37.7333 56.6311 38.0539 56.8842 38.2844C57.1374 38.515 57.4708 38.6371 57.813 38.6246C58.2511 38.6246 58.7645 38.4501 59.0123 38.1191L59.2483 38.3074C59.072 38.5145 58.8516 38.6795 58.6032 38.7903C58.3548 38.9011 58.0848 38.9549 57.813 38.9477C57.5869 38.9563 57.3615 38.9177 57.1512 38.8344C56.9408 38.7512 56.7501 38.6252 56.5911 38.4643C56.4321 38.3034 56.3082 38.1112 56.2275 37.8999C56.1467 37.6886 56.1107 37.4628 56.1219 37.2369C56.116 37.0119 56.1555 36.788 56.2381 36.5787C56.3207 36.3693 56.4445 36.1787 56.6024 36.0183C56.7602 35.8579 56.9487 35.7309 57.1567 35.645C57.3647 35.559 57.5879 35.5159 57.813 35.5181C58.7507 35.5181 59.5853 36.091 59.4584 37.3915H59.4544ZM63.4194 38.9557C62.8346 38.9557 62.2537 38.7336 61.9642 38.2876L62.2061 38.0715C62.3511 38.257 62.5382 38.4052 62.752 38.5038C62.9658 38.6025 63.2 38.6486 63.4352 38.6385C63.8317 38.6385 64.4523 38.5314 64.4721 38.0041C64.486 37.5263 63.9328 37.4311 63.3877 37.3439C62.7414 37.2369 62.101 37.1159 62.0931 36.4478C62.0852 35.7797 62.7414 35.5121 63.4154 35.5181C63.8705 35.4988 64.3152 35.6582 64.6545 35.9621L64.4562 36.1782C64.315 36.0544 64.1507 35.9596 63.9728 35.8994C63.7949 35.8392 63.6068 35.8147 63.4194 35.8273C62.9 35.8273 62.4004 36.0256 62.4143 36.4419C62.4282 36.8582 63.009 36.9732 63.4253 37.0485C64.0201 37.1496 64.8349 37.2468 64.8012 38.0259C64.7754 38.7594 64.0141 38.9557 63.4352 38.9557H63.4194ZM67.0394 38.6246C67.4109 38.6236 67.7671 38.4761 68.0306 38.2142L68.2527 38.4363C68.0934 38.5955 67.9043 38.7217 67.696 38.8074C67.4878 38.8932 67.2646 38.9368 67.0394 38.9358C66.8131 38.9456 66.5873 38.9084 66.3761 38.8266C66.1649 38.7448 65.973 38.6202 65.8123 38.4606C65.6516 38.301 65.5257 38.1099 65.4424 37.8993C65.3591 37.6887 65.3204 37.4632 65.3285 37.2369C65.3285 36.1861 66.0759 35.5379 67.0394 35.5379C67.4937 35.5385 67.9296 35.718 68.2527 36.0375L68.0366 36.2456C67.7709 35.9886 67.4149 35.8462 67.0453 35.8491C66.6773 35.8491 66.3243 35.9953 66.0641 36.2556C65.8038 36.5158 65.6576 36.8688 65.6576 37.2369C65.6576 37.6049 65.8038 37.9579 66.0641 38.2181C66.3243 38.4784 66.6773 38.6246 67.0453 38.6246H67.0394ZM71.839 38.9021H71.5237V36.993C71.5237 36.3071 71.2006 35.8412 70.4512 35.8412C70.2906 35.8388 70.1313 35.8694 69.983 35.9311C69.8347 35.9928 69.7007 36.0843 69.5892 36.1999C69.4777 36.3155 69.3911 36.4527 69.3348 36.6031C69.2784 36.7535 69.2536 36.9139 69.2617 37.0743V38.9021H68.9307V34.1838H69.2479V36.1921C69.3688 35.9828 69.5442 35.8101 69.7553 35.6925C69.9665 35.5749 70.2056 35.5166 70.4473 35.524C71.377 35.524 71.835 36.1187 71.835 36.993L71.839 38.9021ZM74.2377 38.9477C74.0121 38.9568 73.787 38.9188 73.5768 38.8361C73.3666 38.7535 73.1759 38.628 73.0168 38.4676C72.8578 38.3073 72.7338 38.1155 72.6529 37.9047C72.572 37.6938 72.5358 37.4684 72.5467 37.2428C72.5389 37.0157 72.5769 36.7894 72.6585 36.5773C72.74 36.3653 72.8634 36.1718 73.0213 36.0084C73.1792 35.845 73.3683 35.7151 73.5775 35.6263C73.7867 35.5376 74.0115 35.4919 74.2387 35.4919C74.466 35.4919 74.6908 35.5376 74.9 35.6263C75.1092 35.7151 75.2983 35.845 75.4562 36.0084C75.6141 36.1718 75.7375 36.3653 75.819 36.5773C75.9005 36.7894 75.9386 37.0157 75.9308 37.2428C75.9416 37.4679 75.9056 37.6928 75.8251 37.9032C75.7445 38.1137 75.6211 38.3051 75.4627 38.4654C75.3043 38.6256 75.1143 38.7513 74.9048 38.8343C74.6953 38.9173 74.4709 38.956 74.2457 38.9477H74.2377ZM78.2285 38.9477C78.0028 38.9568 77.7777 38.9188 77.5675 38.8361C77.3573 38.7535 77.1666 38.628 77.0075 38.4676C76.8485 38.3073 76.7245 38.1155 76.6436 37.9047C76.5627 37.6938 76.5265 37.4684 76.5374 37.2428C76.5374 36.7943 76.7156 36.3642 77.0327 36.0471C77.3498 35.7299 77.78 35.5518 78.2285 35.5518C78.677 35.5518 79.1071 35.7299 79.4242 36.0471C79.7414 36.3642 79.9195 36.7943 79.9195 37.2428C79.9307 37.4678 79.8949 37.6926 79.8146 37.9031C79.7342 38.1135 79.611 38.305 79.4527 38.4653C79.2945 38.6256 79.1047 38.7512 78.8953 38.8343C78.6859 38.9173 78.4615 38.956 78.2364 38.9477H78.2285ZM81.0039 38.9021H80.6828V34.1838H81.0119L81.0039 38.9021ZM109.1 26.4819L107.751 28.7657C107.695 28.8655 107.617 28.9512 107.523 29.0165C107.429 29.0817 107.321 29.1248 107.208 29.1424C106.913 29.1998 106.613 29.2276 106.312 29.2257L102.028 29.3625C101.786 29.5607 101.544 29.7292 101.306 29.8858C100.668 30.316 100.165 30.5301 99.7918 30.5301C99.5794 30.5311 99.3718 30.4667 99.1971 30.3458C98.9314 30.1257 99.1634 29.6698 99.3835 29.4477C68.4073 30.4806 37.4192 32.0904 6.45299 33.6486C5.547 33.6942 4.47051 33.718 3.99076 33.488C3.69735 33.3453 3.74493 33.149 3.8044 32.9666L4.41699 31.0535C4.4606 30.9207 4.43285 30.7165 4.58352 30.5579C4.63995 30.5007 4.70739 30.4555 4.78176 30.4251C5.22187 30.2407 6.23888 30.2586 6.83362 30.2268L9.35137 30.1099C9.27028 29.6767 9.2377 29.2359 9.25423 28.7955C9.25423 27.8703 9.25885 26.9412 9.2681 26.0081C9.27969 25.909 9.2535 25.8092 9.19475 25.7286C9.10158 25.6334 8.94298 25.6632 8.8161 25.7008L7.84667 25.9744C7.60975 26.0611 7.35579 26.091 7.10522 26.0617C6.98353 26.0449 6.87102 25.9877 6.78579 25.8992C6.70056 25.8108 6.64758 25.6962 6.63538 25.574C6.64925 25.233 7.04971 25.0684 7.38079 24.9792L8.69517 24.6442C8.87155 24.6204 9.03344 24.5338 9.15114 24.4003C9.21546 24.2786 9.24431 24.1412 9.2344 24.0038C9.25158 22.9267 9.27009 21.8496 9.28991 20.7724C9.28991 20.4592 9.26216 19.8486 9.52186 19.6146C9.78156 19.3807 10.2098 19.5512 10.3525 19.8129C10.4653 20.0983 10.4928 20.4102 10.4318 20.711C10.3348 21.6467 10.2924 22.5873 10.3049 23.528C10.3049 23.6787 10.3327 23.8631 10.4734 23.9245C10.5497 23.9481 10.6312 23.9481 10.7074 23.9245C12.0912 23.6131 13.4358 23.1476 14.7159 22.5368C14.8508 22.4734 15.0312 22.4139 15.1323 22.5249C15.1585 22.5542 15.1769 22.5897 15.1858 22.628V22.6558C15.2512 23.0047 14.9419 23.308 14.6446 23.5043C13.4551 24.2854 11.99 24.5332 10.6578 25.0506C10.5937 25.0687 10.536 25.1044 10.4913 25.1537C10.4541 25.2131 10.4349 25.2819 10.4358 25.3519C10.3248 26.6245 10.3148 27.9039 10.406 29.1781C10.4063 29.4915 10.4913 29.7991 10.6519 30.0682L14.7477 29.8799C14.7477 29.8482 14.7477 29.8184 14.7635 29.7867C15.1799 27.1383 15.4236 24.4655 15.4931 21.7855C15.4799 21.1987 15.5514 20.6132 15.7052 20.0468C15.8281 19.6702 16.185 18.9148 16.7242 19.234C16.8144 19.2969 16.8883 19.3805 16.9397 19.4777C16.9911 19.575 17.0185 19.6831 17.0196 19.7931C17.0191 20.0125 16.9877 20.2307 16.9264 20.4413C16.7089 21.478 16.5645 22.5286 16.4942 23.5855L16.0977 28.0025C16.0977 28.1115 16.1156 28.2642 16.2246 28.2642C16.7526 27.4428 17.3355 26.6579 17.9692 25.9149C18.5857 25.1913 19.2677 24.4955 20.1202 24.0712C20.4195 23.9226 20.7883 23.8115 21.0797 23.9801C21.3037 24.1455 21.4533 24.3928 21.496 24.668C21.7478 25.6473 21.6943 26.6941 22.0095 27.6556C22.048 27.8321 22.1549 27.9861 22.3068 28.0838C22.4149 28.1273 22.5325 28.1417 22.6478 28.1254C24.1208 28.0243 25.4015 27.0925 26.4621 26.0676L26.7159 25.8198C26.7812 25.3303 26.8914 24.8479 27.045 24.3785C27.3437 23.5028 27.8119 22.6945 28.4228 21.9996C28.5518 21.8586 28.6916 21.728 28.8411 21.609C28.9925 21.4876 29.1536 21.3789 29.3228 21.2839C29.4895 21.1909 29.6656 21.1158 29.8482 21.0599C30.0253 21.0049 30.2083 20.9709 30.3934 20.9588C30.4545 20.9604 30.5154 20.9663 30.5757 20.9766C30.6605 20.9885 30.7441 21.0078 30.8255 21.0341C30.9141 21.0614 31.0003 21.0959 31.0833 21.1372C31.1596 21.174 31.2272 21.2267 31.2815 21.2918C31.4286 21.4578 31.5533 21.6424 31.6522 21.841C31.7455 22.0364 31.7975 22.249 31.8049 22.4654C31.8165 22.7196 31.7871 22.974 31.7176 23.2188C31.6394 23.4871 31.5218 23.7423 31.3687 23.9761C31.1805 24.2609 30.9647 24.5265 30.7244 24.7691C30.4179 25.0807 30.0957 25.3765 29.759 25.6552L28.966 26.3174C28.6297 26.5908 28.2783 26.845 27.9133 27.0787C27.898 27.3064 27.9336 27.5348 28.0177 27.747C28.1017 27.9593 28.2319 28.1502 28.399 28.3058C28.7751 28.6105 29.2496 28.767 29.7332 28.7459C30.0564 28.7452 30.3781 28.7032 30.6907 28.621C31.015 28.5372 31.3319 28.4272 31.6383 28.2919C31.9495 28.1565 32.2515 28.0009 32.5424 27.8261C32.8331 27.6516 33.106 27.4725 33.3611 27.2888C33.8329 26.9452 34.2605 26.6029 34.6438 26.2619C35.0271 25.9209 35.407 25.5614 35.7837 25.1834L36.2337 24.7354C36.5053 24.4955 36.7016 24.3765 36.8285 24.3765C36.8939 24.3765 36.9276 24.4301 36.9276 24.5351C36.8987 24.6931 36.8365 24.8432 36.7452 24.9753C36.4433 25.4076 36.1197 25.8245 35.7758 26.2242C35.4174 26.6409 35.0369 27.0379 34.6358 27.4137C34.2364 27.786 33.8168 28.1361 33.379 28.4624C33.0803 28.6845 32.7803 28.8827 32.4789 29.0572L41.5983 28.6349C41.5805 28.5754 41.5646 28.516 41.5507 28.4545C41.4496 27.8361 41.4395 27.2063 41.521 26.585C41.6201 25.3757 41.7186 24.1664 41.8164 22.9571C41.8316 22.8762 41.8197 22.7926 41.7827 22.7192C41.7034 22.5963 41.521 22.6102 41.3862 22.6399L40.4346 22.8381C40.1194 22.9016 39.7823 22.965 39.487 22.8381C39.1916 22.7113 38.9894 22.3187 39.1797 22.059C39.3211 21.9128 39.5119 21.8245 39.7149 21.8112L41.4437 21.4901C41.5186 21.4902 41.5926 21.4742 41.6609 21.4433C41.7291 21.4125 41.79 21.3674 41.8393 21.311C41.8887 21.2547 41.9255 21.1885 41.9472 21.1168C41.9688 21.0451 41.9749 20.9696 41.965 20.8953C42.0721 19.9186 42.1811 18.9406 42.2922 17.9613C42.3417 17.533 42.2922 15.8103 43.216 16.2702C43.3251 16.3344 43.4169 16.4243 43.4832 16.5321C43.5496 16.64 43.5885 16.7624 43.5966 16.8887C43.6101 17.1416 43.5847 17.395 43.5213 17.6401C43.3296 18.5871 43.2037 19.5463 43.1446 20.5107C43.1446 20.6614 43.1446 20.8458 43.2755 20.9072C43.3545 20.9402 43.4418 20.9479 43.5253 20.929C45.0158 20.7306 46.479 20.3634 47.8867 19.8347C48.0136 19.7871 48.1702 19.7435 48.2693 19.8347C48.3093 19.8752 48.3356 19.9272 48.3447 19.9834C48.414 20.3402 48.077 20.6396 47.7598 20.818C46.4256 21.5674 44.8357 21.6784 43.3667 22.1145C43.2978 22.121 43.2339 22.1531 43.1876 22.2046C43.1413 22.256 43.1161 22.3229 43.1169 22.3921C42.8507 24.0973 42.7181 25.8207 42.7204 27.5465C42.7204 27.836 42.7422 28.1631 42.9563 28.3593C43.0548 28.4333 43.1589 28.4996 43.2675 28.5576L47.1076 28.3792C46.9494 28.2593 46.811 28.1155 46.6972 27.9529C46.3986 27.4636 46.2479 26.8984 46.2631 26.3253C46.2412 25.1434 46.5428 23.978 47.1353 22.9551C47.4942 22.3366 47.9918 21.722 48.644 21.3949C48.8614 21.2732 49.106 21.2083 49.3552 21.2062C49.6043 21.2041 49.85 21.2649 50.0694 21.383C50.5829 21.7022 50.7494 22.408 50.6007 22.9948C50.452 23.5816 50.0516 24.0693 49.6293 24.5034C49.0282 25.1213 48.3637 25.6741 47.6468 26.1528C47.5648 26.2015 47.4911 26.263 47.4287 26.3352C47.3724 26.4258 47.3401 26.5292 47.3349 26.6357C47.3297 26.7422 47.3518 26.8483 47.399 26.9439C47.4894 27.1365 47.622 27.3063 47.7872 27.4405C47.9523 27.5747 48.1455 27.6699 48.3526 27.719C48.7677 27.8153 49.2003 27.8071 49.6115 27.6952C50.5333 27.4791 51.3659 26.9815 52.1252 26.4165C52.7424 25.9595 53.3231 25.4551 53.8619 24.9079L53.9551 24.8127C54.5194 23.6974 55.351 22.7391 56.3757 22.0233C57.0361 21.5531 57.8414 21.3312 58.6496 21.3969C58.8591 21.4156 59.0621 21.4799 59.2443 21.5852C59.6646 21.8509 59.8212 22.398 59.7915 22.8917C59.7617 23.3853 59.5793 23.8591 59.4683 24.3409C59.3542 24.7693 59.3467 25.2192 59.4465 25.6513C59.4985 25.8664 59.6001 26.0663 59.7434 26.235C59.8866 26.4037 60.0674 26.5365 60.2712 26.6227C60.7093 26.7833 61.201 26.6564 61.6292 26.47C62.6542 26.024 63.4947 25.2706 64.2818 24.4638C64.7972 23.2287 65.5902 22.0531 66.7063 21.3216C66.9304 21.1749 67.2138 21.044 67.4577 21.1511C67.5823 21.2197 67.6889 21.3169 67.7689 21.4346C68.0474 21.7568 68.2772 22.1182 68.4509 22.5071C68.5377 22.7017 68.5848 22.9117 68.5896 23.1248C68.5943 23.3379 68.5566 23.5498 68.4787 23.7481C68.4033 23.9107 68.2606 24.0712 68.0822 24.0554C68.0161 24.0409 67.9545 24.0109 67.9024 23.9678C67.8504 23.9247 67.8094 23.8697 67.7828 23.8076C67.7052 23.6633 67.635 23.515 67.5727 23.3635C67.4873 23.1803 67.4125 22.9923 67.3486 22.8005C67.3149 22.6954 67.2654 22.4635 67.1504 22.4179C67.0354 22.3723 66.8253 22.4972 66.742 22.5646C66.4195 22.8198 66.1461 23.1315 65.9351 23.4844C65.4539 24.2532 65.1317 25.1107 64.9875 26.0061C64.9023 26.5335 64.9003 27.1322 65.2254 27.5445L68.6531 27.3859C69.2131 27.0969 69.7442 26.7551 70.2391 26.365C70.9706 25.8 71.6427 25.1636 72.3306 24.5451C72.4482 23.2816 72.5275 22.0154 72.5685 20.7466C72.5711 20.083 72.6221 19.4204 72.7212 18.7642C72.8024 18.3082 72.9571 17.4874 73.5439 17.4121C73.663 17.3983 73.7836 17.4208 73.8897 17.4767C73.9959 17.5326 74.0826 17.6192 74.1386 17.7253C74.2655 17.9751 74.2001 18.2765 74.1386 18.5501C73.8726 19.8663 73.6944 21.1989 73.6053 22.5388C73.4811 23.9239 73.3575 25.3116 73.2346 26.702C73.2247 26.815 73.2564 26.9736 73.3694 26.9657C74.4558 25.3678 75.5878 23.7243 77.2194 22.6895C77.6476 22.4179 78.2523 22.2097 78.617 22.5586C78.7467 22.6995 78.8375 22.8717 78.8807 23.0582C79.19 24.095 79.1206 25.2191 79.4338 26.2559C79.4414 26.3513 79.4702 26.4437 79.518 26.5265C79.5659 26.6093 79.6317 26.6804 79.7105 26.7346C79.7893 26.7887 79.8793 26.8246 79.9738 26.8395C80.0682 26.8544 80.1648 26.8481 80.2565 26.8209C81.6819 26.6604 82.9428 25.8099 83.9796 24.8186L84.3147 24.4955C84.3727 24.2176 84.4455 23.9429 84.5327 23.6728C84.8082 22.87 85.2386 22.129 85.7995 21.492C86.3031 20.8973 87.2487 20.3501 88.0417 20.6257C88.2047 20.6928 88.3526 20.792 88.4765 20.9173C88.6005 21.0426 88.698 21.1915 88.7633 21.3553C88.9353 21.7558 88.9565 22.2051 88.8228 22.6201C88.7509 22.8667 88.6426 23.1012 88.5017 23.3159C88.3296 23.5812 88.1303 23.8277 87.9069 24.0514C87.5223 24.437 87.1166 24.801 86.6917 25.1418C86.2904 25.4827 85.8715 25.8023 85.4367 26.0993C85.4033 26.1204 85.3757 26.1497 85.3567 26.1844C85.3376 26.2191 85.3276 26.258 85.3277 26.2976C85.3332 26.4051 85.3484 26.512 85.3733 26.6167L90.2561 26.3907L90.3315 26.3392C90.7396 26.0439 91.1326 25.7283 91.5091 25.3936C91.8619 25.0803 92.2115 24.7499 92.5578 24.4023L92.9741 23.988L93.0058 23.9622C93.0356 23.7521 93.0653 23.5459 93.097 23.3476C93.1361 23.0806 93.1897 22.8159 93.2576 22.5547C93.2925 22.3607 93.3719 22.1775 93.4896 22.0194C93.545 21.9574 93.6128 21.9078 93.6886 21.8736C93.7644 21.8395 93.8465 21.8216 93.9297 21.8211C94.0037 21.8257 94.076 21.8458 94.1419 21.8799C94.2078 21.914 94.2658 21.9615 94.3123 22.0194C94.4709 22.2176 94.4431 22.4397 94.4273 22.6696C94.4174 22.8203 94.3995 22.9749 94.3737 23.1355C94.348 23.2961 94.3182 23.4587 94.2825 23.6212C94.2469 23.7838 94.2112 23.9404 94.1755 24.0871C94.0643 24.5307 93.9776 24.9801 93.9158 25.4332C93.8907 25.6275 93.8649 25.8357 93.8385 26.0577C93.8385 26.1053 93.8266 26.1568 93.8206 26.2084L94.0506 26.1984L94.1358 26.018C94.3341 25.5997 94.576 25.1973 94.8178 24.7988C95.1298 24.2644 95.5156 23.7765 95.9637 23.3496C96.3094 23.018 96.7072 22.7454 97.1413 22.5428C97.4701 22.3686 97.8284 22.2571 98.1979 22.2137C98.3562 22.2109 98.5145 22.2189 98.6717 22.2375C98.8511 22.2572 99.0278 22.2958 99.1991 22.3524C99.354 22.4012 99.5 22.4749 99.6313 22.5705C99.6856 22.6058 99.7305 22.6539 99.7619 22.7106C99.7934 22.7673 99.8105 22.8308 99.8117 22.8956C99.8206 23.0619 99.7776 23.2267 99.6888 23.3675C99.6154 23.4606 99.4905 23.4289 99.3815 23.423C99.2467 23.423 99.1119 23.4071 98.985 23.4032H98.8323C97.9153 23.4397 97.0462 23.8222 96.3998 24.4737C95.9158 24.9725 95.5047 25.5371 95.1786 26.1509L99.1119 25.9685C99.119 25.9196 99.1316 25.8717 99.1495 25.8257C99.224 25.6701 99.3122 25.5215 99.4132 25.3817C99.5294 25.2201 99.6538 25.0646 99.7859 24.9158C99.887 24.8008 99.9841 24.6878 100.093 24.5748C100.167 24.4935 100.236 24.4122 100.311 24.3349C100.367 24.2881 100.42 24.2371 100.468 24.1823C100.521 24.0574 100.542 23.9208 100.527 23.7858C100.533 23.6762 100.544 23.567 100.561 23.4587C100.6 23.2576 100.65 23.059 100.712 22.8639C100.78 22.636 100.879 22.4185 101.007 22.2176C101.135 22.0104 101.282 21.8159 101.447 21.6368C101.588 21.4796 101.749 21.3423 101.927 21.2284C102.052 21.1389 102.201 21.0879 102.355 21.0817C102.805 21.0817 103.029 21.346 103.029 21.8747C103.024 22.0922 102.946 22.3016 102.807 22.4694C102.727 22.5701 102.64 22.6654 102.547 22.7549C102.446 22.854 102.327 22.9531 102.197 23.0721C102.066 23.191 101.961 23.2703 101.871 23.3556L101.733 23.4844C101.705 23.5091 101.684 23.54 101.671 23.5744C101.658 23.6089 101.653 23.646 101.657 23.6827C101.69 23.9686 101.771 24.2468 101.897 24.5054C101.984 24.6779 102.084 24.8662 102.197 25.0704C102.31 25.2746 102.438 25.4947 102.593 25.7286C102.611 25.7564 102.625 25.7801 102.643 25.8059L104.958 25.7008L105.071 25.6096C105.357 25.377 105.642 25.1312 105.928 24.8722C106.223 24.6065 106.469 24.3746 106.661 24.1763L107.212 23.6173C107.387 23.4448 107.516 23.31 107.599 23.2208C107.639 23.167 107.686 23.119 107.74 23.078C107.783 23.0786 107.824 23.0957 107.855 23.1256C107.893 23.1588 107.925 23.1984 107.95 23.2426C107.978 23.2904 108 23.3417 108.015 23.3952C108.03 23.4441 108.038 23.4948 108.039 23.5459C108.035 23.6403 108.012 23.7329 107.97 23.8175C107.918 23.9263 107.856 24.0299 107.785 24.1268C107.704 24.2396 107.618 24.3481 107.525 24.4519C107.428 24.5609 107.327 24.67 107.236 24.777C107.145 24.8841 107.077 24.9515 106.99 25.0407C106.903 25.1299 106.806 25.2389 106.697 25.338L106.39 25.6414C107.545 25.6077 108.8 25.6414 109.165 25.9705C109.314 26.131 109.215 26.3114 109.115 26.4819H109.1Z" fill="white"/>
<path d="M43.6721 37.1357C43.6721 36.2932 43.113 35.8412 42.4251 35.8412C41.7372 35.8412 41.192 36.2654 41.192 37.1357C41.1836 37.3021 41.2094 37.4684 41.2677 37.6245C41.3261 37.7805 41.4158 37.9229 41.5314 38.0429C41.6469 38.1629 41.7858 38.258 41.9395 38.3222C42.0933 38.3864 42.2585 38.4185 42.4251 38.4164C42.7592 38.4086 43.0769 38.2701 43.3101 38.0307C43.5432 37.7912 43.6732 37.4699 43.6721 37.1357Z" fill="white"/>
<path d="M63.8082 26.1233C63.4888 26.4159 63.1539 26.6912 62.805 26.948C62.3943 27.2637 61.9429 27.5224 61.4629 27.7172L63.9568 27.6022C63.9185 27.4997 63.8861 27.3951 63.8597 27.289C63.7761 26.9062 63.7587 26.5119 63.8082 26.1233Z" fill="white"/>
<path d="M53.378 26.3293C52.6953 27.0094 51.9293 27.6002 51.0981 28.0878L50.8999 28.2048L53.4335 28.0878C53.2575 27.5173 53.2384 26.9099 53.378 26.3293Z" fill="white"/>
<path d="M58.4612 26.4878C57.9893 26.9963 57.4875 27.4763 56.9585 27.9251L59.6249 27.8022L59.5417 27.7744C59.2666 27.6702 59.0229 27.4972 58.8337 27.2719C58.6446 27.0467 58.5163 26.7767 58.4612 26.4878Z" fill="white"/>
<path d="M57.6861 25.9706C58.2522 25.1702 58.5587 24.2152 58.5643 23.2348C58.5643 23.1436 58.5643 23.0544 58.5643 22.9672C58.5709 22.8247 58.5274 22.6844 58.4414 22.5707C58.371 22.5154 58.2885 22.4774 58.2007 22.4598C58.1129 22.4423 58.0222 22.4456 57.9359 22.4696C57.4381 22.5596 56.971 22.7737 56.5779 23.0921C55.4776 23.9505 54.7619 25.2966 54.4864 26.6486C54.4165 26.9132 54.4117 27.1907 54.4725 27.4575C54.4876 27.529 54.5184 27.5964 54.5626 27.6546C54.6068 27.7129 54.6634 27.7607 54.7282 27.7945C54.8638 27.8351 55.0091 27.8289 55.1406 27.7767C56.1674 27.4767 57.0638 26.8407 57.6861 25.9706Z" fill="white"/>
</g>
<defs>
<clipPath id="clip0_471_3068">
<rect width="113" height="44.8389" fill="white"/>
</clipPath>
</defs>
</svg>
