<svg width="57" height="57" viewBox="0 0 57 57" fill="none" xmlns="http://www.w3.org/2000/svg">
<g filter="url(#filter0_di_471_2647)">
<path d="M28.8014 11C19.5356 11 11.9926 18.8372 11.9893 28.4727C11.9876 31.5527 12.7634 34.5595 14.2342 37.209L11.9531 46L20.7585 43.8364C23.2138 45.2294 25.9778 45.9607 28.7915 45.9624H28.7981C38.0622 45.9624 45.6019 38.1235 45.607 28.4897C45.6103 23.819 43.8637 19.4275 40.6899 16.1235C37.516 12.8213 33.298 11.0018 28.8014 11ZM28.7981 14.5C32.3927 14.5017 35.7708 15.9591 38.3102 18.5981C40.8496 21.2406 42.2446 24.7518 42.2413 28.4863C42.2379 36.1933 36.2095 42.4624 28.7948 42.4624C26.5516 42.4607 24.3295 41.8749 22.3724 40.7637L21.2384 40.1211L19.9861 40.4287L16.673 41.2422L17.4816 38.1182L17.8464 36.7168L17.1496 35.459C15.975 33.345 15.3533 30.9279 15.355 28.4727C15.3584 20.7692 21.3885 14.5 28.7981 14.5ZM22.8522 20.4062C22.5712 20.4062 22.1168 20.5156 21.7314 20.9531C21.3461 21.3889 20.2589 22.4443 20.2589 24.5933C20.2589 26.7423 21.7643 28.8196 21.9747 29.1118C22.1833 29.4023 24.8804 33.9517 29.1498 35.7017C32.6973 37.1559 33.4178 36.8689 34.1885 36.7954C34.9593 36.7237 36.675 35.741 37.0251 34.7207C37.3751 33.7005 37.3759 32.8228 37.2716 32.6426C37.1672 32.4606 36.887 32.3521 36.4663 32.1333C36.0473 31.9146 33.9823 30.8601 33.5969 30.7148C33.2115 30.5696 32.9296 30.4961 32.6503 30.9336C32.3709 31.3711 31.5681 32.3521 31.3224 32.6426C31.0767 32.9348 30.8327 32.9741 30.412 32.7554C29.9912 32.5349 28.6385 32.0725 27.0331 30.585C25.7844 29.4282 24.9419 28.001 24.6962 27.5635C24.4521 27.1277 24.6732 26.8884 24.8835 26.6714C25.072 26.4754 25.3009 26.1613 25.5113 25.9058C25.72 25.6503 25.7923 25.4682 25.932 25.1777C26.0717 24.8872 26.0002 24.6309 25.8959 24.4121C25.7915 24.1934 24.9744 22.0364 24.6008 21.1719C24.2861 20.4456 23.9538 20.4288 23.6542 20.4165C23.4102 20.406 23.1316 20.4062 22.8522 20.4062Z" fill="url(#paint0_linear_471_2647)"/>
</g>
<defs>
<filter id="filter0_di_471_2647" x="0.953125" y="0" width="55.6538" height="57" filterUnits="userSpaceOnUse" color-interpolation-filters="sRGB">
<feFlood flood-opacity="0" result="BackgroundImageFix"/>
<feColorMatrix in="SourceAlpha" type="matrix" values="0 0 0 0 0 0 0 0 0 0 0 0 0 0 0 0 0 0 127 0" result="hardAlpha"/>
<feOffset/>
<feGaussianBlur stdDeviation="5.5"/>
<feComposite in2="hardAlpha" operator="out"/>
<feColorMatrix type="matrix" values="0 0 0 0 0.858824 0 0 0 0 0.227451 0 0 0 0 0.705882 0 0 0 1 0"/>
<feBlend mode="normal" in2="BackgroundImageFix" result="effect1_dropShadow_471_2647"/>
<feBlend mode="normal" in="SourceGraphic" in2="effect1_dropShadow_471_2647" result="shape"/>
<feColorMatrix in="SourceAlpha" type="matrix" values="0 0 0 0 0 0 0 0 0 0 0 0 0 0 0 0 0 0 127 0" result="hardAlpha"/>
<feOffset dx="3.33333" dy="-6.66667"/>
<feGaussianBlur stdDeviation="6.66667"/>
<feComposite in2="hardAlpha" operator="arithmetic" k2="-1" k3="1"/>
<feColorMatrix type="matrix" values="0 0 0 0 1 0 0 0 0 1 0 0 0 0 1 0 0 0 0.25 0"/>
<feBlend mode="normal" in2="shape" result="effect2_innerShadow_471_2647"/>
</filter>
<linearGradient id="paint0_linear_471_2647" x1="12.2876" y1="11" x2="12.2876" y2="46" gradientUnits="userSpaceOnUse">
<stop stop-color="#DA3AB4"/>
<stop offset="1" stop-color="#9B3AAD"/>
</linearGradient>
</defs>
</svg>
